<?xml version="1.0" encoding="UTF-8" standalone="no"?>
<svg
   width="921.79218pt"
   height="327.67691pt"
   viewBox="0 0 921.79218 327.67691"
   version="1.1"
   id="svg1119"
   sodipodi:docname="pd_dist_svratio_all_edit.svg"
   inkscape:version="1.1.2 (b8e25be8, 2022-02-05)"
   xmlns:inkscape="http://www.inkscape.org/namespaces/inkscape"
   xmlns:sodipodi="http://sodipodi.sourceforge.net/DTD/sodipodi-0.dtd"
   xmlns:xlink="http://www.w3.org/1999/xlink"
   xmlns="http://www.w3.org/2000/svg"
   xmlns:svg="http://www.w3.org/2000/svg"
   xmlns:rdf="http://www.w3.org/1999/02/22-rdf-syntax-ns#"
   xmlns:cc="http://creativecommons.org/ns#"
   xmlns:dc="http://purl.org/dc/elements/1.1/">
  <sodipodi:namedview
     id="namedview1121"
     pagecolor="#ffffff"
     bordercolor="#666666"
     borderopacity="1.0"
     inkscape:pageshadow="2"
     inkscape:pageopacity="0.0"
     inkscape:pagecheckerboard="0"
     inkscape:document-units="pt"
     showgrid="false"
     fit-margin-top="0"
     fit-margin-left="0"
     fit-margin-right="0"
     fit-margin-bottom="0"
     inkscape:zoom="0.51462766"
     inkscape:cx="570.31525"
     inkscape:cy="142.82171"
     inkscape:window-width="1312"
     inkscape:window-height="969"
     inkscape:window-x="0"
     inkscape:window-y="25"
     inkscape:window-maximized="0"
     inkscape:current-layer="svg1119" />
  <metadata
     id="metadata824">
    <rdf:RDF>
      <cc:Work>
        <dc:type
           rdf:resource="http://purl.org/dc/dcmitype/StillImage" />
        <dc:date>2024-03-18T20:04:39.173405</dc:date>
        <dc:format>image/svg+xml</dc:format>
        <dc:creator>
          <cc:Agent>
            <dc:title>Matplotlib v3.8.3, https://matplotlib.org/</dc:title>
          </cc:Agent>
        </dc:creator>
      </cc:Work>
    </rdf:RDF>
  </metadata>
  <defs
     id="defs828">
    <marker
       style="overflow:visible"
       id="Arrow2Mend"
       refX="0"
       refY="0"
       orient="auto"
       inkscape:stockid="Arrow2Mend"
       inkscape:isstock="true">
      <path
         transform="scale(-0.6)"
         d="M 8.7185878,4.0337352 -2.2072895,0.01601326 8.7185884,-4.0017078 c -1.7454984,2.3720609 -1.7354408,5.6174519 -6e-7,8.035443 z"
         style="fill:context-stroke;fill-rule:evenodd;stroke:context-stroke;stroke-width:0.625;stroke-linejoin:round"
         id="path1607" />
    </marker>
    <style
       type="text/css"
       id="style826">*{stroke-linejoin: round; stroke-linecap: butt}</style>
    <marker
       style="overflow:visible"
       id="Arrow2Mend-7"
       refX="0"
       refY="0"
       orient="auto"
       inkscape:stockid="Arrow2Mend"
       inkscape:isstock="true">
      <path
         transform="scale(-0.6)"
         d="M 8.7185878,4.0337352 -2.2072895,0.01601326 8.7185884,-4.0017078 c -1.7454984,2.3720609 -1.7354408,5.6174519 -6e-7,8.035443 z"
         style="fill:context-stroke;fill-rule:evenodd;stroke:context-stroke;stroke-width:0.625;stroke-linejoin:round"
         id="path1607-0" />
    </marker>
    <style
       type="text/css"
       id="style9719">*{stroke-linejoin: round; stroke-linecap: butt}</style>
    <path
       id="m0177f32f7f"
       d="M 0,0 V 3.5"
       style="stroke:#000000;stroke-width:0.8" />
    <path
       id="m5a8edd9328"
       d="M 0,0 H -3.5"
       style="stroke:#000000;stroke-width:0.8" />
    <path
       id="mf24659552a"
       d="M 0,0 H 3.5"
       style="stroke:#000000;stroke-width:0.8" />
    <clipPath
       id="p5e6813a30b">
      <rect
         x="53.12656"
         y="12.568359"
         width="628.53876"
         height="267.53525"
         id="rect10034" />
    </clipPath>
    <clipPath
       id="p0f344d1813">
      <rect
         x="720.94897"
         y="12.568359"
         width="13.376762"
         height="267.53525"
         id="rect10037" />
    </clipPath>
  </defs>
  <g
     id="patch_2"
     transform="translate(-7.1991286,-7.1554699)">
    <path
       d="M 49.626563,283.63625 H 838.8 V 10.188354 H 49.626563 Z"
       style="fill:#ffffff"
       id="path833" />
  </g>
  <g
     id="QuadContourSet_1"
     transform="translate(-7.1991286,-7.1554699)">
    <path
       d="m 398.92481,272.98515 3.8195,0.2675 3.81949,0.16064 3.81949,0.0767 3.8195,0.007 3.81949,-0.0577 3.81949,-0.12144 3.8195,-0.18798 3.81949,-0.25584 2.8934,-0.23021 0.92609,-0.0372 3.8195,-0.14722 3.81949,-0.13091 3.8195,-0.0877 3.81949,-0.0276 3.81949,0.0291 3.8195,0.0663 3.81949,0.0807 3.81949,0.0786 3.8195,0.0678 3.81949,0.054 3.81949,0.0402 1.89149,0.0139 1.92801,0.0319 3.81949,0.0384 3.8195,0.0161 3.81949,-0.002 3.81949,-0.0154 3.8195,-0.0225 3.81949,-0.0233 3.81949,-0.0192 1.13587,-0.004 2.68363,-0.004 3.81949,-0.004 3.81949,-0.004 3.8195,-0.006 3.81949,-0.0115 3.81949,-0.0181 3.8195,-0.0254 3.81949,-0.0327 3.8195,-0.04 3.81949,-0.0474 3.81949,-0.0561 3.8195,-0.067 3.81949,-0.0816 3.81949,-0.1009 3.8195,-0.12631 3.81949,-0.15942 3.81949,-0.20245 3.8195,-0.25826 1.61473,-0.12893 2.20476,-0.0948 3.8195,-0.1935 3.81949,-0.2371 3.81949,-0.28458 3.8195,-0.3284 2.66902,-0.23576 1.15047,-0.0574 3.81949,-0.16543 3.8195,-0.13728 3.81949,-0.0908 3.8195,-0.0392 3.81949,-4.2e-4 3.81949,0.0125 3.8195,-0.002 3.81949,-0.0405 3.81949,-0.0958 3.8195,-0.16539 3.81949,-0.24908 3.77575,-0.34293 0.0437,-0.003 3.8195,-0.25939 3.81949,-0.31616 3.81949,-0.36696 3.8195,-0.40419 0.25657,-0.0248 3.56292,-0.24651 3.8195,-0.2733 3.81949,-0.29505 3.81949,-0.34028 2.11976,-0.21897 1.69974,-0.14817 3.81949,-0.41101 3.81949,-0.55782 1.48866,-0.25711 2.33084,-0.39309 3.81949,-0.75603 1.11571,-0.22499 2.70379,-0.53183 3.81949,-0.71801 0.81126,-0.12427 3.00823,-0.43654 3.8195,-0.4535 3.81949,-0.38441 1.07474,-0.0997 2.74475,-0.29306 3.8195,-0.5193 2.96551,-0.56175 0.85398,-0.28603 2.4469,-1.08808 0.68678,-1.37411 -0.52776,-1.37411 -1.03791,-1.37411 -1.14542,-1.37411 -0.42259,-0.74588 -0.25702,-0.62823 0.18658,-1.37411 0.0704,-0.0783 1.32771,-1.29581 2.17308,-1.37411 0.3187,-0.15809 2.75237,-1.21602 1.06713,-0.45107 2.47792,-0.92304 1.34157,-0.51145 2.59673,-0.86266 1.22276,-0.44245 2.92156,-0.93166 0.89794,-0.34829 2.86713,-1.02582 0.95236,-0.51626 1.64124,-0.85785 1.26182,-1.37411 0.31723,-1.37411 -0.25248,-1.37411 -0.31545,-1.37411 0.2328,-1.37411 0.93433,-1.37411 v 0 l 1.34977,-1.37411 0.83993,-1.37411 -0.21969,-1.37411 -1.77187,-1.37411 -0.19814,-0.0885 -3.09302,-1.28565 -0.72647,-0.27514 -2.7355,-1.09897 -1.08399,-0.89016 -0.4494,-0.48395 0.4494,-1.16561 0.0881,-0.2085 1.71648,-1.37411 1.76034,-1.37411 0.25461,-0.21482 1.56404,-1.15929 1.75805,-1.37411 0.4974,-0.33828 1.82847,-1.03583 1.99103,-0.9359 1.0998,-0.43821 2.71969,-0.98302 1.20206,-0.39109 2.61744,-0.88068 1.51969,-0.49343 2.2998,-0.85881 1.37225,-0.5153 2.44724,-1.11193 0.57066,-0.26218 2.45093,-1.37411 0.79791,-0.59473 1.05645,-0.77938 1.01806,-1.37411 -0.0663,-1.37411 -1.20071,-1.37411 -0.80752,-0.55333 -1.10972,-0.82078 -2.04027,-1.37411 -0.66951,-0.44934 -1.24795,-0.92477 -1.89479,-1.37411 -0.67675,-0.69316 -0.66063,-0.68095 0.66063,-0.86377 0.41836,-0.51034 3.40113,-0.87041 1.78334,-0.5037 2.03616,-0.31894 3.81949,-0.72245 1.5088,-0.33272 2.31069,-0.4039 3.8195,-0.85679 0.45761,-0.11342 3.36188,-0.83443 1.83416,-0.53968 1.98534,-0.70067 1.80995,-0.67344 2.00954,-1.07652 0.59248,-0.29759 1.74466,-1.37411 0.77407,-1.37411 0.15159,-1.37411 -0.0909,-1.37411 0.10485,-1.37411 0.49015,-1.37411 0.0526,-0.10578 0.76558,-1.26833 0.52252,-1.37411 -0.20397,-1.37411 -1.08413,-1.12212 -0.23186,-0.25199 -2.73807,-1.37411 -0.84956,-0.27873 -3.81949,-1.00068 -0.46891,-0.0947 -3.35059,-0.65157 -3.81949,-0.54785 -1.45885,-0.17469 -2.36065,-0.38452 -3.81949,-0.60529 -2.24103,-0.3843 -1.57846,-0.46247 -2.79961,-0.91164 -1.01989,-0.46354 -2.17982,-0.91057 -1.63967,-0.58517 -3.21014,-0.78894 -0.60935,-0.11497 -3.8195,-0.43695 -3.81949,-0.1764 -3.8195,-0.007 -3.81949,0.0904 -3.81949,0.12076 -3.8195,0.0812 -3.81949,-0.031 -3.81949,-0.20484 -3.8195,-0.40544 -1.83656,-0.28988 -1.98293,-0.88698 -0.93098,-0.48713 0.93098,-0.54397 1.96675,-0.83014 1.85274,-0.31549 3.8195,-0.6956 1.565,-0.36302 2.25449,-0.50206 2.87657,-0.87205 0.94292,-0.44595 1.65679,-0.92816 0.47341,-1.37411 -1.97327,-1.37411 -0.15693,-0.0493 -3.81949,-0.85805 -3.81949,-0.45146 -0.32272,-0.0153 -3.49678,-0.16308 -3.81949,0.0341 -1.91594,0.12901 -1.90355,0.12569 -3.8195,0.47039 -3.81949,0.76455 -0.0565,0.0135 -3.76299,0.85289 -2.5086,0.52122 -1.3109,0.25615 -3.81949,0.45292 -3.81949,0.17521 -3.8195,-0.0282 -3.81949,-0.16381 -3.8195,-0.24 -3.81949,-0.26938 -2.503,-0.18289 -1.31649,-0.1044 -3.8195,-0.31054 -3.81949,-0.30371 -3.81949,-0.31096 -3.8195,-0.32558 -0.18874,-0.0189 -3.63075,-0.43168 -3.8195,-0.45206 -3.81949,-0.42571 -0.56696,-0.0647 -3.25253,-0.4628 -3.8195,-0.4889 -3.57642,-0.42241 -0.24307,-0.0392 -3.81949,-0.67862 -3.41951,-0.65632 -0.39999,-0.1152 -3.57674,-1.25891 -0.24275,-0.13093 -1.86779,-1.24318 -1.40112,-1.37411 -0.55058,-0.97133 -0.1883,-0.40278 -0.16969,-1.37411 0.10795,-1.37411 0.0936,-1.37411 -0.18993,-1.37411 -0.64555,-1.37411 -1.19453,-1.37411 -1.63306,-1.25206 -0.14886,-0.12205 -2.11835,-1.37411 -1.55228,-0.75673 -1.39799,-0.61738 -2.4215,-0.85261 -1.86136,-0.5215 -1.95814,-0.4977 -3.81949,-0.73292 -0.97656,-0.14349 -2.84294,-0.4891 -3.81949,-0.51594 -3.39454,-0.36907 -0.42495,-0.0785 -3.8195,-0.6122 -3.81949,-0.58301 -0.79298,-0.10044 -0.49966,-1.37411 1.29264,-0.44696 1.91808,-0.92715 1.90141,-0.67015 1.7746,-0.70396 2.0449,-1.01428 0.69932,-0.35983 0.39402,-1.37411 -1.09334,-0.47485 -3.8195,-0.83351 -0.81726,-0.0657 -3.00223,-0.16161 -3.81949,-0.0378 -3.8195,0.041 -3.81949,0.0394 -3.8195,-0.042 -3.81949,-0.20574 -3.81949,-0.45287 -2.69543,-0.55441 -1.12407,-0.35287 -2.41047,-1.02124 -1.40902,-0.81747 -0.8523,-0.55664 -2.85549,-1.37411 -0.1117,-0.0306 -3.8195,-1.13638 -0.67965,-0.2071 -3.13984,-0.7418 -2.43967,-0.63231 -1.37982,-0.35619 -3.2542,-1.01792 -0.5653,-0.224 -2.23422,-1.15011 -1.54718,-1.374114 -0.0381,-0.07983 -0.44963,-1.294281 -0.20068,-1.37411 -0.3482,-1.37411 -0.86132,-1.37411 -1.72729,-1.37411 -0.23238,-0.139917 -2.23999,-1.234193 -1.5795,-0.743728 -1.52084,-0.630382 -2.29865,-1.261991 -0.2023,-0.112119 -0.64249,-1.37411 0.70221,-1.37411 0.14258,-0.165461 1.90415,-1.208649 1.91534,-1.231037 3.81949,-0.04912 3.8195,0.965636 0.84238,0.314519 2.97711,0.690559 3.17617,0.683551 0.64333,0.106026 3.81949,0.521263 3.81949,0.306656 3.8195,0.127558 3.81949,-0.03159 3.81949,-0.191207 3.8195,-0.388541 2.62261,-0.450169 1.19688,-0.27486 3.15971,-1.09925 0.65978,-0.493227 1.01418,-0.880883 0.15219,-1.37411 -1.04212,-1.37411 -0.12425,-0.09398 -1.74065,-1.280134 -2.07884,-1.305716 -0.12109,-0.06839 -2.09366,-1.37411 -1.60474,-1.129936 -0.48677,-0.244174 -3.33273,-1.297726 -0.50596,-0.07638 -3.31353,-0.362457 -3.81949,0.03017 -3.8195,0.312599 -0.13211,0.01969 -3.68738,0.566412 -3.59474,0.807698 -0.22475,0.05879 -3.8195,1.268817 -0.12717,0.0465 -3.11476,1.37411 -0.57756,0.33408 -2.24597,1.04003 -1.57353,0.983397 -1.51117,0.390713 -2.30832,0.889095 -3.81949,-0.580877 -1.09606,-0.308218 -2.72344,-0.352709 -3.81949,-0.514316 -3.81949,-0.374643 -2.15444,-0.132442 -1.66506,-0.09573 -3.81949,-0.09369 -3.81949,0.04442 -3.0763,0.144994 -0.7432,0.02861 -3.81949,0.246276 -3.81949,0.337677 -3.8195,0.42944 -2.49608,0.332108 -1.32341,0.150397 -3.8195,0.461663 -3.81949,0.520295 -1.62966,0.241755 -2.18983,0.286461 -3.8195,0.548636 -3.17403,0.539013 -0.64546,0.105812 -3.81949,0.675609 -2.84248,0.592689 -0.97702,0.207899 -3.81949,0.85088 -1.35417,0.315331 -2.46532,0.546913 -3.8195,0.814453 -0.0671,0.01274 -3.75234,0.577784 -3.8195,0.492736 -2.75493,0.30359 -1.06456,0.08942 -3.81949,0.279791 -3.8195,0.291337 -3.81949,0.360477 -2.79221,0.353087 -1.02728,0.111227 -3.8195,0.540094 -3.49751,0.722789 -0.32198,0.06758 -3.81949,0.988779 -1.00608,0.317749 -2.81342,1.04574 -0.81059,0.32837 -2.7007,1.37411 -0.3082,0.20562 -1.9056,1.16849 -1.66641,1.37411 -0.24749,0.260323 -1.2769,1.113787 -1.30461,1.374117 -1.1858,1.37411 -0.0522,0.0895 -0.87879,1.28457 -0.0582,1.37411 0.93699,0.75317 1.34833,0.62094 2.47116,0.5157 3.8195,0.37847 3.81949,0.15398 3.8195,0.1238 1.79835,0.20216 -0.28826,1.37411 -1.51009,0.9686 -0.47744,0.40551 -2.56286,1.37411 -0.7792,0.3555 -2.18775,1.01861 -1.63174,0.68898 -1.66934,0.68513 -2.15016,0.86823 -1.31956,0.50588 -2.49993,1.07785 -0.7323,0.29626 -2.60779,1.37411 -0.4794,0.40548 -1.28664,0.96863 -0.8282,1.37411 -0.0379,1.37411 0.58694,1.37411 1.09735,1.37411 0.4685,0.46573 0.79916,0.90838 0.91652,1.37411 0.0763,1.37411 -0.79697,1.37411 -0.99504,1.07926 -0.30143,0.29485 -1.61307,1.37411 -1.3793,1.37411 -0.5257,0.55126 -0.94243,0.82285 -1.62934,1.37411 -1.24772,0.99215 -0.56023,0.38196 -1.9868,1.37411 -1.27246,1.18656 -0.23861,0.18755 -1.09688,1.37411 -0.2746,1.37411 0.39708,1.37411 0.75013,1.37411 0.46288,1.28834 0.0222,0.0858 -0.0222,0.0939 -0.40883,1.28022 -1.54825,1.37411 -1.86242,1.12473 -0.47575,0.24938 -3.08282,1.37411 -0.26092,0.11163 -3.08977,1.26248 -0.72972,0.33583 -2.42441,1.03828 -1.39509,0.71761 -1.47416,0.6565 -2.34533,1.14594 -0.59745,0.22817 -3.22204,1.05803 -1.37355,0.31608 -2.44595,0.41061 -3.81949,0.38562 -3.8195,0.15772 -3.81949,-0.0578 -3.81949,-0.2492 -3.8195,-0.39809 -1.89885,-0.2489 -1.92064,-0.34096 -3.81949,-0.72792 -1.65061,-0.30523 -2.16889,-0.57885 -3.38935,-0.79526 -0.43014,-0.15818 -3.81949,-1.1286 -0.45191,-0.0873 -3.36759,-1.01976 -2.78216,-0.35435 -1.03733,-0.17896 -1.94934,0.17896 -1.87015,0.15436 -3.29376,1.21975 -0.52574,0.1441 -2.62884,1.23001 -1.19065,0.37155 -2.44566,1.00256 -1.37384,0.38701 -3.09393,0.9871 -0.72556,0.16994 -3.81949,0.86447 -1.84259,0.3397 -1.97691,0.29214 -3.81949,0.31103 -3.81949,-0.0841 -3.49858,-0.51909 -0.32092,-0.0525 -3.81949,-0.84165 -2.32947,-0.47995 -1.49003,-0.26093 -3.81949,-0.51154 -3.81949,-0.30172 -3.8195,-0.12973 -3.81949,0.0127 -3.81949,0.13587 -3.8195,0.24513 -3.81949,0.33463 -3.81949,0.37999 -1.16789,0.0956 -2.65161,0.25011 -3.81949,0.19505 -3.81949,-0.0677 -3.8195,-0.32954 -0.40438,-0.0479 -3.41511,-0.31755 -3.8195,-0.28399 -3.81949,-0.13319 -3.81949,0.0486 -3.8195,0.2503 -3.44299,0.43583 -0.3765,0.0608 -3.81949,0.91037 -1.27085,0.40294 -2.25411,1.37411 -0.29454,1.02116 -0.10128,0.35295 0.10128,0.23229 0.53938,1.14182 0.0744,1.37411 -0.61373,0.37367 -1.64394,1.00044 -2.17555,0.58146 -3.20982,0.79265 -0.60967,0.0991 -3.8195,0.5318 -3.81949,0.48544 -2.09435,0.25777 -1.72515,0.17415 -3.81949,0.41844 -3.81949,0.52277 -1.55503,0.25875 -2.26447,0.37745 -3.81949,0.81175 -0.74437,0.18491 -3.07512,0.85464 -1.6357,0.51947 -2.1838,0.81858 -1.41009,0.55553 -2.4094,1.16888 -0.42446,0.20523 -2.26436,1.37411 -1.13067,0.97813 -0.48346,0.39598 -1.1173,1.37411 -0.60802,1.37411 -0.19837,1.37411 0.19152,1.37411 0.62969,1.37411 1.12518,1.37411 0.46076,0.4322 0.87758,0.94191 1.11297,1.37411 0.31271,1.37411 -0.77598,1.37411 -1.52728,1.33007 -0.0592,0.044 -2.573,1.37411 -1.18728,0.57049 -1.87736,0.80362 -1.94213,0.78746 -1.5466,0.58665 -2.27289,0.85852 -1.39029,0.51559 -2.42921,0.94629 -1.09577,0.42782 -2.72372,1.15936 -0.50925,0.21475 -3.03854,1.37411 -0.27171,0.12798 -2.755,1.24613 -1.06449,0.52772 -1.833431,0.84639 -1.986062,1.06848 -0.626391,0.30563 -2.334416,1.37411 -0.858687,0.68156 -1.011243,0.69255 -1.517535,1.37411 -1.22007,1.37411 -0.07064,0.0808 -1.308879,1.29333 -1.235685,1.37411 -0.965876,1.37411 -0.309054,0.67113 -0.398211,0.70298 -0.270419,1.37411 0.376052,1.37411 0.292578,0.34655 0.740654,1.02756 1.998053,1.37411 1.080787,0.50295 1.864602,0.87116 1.954891,0.797 1.362168,0.57711 2.457326,1.30276 0.114913,0.0714 1.050365,1.37411 0.350015,1.37411 0.316468,1.37411 0.826107,1.37411 1.16163,1.03601 0.33615,0.3381 1.62166,1.37411 1.28296,1.37411 0.43195,1.37411 -0.19406,1.37411 -0.3009,1.37411 -0.0793,1.37411 0.25455,1.37411 0.46644,1.06302 0.10984,0.31109 0.73676,1.37411 1.18452,1.37411 1.78838,1.29376 0.0919,0.0804 1.79994,1.37411 1.92762,1.27881 0.11141,0.0953 1.43224,1.37411 1.39102,1.37411 0.88483,0.82679 0.49489,0.54732 1.51356,1.37411 1.81104,1.21502 0.23349,0.15909 2.4727,1.37411 1.1133,0.48855 2.27611,0.88556 1.54339,0.49003 3.56991,0.88408 0.24958,0.0548 3.81949,0.6825 3.8195,0.46341 1.93195,0.17345 1.88754,0.18287 3.81949,0.28796 3.8195,0.22593 3.81949,0.18813 3.81949,0.159 3.8195,0.12679 3.81949,0.0859 3.8195,0.0365 3.81949,-0.0176 3.81949,-0.0717 3.8195,-0.12103 3.81949,-0.15983 3.81949,-0.18113 3.8195,-0.17727 3.81949,-0.14247 3.81949,-0.0764 3.8195,0.0136 3.81949,0.11264 3.8195,0.20167 3.81949,0.2635 3.81949,0.28864 1.92055,0.14841 1.89895,0.21096 3.81949,0.3806 3.81949,0.29528 3.8195,0.21584 3.81949,0.14736 3.81949,0.0906 2.84125,0.0335 0.97825,0.0197 3.81949,0.0149 3.81949,-0.034 0.0335,-5.7e-4 3.78597,-0.036 3.81949,-0.0435 3.8195,-0.041 3.81949,-0.031 3.81949,-0.0176 3.8195,-0.005 3.81949,0.003 3.81949,0.006 3.8195,0.004 3.81949,-0.003 3.8195,-0.0121 3.81949,-0.0237 3.81949,-0.0376 3.8195,-0.0538 3.81949,-0.0727 3.81949,-0.0943 3.8195,-0.11779 3.81949,-0.1405 3.81949,-0.15692 3.8195,-0.15776 3.81949,-0.13162 3.81949,-0.072 3.8195,0.0122 3.81949,0.0944 3.8195,0.14636 3.81949,0.15765 3.81949,0.13752 3.8195,0.1034 3.81949,0.0719 3.81949,0.0566 3.8195,0.0688 3.81949,0.11233 3.81949,0.17481 1.54596,0.0996 2.27354,0.23758 3.81949,0.43662 3.81949,0.37764 3.8195,0.28976 0.51783,0.0325 z m 66.38657,-14.08288 -1.45518,-0.0828 -3.81949,-0.21225 -3.81949,-0.20768 -3.8195,-0.19936 -3.81949,-0.18556 -3.81949,-0.1657 -3.8195,-0.14191 -3.81949,-0.11931 -2.18662,-0.0595 -1.63288,-0.0449 -3.81949,-0.10427 -3.81949,-0.12499 -3.8195,-0.16829 -3.81949,-0.23398 -3.81949,-0.32076 -3.38577,-0.37691 -0.43373,-0.051 -3.81949,-0.5629 -3.81949,-0.72026 -0.18325,-0.04 -3.63625,-0.91392 -1.56752,-0.46019 -2.25197,-0.78577 -1.54273,-0.58834 -2.27677,-1.02186 -0.77341,-0.35225 -2.73685,-1.37411 -0.30923,-0.16206 -2.49729,-1.21205 -1.3222,-0.66079 -1.63813,-0.71332 -2.18137,-0.99371 -1.00262,-0.3804 -2.81687,-1.19751 -0.51452,-0.1766 -3.22121,-1.37411 -0.0838,-0.047 -3.00083,-1.32712 -0.81867,-0.48614 -2.15165,-0.88797 -1.66784,-0.74859 -2.81549,-0.62552 -1.004,-0.18444 -3.8195,0.0535 -0.70619,0.13097 -3.1133,0.70414 -1.8231,0.66997 -1.99639,0.72893 -1.47722,0.64518 -2.34228,0.87142 -1.31605,0.50269 -2.50344,0.8076 -1.89345,0.56651 -1.92605,0.51928 -3.69743,0.85483 -0.12206,0.0269 -3.81949,0.67957 -3.8195,0.46436 -3.28412,0.20326 -0.53537,0.033 -3.81949,0.0156 -0.9548,-0.0485 -2.8647,-0.14087 -3.81949,-0.37155 -3.81949,-0.54255 -1.73144,-0.31914 -2.08806,-0.34105 -3.81949,-0.76401 -1.14219,-0.26905 -2.6773,-0.56425 -3.30656,-0.80986 -0.51294,-0.12394 -3.81949,-1.05791 -0.61695,-0.19226 -3.20255,-1.18512 -0.45725,-0.18899 -2.39724,-1.37411 -0.965,-0.89413 -0.49968,-0.47998 -0.91961,-1.37411 -0.67833,-1.37411 -0.61399,-1.37411 -0.58448,-1.37411 -0.52316,-1.37411 -2.4e-4,-7e-4 -0.48322,-1.37341 -0.48492,-1.37411 -0.5498,-1.37411 -0.59848,-1.37411 -0.54313,-1.37411 -0.3478,-1.37411 -0.0332,-1.37411 0.36709,-1.37411 0.84248,-1.37411 1.39294,-1.37411 0.43804,-0.3225 1.49605,-1.05161 2.32344,-1.31626 0.1072,-0.0579 2.80407,-1.37411 0.90822,-0.40427 2.33244,-0.96984 1.48706,-0.55243 2.47306,-0.82168 1.34643,-0.39532 3.8195,-0.9669 0.0546,-0.0119 3.7649,-0.76639 3.54457,-0.60772 0.27492,-0.0469 3.8195,-0.57161 3.81949,-0.47921 2.75533,-0.27643 1.06416,-0.11279 3.8195,-0.30229 3.81949,-0.19313 3.81949,-0.0853 3.8195,0.0223 3.81949,0.13557 3.81949,0.26157 2.67033,0.27405 1.14917,0.13059 3.81949,0.5639 3.8195,0.67331 0.0415,0.006 3.77794,0.60413 3.81949,0.30403 3.8195,-0.20082 3.81949,-0.6985 0.0285,-0.009 3.791,-1.09373 0.74601,-0.28038 3.07349,-1.05226 0.77829,-0.32185 3.0412,-1.11669 0.60522,-0.25742 3.21427,-1.21092 0.38465,-0.16319 3.43485,-1.33565 0.0897,-0.0385 3.27963,-1.37411 0.45015,-0.18932 2.56815,-1.18479 1.25134,-0.58537 1.5888,-0.78874 2.2307,-1.08261 0.5885,-0.2915 2.98441,-1.37411 0.24658,-0.10298 3.10337,-1.27113 0.71613,-0.26634 3.0964,-1.10777 0.72309,-0.24639 3.45479,-1.12772 0.3647,-0.1205 3.8195,-1.21296 0.13385,-0.0406 3.68564,-1.19986 0.56553,-0.17425 3.25396,-1.10596 0.84921,-0.26815 2.97029,-1.04285 1.0389,-0.33126 2.78059,-0.97803 1.26554,-0.39608 2.55395,-0.86821 1.70497,-0.5059 2.11453,-0.6713 2.603,-0.70281 1.21649,-0.34707 3.8195,-0.89294 0.73797,-0.1341 3.08152,-0.58727 3.81949,-0.52473 3.05522,-0.26211 0.76428,-0.0696 3.81949,-0.16194 3.81949,0.004 3.8195,0.12924 1.84969,0.0984 1.9698,0.0826 3.81949,0.17373 3.8195,0.15271 3.81949,0.12197 3.8195,0.0976 3.81949,0.092 3.81949,0.1142 3.8195,0.17197 3.81949,0.27257 0.89502,0.0948 2.92447,0.3366 3.8195,0.64041 1.79645,0.3971 2.02304,0.46133 3.43427,0.91278 0.38522,0.0887 3.8195,0.91976 1.49679,0.36563 2.3227,0.45428 3.81949,0.75736 0.83361,0.16247 2.98589,0.50334 3.81949,0.65292 1.33517,0.21785 2.48433,0.37691 3.81949,0.5524 3.27227,0.4448 0.54722,0.0702 3.8195,0.42844 3.81949,0.39728 3.81949,0.36354 1.45394,0.1146 2.36556,0.1695 3.81949,0.20676 3.81949,0.12548 3.8195,0.0207 3.81949,-0.10225 3.8195,-0.23449 2.00895,-0.18568 1.81054,-0.22936 3.81949,-0.63637 2.48398,-0.50838 1.33552,-0.3291 3.74822,-1.04501 0.0713,-0.0185 3.81949,-0.9743 1.5459,-0.38135 2.2736,-0.44 3.81949,-0.64463 2.12866,-0.28948 1.69084,-0.18009 3.81949,-0.27418 3.81949,-0.15594 3.8195,-0.0177 3.81949,0.17902 3.47934,0.44886 0.34015,0.11667 1.98336,1.25744 0.31004,1.37411 0.18588,1.37411 0.72034,1.37411 0.61988,0.79303 0.33683,0.58108 0.62193,1.37411 0.0576,1.37411 -0.60589,1.37411 -0.41048,0.47526 -0.8486,0.89885 -1.63913,1.37411 -1.33177,1.09711 -0.32765,0.277 -1.29463,1.37411 -0.82553,1.37411 -0.5125,1.37411 -0.45943,1.37411 -0.39975,0.9186 -0.16861,0.45551 -0.65025,1.37411 -0.62107,1.37411 -0.42736,1.37411 -0.188,1.37411 -0.0511,1.37411 -0.0811,1.37411 -0.25273,1.37411 -0.5101,1.37411 -0.80019,1.37411 -0.0689,0.0891 -0.92316,1.28504 -1.12258,1.37411 -1.10862,1.37411 -0.66514,0.96207 -0.26046,0.41204 -0.6464,1.37411 -0.45267,1.37411 -0.36633,1.37411 -0.41581,1.37411 -0.57827,1.37411 -0.80555,1.37411 -0.294,0.39063 -0.70925,0.98348 -1.2198,1.37411 -1.41686,1.37411 -0.47358,0.43199 -1.00878,0.94212 -1.4974,1.37411 -1.31332,1.20445 -0.181,0.16966 -1.50022,1.37411 -1.6564,1.37411 -0.48187,0.35343 -1.40942,1.02068 -2.19513,1.37411 -0.21495,0.12233 -2.30053,1.25178 -1.51896,0.74707 -1.35702,0.62704 -2.46247,1.0204 -0.92492,0.35371 -2.89458,0.96833 -1.33507,0.40578 -2.48442,0.65567 -2.99774,0.71844 -0.82175,0.17584 -3.8195,0.79165 -2.00174,0.40662 -1.81775,0.34849 -3.8195,0.74631 -1.37963,0.27931 -2.43986,0.47752 -3.81949,0.75175 -0.71637,0.14484 -3.10313,0.5959 -3.81949,0.69534 -0.45961,0.0829 -3.35988,0.56693 -3.8195,0.58514 -1.55848,0.22204 -2.26101,0.30729 -3.81949,0.46935 -3.8195,0.40356 -2.11556,0.19391 -1.70393,0.15728 -3.8195,0.30106 -3.81949,0.24322 -3.81949,0.1923 -3.8195,0.14876 -3.81949,0.11221 -3.81949,0.0813 -3.8195,0.0536 -3.81949,0.0264 -3.81949,-0.003 -3.8195,-0.0356 -3.81949,-0.072 -3.81949,-0.10997 -3.8195,-0.14617 -3.81949,-0.17699 -3.8195,-0.19988 -3.81949,-0.21426 -3.81949,-0.22142 z m 81.48595,-134.66278 0.78786,-1.37411 0.29987,-0.14134 3.41565,-1.23277 0.40385,-0.11199 3.81949,-0.67889 3.81949,-0.41177 3.8195,-0.10067 3.81949,0.40133 2.19284,0.90199 -2.19284,1.13078 -0.31684,0.24333 -3.50265,1.08301 -0.88764,0.2911 -2.93186,0.56426 -3.81949,0.54007 -3.81949,0.13461 -3.8195,-0.6766 z m -270.09631,26.20358 3.81949,0.44336 3.81949,0.30624 3.8195,0.18048 3.81949,0.008 3.8195,-0.32834 2.71186,-0.70535 1.10763,-0.23337 3.2951,-1.14074 0.52439,-0.20695 2.38114,-1.16716 1.41205,-1.37411 -0.58026,-1.37411 -3.21293,-1.30083 -0.23089,-0.0733 -3.5886,-0.70855 -3.81949,-0.56768 -0.8342,-0.0979 -2.9853,-0.37025 -3.81949,-0.3916 -3.8195,-0.30094 -3.81949,-0.15963 -3.81949,0.10627 -3.8195,0.65778 -1.20824,0.45837 -2.61125,0.94009 -0.80901,0.43402 -1.9899,1.37411 -0.69115,1.37411 0.85514,1.37411 2.63492,1.26586 0.28769,0.10825 3.5318,0.85048 3.2159,0.52363 z m 30.55595,-36.90552 3.81949,0.57601 3.81949,0.0295 3.8195,-0.34163 3.22502,-0.55483 0.59447,-0.15749 3.35655,-1.21662 0.46294,-0.48894 0.73491,-0.88517 -0.73491,-0.66528 -1.42487,-0.70883 -2.39462,-0.39417 -3.81949,-0.14744 -3.8195,0.22174 -2.28806,0.31987 -1.53143,0.30097 -3.73749,1.07314 -0.082,0.052 -1.73929,1.32211 0.83331,1.37411 z m 263.54505,-8.3629 3.8195,0.23186 3.81949,0.006 3.8195,-0.18016 2.33991,-0.2305 1.47958,-0.16144 3.81949,-0.62589 2.56328,-0.58678 1.25622,-0.45232 2.04882,-0.92179 0.98509,-1.37411 -0.34903,-1.374114 -0.0353,-1.37411 1.16987,-0.892279 0.49619,-0.481831 3.12214,-1.37411 0.20116,-0.06309 3.56199,-1.311019 0.25751,-0.09107 3.28305,-1.283037 0.53644,-0.277633 2.03917,-1.096477 1.01842,-1.37411 -1.24627,-1.37411 -1.81132,-0.573391 -3.81949,-0.710066 -1.04634,-0.09065 -2.77316,-0.182721 -3.81949,-0.04457 -3.81949,0.130668 -1.30176,0.09662 -2.51774,0.199292 -3.81949,0.464029 -3.70807,0.710789 -0.11142,0.02796 -3.8195,1.260141 -0.19952,0.08601 -2.28995,1.37411 -1.28152,1.37411 -0.0485,0.139128 -0.44528,1.234982 0.19365,1.37411 0.25163,0.746737 0.28834,0.627373 -0.0508,1.37411 -0.23756,0.198037 -1.26392,1.176073 -2.55558,1.242949 -0.26048,0.13116 -2.66637,1.37411 -0.89264,0.96472 -0.44614,0.40939 0.44614,0.35709 2.49866,1.01702 z m -263.54505,-11.942473 3.81949,0.455728 3.81949,0.124757 3.8195,-0.134671 3.81949,-0.373354 3.81949,-0.634597 0.15671,-0.03508 3.66279,-1.323689 0.11594,-0.05042 1.02234,-1.37411 -0.959,-1.37411 -0.17928,-0.117335 -2.92203,-1.256775 -0.89747,-0.35963 -3.81949,-0.652121 -3.81949,0.05251 -3.8195,0.507359 -1.95862,0.451885 -1.86087,0.343918 -3.81949,1.010546 -0.0596,0.01965 -3.27151,1.37411 -0.48843,0.594024 -0.59594,0.780086 0.59594,0.548508 1.21227,0.825602 z m 87.84835,-12.094052 3.81949,0.381699 3.8195,-0.02392 3.81949,-0.352014 3.81949,-0.681287 0.75429,-0.194641 3.06521,-1.320547 0.1029,-0.05356 0.52572,-1.37411 -0.62862,-0.451535 -1.92818,-0.922575 -1.89132,-0.384284 -3.81949,-0.35004 -3.81949,0.01017 -3.8195,0.31297 -2.57606,0.411186 -1.24343,0.289045 -3.24795,1.085065 -0.57155,0.510881 -0.84308,0.863229 0.84308,1.069153 0.34238,0.304957 z"
       clip-path="url(#pd76935b518)"
       style="fill:#ededed"
       id="path836" />
    <path
       d="m 467.6757,259.03925 3.81949,0.22142 3.81949,0.21426 3.8195,0.19988 3.81949,0.17699 3.8195,0.14617 3.81949,0.10997 3.81949,0.072 3.8195,0.0356 3.81949,0.003 3.81949,-0.0264 3.8195,-0.0536 3.81949,-0.0813 3.81949,-0.11221 3.8195,-0.14876 3.81949,-0.1923 3.81949,-0.24322 3.8195,-0.30106 1.70393,-0.15728 2.11556,-0.19391 3.8195,-0.40356 3.81949,-0.46935 2.26101,-0.30729 1.55848,-0.22204 3.8195,-0.58514 3.35988,-0.56693 0.45961,-0.0829 3.81949,-0.69534 3.10313,-0.5959 0.71637,-0.14484 3.81949,-0.75175 2.43986,-0.47752 1.37963,-0.27931 3.8195,-0.74631 1.81775,-0.34849 2.00174,-0.40662 3.8195,-0.79165 0.82175,-0.17584 2.99774,-0.71844 2.48442,-0.65567 1.33507,-0.40578 2.89458,-0.96833 0.92492,-0.35371 2.46247,-1.0204 1.35702,-0.62704 1.51896,-0.74707 2.30053,-1.25178 0.21495,-0.12233 2.19513,-1.37411 1.40942,-1.02068 0.48187,-0.35343 1.6564,-1.37411 1.50022,-1.37411 0.181,-0.16966 1.31332,-1.20445 1.4974,-1.37411 1.00878,-0.94212 0.47358,-0.43199 1.41686,-1.37411 1.2198,-1.37411 0.70925,-0.98348 0.294,-0.39063 0.80555,-1.37411 0.57827,-1.37411 0.41581,-1.37411 0.36633,-1.37411 0.45267,-1.37411 0.6464,-1.37411 0.26046,-0.41204 0.66514,-0.96207 1.10862,-1.37411 1.12258,-1.37411 0.92316,-1.28504 0.0689,-0.0891 0.80019,-1.37411 0.5101,-1.37411 0.25273,-1.37411 0.0811,-1.37411 0.0511,-1.37411 0.188,-1.37411 0.42736,-1.37411 0.62107,-1.37411 0.65025,-1.37411 0.16861,-0.45551 0.39975,-0.9186 0.45943,-1.37411 0.5125,-1.37411 0.82553,-1.37411 1.29463,-1.37411 0.32765,-0.277 1.33177,-1.09711 1.63913,-1.37411 0.8486,-0.89885 0.41048,-0.47526 0.60589,-1.37411 -0.0576,-1.37411 -0.62193,-1.37411 -0.33683,-0.58108 -0.61988,-0.79303 -0.72034,-1.37411 -0.18588,-1.37411 -0.31004,-1.37411 -1.98336,-1.25744 -0.34015,-0.11667 -3.47934,-0.44886 -3.81949,-0.17902 -3.8195,0.0177 -3.81949,0.15594 -3.81949,0.27418 -1.69084,0.18009 -2.12866,0.28948 -3.81949,0.64463 -2.2736,0.44 -1.5459,0.38135 -3.81949,0.9743 -0.0713,0.0185 -3.74822,1.04501 -1.33552,0.3291 -2.48398,0.50838 -3.81949,0.63637 -1.81054,0.22936 -2.00895,0.18568 -3.8195,0.23449 -3.81949,0.10225 -3.8195,-0.0207 -3.81949,-0.12548 -3.81949,-0.20676 -2.36556,-0.1695 -1.45394,-0.1146 -3.81949,-0.36354 -3.81949,-0.39728 -3.8195,-0.42844 -0.54722,-0.0702 -3.27227,-0.4448 -3.81949,-0.5524 -2.48433,-0.37691 -1.33517,-0.21785 -3.81949,-0.65292 -2.98589,-0.50334 -0.83361,-0.16247 -3.81949,-0.75736 -2.3227,-0.45428 -1.49679,-0.36563 -3.8195,-0.91976 -0.38522,-0.0887 -3.43427,-0.91278 -2.02304,-0.46133 -1.79645,-0.3971 -3.8195,-0.64041 -2.92447,-0.3366 -0.89502,-0.0948 -3.81949,-0.27257 -3.8195,-0.17197 -3.81949,-0.1142 -3.81949,-0.092 -3.8195,-0.0976 -3.81949,-0.12197 -3.8195,-0.15271 -3.81949,-0.17373 -1.9698,-0.0826 -1.84969,-0.0984 -3.8195,-0.12924 -3.81949,-0.004 -3.81949,0.16194 -0.76428,0.0696 -3.05522,0.26211 -3.81949,0.52473 -3.08152,0.58727 -0.73797,0.1341 -3.8195,0.89294 -1.21649,0.34707 -2.603,0.70281 -2.11453,0.6713 -1.70497,0.5059 -2.55395,0.86821 -1.26554,0.39608 -2.78059,0.97803 -1.0389,0.33126 -2.97029,1.04285 -0.84921,0.26815 -3.25396,1.10596 -0.56553,0.17425 -3.68564,1.19986 -0.13385,0.0406 -3.8195,1.21296 -0.3647,0.1205 -3.45479,1.12772 -0.72309,0.24639 -3.0964,1.10777 -0.71613,0.26634 -3.10337,1.27113 -0.24658,0.10298 -2.98441,1.37411 -0.5885,0.2915 -2.2307,1.08261 -1.5888,0.78874 -1.25134,0.58537 -2.56815,1.18479 -0.45015,0.18932 -3.27963,1.37411 -0.0897,0.0385 -3.43485,1.33565 -0.38465,0.16319 -3.21427,1.21092 -0.60522,0.25742 -3.0412,1.11669 -0.77829,0.32185 -3.07349,1.05226 -0.74601,0.28038 -3.791,1.09373 -0.0285,0.009 -3.81949,0.6985 -3.8195,0.20082 -3.81949,-0.30403 -3.77794,-0.60413 -0.0415,-0.006 -3.8195,-0.67331 -3.81949,-0.5639 -1.14917,-0.13059 -2.67033,-0.27405 -3.81949,-0.26157 -3.81949,-0.13557 -3.8195,-0.0223 -3.81949,0.0853 -3.81949,0.19313 -3.8195,0.30229 -1.06416,0.11279 -2.75533,0.27643 -3.81949,0.47921 -3.8195,0.57161 -0.27492,0.0469 -3.54457,0.60772 -3.7649,0.76639 -0.0546,0.0119 -3.8195,0.9669 -1.34643,0.39532 -2.47306,0.82168 -1.48706,0.55243 -2.33244,0.96984 -0.90822,0.40427 -2.80407,1.37411 -0.1072,0.0579 -2.32344,1.31626 -1.49605,1.05161 -0.43804,0.3225 -1.39294,1.37411 -0.84248,1.37411 -0.36709,1.37411 0.0332,1.37411 0.3478,1.37411 0.54313,1.37411 0.59848,1.37411 0.5498,1.37411 0.48492,1.37411 0.48322,1.37341 2.4e-4,7e-4 0.52316,1.37411 0.58448,1.37411 0.61399,1.37411 0.67833,1.37411 0.91961,1.37411 0.49968,0.47998 0.965,0.89413 2.39724,1.37411 0.45725,0.18899 3.20255,1.18512 0.61695,0.19226 3.81949,1.05791 0.51294,0.12394 3.30656,0.80986 2.6773,0.56425 1.14219,0.26905 3.81949,0.76401 2.08806,0.34105 1.73144,0.31914 3.81949,0.54255 3.81949,0.37155 2.8647,0.14087 0.9548,0.0485 3.81949,-0.0156 0.53537,-0.033 3.28412,-0.20326 3.8195,-0.46436 3.81949,-0.67957 0.12206,-0.0269 3.69743,-0.85483 1.92605,-0.51928 1.89345,-0.56651 2.50344,-0.8076 1.31605,-0.50269 2.34228,-0.87142 1.47722,-0.64518 1.99639,-0.72893 1.8231,-0.66997 3.1133,-0.70414 0.70619,-0.13097 3.8195,-0.0535 1.004,0.18444 2.81549,0.62552 1.66784,0.74859 2.15165,0.88797 0.81867,0.48614 3.00083,1.32712 0.0838,0.047 3.22121,1.37411 0.51452,0.1766 2.81687,1.19751 1.00262,0.3804 2.18137,0.99371 1.63813,0.71332 1.3222,0.66079 2.49729,1.21205 0.30923,0.16206 2.73685,1.37411 0.77341,0.35225 2.27677,1.02186 1.54273,0.58834 2.25197,0.78577 1.56752,0.46019 3.63625,0.91392 0.18325,0.04 3.81949,0.72026 3.81949,0.5629 0.43373,0.051 3.38577,0.37691 3.81949,0.32076 3.81949,0.23398 3.8195,0.16829 3.81949,0.12499 3.81949,0.10427 1.63288,0.0449 2.18662,0.0595 3.81949,0.11931 3.8195,0.14191 3.81949,0.1657 3.81949,0.18556 3.8195,0.19936 3.81949,0.20768 3.81949,0.21225 1.45518,0.0828 z m 22.35521,-4.25931 -3.25774,-0.17958 -3.8195,-0.22629 -3.81949,-0.2406 -3.8195,-0.25917 -3.81949,-0.28643 -2.1774,-0.18204 -1.64209,-0.13695 -3.8195,-0.36088 -3.81949,-0.41077 -3.81949,-0.44939 -0.13847,-0.0161 -3.68103,-0.43371 -3.81949,-0.43132 -3.81949,-0.38703 -1.44229,-0.12205 -2.37721,-0.19323 -3.81949,-0.25591 -3.8195,-0.22555 -3.81949,-0.23007 -3.81949,-0.28005 -1.93093,-0.1893 -1.88857,-0.19266 -3.81949,-0.54794 -3.13642,-0.63351 -0.68307,-0.15482 -3.8195,-1.12132 -0.27372,-0.098 -3.37269,-1.37411 -0.17308,-0.0793 -2.54291,-1.29481 -1.27658,-0.70133 -1.15101,-0.67278 -2.24479,-1.37411 -0.4237,-0.26514 -1.69271,-1.10897 -1.95807,-1.37411 -0.16871,-0.12401 -1.66789,-1.2501 -1.64687,-1.37411 -0.50474,-0.47076 -1.00968,-0.90335 -1.34003,-1.37411 -1.12797,-1.37411 -0.34181,-0.52173 -0.62931,-0.85238 -0.73476,-1.37411 -0.4394,-1.37411 -0.15707,-1.37411 0.0804,-1.37411 0.25095,-1.37411 0.34813,-1.37411 0.38748,-1.37411 0.40293,-1.37411 0.4281,-1.37411 0.0626,-0.17991 0.376,-1.1942 0.53648,-1.37411 0.73115,-1.37411 1.05694,-1.37411 1.11892,-1.02233 0.37409,-0.35178 1.9282,-1.37411 1.51721,-0.87505 0.8662,-0.49906 2.73165,-1.37411 0.22164,-0.10358 2.82786,-1.27053 0.99164,-0.41603 2.45591,-0.95808 1.36358,-0.50748 2.57898,-0.86663 1.24051,-0.4129 3.26506,-0.96121 0.55444,-0.16987 3.81949,-1.03705 0.69526,-0.16719 3.12423,-0.81825 2.40725,-0.55586 1.41225,-0.3602 3.81949,-0.87708 0.64128,-0.13683 3.17821,-0.73546 3.02319,-0.63865 0.79631,-0.17857 3.81949,-0.81438 1.89916,-0.38116 1.92034,-0.40901 3.81949,-0.7763 0.96218,-0.1888 2.85731,-0.5945 3.8195,-0.74445 0.1895,-0.0352 3.62999,-0.67771 3.81949,-0.62218 0.51405,-0.0742 3.30545,-0.44807 3.81949,-0.42088 3.81949,-0.32758 2.70206,-0.17758 1.11744,-0.0701 3.81949,-0.18381 3.8195,-0.12547 3.81949,-0.071 3.81949,-0.0163 3.8195,0.0425 3.81949,0.10857 3.81949,0.18457 1.84845,0.13114 1.97105,0.13396 3.81949,0.35285 3.81949,0.45367 3.01278,0.43363 0.80672,0.11347 3.81949,0.60089 3.81949,0.65067 0.0524,0.009 3.76712,0.61812 3.81949,0.63074 0.77474,0.12525 3.04476,0.47871 3.81949,0.60515 1.83252,0.29025 1.98697,0.32431 3.8195,0.63056 2.51367,0.41924 1.30582,0.23559 3.81949,0.68583 2.48689,0.45269 1.33261,0.27437 3.81949,0.80625 1.33211,0.29349 2.48738,0.64264 2.60801,0.73147 1.21149,0.39129 2.83639,0.98282 0.9831,0.38293 2.39259,0.99118 1.42691,0.67694 1.3754,0.69717 2.24034,1.37411 0.20375,0.14791 1.59322,1.2262 1.44808,1.37411 0.77819,0.882 0.43208,0.49211 1.01281,1.37411 0.75875,1.37411 0.49383,1.37411 0.25401,1.37411 0.059,1.37411 -0.10229,1.37411 -0.24777,1.37411 -0.37342,1.37411 -0.45381,1.37411 -0.47042,1.37411 -0.44813,1.37411 -0.46534,1.37411 -0.44932,1.02085 -0.15252,0.35326 -0.86518,1.37411 -1.21627,1.37411 -1.54951,1.37411 -0.036,0.0281 -1.6619,1.34597 -1.80366,1.37411 -0.35393,0.2691 -1.38828,1.10501 -1.73921,1.37411 -0.69201,0.52818 -1.05735,0.84593 -1.90609,1.37411 -0.85605,0.52965 -1.32402,0.84446 -2.49548,1.31081 -0.11924,0.0633 -3.0289,1.37411 -0.67135,0.26744 -2.80689,1.10667 -1.0126,0.36466 -2.825,1.00945 -0.9945,0.33288 -3.10798,1.04123 -0.71151,0.22369 -3.65755,1.15042 -0.16194,0.0473 -3.8195,1.10444 -0.79841,0.2224 -3.02108,0.77143 -2.55612,0.60268 -1.26337,0.27401 -3.8195,0.74482 -2.10698,0.35528 -1.71251,0.26893 -3.8195,0.50391 -3.81949,0.40191 -2.4615,0.19936 -1.35799,0.10506 -3.8195,0.21454 -3.81949,0.1388 -3.81949,0.0701 -3.8195,0.007 -3.81949,-0.0519 -3.81949,-0.10601 -3.8195,-0.15354 -3.81949,-0.19198 z"
       clip-path="url(#pd76935b518)"
       style="fill:#c9c9c9"
       id="path838" />
    <path
       d="m 490.59266,254.81192 3.81949,0.19198 3.8195,0.15354 3.81949,0.10601 3.81949,0.0519 3.8195,-0.007 3.81949,-0.0701 3.81949,-0.1388 3.8195,-0.21454 1.35799,-0.10506 2.4615,-0.19936 3.81949,-0.40191 3.8195,-0.50391 1.71251,-0.26893 2.10698,-0.35528 3.8195,-0.74482 1.26337,-0.27401 2.55612,-0.60268 3.02108,-0.77143 0.79841,-0.2224 3.8195,-1.10444 0.16194,-0.0473 3.65755,-1.15042 0.71151,-0.22369 3.10798,-1.04123 0.9945,-0.33288 2.825,-1.00945 1.0126,-0.36466 2.80689,-1.10667 0.67135,-0.26744 3.0289,-1.37411 0.11924,-0.0633 2.49548,-1.31081 1.32402,-0.84446 0.85605,-0.52965 1.90609,-1.37411 1.05735,-0.84593 0.69201,-0.52818 1.73921,-1.37411 1.38828,-1.10501 0.35393,-0.2691 1.80366,-1.37411 1.6619,-1.34597 0.036,-0.0281 1.54951,-1.37411 1.21627,-1.37411 0.86518,-1.37411 0.15252,-0.35326 0.44932,-1.02085 0.46534,-1.37411 0.44813,-1.37411 0.47042,-1.37411 0.45381,-1.37411 0.37342,-1.37411 0.24777,-1.37411 0.10229,-1.37411 -0.059,-1.37411 -0.25401,-1.37411 -0.49383,-1.37411 -0.75875,-1.37411 -1.01281,-1.37411 -0.43208,-0.49211 -0.77819,-0.882 -1.44808,-1.37411 -1.59322,-1.2262 -0.20375,-0.14791 -2.24034,-1.37411 -1.3754,-0.69717 -1.42691,-0.67694 -2.39259,-0.99118 -0.9831,-0.38293 -2.83639,-0.98282 -1.21149,-0.39129 -2.60801,-0.73147 -2.48738,-0.64264 -1.33211,-0.29349 -3.81949,-0.80625 -1.33261,-0.27437 -2.48689,-0.45269 -3.81949,-0.68583 -1.30582,-0.23559 -2.51367,-0.41924 -3.8195,-0.63056 -1.98697,-0.32431 -1.83252,-0.29025 -3.81949,-0.60515 -3.04476,-0.47871 -0.77474,-0.12525 -3.81949,-0.63074 -3.76712,-0.61812 -0.0524,-0.009 -3.81949,-0.65067 -3.81949,-0.60089 -0.80672,-0.11347 -3.01278,-0.43363 -3.81949,-0.45367 -3.81949,-0.35285 -1.97105,-0.13396 -1.84845,-0.13114 -3.81949,-0.18457 -3.81949,-0.10857 -3.8195,-0.0425 -3.81949,0.0163 -3.81949,0.071 -3.8195,0.12547 -3.81949,0.18381 -1.11744,0.0701 -2.70206,0.17758 -3.81949,0.32758 -3.81949,0.42088 -3.30545,0.44807 -0.51405,0.0742 -3.81949,0.62218 -3.62999,0.67771 -0.1895,0.0352 -3.8195,0.74445 -2.85731,0.5945 -0.96218,0.1888 -3.81949,0.7763 -1.92034,0.40901 -1.89916,0.38116 -3.81949,0.81438 -0.79631,0.17857 -3.02319,0.63865 -3.17821,0.73546 -0.64128,0.13683 -3.81949,0.87708 -1.41225,0.3602 -2.40725,0.55586 -3.12423,0.81825 -0.69526,0.16719 -3.81949,1.03705 -0.55444,0.16987 -3.26506,0.96121 -1.24051,0.4129 -2.57898,0.86663 -1.36358,0.50748 -2.45591,0.95808 -0.99164,0.41603 -2.82786,1.27053 -0.22164,0.10358 -2.73165,1.37411 -0.8662,0.49906 -1.51721,0.87505 -1.9282,1.37411 -0.37409,0.35178 -1.11892,1.02233 -1.05694,1.37411 -0.73115,1.37411 -0.53648,1.37411 -0.376,1.1942 -0.0626,0.17991 -0.4281,1.37411 -0.40293,1.37411 -0.38748,1.37411 -0.34813,1.37411 -0.25095,1.37411 -0.0804,1.37411 0.15707,1.37411 0.4394,1.37411 0.73476,1.37411 0.62931,0.85238 0.34181,0.52173 1.12797,1.37411 1.34003,1.37411 1.00968,0.90335 0.50474,0.47076 1.64687,1.37411 1.66789,1.2501 0.16871,0.12401 1.95807,1.37411 1.69271,1.10897 0.4237,0.26514 2.24479,1.37411 1.15101,0.67278 1.27658,0.70133 2.54291,1.29481 0.17308,0.0793 3.37269,1.37411 0.27372,0.098 3.8195,1.12132 0.68307,0.15482 3.13642,0.63351 3.81949,0.54794 1.88857,0.19266 1.93093,0.1893 3.81949,0.28005 3.81949,0.23007 3.8195,0.22555 3.81949,0.25591 2.37721,0.19323 1.44229,0.12205 3.81949,0.38703 3.81949,0.43132 3.68103,0.43371 0.13847,0.0161 3.81949,0.44939 3.81949,0.41077 3.8195,0.36088 1.64209,0.13695 2.1774,0.18204 3.81949,0.28643 3.8195,0.25917 3.81949,0.2406 3.8195,0.22629 3.25774,0.17958 z m -12.05725,-5.52842 -3.22073,-0.31881 -3.81949,-0.44921 -3.81949,-0.51628 -0.61893,-0.0898 -3.20057,-0.48039 -3.81949,-0.5848 -2.05801,-0.30892 -1.76148,-0.27265 -3.8195,-0.56691 -3.75468,-0.53455 -0.0648,-0.0103 -3.81949,-0.57684 -3.8195,-0.57844 -1.38672,-0.20849 -2.43277,-0.44643 -3.8195,-0.73178 -0.96195,-0.1959 -2.85754,-0.64935 -2.95217,-0.72476 -0.86732,-0.20907 -3.8195,-1.01361 -0.49669,-0.15143 -3.3228,-0.95715 -1.21499,-0.41696 -2.6045,-0.88833 -1.18159,-0.48578 -2.63791,-1.16904 -0.39235,-0.20507 -2.2748,-1.37411 -1.15234,-0.89185 -0.55946,-0.48226 -1.18237,-1.37411 -0.81521,-1.37411 -0.54032,-1.37411 -0.33678,-1.37411 -0.17517,-1.37411 -0.0421,-1.37411 0.0604,-1.37411 0.13632,-1.37411 0.21277,-1.37411 0.33065,-1.37411 0.51746,-1.37411 0.7697,-1.37411 1.06417,-1.37411 0.55992,-0.5704 0.86984,-0.80371 1.82165,-1.37411 1.128,-0.71186 1.17505,-0.66225 2.64445,-1.28598 0.20467,-0.0881 3.5887,-1.37411 0.0261,-0.009 3.81949,-1.16547 0.74018,-0.19968 3.07932,-0.76075 2.7727,-0.61336 1.04679,-0.2169 3.81949,-0.72374 2.42007,-0.43347 1.39943,-0.2435 3.81949,-0.64984 2.78535,-0.48077 1.03415,-0.17881 3.81949,-0.68197 2.74502,-0.51333 1.07447,-0.20194 3.8195,-0.74768 2.10311,-0.42449 1.71638,-0.34122 3.81949,-0.76568 1.33483,-0.26721 2.48467,-0.4848 3.81949,-0.71173 1.00019,-0.17758 2.8193,-0.49601 3.8195,-0.60022 2.03876,-0.27788 1.78073,-0.24737 3.8195,-0.43642 3.81949,-0.32211 3.81949,-0.20674 3.8195,-0.0906 3.81949,0.0261 3.81949,0.14216 3.8195,0.25467 3.81949,0.35913 3.81949,0.45072 0.51692,0.0705 3.30258,0.44076 3.81949,0.57322 2.20098,0.36013 1.61851,0.26934 3.8195,0.69058 2.11247,0.41419 1.70702,0.35104 3.8195,0.85423 0.71324,0.16884 3.10625,0.78218 2.19795,0.59193 1.62154,0.46428 3.01081,0.90983 0.80869,0.25988 3.32048,1.11423 0.49901,0.17854 3.22649,1.19557 0.593,0.23746 2.75408,1.13665 1.06542,0.49318 1.84897,0.88093 1.97052,1.13238 0.40976,0.24173 1.84653,1.37411 1.25425,1.37411 0.30895,0.5226 0.51698,0.85151 0.5266,1.37411 0.33579,1.37411 0.17862,1.37411 -0.037,1.37411 -0.32611,1.37411 -0.61646,1.37411 -0.57845,0.98744 -0.21377,0.38667 -0.78841,1.37411 -0.74153,1.37411 -0.72702,1.37411 -0.84025,1.37411 -0.50851,0.64976 -0.53588,0.72435 -1.2926,1.37411 -1.53848,1.37411 -0.45253,0.37713 -1.159,0.99698 -1.64396,1.37411 -1.01654,0.83625 -0.64274,0.53786 -1.75653,1.37411 -1.42022,0.95071 -0.64184,0.4234 -2.545,1.37411 -0.63265,0.28477 -2.52242,1.08934 -1.29708,0.49191 -2.4375,0.8822 -1.38199,0.47172 -2.78589,0.90239 -1.0336,0.32876 -3.53279,1.04535 -0.28671,0.0828 -3.81949,0.99925 -1.29591,0.29202 -2.52359,0.5367 -3.81949,0.66027 -1.30888,0.17714 -2.51061,0.31671 -3.8195,0.35404 -3.81949,0.23587 -3.81949,0.13622 -3.8195,0.0549 -3.81949,-0.0102 -3.81949,-0.0622 -3.8195,-0.10567 -3.81949,-0.14558 -3.81949,-0.18738 -3.8195,-0.23602 -3.81949,-0.29496 z"
       clip-path="url(#pd76935b518)"
       style="fill:#a4a4a4"
       id="path840" />
    <path
       d="m 479.13418,249.33917 3.81949,0.29496 3.8195,0.23602 3.81949,0.18738 3.81949,0.14558 3.8195,0.10567 3.81949,0.0622 3.81949,0.0102 3.8195,-0.0549 3.81949,-0.13622 3.81949,-0.23587 3.8195,-0.35404 2.51061,-0.31671 1.30888,-0.17714 3.81949,-0.66027 2.52359,-0.5367 1.29591,-0.29202 3.81949,-0.99925 0.28671,-0.0828 3.53279,-1.04535 1.0336,-0.32876 2.78589,-0.90239 1.38199,-0.47172 2.4375,-0.8822 1.29708,-0.49191 2.52242,-1.08934 0.63265,-0.28477 2.545,-1.37411 0.64184,-0.4234 1.42022,-0.95071 1.75653,-1.37411 0.64274,-0.53786 1.01654,-0.83625 1.64396,-1.37411 1.159,-0.99698 0.45253,-0.37713 1.53848,-1.37411 1.2926,-1.37411 0.53588,-0.72435 0.50851,-0.64976 0.84025,-1.37411 0.72702,-1.37411 0.74153,-1.37411 0.78841,-1.37411 0.21377,-0.38667 0.57845,-0.98744 0.61646,-1.37411 0.32611,-1.37411 0.037,-1.37411 -0.17862,-1.37411 -0.33579,-1.37411 -0.5266,-1.37411 -0.51698,-0.85151 -0.30895,-0.5226 -1.25425,-1.37411 -1.84653,-1.37411 -0.40976,-0.24173 -1.97052,-1.13238 -1.84897,-0.88093 -1.06542,-0.49318 -2.75408,-1.13665 -0.593,-0.23746 -3.22649,-1.19557 -0.49901,-0.17854 -3.32048,-1.11423 -0.80869,-0.25988 -3.01081,-0.90983 -1.62154,-0.46428 -2.19795,-0.59193 -3.10625,-0.78218 -0.71324,-0.16884 -3.8195,-0.85423 -1.70702,-0.35104 -2.11247,-0.41419 -3.8195,-0.69058 -1.61851,-0.26934 -2.20098,-0.36013 -3.81949,-0.57322 -3.30258,-0.44076 -0.51692,-0.0705 -3.81949,-0.45072 -3.81949,-0.35913 -3.8195,-0.25467 -3.81949,-0.14216 -3.81949,-0.0261 -3.8195,0.0906 -3.81949,0.20674 -3.81949,0.32211 -3.8195,0.43642 -1.78073,0.24737 -2.03876,0.27788 -3.8195,0.60022 -2.8193,0.49601 -1.00019,0.17758 -3.81949,0.71173 -2.48467,0.4848 -1.33483,0.26721 -3.81949,0.76568 -1.71638,0.34122 -2.10311,0.42449 -3.8195,0.74768 -1.07447,0.20194 -2.74502,0.51333 -3.81949,0.68197 -1.03415,0.17881 -2.78535,0.48077 -3.81949,0.64984 -1.39943,0.2435 -2.42007,0.43347 -3.81949,0.72374 -1.04679,0.2169 -2.7727,0.61336 -3.07932,0.76075 -0.74018,0.19968 -3.81949,1.16547 -0.0261,0.009 -3.5887,1.37411 -0.20467,0.0881 -2.64445,1.28598 -1.17505,0.66225 -1.128,0.71186 -1.82165,1.37411 -0.86984,0.80371 -0.55992,0.5704 -1.06417,1.37411 -0.7697,1.37411 -0.51746,1.37411 -0.33065,1.37411 -0.21277,1.37411 -0.13632,1.37411 -0.0604,1.37411 0.0421,1.37411 0.17517,1.37411 0.33678,1.37411 0.54032,1.37411 0.81521,1.37411 1.18237,1.37411 0.55946,0.48226 1.15234,0.89185 2.2748,1.37411 0.39235,0.20507 2.63791,1.16904 1.18159,0.48578 2.6045,0.88833 1.21499,0.41696 3.3228,0.95715 0.49669,0.15143 3.8195,1.01361 0.86732,0.20907 2.95217,0.72476 2.85754,0.64935 0.96195,0.1959 3.8195,0.73178 2.43277,0.44643 1.38672,0.20849 3.8195,0.57844 3.81949,0.57684 0.0648,0.0103 3.75468,0.53455 3.8195,0.56691 1.76148,0.27265 2.05801,0.30892 3.81949,0.5848 3.20057,0.48039 0.61893,0.0898 3.81949,0.51628 3.81949,0.44921 3.22073,0.31881 z m 11.2113,-4.178 -3.57231,-0.25514 -3.8195,-0.35941 -3.81949,-0.43682 -2.44969,-0.32274 -1.36981,-0.18658 -3.81949,-0.58509 -3.5465,-0.60244 -0.27299,-0.0505 -3.8195,-0.78797 -2.32524,-0.53561 -1.49425,-0.39987 -3.3427,-0.97424 -0.47679,-0.15647 -3.64102,-1.21764 -0.17848,-0.0621 -3.81949,-1.25619 -0.18692,-0.0559 -3.63257,-1.06093 -1.23302,-0.31318 -2.58648,-0.67004 -3.1128,-0.70407 -0.70669,-0.17943 -3.8195,-0.90384 -1.20376,-0.29084 -2.61573,-0.81703 -1.56335,-0.55708 -2.25614,-1.1736 -0.31861,-0.20051 -1.43988,-1.37411 -0.98648,-1.37411 -0.742,-1.37411 -0.33253,-0.83983 -0.17346,-0.53428 -0.23676,-1.37411 0.046,-1.37411 0.36418,-1.28376 0.0298,-0.0904 0.9343,-1.37411 1.53216,-1.37411 1.32325,-0.83683 1.00569,-0.53728 2.8138,-1.19338 0.47864,-0.18073 3.34085,-1.10093 0.86529,-0.27318 2.95421,-0.8531 1.7673,-0.52101 2.05219,-0.55717 2.83902,-0.81694 0.98048,-0.25611 3.81949,-1.07332 0.14551,-0.0447 3.67398,-1.00525 1.26013,-0.36886 2.55937,-0.67392 2.52672,-0.70019 1.29277,-0.33108 3.81949,-1.01366 0.10781,-0.0294 3.71169,-0.96722 1.57402,-0.40689 2.24547,-0.56475 3.33455,-0.80936 0.48494,-0.11402 3.8195,-0.84436 2.1137,-0.41573 1.70579,-0.31942 3.8195,-0.59893 3.81247,-0.45576 0.007,-8e-4 3.81949,-0.29014 3.8195,-0.13618 3.81949,0.0141 3.81949,0.1549 3.50278,0.25808 0.31672,0.024 3.81949,0.3979 3.81949,0.49125 3.04874,0.461 0.77076,0.11817 3.81949,0.66847 2.94496,0.58747 0.87453,0.17837 3.8195,0.87476 1.25844,0.32098 2.56105,0.67394 2.41433,0.70017 1.40517,0.42313 2.91044,0.95098 0.90905,0.31558 2.8486,1.05853 0.97089,0.40245 2.22079,0.97166 1.59871,0.84166 0.97135,0.53245 1.91796,1.37411 0.93018,0.96683 0.38353,0.40728 0.83332,1.37411 0.47799,1.37411 0.21458,1.37411 -0.0317,1.37411 -0.29818,1.37411 -0.55507,1.37411 -0.73862,1.37411 -0.28587,0.48222 -0.50991,0.89189 -0.80016,1.37411 -0.84123,1.37411 -0.97703,1.37411 -0.69116,0.79019 -0.50969,0.58392 -1.45087,1.37411 -1.67524,1.37411 -0.1837,0.14201 -1.597,1.2321 -1.87537,1.37411 -0.34712,0.24124 -1.67798,1.13287 -2.14151,1.25247 -0.22154,0.12164 -2.9483,1.37411 -0.64966,0.25668 -3.14669,1.11743 -0.6728,0.21287 -3.8195,1.06126 -0.42297,0.1 -3.39652,0.77183 -3.2622,0.60228 -0.55729,0.10222 -3.8195,0.56083 -3.81949,0.41973 -3.74714,0.29133 -0.0723,0.006 -3.8195,0.18569 -3.81949,0.0874 -3.81949,-0.002 -3.8195,-0.0876 -3.81949,-0.17241 z"
       clip-path="url(#pd76935b518)"
       style="fill:#7f7f7f"
       id="path842" />
    <path
       d="m 490.59266,245.17772 3.81949,0.17241 3.8195,0.0876 3.81949,0.002 3.81949,-0.0874 3.8195,-0.18569 0.0723,-0.006 3.74714,-0.29133 3.81949,-0.41973 3.8195,-0.56083 0.55729,-0.10222 3.2622,-0.60228 3.39652,-0.77183 0.42297,-0.1 3.8195,-1.06126 0.6728,-0.21287 3.14669,-1.11743 0.64966,-0.25668 2.9483,-1.37411 0.22154,-0.12164 2.14151,-1.25247 1.67798,-1.13287 0.34712,-0.24124 1.87537,-1.37411 1.597,-1.2321 0.1837,-0.14201 1.67524,-1.37411 1.45087,-1.37411 0.50969,-0.58392 0.69116,-0.79019 0.97703,-1.37411 0.84123,-1.37411 0.80016,-1.37411 0.50991,-0.89189 0.28587,-0.48222 0.73862,-1.37411 0.55507,-1.37411 0.29818,-1.37411 0.0317,-1.37411 -0.21458,-1.37411 -0.47799,-1.37411 -0.83332,-1.37411 -0.38353,-0.40728 -0.93018,-0.96683 -1.91796,-1.37411 -0.97135,-0.53245 -1.59871,-0.84166 -2.22079,-0.97166 -0.97089,-0.40245 -2.8486,-1.05853 -0.90905,-0.31558 -2.91044,-0.95098 -1.40517,-0.42313 -2.41433,-0.70017 -2.56105,-0.67394 -1.25844,-0.32098 -3.8195,-0.87476 -0.87453,-0.17837 -2.94496,-0.58747 -3.81949,-0.66847 -0.77076,-0.11817 -3.04874,-0.461 -3.81949,-0.49125 -3.81949,-0.3979 -0.31672,-0.024 -3.50278,-0.25808 -3.81949,-0.1549 -3.81949,-0.0141 -3.8195,0.13618 -3.81949,0.29014 -0.007,8e-4 -3.81247,0.45576 -3.8195,0.59893 -1.70579,0.31942 -2.1137,0.41573 -3.8195,0.84436 -0.48494,0.11402 -3.33455,0.80936 -2.24547,0.56475 -1.57402,0.40689 -3.71169,0.96722 -0.10781,0.0294 -3.81949,1.01366 -1.29277,0.33108 -2.52672,0.70019 -2.55937,0.67392 -1.26013,0.36886 -3.67398,1.00525 -0.14551,0.0447 -3.81949,1.07332 -0.98048,0.25611 -2.83902,0.81694 -2.05219,0.55717 -1.7673,0.52101 -2.95421,0.8531 -0.86529,0.27318 -3.34085,1.10093 -0.47864,0.18073 -2.8138,1.19338 -1.00569,0.53728 -1.32325,0.83683 -1.53216,1.37411 -0.9343,1.37411 -0.0298,0.0904 -0.36418,1.28376 -0.046,1.37411 0.23676,1.37411 0.17346,0.53428 0.33253,0.83983 0.742,1.37411 0.98648,1.37411 1.43988,1.37411 0.31861,0.20051 2.25614,1.1736 1.56335,0.55708 2.61573,0.81703 1.20376,0.29084 3.8195,0.90384 0.70669,0.17943 3.1128,0.70407 2.58648,0.67004 1.23302,0.31318 3.63257,1.06093 0.18692,0.0559 3.81949,1.25619 0.17848,0.0621 3.64102,1.21764 0.47679,0.15647 3.3427,0.97424 1.49425,0.39987 2.32524,0.53561 3.8195,0.78797 0.27299,0.0505 3.5465,0.60244 3.81949,0.58509 1.36981,0.18658 2.44969,0.32274 3.81949,0.43682 3.8195,0.35941 3.57231,0.25514 z m 3.4345,-5.51299 -3.4345,-0.26961 -3.81949,-0.38767 -3.8195,-0.48584 -1.49436,-0.23099 -2.32513,-0.38073 -3.8195,-0.77293 -0.91162,-0.22045 -2.90787,-0.75134 -2.05792,-0.62277 -1.76157,-0.57349 -2.2255,-0.80062 -1.594,-0.64386 -1.73382,-0.73025 -2.08567,-1.07128 -0.59617,-0.30283 -2.03384,-1.37411 -1.18948,-1.18556 -0.20306,-0.18855 -1.05904,-1.37411 -0.88866,-1.37411 -0.88108,-1.37411 -0.78766,-1.32245 -0.0353,-0.0517 -0.57051,-1.37411 0.11669,-1.37411 0.48912,-0.68399 0.44081,-0.69012 1.6669,-1.37411 1.71179,-1.00437 0.58879,-0.36974 2.64614,-1.37411 0.58456,-0.27365 2.25775,-1.10046 1.56174,-0.70409 1.46088,-0.67002 2.35862,-0.9886 0.93181,-0.38551 2.88768,-1.06603 0.87722,-0.30808 2.94227,-0.92096 1.58222,-0.45315 2.23728,-0.58725 3.40696,-0.78686 0.41253,-0.0908 3.8195,-0.70637 3.81949,-0.54953 0.27706,-0.0274 3.54243,-0.34268 3.8195,-0.19538 3.81949,-0.0266 3.81949,0.12743 3.8195,0.26189 1.75487,0.1753 2.06462,0.21131 3.81949,0.50268 3.8195,0.60698 0.2818,0.0531 3.53769,0.68766 3.04107,0.68645 0.77842,0.1863 3.8195,1.05901 0.40888,0.1288 3.41061,1.22437 0.37149,0.14974 2.78633,1.37411 0.66168,0.42523 1.33117,0.94888 1.37596,1.37411 0.90457,1.37411 0.20779,0.5472 0.29157,0.82691 0.15543,1.37411 -0.1649,1.37411 -0.2821,0.85045 -0.1727,0.52366 -0.68101,1.37411 -0.83712,1.37411 -0.95987,1.37411 -1.10165,1.37411 -0.0671,0.0732 -1.25504,1.30092 -1.55987,1.37411 -1.00459,0.78526 -0.80367,0.58885 -2.00858,1.37411 -1.00724,0.65482 -1.20622,0.71929 -2.49463,1.37411 -0.11865,0.0581 -3.11354,1.31606 -0.70595,0.25285 -3.81949,1.10791 -0.0601,0.0134 -3.75941,0.72488 -3.81949,0.51379 -1.6089,0.13544 -2.21059,0.17405 -3.8195,0.14682 -3.81949,0.0135 -3.81949,-0.10202 -3.8195,-0.20327 z"
       clip-path="url(#pd76935b518)"
       style="fill:#5b5b5b"
       id="path844" />
    <path
       d="m 494.41215,239.6938 3.8195,0.20327 3.81949,0.10202 3.81949,-0.0135 3.8195,-0.14682 2.21059,-0.17405 1.6089,-0.13544 3.81949,-0.51379 3.75941,-0.72488 0.0601,-0.0134 3.81949,-1.10791 0.70595,-0.25285 3.11354,-1.31606 0.11865,-0.0581 2.49463,-1.37411 1.20622,-0.71929 1.00724,-0.65482 2.00858,-1.37411 0.80367,-0.58885 1.00459,-0.78526 1.55987,-1.37411 1.25504,-1.30092 0.0671,-0.0732 1.10165,-1.37411 0.95987,-1.37411 0.83712,-1.37411 0.68101,-1.37411 0.1727,-0.52366 0.2821,-0.85045 0.1649,-1.37411 -0.15543,-1.37411 -0.29157,-0.82691 -0.20779,-0.5472 -0.90457,-1.37411 -1.37596,-1.37411 -1.33117,-0.94888 -0.66168,-0.42523 -2.78633,-1.37411 -0.37149,-0.14974 -3.41061,-1.22437 -0.40888,-0.1288 -3.8195,-1.05901 -0.77842,-0.1863 -3.04107,-0.68645 -3.53769,-0.68766 -0.2818,-0.0531 -3.8195,-0.60698 -3.81949,-0.50268 -2.06462,-0.21131 -1.75487,-0.1753 -3.8195,-0.26189 -3.81949,-0.12743 -3.81949,0.0266 -3.8195,0.19538 -3.54243,0.34268 -0.27706,0.0274 -3.81949,0.54953 -3.8195,0.70637 -0.41253,0.0908 -3.40696,0.78686 -2.23728,0.58725 -1.58222,0.45315 -2.94227,0.92096 -0.87722,0.30808 -2.88768,1.06603 -0.93181,0.38551 -2.35862,0.9886 -1.46088,0.67002 -1.56174,0.70409 -2.25775,1.10046 -0.58456,0.27365 -2.64614,1.37411 -0.58879,0.36974 -1.71179,1.00437 -1.6669,1.37411 -0.44081,0.69012 -0.48912,0.68399 -0.11669,1.37411 0.57051,1.37411 0.0353,0.0517 0.78766,1.32245 0.88108,1.37411 0.88866,1.37411 1.05904,1.37411 0.20306,0.18855 1.18948,1.18556 2.03384,1.37411 0.59617,0.30283 2.08567,1.07128 1.73382,0.73025 1.594,0.64386 2.2255,0.80062 1.76157,0.57349 2.05792,0.62277 2.90787,0.75134 0.91162,0.22045 3.8195,0.77293 2.32513,0.38073 1.49436,0.23099 3.8195,0.48584 3.81949,0.38767 3.4345,0.26961 z m -7.27929,-6.89962 -0.35969,-0.0522 -3.8195,-0.7731 -2.05429,-0.5488 -1.7652,-0.59963 -1.8425,-0.77448 -1.977,-1.1824 -0.27794,-0.19171 -1.37107,-1.37411 -0.95346,-1.37411 -0.73203,-1.37411 -0.48499,-1.19262 -0.0711,-0.18149 -0.2708,-1.37411 0.19847,-1.37411 0.14339,-0.23169 0.73481,-1.14242 1.63496,-1.37411 1.44972,-0.86864 0.90766,-0.50547 2.91184,-1.34973 0.0591,-0.0244 3.71176,-1.37411 0.0486,-0.0166 3.8195,-1.07669 1.31656,-0.28085 2.50293,-0.49005 3.81949,-0.50076 3.8195,-0.26899 3.81949,-0.064 3.81949,0.11828 3.8195,0.28746 3.81949,0.4554 2.81043,0.4627 1.00906,0.19344 3.8195,0.95866 0.70456,0.22201 3.11493,1.18966 0.39341,0.18445 2.42704,1.37411 0.99904,0.73109 0.72304,0.64302 1.01863,1.37411 0.41184,1.37411 -0.14969,1.37411 -0.61742,1.37411 -0.99206,1.37411 -0.39434,0.41594 -1.02264,0.95817 -1.79269,1.37411 -1.00416,0.65966 -1.2762,0.71445 -2.54329,1.27163 -0.24965,0.10248 -3.56985,1.36533 -0.0296,0.009 -3.78988,1.06181 -1.60474,0.3123 -2.21475,0.40131 -3.8195,0.41205 -3.81949,0.17309 -3.81949,-0.0178 -3.8195,-0.17974 -3.81949,-0.33447 z"
       clip-path="url(#pd76935b518)"
       style="fill:#363636"
       id="path846" />
    <path
       d="m 490.59266,233.24862 3.81949,0.33447 3.8195,0.17974 3.81949,0.0178 3.81949,-0.17309 3.8195,-0.41205 2.21475,-0.40131 1.60474,-0.3123 3.78988,-1.06181 0.0296,-0.009 3.56985,-1.36533 0.24965,-0.10248 2.54329,-1.27163 1.2762,-0.71445 1.00416,-0.65966 1.79269,-1.37411 1.02264,-0.95817 0.39434,-0.41594 0.99206,-1.37411 0.61742,-1.37411 0.14969,-1.37411 -0.41184,-1.37411 -1.01863,-1.37411 -0.72304,-0.64302 -0.99904,-0.73109 -2.42704,-1.37411 -0.39341,-0.18445 -3.11493,-1.18966 -0.70456,-0.22201 -3.8195,-0.95866 -1.00906,-0.19344 -2.81043,-0.4627 -3.81949,-0.4554 -3.8195,-0.28746 -3.81949,-0.11828 -3.81949,0.064 -3.8195,0.26899 -3.81949,0.50076 -2.50293,0.49005 -1.31656,0.28085 -3.8195,1.07669 -0.0486,0.0166 -3.71176,1.37411 -0.0591,0.0244 -2.91184,1.34973 -0.90766,0.50547 -1.44972,0.86864 -1.63496,1.37411 -0.73481,1.14242 -0.14339,0.23169 -0.19847,1.37411 0.2708,1.37411 0.0711,0.18149 0.48499,1.19262 0.73203,1.37411 0.95346,1.37411 1.37107,1.37411 0.27794,0.19171 1.977,1.1824 1.8425,0.77448 1.7652,0.59963 2.05429,0.5488 3.8195,0.7731 0.35969,0.0522 z"
       clip-path="url(#pd76935b518)"
       style="fill:#121212"
       id="path848" />
  </g>
  <g
     id="matplotlib.axis_1"
     transform="translate(-7.1991286,-7.1554699)">
    <g
       id="xtick_1">
      <g
         id="line2d_1">
        <defs
           id="defs852">
          <path
             id="m07621c981d"
             d="M 0,0 V -3.5"
             style="stroke:#000000;stroke-width:0.8" />
        </defs>
        <g
           id="g856">
          <use
             xlink:href="#m07621c981d"
             x="75.932343"
             y="283.63626"
             style="stroke:#000000;stroke-width:0.8"
             id="use854"
             width="100%"
             height="100%" />
        </g>
      </g>
      <g
         id="line2d_2">
        <defs
           id="defs860">
          <path
             id="m01c5b8c03b"
             d="M 0,0 V 3.5"
             style="stroke:#000000;stroke-width:0.8" />
        </defs>
        <g
           id="g864">
          <use
             xlink:href="#m01c5b8c03b"
             x="75.932343"
             y="10.188354"
             style="stroke:#000000;stroke-width:0.8"
             id="use862"
             width="100%"
             height="100%" />
        </g>
      </g>
      <g
         id="text_1">
        <text
           style="font-style:normal;font-variant:normal;font-weight:normal;font-stretch:normal;font-size:15px;line-height:normal;font-family:Arial, sans-serif;text-anchor:middle"
           x="75.932343"
           y="297.87296"
           id="text867">0.0</text>
      </g>
    </g>
    <g
       id="xtick_2">
      <g
         id="line2d_3">
        <g
           id="g873">
          <use
             xlink:href="#m07621c981d"
             x="207.46124"
             y="283.63626"
             style="stroke:#000000;stroke-width:0.8"
             id="use871"
             width="100%"
             height="100%" />
        </g>
      </g>
      <g
         id="line2d_4">
        <g
           id="g878">
          <use
             xlink:href="#m01c5b8c03b"
             x="207.46124"
             y="10.188354"
             style="stroke:#000000;stroke-width:0.8"
             id="use876"
             width="100%"
             height="100%" />
        </g>
      </g>
      <g
         id="text_2">
        <text
           style="font-style:normal;font-variant:normal;font-weight:normal;font-stretch:normal;font-size:15px;line-height:normal;font-family:Arial, sans-serif;text-anchor:middle"
           x="207.46124"
           y="297.87296"
           id="text881">0.5</text>
      </g>
    </g>
    <g
       id="xtick_3">
      <g
         id="line2d_5">
        <g
           id="g887">
          <use
             xlink:href="#m07621c981d"
             x="338.99014"
             y="283.63626"
             style="stroke:#000000;stroke-width:0.8"
             id="use885"
             width="100%"
             height="100%" />
        </g>
      </g>
      <g
         id="line2d_6">
        <g
           id="g892">
          <use
             xlink:href="#m01c5b8c03b"
             x="338.99014"
             y="10.188354"
             style="stroke:#000000;stroke-width:0.8"
             id="use890"
             width="100%"
             height="100%" />
        </g>
      </g>
      <g
         id="text_3">
        <text
           style="font-style:normal;font-variant:normal;font-weight:normal;font-stretch:normal;font-size:15px;line-height:normal;font-family:Arial, sans-serif;text-anchor:middle"
           x="338.99014"
           y="297.87296"
           id="text895">1.0</text>
      </g>
    </g>
    <g
       id="xtick_4">
      <g
         id="line2d_7">
        <g
           id="g901">
          <use
             xlink:href="#m07621c981d"
             x="470.51907"
             y="283.63626"
             style="stroke:#000000;stroke-width:0.8"
             id="use899"
             width="100%"
             height="100%" />
        </g>
      </g>
      <g
         id="line2d_8">
        <g
           id="g906">
          <use
             xlink:href="#m01c5b8c03b"
             x="470.51907"
             y="10.188354"
             style="stroke:#000000;stroke-width:0.8"
             id="use904"
             width="100%"
             height="100%" />
        </g>
      </g>
      <g
         id="text_4">
        <text
           style="font-style:normal;font-variant:normal;font-weight:normal;font-stretch:normal;font-size:15px;line-height:normal;font-family:Arial, sans-serif;text-anchor:middle"
           x="470.51907"
           y="297.87296"
           id="text909">1.5</text>
      </g>
    </g>
    <g
       id="xtick_5">
      <g
         id="line2d_9">
        <g
           id="g915">
          <use
             xlink:href="#m07621c981d"
             x="602.04797"
             y="283.63626"
             style="stroke:#000000;stroke-width:0.8"
             id="use913"
             width="100%"
             height="100%" />
        </g>
      </g>
      <g
         id="line2d_10">
        <g
           id="g920">
          <use
             xlink:href="#m01c5b8c03b"
             x="602.04797"
             y="10.188354"
             style="stroke:#000000;stroke-width:0.8"
             id="use918"
             width="100%"
             height="100%" />
        </g>
      </g>
      <g
         id="text_5">
        <text
           style="font-style:normal;font-variant:normal;font-weight:normal;font-stretch:normal;font-size:15px;line-height:normal;font-family:Arial, sans-serif;text-anchor:middle"
           x="602.04797"
           y="297.87296"
           id="text923">2.0</text>
      </g>
    </g>
    <g
       id="xtick_6">
      <g
         id="line2d_11">
        <g
           id="g929">
          <use
             xlink:href="#m07621c981d"
             x="733.5769"
             y="283.63626"
             style="stroke:#000000;stroke-width:0.8"
             id="use927"
             width="100%"
             height="100%" />
        </g>
      </g>
      <g
         id="line2d_12">
        <g
           id="g934">
          <use
             xlink:href="#m01c5b8c03b"
             x="733.5769"
             y="10.188354"
             style="stroke:#000000;stroke-width:0.8"
             id="use932"
             width="100%"
             height="100%" />
        </g>
      </g>
      <g
         id="text_6">
        <text
           style="font-style:normal;font-variant:normal;font-weight:normal;font-stretch:normal;font-size:15px;line-height:normal;font-family:Arial, sans-serif;text-anchor:middle"
           x="733.5769"
           y="297.87296"
           id="text937">2.5</text>
      </g>
    </g>
    <g
       id="text_7">
      <text
         style="font-style:normal;font-variant:normal;font-weight:normal;font-stretch:normal;font-size:15px;line-height:normal;font-family:Arial, sans-serif"
         transform="translate(387.52617,315.59094)"
         id="text941">Patristic distance</text>
      <text
         style="font-style:normal;font-variant:normal;font-weight:normal;font-stretch:normal;font-size:15px;line-height:normal;font-family:Arial, sans-serif"
         transform="translate(370.85508,331.67563)"
         id="text943">(substitutions per site)</text>
    </g>
  </g>
  <g
     id="matplotlib.axis_2"
     transform="translate(-7.1991286,-7.1554699)">
    <g
       id="ytick_1">
      <g
         id="line2d_13">
        <defs
           id="defs948">
          <path
             id="mc32e49154e"
             d="M 0,0 H 3.5"
             style="stroke:#000000;stroke-width:0.8" />
        </defs>
        <g
           id="g952">
          <use
             xlink:href="#mc32e49154e"
             x="49.626564"
             y="264.46252"
             style="stroke:#000000;stroke-width:0.8"
             id="use950"
             width="100%"
             height="100%" />
        </g>
      </g>
      <g
         id="line2d_14">
        <defs
           id="defs956">
          <path
             id="mf16066b898"
             d="M 0,0 H -3.5"
             style="stroke:#000000;stroke-width:0.8" />
        </defs>
        <g
           id="g960">
          <use
             xlink:href="#mf16066b898"
             x="838.79999"
             y="264.46252"
             style="stroke:#000000;stroke-width:0.8"
             id="use958"
             width="100%"
             height="100%" />
        </g>
      </g>
      <g
         id="text_8">
        <text
           style="font-style:normal;font-variant:normal;font-weight:normal;font-stretch:normal;font-size:15px;line-height:normal;font-family:Arial, sans-serif;text-anchor:end"
           x="46.126564"
           y="269.8309"
           id="text963">0.0</text>
      </g>
    </g>
    <g
       id="ytick_2">
      <g
         id="line2d_15">
        <g
           id="g969">
          <use
             xlink:href="#mc32e49154e"
             x="49.626564"
             y="228.47765"
             style="stroke:#000000;stroke-width:0.8"
             id="use967"
             width="100%"
             height="100%" />
        </g>
      </g>
      <g
         id="line2d_16">
        <g
           id="g974">
          <use
             xlink:href="#mf16066b898"
             x="838.79999"
             y="228.47765"
             style="stroke:#000000;stroke-width:0.8"
             id="use972"
             width="100%"
             height="100%" />
        </g>
      </g>
      <g
         id="text_9">
        <text
           style="font-style:normal;font-variant:normal;font-weight:normal;font-stretch:normal;font-size:15px;line-height:normal;font-family:Arial, sans-serif;text-anchor:end"
           x="46.126564"
           y="233.84601"
           id="text977">0.2</text>
      </g>
    </g>
    <g
       id="ytick_3">
      <g
         id="line2d_17">
        <g
           id="g983">
          <use
             xlink:href="#mc32e49154e"
             x="49.626564"
             y="192.49277"
             style="stroke:#000000;stroke-width:0.8"
             id="use981"
             width="100%"
             height="100%" />
        </g>
      </g>
      <g
         id="line2d_18">
        <g
           id="g988">
          <use
             xlink:href="#mf16066b898"
             x="838.79999"
             y="192.49277"
             style="stroke:#000000;stroke-width:0.8"
             id="use986"
             width="100%"
             height="100%" />
        </g>
      </g>
      <g
         id="text_10">
        <text
           style="font-style:normal;font-variant:normal;font-weight:normal;font-stretch:normal;font-size:15px;line-height:normal;font-family:Arial, sans-serif;text-anchor:end"
           x="46.126564"
           y="197.86113"
           id="text991">0.4</text>
      </g>
    </g>
    <g
       id="ytick_4">
      <g
         id="line2d_19">
        <g
           id="g997">
          <use
             xlink:href="#mc32e49154e"
             x="49.626564"
             y="156.50789"
             style="stroke:#000000;stroke-width:0.8"
             id="use995"
             width="100%"
             height="100%" />
        </g>
      </g>
      <g
         id="line2d_20">
        <g
           id="g1002">
          <use
             xlink:href="#mf16066b898"
             x="838.79999"
             y="156.50789"
             style="stroke:#000000;stroke-width:0.8"
             id="use1000"
             width="100%"
             height="100%" />
        </g>
      </g>
      <g
         id="text_11">
        <text
           style="font-style:normal;font-variant:normal;font-weight:normal;font-stretch:normal;font-size:15px;line-height:normal;font-family:Arial, sans-serif;text-anchor:end"
           x="46.126564"
           y="161.87625"
           id="text1005">0.6</text>
      </g>
    </g>
    <g
       id="ytick_5">
      <g
         id="line2d_21">
        <g
           id="g1011">
          <use
             xlink:href="#mc32e49154e"
             x="49.626564"
             y="120.523"
             style="stroke:#000000;stroke-width:0.8"
             id="use1009"
             width="100%"
             height="100%" />
        </g>
      </g>
      <g
         id="line2d_22">
        <g
           id="g1016">
          <use
             xlink:href="#mf16066b898"
             x="838.79999"
             y="120.523"
             style="stroke:#000000;stroke-width:0.8"
             id="use1014"
             width="100%"
             height="100%" />
        </g>
      </g>
      <g
         id="text_12">
        <text
           style="font-style:normal;font-variant:normal;font-weight:normal;font-stretch:normal;font-size:15px;line-height:normal;font-family:Arial, sans-serif;text-anchor:end"
           x="46.126564"
           y="125.89137"
           id="text1019">0.8</text>
      </g>
    </g>
    <g
       id="ytick_6">
      <g
         id="line2d_23">
        <g
           id="g1025">
          <use
             xlink:href="#mc32e49154e"
             x="49.626564"
             y="84.538124"
             style="stroke:#000000;stroke-width:0.8"
             id="use1023"
             width="100%"
             height="100%" />
        </g>
      </g>
      <g
         id="line2d_24">
        <g
           id="g1030">
          <use
             xlink:href="#mf16066b898"
             x="838.79999"
             y="84.538124"
             style="stroke:#000000;stroke-width:0.8"
             id="use1028"
             width="100%"
             height="100%" />
        </g>
      </g>
      <g
         id="text_13">
        <text
           style="font-style:normal;font-variant:normal;font-weight:normal;font-stretch:normal;font-size:15px;line-height:normal;font-family:Arial, sans-serif;text-anchor:end"
           x="46.126564"
           y="89.906479"
           id="text1033">1.0</text>
      </g>
    </g>
    <g
       id="ytick_7">
      <g
         id="line2d_25">
        <g
           id="g1039">
          <use
             xlink:href="#mc32e49154e"
             x="49.626564"
             y="48.553242"
             style="stroke:#000000;stroke-width:0.8"
             id="use1037"
             width="100%"
             height="100%" />
        </g>
      </g>
      <g
         id="line2d_26">
        <g
           id="g1044">
          <use
             xlink:href="#mf16066b898"
             x="838.79999"
             y="48.553242"
             style="stroke:#000000;stroke-width:0.8"
             id="use1042"
             width="100%"
             height="100%" />
        </g>
      </g>
      <g
         id="text_14">
        <text
           style="font-style:normal;font-variant:normal;font-weight:normal;font-stretch:normal;font-size:15px;line-height:normal;font-family:Arial, sans-serif;text-anchor:end"
           x="46.126564"
           y="53.9216"
           id="text1047">1.2</text>
      </g>
    </g>
    <g
       id="ytick_8">
      <g
         id="line2d_27">
        <g
           id="g1053">
          <use
             xlink:href="#mc32e49154e"
             x="49.626564"
             y="12.568359"
             style="stroke:#000000;stroke-width:0.8"
             id="use1051"
             width="100%"
             height="100%" />
        </g>
      </g>
      <g
         id="line2d_28">
        <g
           id="g1058">
          <use
             xlink:href="#mf16066b898"
             x="838.79999"
             y="12.568359"
             style="stroke:#000000;stroke-width:0.8"
             id="use1056"
             width="100%"
             height="100%" />
        </g>
      </g>
      <g
         id="text_15">
        <text
           style="font-style:normal;font-variant:normal;font-weight:normal;font-stretch:normal;font-size:15px;line-height:normal;font-family:Arial, sans-serif;text-anchor:end"
           x="46.126564"
           y="17.93672"
           id="text1061">1.4</text>
      </g>
    </g>
    <g
       id="text_16">
      <text
         style="font-style:normal;font-variant:normal;font-weight:normal;font-stretch:normal;font-size:15px;line-height:normal;font-family:Arial, sans-serif;text-anchor:middle"
         x="18.119532"
         y="146.91231"
         transform="rotate(-90,18.119531,146.9123)"
         id="text1065">Arcsine(Size Difference Index)</text>
    </g>
  </g>
  <g
     id="line2d_29"
     transform="translate(-7.1991286,-7.1554699)">
    <path
       d="M 569.26066,283.63625 V 10.188354"
       clip-path="url(#pd76935b518)"
       style="fill:none;stroke:#808080;stroke-width:1.5;stroke-dasharray:5.55, 2.4;stroke-dashoffset:0"
       id="path1069" />
  </g>
  <g
     id="patch_3"
     transform="translate(-7.1991286,-7.1554699)">
    <path
       d="M 49.626563,283.63625 V 10.188354"
       style="fill:none;stroke:#000000;stroke-width:0.8;stroke-linecap:square;stroke-linejoin:miter"
       id="path1072" />
  </g>
  <g
     id="patch_4"
     transform="translate(-7.1991286,-7.1554699)">
    <path
       d="M 838.8,283.63625 V 10.188354"
       style="fill:none;stroke:#000000;stroke-width:0.8;stroke-linecap:square;stroke-linejoin:miter"
       id="path1075" />
  </g>
  <g
     id="patch_5"
     transform="translate(-7.1991286,-7.1554699)">
    <path
       d="M 49.626563,283.63625 H 838.8"
       style="fill:none;stroke:#000000;stroke-width:0.8;stroke-linecap:square;stroke-linejoin:miter"
       id="path1078" />
  </g>
  <g
     id="patch_6"
     transform="translate(-7.1991286,-7.1554699)">
    <path
       d="M 49.626563,10.188354 H 838.8"
       style="fill:none;stroke:#000000;stroke-width:0.8;stroke-linecap:square;stroke-linejoin:miter"
       id="path1081" />
  </g>
  <g
     id="line2d_30"
     transform="translate(-7.1991286,-7.1554699)">
    <path
       d="m 76.60988,225.14396 493.31931,-7.48077 234.41258,-42.46596 v 0"
       clip-path="url(#pd76935b518)"
       style="fill:none;stroke:#c1121f;stroke-width:1.5;stroke-linecap:square;stroke-opacity:0.7"
       id="path1084" />
  </g>
  <g
     id="text_17"
     transform="translate(-7.1991286,-57.650568)">
    <text
       style="font-style:normal;font-variant:normal;font-weight:normal;font-stretch:normal;font-size:15px;line-height:normal;font-family:Arial, sans-serif"
       transform="rotate(-90,367.47889,-173.03371)"
       id="text1087">x = 1.88</text>
    <text
       style="font-style:normal;font-variant:normal;font-weight:normal;font-stretch:normal;font-size:15px;line-height:normal;font-family:Arial, sans-serif"
       transform="rotate(-90,373.56327,-182.86809)"
       id="text1089">p = 0.0</text>
  </g>
  <g
     id="text_18"
     transform="rotate(90,283.02126,123.73697)">
    <text
       style="font-style:normal;font-variant:normal;font-weight:normal;font-stretch:normal;font-size:15px;line-height:normal;font-family:Arial, sans-serif"
       transform="rotate(-90,256.48002,-62.03484)"
       id="text1092">y = 0.02x</text>
    <text
       style="font-style:normal;font-variant:normal;font-weight:normal;font-stretch:normal;font-size:15px;line-height:normal;font-family:Arial, sans-serif"
       transform="rotate(-90,262.5644,-71.869214)"
       id="text1094">p = 0.0</text>
  </g>
  <g
     id="text_19"
     transform="rotate(90,782.38892,91.984672)">
    <text
       style="font-style:normal;font-variant:normal;font-weight:normal;font-stretch:normal;font-size:15px;line-height:normal;font-family:Arial, sans-serif"
       transform="rotate(-90,491.47462,-320.36855)"
       id="text1097">y = 0.26x</text>
    <text
       style="font-style:normal;font-variant:normal;font-weight:normal;font-stretch:normal;font-size:15px;line-height:normal;font-family:Arial, sans-serif"
       transform="rotate(-90,497.55899,-330.20293)"
       id="text1099">p = 0.0</text>
  </g>
  <g
     id="legend_1"
     transform="translate(-7.1991286,-7.1554699)">
    <g
       id="patch_7">
      <path
         d="M 656.08594,43.406323 H 828.3 q 3,0 3,-3 V 20.688354 q 0,-3 -3,-3 H 656.08594 q -3,0 -3,3 v 19.717969 q 0,3 3,3 z"
         style="opacity:0.8;fill:#ffffff;stroke:#cccccc;stroke-linejoin:miter"
         id="path1102" />
    </g>
    <g
       id="line2d_31">
      <path
         d="m 659.08594,29.175073 h 15 15"
         style="fill:none;stroke:#c1121f;stroke-width:1.5;stroke-linecap:square;stroke-opacity:0.7"
         id="path1105" />
    </g>
    <g
       id="text_20">
      <text
         style="font-style:normal;font-variant:normal;font-weight:normal;font-stretch:normal;font-size:15px;line-height:normal;font-family:Arial, sans-serif;text-anchor:start"
         x="701.08594"
         y="34.425072"
         id="text1108">Piecewise linear fit</text>
    </g>
  </g>
  <defs
     id="defs1117">
    <clipPath
       id="pd76935b518">
      <rect
         x="49.626564"
         y="10.188354"
         width="789.17346"
         height="273.44791"
         id="rect1114" />
    </clipPath>
  </defs>
  <path
     style="fill:none;stroke:#000000;stroke-width:1.70079;stroke-linecap:butt;stroke-linejoin:miter;stroke-miterlimit:4;stroke-dasharray:none;stroke-opacity:1;marker-end:url(#Arrow2Mend)"
     d="m 238.00242,182.66624 v 26.59689"
     id="path1498" />
  <path
     style="fill:none;stroke:#000000;stroke-width:1.70079;stroke-linecap:butt;stroke-linejoin:miter;stroke-miterlimit:4;stroke-dasharray:none;stroke-opacity:1;marker-end:url(#Arrow2Mend-7)"
     d="m 727.84107,145.4386 v 26.59689"
     id="path1498-3" />
  <g
     id="axes_2"
     transform="translate(124.85733,-4.5469348)">
    <g
       id="patch_8">
      <path
         d="m 720.94898,280.10359 h 13.37677 V 12.568359 h -13.37677 z"
         style="fill:#ffffff"
         id="path9930" />
    </g>
    <g
       id="QuadMesh_1">
      <path
         d="m 720.94898,280.10359 h 13.37677 v -38.21932 h -13.37677 v 38.21932"
         clip-path="url(#p0f344d1813)"
         style="fill:#ededed"
         id="path9933" />
      <path
         d="m 720.94898,241.88427 h 13.37677 v -38.21932 h -13.37677 v 38.21932"
         clip-path="url(#p0f344d1813)"
         style="fill:#c9c9c9"
         id="path9935" />
      <path
         d="m 720.94898,203.66495 h 13.37677 v -38.21931 h -13.37677 v 38.21931"
         clip-path="url(#p0f344d1813)"
         style="fill:#a4a4a4"
         id="path9937" />
      <path
         d="m 720.94898,165.44564 h 13.37677 v -38.21932 h -13.37677 v 38.21932"
         clip-path="url(#p0f344d1813)"
         style="fill:#7f7f7f"
         id="path9939" />
      <path
         d="m 720.94898,127.22632 h 13.37677 V 89.006998 h -13.37677 v 38.219322"
         clip-path="url(#p0f344d1813)"
         style="fill:#5b5b5b"
         id="path9941" />
      <path
         d="m 720.94898,89.006998 h 13.37677 V 50.787679 h -13.37677 v 38.219319"
         clip-path="url(#p0f344d1813)"
         style="fill:#363636"
         id="path9943" />
      <path
         d="m 720.94898,50.787679 h 13.37677 v -38.21932 h -13.37677 v 38.21932"
         clip-path="url(#p0f344d1813)"
         style="fill:#121212"
         id="path9945" />
    </g>
    <g
       id="matplotlib.axis_3" />
    <g
       id="matplotlib.axis_4">
      <g
         id="ytick_9">
        <g
           id="line2d_18-7">
          <defs
             id="defs9950">
            <path
               id="path10203"
               d="M 0,0 H 3.5"
               style="stroke:#000000;stroke-width:0.8" />
          </defs>
          <g
             id="g9954">
            <use
               xlink:href="#mf24659552a"
               x="734.32574"
               y="280.10361"
               style="stroke:#000000;stroke-width:0.8"
               id="use9952"
               width="100%"
               height="100%" />
          </g>
        </g>
        <g
           id="text_21">
          <text
             style="font-style:normal;font-variant:normal;font-weight:normal;font-stretch:normal;font-size:15px;line-height:normal;font-family:Arial, sans-serif;text-anchor:start"
             x="741.32574"
             y="285.47195"
             id="text9957">0.2</text>
        </g>
      </g>
      <g
         id="ytick_10">
        <g
           id="line2d_19-1">
          <g
             id="g9963">
            <use
               xlink:href="#mf24659552a"
               x="734.32574"
               y="241.88428"
               style="stroke:#000000;stroke-width:0.8"
               id="use9961"
               width="100%"
               height="100%" />
          </g>
        </g>
        <g
           id="text_22">
          <text
             style="font-style:normal;font-variant:normal;font-weight:normal;font-stretch:normal;font-size:15px;line-height:normal;font-family:Arial, sans-serif;text-anchor:start"
             x="741.32574"
             y="247.25264"
             id="text9966">33.4</text>
        </g>
      </g>
      <g
         id="ytick_11">
        <g
           id="line2d_20-8">
          <g
             id="g9972">
            <use
               xlink:href="#mf24659552a"
               x="734.32574"
               y="203.66495"
               style="stroke:#000000;stroke-width:0.8"
               id="use9970"
               width="100%"
               height="100%" />
          </g>
        </g>
        <g
           id="text_23">
          <text
             style="font-style:normal;font-variant:normal;font-weight:normal;font-stretch:normal;font-size:15px;line-height:normal;font-family:Arial, sans-serif;text-anchor:start"
             x="741.32574"
             y="209.03331"
             id="text9975">66.7</text>
        </g>
      </g>
      <g
         id="ytick_12">
        <g
           id="line2d_21-7">
          <g
             id="g9981">
            <use
               xlink:href="#mf24659552a"
               x="734.32574"
               y="165.44563"
               style="stroke:#000000;stroke-width:0.8"
               id="use9979"
               width="100%"
               height="100%" />
          </g>
        </g>
        <g
           id="text_24">
          <text
             style="font-style:normal;font-variant:normal;font-weight:normal;font-stretch:normal;font-size:15px;line-height:normal;font-family:Arial, sans-serif;text-anchor:start"
             x="741.32574"
             y="170.814"
             id="text9984">99.9</text>
        </g>
      </g>
      <g
         id="ytick_13">
        <g
           id="line2d_22-8">
          <g
             id="g9990">
            <use
               xlink:href="#mf24659552a"
               x="734.32574"
               y="127.22632"
               style="stroke:#000000;stroke-width:0.8"
               id="use9988"
               width="100%"
               height="100%" />
          </g>
        </g>
        <g
           id="text_25">
          <text
             style="font-style:normal;font-variant:normal;font-weight:normal;font-stretch:normal;font-size:15px;line-height:normal;font-family:Arial, sans-serif;text-anchor:start"
             x="741.32574"
             y="132.59468"
             id="text9993">133.1</text>
        </g>
      </g>
      <g
         id="ytick_14">
        <g
           id="line2d_23-7">
          <g
             id="g9999">
            <use
               xlink:href="#mf24659552a"
               x="734.32574"
               y="89.006996"
               style="stroke:#000000;stroke-width:0.8"
               id="use9997"
               width="100%"
               height="100%" />
          </g>
        </g>
        <g
           id="text_26">
          <text
             style="font-style:normal;font-variant:normal;font-weight:normal;font-stretch:normal;font-size:15px;line-height:normal;font-family:Arial, sans-serif;text-anchor:start"
             x="741.32574"
             y="94.375359"
             id="text10002">166.4</text>
        </g>
      </g>
      <g
         id="ytick_15">
        <g
           id="line2d_24-7">
          <g
             id="g10008">
            <use
               xlink:href="#mf24659552a"
               x="734.32574"
               y="50.787678"
               style="stroke:#000000;stroke-width:0.8"
               id="use10006"
               width="100%"
               height="100%" />
          </g>
        </g>
        <g
           id="text_27">
          <text
             style="font-style:normal;font-variant:normal;font-weight:normal;font-stretch:normal;font-size:15px;line-height:normal;font-family:Arial, sans-serif;text-anchor:start"
             x="741.32574"
             y="56.156036"
             id="text10011">199.6</text>
        </g>
      </g>
      <g
         id="ytick_16">
        <g
           id="line2d_25-4">
          <g
             id="g10017">
            <use
               xlink:href="#mf24659552a"
               x="734.32574"
               y="12.568359"
               style="stroke:#000000;stroke-width:0.8"
               id="use10015"
               width="100%"
               height="100%" />
          </g>
        </g>
        <g
           id="text_28">
          <text
             style="font-style:normal;font-variant:normal;font-weight:normal;font-stretch:normal;font-size:15px;line-height:normal;font-family:Arial, sans-serif;text-anchor:start"
             x="741.32574"
             y="17.93672"
             id="text10020">232.9</text>
        </g>
      </g>
      <g
         id="text_29">
        <text
           style="font-style:normal;font-variant:normal;font-weight:normal;font-stretch:normal;font-size:15px;line-height:normal;font-family:Arial, sans-serif;text-anchor:middle"
           x="793.77808"
           y="146.33598"
           transform="rotate(-90,793.77809,146.33598)"
           id="text10024">Pairs of species density</text>
      </g>
    </g>
    <g
       id="LineCollection_1" />
    <g
       id="patch_9">
      <path
         d="m 720.94898,280.10359 h 6.68839 6.68838 V 12.568359 h -6.68838 -6.68839 z"
         style="fill:none;stroke:#000000;stroke-width:0.8;stroke-linecap:square;stroke-linejoin:miter"
         id="path10029" />
    </g>
  </g>
</svg>
