<?xml version="1.0" encoding="utf-8" standalone="no"?>
<!DOCTYPE svg PUBLIC "-//W3C//DTD SVG 1.1//EN"
  "http://www.w3.org/Graphics/SVG/1.1/DTD/svg11.dtd">
<svg xmlns:xlink="http://www.w3.org/1999/xlink" width="853.2pt" height="342.032657pt" viewBox="0 0 853.2 342.032657" xmlns="http://www.w3.org/2000/svg" version="1.1">
 <metadata>
  <rdf:RDF xmlns:dc="http://purl.org/dc/elements/1.1/" xmlns:cc="http://creativecommons.org/ns#" xmlns:rdf="http://www.w3.org/1999/02/22-rdf-syntax-ns#">
   <cc:Work>
    <dc:type rdf:resource="http://purl.org/dc/dcmitype/StillImage"/>
    <dc:date>2024-03-22T17:07:57.149063</dc:date>
    <dc:format>image/svg+xml</dc:format>
    <dc:creator>
     <cc:Agent>
      <dc:title>Matplotlib v3.8.3, https://matplotlib.org/</dc:title>
     </cc:Agent>
    </dc:creator>
   </cc:Work>
  </rdf:RDF>
 </metadata>
 <defs>
  <style type="text/css">*{stroke-linejoin: round; stroke-linecap: butt}</style>
 </defs>
 <g id="figure_1">
  <g id="patch_1">
   <path d="M 0 342.032657 
L 853.2 342.032657 
L 853.2 0 
L 0 0 
z
" style="fill: #ffffff"/>
  </g>
  <g id="axes_1">
   <g id="patch_2">
    <path d="M 49.626562 283.636251 
L 846 283.636251 
L 846 10.188354 
L 49.626562 10.188354 
z
" style="fill: #ffffff"/>
   </g>
   <g id="QuadContourSet_1">
    <path d="M 402.111625 272.985152 
L 405.965965 273.252648 
L 409.820306 273.413286 
L 413.674647 273.490004 
L 417.528987 273.496497 
L 421.383328 273.43884 
L 425.237669 273.317404 
L 429.092009 273.129422 
L 432.94635 272.87358 
L 435.866149 272.643371 
L 436.80069 272.60619 
L 440.655031 272.458971 
L 444.509372 272.328062 
L 448.363712 272.240379 
L 452.218053 272.21278 
L 456.072394 272.241898 
L 459.926734 272.308188 
L 463.781075 272.388912 
L 467.635416 272.467486 
L 471.489756 272.535265 
L 475.344097 272.589272 
L 479.198438 272.629482 
L 481.107179 272.643371 
L 483.052778 272.675232 
L 486.907119 272.713641 
L 490.76146 272.729723 
L 494.6158 272.727526 
L 498.470141 272.712145 
L 502.324482 272.689672 
L 506.178822 272.666386 
L 510.033163 272.647225 
L 511.179393 272.643371 
L 513.887503 272.639464 
L 517.741844 272.635771 
L 521.596185 272.631943 
L 525.450525 272.625436 
L 529.304866 272.613919 
L 533.159207 272.595809 
L 537.013547 272.570404 
L 540.867888 272.537656 
L 544.722229 272.497693 
L 548.576569 272.450248 
L 552.43091 272.394164 
L 556.285251 272.327113 
L 560.139591 272.245528 
L 563.993932 272.144626 
L 567.848273 272.018321 
L 571.702613 271.858898 
L 575.556954 271.656449 
L 579.411294 271.398186 
L 581.040762 271.269261 
L 583.265635 271.174486 
L 587.119976 270.980991 
L 590.974316 270.743889 
L 594.828657 270.459308 
L 598.682998 270.13091 
L 601.376376 269.895151 
L 602.537338 269.837757 
L 606.391679 269.672334 
L 610.24602 269.535051 
L 614.10036 269.444198 
L 617.954701 269.405055 
L 621.809042 269.404634 
L 625.663382 269.417142 
L 629.517723 269.414668 
L 633.372064 269.374212 
L 637.226404 269.278443 
L 641.080745 269.113049 
L 644.935086 268.863971 
L 648.745288 268.521041 
L 648.789426 268.518445 
L 652.643767 268.259052 
L 656.498107 267.942886 
L 660.352448 267.575928 
L 664.206789 267.171739 
L 664.465701 267.14693 
L 668.061129 266.900419 
L 671.91547 266.627117 
L 675.769811 266.332068 
L 679.624151 265.991794 
L 681.763246 265.77282 
L 683.478492 265.624647 
L 687.332833 265.213644 
L 691.187173 264.655815 
L 692.689415 264.39871 
L 695.041514 264.005621 
L 698.895855 263.249592 
L 700.021747 263.0246 
L 702.750195 262.492771 
L 706.604536 261.774765 
L 707.423199 261.65049 
L 710.458877 261.213945 
L 714.313217 260.760452 
L 718.167558 260.376045 
L 719.252103 260.27638 
L 722.021898 259.983323 
L 725.876239 259.464018 
L 728.868805 258.90227 
L 729.73058 258.616235 
L 732.199799 257.52816 
L 732.892846 256.15405 
L 732.360273 254.77994 
L 731.312897 253.40583 
L 730.157027 252.03172 
L 729.73058 251.285842 
L 729.471219 250.65761 
L 729.659501 249.2835 
L 729.73058 249.205205 
L 731.070399 247.90939 
L 733.263307 246.53528 
L 733.58492 246.377191 
L 736.362403 245.16117 
L 737.439261 244.710096 
L 739.939789 243.78706 
L 741.293602 243.275614 
L 743.914023 242.41295 
L 745.147942 241.970505 
L 748.096155 241.03884 
L 749.002283 240.690554 
L 751.89557 239.66473 
L 752.856624 239.148473 
L 754.512832 238.29062 
L 755.786167 236.91651 
L 756.106291 235.5424 
L 755.851506 234.16829 
L 755.533182 232.79418 
L 755.768109 231.42007 
L 756.710964 230.04596 
L 756.710964 230.04596 
L 758.07304 228.67185 
L 758.920641 227.29774 
L 758.698947 225.923629 
L 756.91091 224.549519 
L 756.710964 224.461056 
L 753.589723 223.175409 
L 752.856624 222.900271 
L 750.096162 221.801299 
L 749.002283 220.911144 
L 748.54879 220.427189 
L 749.002283 219.26158 
L 749.091149 219.053079 
L 750.823294 217.678969 
L 752.599685 216.304859 
L 752.856624 216.090043 
L 754.434937 214.930749 
L 756.209018 213.556639 
L 756.710964 213.218357 
L 758.556113 212.182529 
L 760.565305 211.246629 
L 761.675142 210.808419 
L 764.419646 209.825397 
L 765.632667 209.434309 
L 768.273986 208.553627 
L 769.807544 208.060199 
L 772.128327 207.20139 
L 773.513102 206.686089 
L 775.982668 205.574163 
L 776.558532 205.311979 
L 779.03182 203.937869 
L 779.837008 203.343139 
L 780.903103 202.563759 
L 781.930446 201.189649 
L 781.863566 199.815539 
L 780.651898 198.441429 
L 779.837008 197.888104 
L 778.717167 197.067319 
L 776.658288 195.693209 
L 775.982668 195.243871 
L 774.72333 194.319099 
L 772.811247 192.944989 
L 772.128327 192.251826 
L 771.461666 191.570879 
L 772.128327 190.707112 
L 772.550502 190.196769 
L 775.982668 189.326362 
L 777.782271 188.822659 
L 779.837008 188.503723 
L 783.691349 187.781275 
L 785.213914 187.448549 
L 787.54569 187.044655 
L 791.40003 186.187858 
L 791.861815 186.074439 
L 795.254371 185.240009 
L 797.10526 184.700328 
L 799.108711 183.999659 
L 800.935185 183.326218 
L 802.963052 182.249704 
L 803.560943 181.952108 
L 805.321519 180.577998 
L 806.102649 179.203888 
L 806.255622 177.829778 
L 806.163911 176.455668 
L 806.269723 175.081558 
L 806.764342 173.707448 
L 806.817393 173.601671 
L 807.589956 172.333338 
L 808.117245 170.959228 
L 807.911408 169.585118 
L 806.817393 168.463003 
L 806.583417 168.211008 
L 803.82036 166.836898 
L 802.963052 166.558174 
L 799.108711 165.557495 
L 798.63553 165.462788 
L 795.254371 164.81122 
L 791.40003 164.263369 
L 789.927877 164.088678 
L 787.54569 163.704162 
L 783.691349 163.098869 
L 781.429875 162.714568 
L 779.837008 162.252103 
L 777.011863 161.340458 
L 775.982668 160.876916 
L 773.782957 159.966348 
L 772.128327 159.38118 
L 768.888904 158.592238 
L 768.273986 158.477272 
L 764.419646 158.040325 
L 760.565305 157.86392 
L 756.710964 157.856957 
L 752.856624 157.947326 
L 749.002283 158.068094 
L 745.147942 158.149254 
L 741.293602 158.118292 
L 737.439261 157.913446 
L 733.58492 157.50801 
L 731.731606 157.218128 
L 729.73058 156.33115 
L 728.791104 155.844018 
L 729.73058 155.300048 
L 731.715272 154.469908 
L 733.58492 154.154419 
L 737.439261 153.45882 
L 739.018545 153.095798 
L 741.293602 152.593739 
L 744.196414 151.721688 
L 745.147942 151.275741 
L 746.819842 150.347578 
L 747.297573 148.973468 
L 745.306295 147.599358 
L 745.147942 147.550039 
L 741.293602 146.691987 
L 737.439261 146.240527 
L 737.113596 146.225248 
L 733.58492 146.062167 
L 729.73058 146.096238 
L 727.797157 146.225248 
L 725.876239 146.350936 
L 722.021898 146.821327 
L 718.167558 147.58588 
L 718.110545 147.599358 
L 714.313217 148.452249 
L 711.781731 148.973468 
L 710.458877 149.229616 
L 706.604536 149.682539 
L 702.750195 149.85775 
L 698.895855 149.829551 
L 695.041514 149.665745 
L 691.187173 149.425737 
L 687.332833 149.156365 
L 684.806999 148.973468 
L 683.478492 148.869068 
L 679.624151 148.558533 
L 675.769811 148.25482 
L 671.91547 147.943864 
L 668.061129 147.618281 
L 667.870668 147.599358 
L 664.206789 147.167679 
L 660.352448 146.715617 
L 656.498107 146.28991 
L 655.925977 146.225248 
L 652.643767 145.762448 
L 648.789426 145.273553 
L 645.180369 144.851137 
L 644.935086 144.811975 
L 641.080745 144.133348 
L 637.630043 143.477027 
L 637.226404 143.361834 
L 633.617032 142.102917 
L 633.372064 141.971989 
L 631.48723 140.728807 
L 630.073329 139.354697 
L 629.517723 138.383366 
L 629.327706 137.980587 
L 629.156469 136.606477 
L 629.265409 135.232367 
L 629.359872 133.858257 
L 629.168207 132.484147 
L 628.516766 131.110037 
L 627.311343 129.735927 
L 625.663382 128.483867 
L 625.51316 128.361817 
L 623.37549 126.987707 
L 621.809042 126.230977 
L 620.398299 125.613597 
L 617.954701 124.760992 
L 616.076363 124.239487 
L 614.10036 123.741787 
L 610.24602 123.008874 
L 609.260549 122.865377 
L 606.391679 122.376285 
L 602.537338 121.860342 
L 599.11183 121.491267 
L 598.682998 121.412814 
L 594.828657 120.800606 
L 590.974316 120.217602 
L 590.174103 120.117157 
L 589.669878 118.743047 
L 590.974316 118.296087 
L 592.909898 117.368937 
L 594.828657 116.698789 
L 596.619448 115.994827 
L 598.682998 114.980547 
L 599.3887 114.620717 
L 599.786312 113.246607 
L 598.682998 112.771755 
L 594.828657 111.938252 
L 594.003937 111.872497 
L 590.974316 111.710892 
L 587.119976 111.673077 
L 583.265635 111.714083 
L 579.411294 111.753445 
L 575.556954 111.711412 
L 571.702613 111.505674 
L 567.848273 111.052803 
L 565.128257 110.498387 
L 563.993932 110.145522 
L 561.561464 109.124277 
L 560.139591 108.306808 
L 559.279518 107.750167 
L 556.39797 106.376057 
L 556.285251 106.345433 
L 552.43091 105.209049 
L 551.745051 105.001947 
L 548.576569 104.260153 
L 546.114637 103.627836 
L 544.722229 103.271652 
L 541.438347 102.253726 
L 540.867888 102.029726 
L 538.61328 100.879616 
L 537.051987 99.505506 
L 537.013547 99.425677 
L 536.55982 98.131396 
L 536.357307 96.757286 
L 536.005924 95.383176 
L 535.136746 94.009066 
L 533.393702 92.634956 
L 533.159207 92.495039 
L 530.898771 91.260846 
L 529.304866 90.517118 
L 527.770144 89.886736 
L 525.450525 88.624745 
L 525.246384 88.512626 
L 524.598025 87.138516 
L 525.306651 85.764406 
L 525.450525 85.598945 
L 527.372052 84.390296 
L 529.304866 83.159259 
L 533.159207 83.110141 
L 537.013547 84.075777 
L 537.863612 84.390296 
L 540.867888 85.080855 
L 544.073031 85.764406 
L 544.722229 85.870432 
L 548.576569 86.391695 
L 552.43091 86.698351 
L 556.285251 86.825909 
L 560.139591 86.794323 
L 563.993932 86.603116 
L 567.848273 86.214575 
L 570.494813 85.764406 
L 571.702613 85.489546 
L 574.891147 84.390296 
L 575.556954 83.897069 
L 576.580387 83.016186 
L 576.73396 81.642076 
L 575.682332 80.267966 
L 575.556954 80.17399 
L 573.800412 78.893856 
L 571.702613 77.58814 
L 571.580413 77.519746 
L 569.46766 76.145636 
L 567.848273 75.0157 
L 567.357063 74.771526 
L 563.993932 73.4738 
L 563.483346 73.397416 
L 560.139591 73.034959 
L 556.285251 73.065125 
L 552.43091 73.377724 
L 552.297592 73.397416 
L 548.576569 73.963828 
L 544.949034 74.771526 
L 544.722229 74.830318 
L 540.867888 76.099135 
L 540.739558 76.145636 
L 537.596382 77.519746 
L 537.013547 77.853826 
L 534.747088 78.893856 
L 533.159207 79.877253 
L 531.634239 80.267966 
L 529.304866 81.157061 
L 525.450525 80.576184 
L 524.344469 80.267966 
L 521.596185 79.915257 
L 517.741844 79.400941 
L 513.887503 79.026298 
L 511.713406 78.893856 
L 510.033163 78.798125 
L 506.178822 78.704439 
L 502.324482 78.748862 
L 499.220121 78.893856 
L 498.470141 78.922465 
L 494.6158 79.168741 
L 490.76146 79.506418 
L 486.907119 79.935858 
L 484.388268 80.267966 
L 483.052778 80.418363 
L 479.198438 80.880026 
L 475.344097 81.400321 
L 473.699565 81.642076 
L 471.489756 81.928537 
L 467.635416 82.477173 
L 464.432426 83.016186 
L 463.781075 83.121998 
L 459.926734 83.797607 
L 457.058321 84.390296 
L 456.072394 84.598195 
L 452.218053 85.449075 
L 450.851534 85.764406 
L 448.363712 86.311319 
L 444.509372 87.125772 
L 444.441609 87.138516 
L 440.655031 87.7163 
L 436.80069 88.209036 
L 434.020621 88.512626 
L 432.94635 88.602044 
L 429.092009 88.881835 
L 425.237669 89.173172 
L 421.383328 89.533649 
L 418.565647 89.886736 
L 417.528987 89.997963 
L 413.674647 90.538057 
L 410.145222 91.260846 
L 409.820306 91.328428 
L 405.965965 92.317207 
L 404.950712 92.634956 
L 402.111625 93.680696 
L 401.29364 94.009066 
L 398.5683 95.383176 
L 398.257284 95.588796 
L 396.334294 96.757286 
L 394.652686 98.131396 
L 394.402943 98.391719 
L 393.11439 99.505506 
L 391.797871 100.879616 
L 390.601257 102.253726 
L 390.548603 102.343272 
L 389.661793 103.627836 
L 389.603064 105.001947 
L 390.548603 105.755116 
L 391.909237 106.376057 
L 394.402943 106.891755 
L 398.257284 107.270226 
L 402.111625 107.424211 
L 405.965965 107.548013 
L 407.780723 107.750167 
L 407.489838 109.124277 
L 405.965965 110.092885 
L 405.484173 110.498387 
L 402.897927 111.872497 
L 402.111625 112.228001 
L 399.903911 113.246607 
L 398.257284 113.935594 
L 396.572716 114.620717 
L 394.402943 115.488947 
L 393.07134 115.994827 
L 390.548603 117.072679 
L 389.809615 117.368937 
L 387.178041 118.743047 
L 386.694262 119.148533 
L 385.395889 120.117157 
L 384.560125 121.491267 
L 384.521837 122.865377 
L 385.114133 124.239487 
L 386.221486 125.613597 
L 386.694262 126.079326 
L 387.500713 126.987707 
L 388.425597 128.361817 
L 388.502623 129.735927 
L 387.698383 131.110037 
L 386.694262 132.189303 
L 386.390085 132.484147 
L 384.762298 133.858257 
L 383.370412 135.232367 
L 382.839921 135.783626 
L 381.888885 136.606477 
L 380.244679 137.980587 
L 378.985581 138.972743 
L 378.420239 139.354697 
L 376.415309 140.728807 
L 375.13124 141.915375 
L 374.890458 142.102917 
L 373.783572 143.477027 
L 373.506463 144.851137 
L 373.907163 146.225248 
L 374.664135 147.599358 
L 375.13124 148.887703 
L 375.153656 148.973468 
L 375.13124 149.067361 
L 374.718681 150.347578 
L 373.156306 151.721688 
L 371.276899 152.846423 
L 370.796801 153.095798 
L 367.685862 154.469908 
L 367.422559 154.581538 
L 364.304595 155.844018 
L 363.568218 156.179847 
L 361.121691 157.218128 
L 359.713877 157.935737 
L 358.226264 158.592238 
L 355.859537 159.738183 
L 355.256639 159.966348 
L 352.005196 161.024382 
L 350.619119 161.340458 
L 348.150856 161.751071 
L 344.296515 162.136687 
L 340.442174 162.294409 
L 336.587834 162.236648 
L 332.733493 161.987452 
L 328.879152 161.589363 
L 326.96297 161.340458 
L 325.024812 160.999503 
L 321.170471 160.27158 
L 319.504803 159.966348 
L 317.31613 159.387499 
L 313.895857 158.592238 
L 313.46179 158.434058 
L 309.607449 157.305459 
L 309.151421 157.218128 
L 305.753108 156.198367 
L 302.945563 155.844018 
L 301.898768 155.665065 
L 299.931649 155.844018 
L 298.044427 155.998377 
L 294.720622 157.218128 
L 294.190086 157.362235 
L 291.537259 158.592238 
L 290.335746 158.963787 
L 287.867775 159.966348 
L 286.481405 160.353359 
L 283.359245 161.340458 
L 282.627065 161.510404 
L 278.772724 162.374866 
L 276.913325 162.714568 
L 274.918383 163.006714 
L 271.064043 163.317736 
L 267.209702 163.233656 
L 263.67921 162.714568 
L 263.355361 162.662056 
L 259.501021 161.820414 
L 257.150303 161.340458 
L 255.64668 161.079532 
L 251.792339 160.567987 
L 247.937999 160.26627 
L 244.083658 160.136543 
L 240.229317 160.149214 
L 236.374977 160.285081 
L 232.520636 160.530215 
L 228.666295 160.864839 
L 224.811955 161.244832 
L 223.63341 161.340458 
L 220.957614 161.590568 
L 217.103273 161.785624 
L 213.248933 161.717941 
L 209.394592 161.388396 
L 208.986521 161.340458 
L 205.540252 161.02291 
L 201.685911 160.738922 
L 197.83157 160.60573 
L 193.97723 160.654329 
L 190.122889 160.904631 
L 186.648479 161.340458 
L 186.268548 161.401256 
L 182.414208 162.311633 
L 181.131762 162.714568 
L 178.857094 164.088678 
L 178.559867 165.109844 
L 178.457663 165.462788 
L 178.559867 165.695085 
L 179.104163 166.836898 
L 179.179191 168.211008 
L 178.559867 168.584677 
L 176.900928 169.585118 
L 174.705526 170.166583 
L 171.466421 170.959228 
L 170.851186 171.058334 
L 166.996845 171.590127 
L 163.142504 172.07557 
L 161.029051 172.333338 
L 159.288164 172.507491 
L 155.433823 172.925935 
L 151.579482 173.448704 
L 150.010266 173.707448 
L 147.725142 174.084897 
L 143.870801 174.896655 
L 143.119636 175.081558 
L 140.016461 175.936202 
L 138.365837 176.455668 
L 136.16212 177.274248 
L 134.73916 177.829778 
L 132.307779 178.998658 
L 131.879444 179.203888 
L 129.594431 180.577998 
L 128.453439 181.556126 
L 127.965572 181.952108 
L 126.838074 183.326218 
L 126.224508 184.700328 
L 126.024336 186.074439 
L 126.217603 187.448549 
L 126.853029 188.822659 
L 127.98848 190.196769 
L 128.453439 190.628973 
L 129.339028 191.570879 
L 130.462153 192.944989 
L 130.77772 194.319099 
L 129.994657 195.693209 
L 128.453439 197.023279 
L 128.393682 197.067319 
L 125.797207 198.441429 
L 124.599098 199.011925 
L 122.704608 199.815539 
L 120.744757 200.603 
L 119.184049 201.189649 
L 116.890417 202.04817 
L 115.48745 202.563759 
L 113.036076 203.510049 
L 111.930308 203.937869 
L 109.181735 205.097228 
L 108.667845 205.311979 
L 105.601576 206.686089 
L 105.327395 206.814067 
L 102.547255 208.060199 
L 101.473054 208.587923 
L 99.622895 209.434309 
L 97.618713 210.502795 
L 96.986608 210.808419 
L 94.630893 212.182529 
L 93.764373 212.864087 
L 92.743904 213.556639 
L 91.212523 214.930749 
L 89.981322 216.304859 
L 89.910032 216.385641 
L 88.589212 217.678969 
L 87.342253 219.053079 
L 86.367565 220.427189 
L 86.055691 221.098324 
L 85.653847 221.801299 
L 85.38096 223.175409 
L 85.760444 224.549519 
L 86.055691 224.896074 
L 86.803103 225.923629 
L 88.819384 227.29774 
L 89.910032 227.800692 
L 91.791646 228.67185 
L 93.764373 229.468848 
L 95.138968 230.04596 
L 97.618713 231.348724 
L 97.734675 231.42007 
L 98.794623 232.79418 
L 99.147831 234.16829 
L 99.467186 235.5424 
L 100.30083 236.91651 
L 101.473054 237.952523 
L 101.81227 238.29062 
L 103.448728 239.66473 
L 104.743389 241.03884 
L 105.179283 242.41295 
L 104.983455 243.78706 
L 104.679805 245.16117 
L 104.599818 246.53528 
L 104.856695 247.90939 
L 105.327395 248.972411 
L 105.438234 249.2835 
L 106.181715 250.65761 
L 107.377045 252.03172 
L 109.181735 253.325476 
L 109.274501 253.40583 
L 111.090867 254.77994 
L 113.036076 256.058751 
L 113.1485 256.15405 
L 114.593804 257.52816 
L 115.997515 258.90227 
L 116.890417 259.729062 
L 117.389821 260.27638 
L 118.917198 261.65049 
L 120.744757 262.865512 
L 120.980379 263.0246 
L 123.475635 264.39871 
L 124.599098 264.887263 
L 126.895977 265.77282 
L 128.453439 266.262849 
L 132.055924 267.14693 
L 132.307779 267.201682 
L 136.16212 267.884184 
L 140.016461 268.34759 
L 141.966043 268.521041 
L 143.870801 268.703907 
L 147.725142 268.991872 
L 151.579482 269.217797 
L 155.433823 269.405928 
L 159.288164 269.564928 
L 163.142504 269.691719 
L 166.996845 269.777578 
L 170.851186 269.814074 
L 174.705526 269.796483 
L 178.559867 269.724756 
L 182.414208 269.603728 
L 186.268548 269.443897 
L 190.122889 269.262769 
L 193.97723 269.085505 
L 197.83157 268.943032 
L 201.685911 268.866663 
L 205.540252 268.880294 
L 209.394592 268.992925 
L 213.248933 269.194601 
L 217.103273 269.458099 
L 220.957614 269.746737 
L 222.895687 269.895151 
L 224.811955 270.106115 
L 228.666295 270.486713 
L 232.520636 270.781988 
L 236.374977 270.997827 
L 240.229317 271.145188 
L 244.083658 271.235761 
L 246.950824 271.269261 
L 247.937999 271.288924 
L 251.792339 271.30382 
L 255.64668 271.269835 
L 255.68051 271.269261 
L 259.501021 271.233271 
L 263.355361 271.189725 
L 267.209702 271.148715 
L 271.064043 271.117724 
L 274.918383 271.10016 
L 278.772724 271.094986 
L 282.627065 271.098003 
L 286.481405 271.10381 
L 290.335746 271.107349 
L 294.190086 271.10459 
L 298.044427 271.092521 
L 301.898768 271.068782 
L 305.753108 271.031193 
L 309.607449 270.977385 
L 313.46179 270.904676 
L 317.31613 270.810358 
L 321.170471 270.69257 
L 325.024812 270.552067 
L 328.879152 270.395148 
L 332.733493 270.237393 
L 336.587834 270.105768 
L 340.442174 270.033754 
L 344.296515 270.04591 
L 348.150856 270.140275 
L 352.005196 270.286634 
L 355.859537 270.444284 
L 359.713877 270.581798 
L 363.568218 270.685205 
L 367.422559 270.757067 
L 371.276899 270.813712 
L 375.13124 270.882535 
L 378.985581 270.994869 
L 382.839921 271.169678 
L 384.399985 271.269261 
L 386.694262 271.50684 
L 390.548603 271.943464 
L 394.402943 272.321102 
L 398.257284 272.61086 
L 398.779839 272.643371 
z
M 469.103869 258.90227 
L 467.635416 258.819459 
L 463.781075 258.607208 
L 459.926734 258.399532 
L 456.072394 258.200168 
L 452.218053 258.014614 
L 448.363712 257.848907 
L 444.509372 257.706999 
L 440.655031 257.587695 
L 438.448465 257.52816 
L 436.80069 257.483246 
L 432.94635 257.378984 
L 429.092009 257.25399 
L 425.237669 257.0857 
L 421.383328 256.851715 
L 417.528987 256.530963 
L 414.112329 256.15405 
L 413.674647 256.103097 
L 409.820306 255.5402 
L 405.965965 254.819939 
L 405.781048 254.77994 
L 402.111625 253.866024 
L 400.529801 253.40583 
L 398.257284 252.620057 
L 396.700476 252.03172 
L 394.402943 251.009864 
L 393.622477 250.65761 
L 390.860657 249.2835 
L 390.548603 249.121437 
L 388.028529 247.90939 
L 386.694262 247.248597 
L 385.041187 246.53528 
L 382.839921 245.541573 
L 381.828154 245.16117 
L 378.985581 243.963664 
L 378.466362 243.78706 
L 375.215764 242.41295 
L 375.13124 242.365955 
L 372.103039 241.03884 
L 371.276899 240.552704 
L 369.105613 239.66473 
L 367.422559 238.916145 
L 364.581384 238.29062 
L 363.568218 238.106177 
L 359.713877 238.159654 
L 359.00124 238.29062 
L 355.859537 238.994765 
L 354.01981 239.66473 
L 352.005196 240.393657 
L 350.514507 241.03884 
L 348.150856 241.91026 
L 346.822792 242.41295 
L 344.296515 243.220555 
L 342.385791 243.78706 
L 340.442174 244.306337 
L 336.711011 245.16117 
L 336.587834 245.188086 
L 332.733493 245.867665 
L 328.879152 246.332017 
L 325.565069 246.53528 
L 325.024812 246.568241 
L 321.170471 246.583797 
L 320.206969 246.53528 
L 317.31613 246.394414 
L 313.46179 246.022858 
L 309.607449 245.480309 
L 307.860212 245.16117 
L 305.753108 244.820125 
L 301.898768 244.05611 
L 300.746161 243.78706 
L 298.044427 243.222807 
L 294.707703 242.41295 
L 294.190086 242.289007 
L 290.335746 241.231102 
L 289.713173 241.03884 
L 286.481405 239.853718 
L 286.019978 239.66473 
L 283.600864 238.29062 
L 282.627065 237.396488 
L 282.122828 236.91651 
L 281.194825 235.5424 
L 280.510309 234.16829 
L 279.89072 232.79418 
L 279.300898 231.42007 
L 278.772972 230.04596 
L 278.772724 230.045258 
L 278.285094 228.67185 
L 277.79575 227.29774 
L 277.240938 225.923629 
L 276.636998 224.549519 
L 276.088907 223.175409 
L 275.737941 221.801299 
L 275.704435 220.427189 
L 276.074878 219.053079 
L 276.925038 217.678969 
L 278.330694 216.304859 
L 278.772724 215.982361 
L 280.282422 214.930749 
L 282.627065 213.614486 
L 282.735239 213.556639 
L 285.564896 212.182529 
L 286.481405 211.778257 
L 288.835125 210.808419 
L 290.335746 210.255988 
L 292.831376 209.434309 
L 294.190086 209.038992 
L 298.044427 208.07209 
L 298.099524 208.060199 
L 301.898768 207.29381 
L 305.475679 206.686089 
L 305.753108 206.639226 
L 309.607449 206.067617 
L 313.46179 205.588413 
L 316.242255 205.311979 
L 317.31613 205.199189 
L 321.170471 204.896902 
L 325.024812 204.703766 
L 328.879152 204.618472 
L 332.733493 204.640792 
L 336.587834 204.77636 
L 340.442174 205.037934 
L 343.136867 205.311979 
L 344.296515 205.442571 
L 348.150856 206.006468 
L 352.005196 206.679785 
L 352.047126 206.686089 
L 355.859537 207.290223 
L 359.713877 207.594253 
L 363.568218 207.39343 
L 367.422559 206.694935 
L 367.451304 206.686089 
L 371.276899 205.592357 
L 372.029708 205.311979 
L 375.13124 204.259717 
L 375.916628 203.937869 
L 378.985581 202.821182 
L 379.596321 202.563759 
L 382.839921 201.352843 
L 383.228071 201.189649 
L 386.694262 199.853999 
L 386.78479 199.815539 
L 390.094342 198.441429 
L 390.548603 198.252113 
L 393.140185 197.067319 
L 394.402943 196.481954 
L 396.006231 195.693209 
L 398.257284 194.610605 
L 398.85115 194.319099 
L 401.862793 192.944989 
L 402.111625 192.842011 
L 405.243304 191.570879 
L 405.965965 191.30454 
L 409.090617 190.196769 
L 409.820306 189.950379 
L 413.306611 188.822659 
L 413.674647 188.702156 
L 417.528987 187.489198 
L 417.664062 187.448549 
L 421.383328 186.248693 
L 421.954017 186.074439 
L 425.237669 184.968484 
L 426.094627 184.700328 
L 429.092009 183.657482 
L 430.140389 183.326218 
L 432.94635 182.348189 
L 434.223431 181.952108 
L 436.80069 181.083896 
L 438.521207 180.577998 
L 440.655031 179.906703 
L 443.281779 179.203888 
L 444.509372 178.856819 
L 448.363712 177.963883 
L 449.108422 177.829778 
L 452.218053 177.242511 
L 456.072394 176.717782 
L 459.155483 176.455668 
L 459.926734 176.386049 
L 463.781075 176.224109 
L 467.635416 176.228084 
L 471.489756 176.357324 
L 473.35632 176.455668 
L 475.344097 176.538285 
L 479.198438 176.712006 
L 483.052778 176.864725 
L 486.907119 176.986687 
L 490.76146 177.084298 
L 494.6158 177.176259 
L 498.470141 177.29046 
L 502.324482 177.462428 
L 506.178822 177.734998 
L 507.082009 177.829778 
L 510.033163 178.166383 
L 513.887503 178.806795 
L 515.700346 179.203888 
L 517.741844 179.665218 
L 521.207446 180.577998 
L 521.596185 180.666719 
L 525.450525 181.586477 
L 526.960969 181.952108 
L 529.304866 182.406387 
L 533.159207 183.163748 
L 534.000414 183.326218 
L 537.013547 183.829558 
L 540.867888 184.482477 
L 542.215239 184.700328 
L 544.722229 185.077243 
L 548.576569 185.629642 
L 551.878689 186.074439 
L 552.43091 186.144694 
L 556.285251 186.573127 
L 560.139591 186.970414 
L 563.993932 187.333951 
L 565.461133 187.448549 
L 567.848273 187.618054 
L 571.702613 187.824807 
L 575.556954 187.950293 
L 579.411294 187.970975 
L 583.265635 187.868719 
L 587.119976 187.634233 
L 589.147257 187.448549 
L 590.974316 187.219194 
L 594.828657 186.582816 
L 597.335294 186.074439 
L 598.682998 185.745345 
L 602.465422 184.700328 
L 602.537338 184.68187 
L 606.391679 183.707566 
L 607.951682 183.326218 
L 610.24602 182.88622 
L 614.10036 182.241593 
L 616.248441 181.952108 
L 617.954701 181.772018 
L 621.809042 181.497841 
L 625.663382 181.341898 
L 629.517723 181.324229 
L 633.372064 181.503255 
L 636.883151 181.952108 
L 637.226404 182.068781 
L 639.227858 183.326218 
L 639.540721 184.700328 
L 639.728302 186.074439 
L 640.455215 187.448549 
L 641.080745 188.241579 
L 641.420654 188.822659 
L 642.048258 190.196769 
L 642.106393 191.570879 
L 641.494972 192.944989 
L 641.080745 193.420255 
L 640.224405 194.319099 
L 638.570319 195.693209 
L 637.226404 196.790319 
L 636.895761 197.067319 
L 635.589317 198.441429 
L 634.756257 199.815539 
L 634.239081 201.189649 
L 633.775461 202.563759 
L 633.372064 203.48236 
L 633.201915 203.937869 
L 632.545736 205.311979 
L 631.918994 206.686089 
L 631.487734 208.060199 
L 631.298021 209.434309 
L 631.246438 210.808419 
L 631.164544 212.182529 
L 630.909514 213.556639 
L 630.394757 214.930749 
L 629.587266 216.304859 
L 629.517723 216.393926 
L 628.586147 217.678969 
L 627.453319 219.053079 
L 626.334586 220.427189 
L 625.663382 221.389265 
L 625.400541 221.801299 
L 624.748252 223.175409 
L 624.291449 224.549519 
L 623.921774 225.923629 
L 623.502173 227.29774 
L 622.918627 228.67185 
L 622.105727 230.04596 
L 621.809042 230.436594 
L 621.093327 231.42007 
L 619.86239 232.79418 
L 618.432606 234.16829 
L 617.954701 234.60028 
L 616.936721 235.5424 
L 615.425663 236.91651 
L 614.10036 238.120965 
L 613.917703 238.29062 
L 612.403801 239.66473 
L 610.732286 241.03884 
L 610.24602 241.392268 
L 608.823748 242.41295 
L 606.608585 243.78706 
L 606.391679 243.90939 
L 604.070151 245.16117 
L 602.537338 245.908236 
L 601.167934 246.53528 
L 598.682998 247.555679 
L 597.749638 247.90939 
L 594.828657 248.877724 
L 593.481403 249.2835 
L 590.974316 249.939174 
L 587.949231 250.65761 
L 587.119976 250.833449 
L 583.265635 251.625097 
L 581.245631 252.03172 
L 579.411294 252.380215 
L 575.556954 253.126525 
L 574.164729 253.40583 
L 571.702613 253.883351 
L 567.848273 254.6351 
L 567.125366 254.77994 
L 563.993932 255.375844 
L 560.139591 256.071181 
L 559.675792 256.15405 
L 556.285251 256.720977 
L 552.43091 257.306119 
L 550.858204 257.52816 
L 548.576569 257.835451 
L 544.722229 258.304802 
L 540.867888 258.708358 
L 538.733028 258.90227 
L 537.013547 259.059554 
L 533.159207 259.360611 
L 529.304866 259.603829 
L 525.450525 259.796127 
L 521.596185 259.944887 
L 517.741844 260.057101 
L 513.887503 260.138357 
L 510.033163 260.191944 
L 506.178822 260.21837 
L 502.324482 260.215578 
L 498.470141 260.179948 
L 494.6158 260.107944 
L 490.76146 259.997974 
L 486.907119 259.851796 
L 483.052778 259.674807 
L 479.198438 259.474934 
L 475.344097 259.260671 
L 471.489756 259.039254 
z
M 551.333257 124.239487 
L 552.128299 122.865377 
L 552.43091 122.72404 
L 555.877722 121.491267 
L 556.285251 121.379276 
L 560.139591 120.70039 
L 563.993932 120.288625 
L 567.848273 120.187945 
L 571.702613 120.589283 
L 573.915455 121.491267 
L 571.702613 122.622052 
L 571.382884 122.865377 
L 567.848273 123.948391 
L 566.952539 124.239487 
L 563.993932 124.803747 
L 560.139591 125.343819 
L 556.285251 125.478425 
L 552.43091 124.801831 
z
M 278.772724 150.443075 
L 282.627065 150.886435 
L 286.481405 151.192675 
L 290.335746 151.373151 
L 294.190086 151.381273 
L 298.044427 151.052935 
L 300.781029 150.347578 
L 301.898768 150.114208 
L 305.223932 148.973468 
L 305.753108 148.766521 
L 308.155968 147.599358 
L 309.580905 146.225248 
L 308.995354 144.851137 
L 305.753108 143.550311 
L 305.520108 143.477027 
L 301.898768 142.768478 
L 298.044427 142.200803 
L 297.202626 142.102917 
L 294.190086 141.732668 
L 290.335746 141.341074 
L 286.481405 141.040126 
L 282.627065 140.880498 
L 278.772724 140.986774 
L 274.918383 141.644547 
L 273.699117 142.102917 
L 271.064043 143.043012 
L 270.247655 143.477027 
L 268.239595 144.851137 
L 267.542145 146.225248 
L 268.405083 147.599358 
L 271.064043 148.865218 
L 271.354356 148.973468 
L 274.918383 149.823953 
L 278.163625 150.347578 
z
M 309.607449 113.537553 
L 313.46179 114.11356 
L 317.31613 114.143067 
L 321.170471 113.801442 
L 324.424916 113.246607 
L 325.024812 113.089122 
L 328.411982 111.872497 
L 328.879152 111.38356 
L 329.620764 110.498387 
L 328.879152 109.833106 
L 327.441278 109.124277 
L 325.024812 108.730112 
L 321.170471 108.582669 
L 317.31613 108.804406 
L 315.007196 109.124277 
L 313.46179 109.425247 
L 309.690205 110.498387 
L 309.607449 110.550389 
L 307.852299 111.872497 
L 308.693206 113.246607 
z
M 575.556954 105.174646 
L 579.411294 105.406512 
L 583.265635 105.412606 
L 587.119976 105.232446 
L 589.481237 105.001947 
L 590.974316 104.840509 
L 594.828657 104.214617 
L 597.415324 103.627836 
L 598.682998 103.175517 
L 600.750509 102.253726 
L 601.744593 100.879616 
L 601.392374 99.505506 
L 601.356795 98.131396 
L 602.537338 97.239117 
L 603.038055 96.757286 
L 606.188683 95.383176 
L 606.391679 95.320085 
L 609.986161 94.009066 
L 610.24602 93.917993 
L 613.55903 92.634956 
L 614.10036 92.357323 
L 616.158139 91.260846 
L 617.185846 89.886736 
L 615.928208 88.512626 
L 614.10036 87.939235 
L 610.24602 87.229169 
L 609.190135 87.138516 
L 606.391679 86.955795 
L 602.537338 86.911229 
L 598.682998 87.041897 
L 597.36937 87.138516 
L 594.828657 87.337808 
L 590.974316 87.801837 
L 587.232415 88.512626 
L 587.119976 88.540586 
L 583.265635 89.800727 
L 583.064293 89.886736 
L 580.753449 91.260846 
L 579.460234 92.634956 
L 579.411294 92.774084 
L 578.96195 94.009066 
L 579.157365 95.383176 
L 579.411294 96.129913 
L 579.702269 96.757286 
L 579.651019 98.131396 
L 579.411294 98.329433 
L 578.135841 99.505506 
L 575.556954 100.748463 
L 575.294093 100.879616 
L 572.603398 102.253726 
L 571.702613 103.21845 
L 571.252397 103.627836 
L 571.702613 103.984929 
L 574.22407 105.001947 
z
M 309.607449 93.232177 
L 313.46179 93.687905 
L 317.31613 93.812662 
L 321.170471 93.677991 
L 325.024812 93.304637 
L 328.879152 92.67004 
L 329.03729 92.634956 
L 332.733493 91.311267 
L 332.850488 91.260846 
L 333.882165 89.886736 
L 332.914414 88.512626 
L 332.733493 88.395291 
L 329.784805 87.138516 
L 328.879152 86.778886 
L 325.024812 86.126765 
L 321.170471 86.179272 
L 317.31613 86.686631 
L 315.339639 87.138516 
L 313.46179 87.482434 
L 309.607449 88.49298 
L 309.547353 88.512626 
L 306.245992 89.886736 
L 305.753108 90.48076 
L 305.151732 91.260846 
L 305.753108 91.809354 
L 306.976441 92.634956 
z
M 398.257284 81.138125 
L 402.111625 81.519824 
L 405.965965 81.495908 
L 409.820306 81.143894 
L 413.674647 80.462607 
L 414.435817 80.267966 
L 417.528987 78.947419 
L 417.632832 78.893856 
L 418.163345 77.519746 
L 417.528987 77.068211 
L 415.583219 76.145636 
L 413.674647 75.761352 
L 409.820306 75.411312 
L 405.965965 75.42148 
L 402.111625 75.73445 
L 399.512061 76.145636 
L 398.257284 76.434681 
L 394.979705 77.519746 
L 394.402943 78.030627 
L 393.552166 78.893856 
L 394.402943 79.963009 
L 394.748446 80.267966 
z
" clip-path="url(#pe647c3a39e)" style="fill: #ededed"/>
    <path d="M 471.489756 259.039254 
L 475.344097 259.260671 
L 479.198438 259.474934 
L 483.052778 259.674807 
L 486.907119 259.851796 
L 490.76146 259.997974 
L 494.6158 260.107944 
L 498.470141 260.179948 
L 502.324482 260.215578 
L 506.178822 260.21837 
L 510.033163 260.191944 
L 513.887503 260.138357 
L 517.741844 260.057101 
L 521.596185 259.944887 
L 525.450525 259.796127 
L 529.304866 259.603829 
L 533.159207 259.360611 
L 537.013547 259.059554 
L 538.733028 258.90227 
L 540.867888 258.708358 
L 544.722229 258.304802 
L 548.576569 257.835451 
L 550.858204 257.52816 
L 552.43091 257.306119 
L 556.285251 256.720977 
L 559.675792 256.15405 
L 560.139591 256.071181 
L 563.993932 255.375844 
L 567.125366 254.77994 
L 567.848273 254.6351 
L 571.702613 253.883351 
L 574.164729 253.40583 
L 575.556954 253.126525 
L 579.411294 252.380215 
L 581.245631 252.03172 
L 583.265635 251.625097 
L 587.119976 250.833449 
L 587.949231 250.65761 
L 590.974316 249.939174 
L 593.481403 249.2835 
L 594.828657 248.877724 
L 597.749638 247.90939 
L 598.682998 247.555679 
L 601.167934 246.53528 
L 602.537338 245.908236 
L 604.070151 245.16117 
L 606.391679 243.90939 
L 606.608585 243.78706 
L 608.823748 242.41295 
L 610.24602 241.392268 
L 610.732286 241.03884 
L 612.403801 239.66473 
L 613.917703 238.29062 
L 614.10036 238.120965 
L 615.425663 236.91651 
L 616.936721 235.5424 
L 617.954701 234.60028 
L 618.432606 234.16829 
L 619.86239 232.79418 
L 621.093327 231.42007 
L 621.809042 230.436594 
L 622.105727 230.04596 
L 622.918627 228.67185 
L 623.502173 227.29774 
L 623.921774 225.923629 
L 624.291449 224.549519 
L 624.748252 223.175409 
L 625.400541 221.801299 
L 625.663382 221.389265 
L 626.334586 220.427189 
L 627.453319 219.053079 
L 628.586147 217.678969 
L 629.517723 216.393926 
L 629.587266 216.304859 
L 630.394757 214.930749 
L 630.909514 213.556639 
L 631.164544 212.182529 
L 631.246438 210.808419 
L 631.298021 209.434309 
L 631.487734 208.060199 
L 631.918994 206.686089 
L 632.545736 205.311979 
L 633.201915 203.937869 
L 633.372064 203.48236 
L 633.775461 202.563759 
L 634.239081 201.189649 
L 634.756257 199.815539 
L 635.589317 198.441429 
L 636.895761 197.067319 
L 637.226404 196.790319 
L 638.570319 195.693209 
L 640.224405 194.319099 
L 641.080745 193.420255 
L 641.494972 192.944989 
L 642.106393 191.570879 
L 642.048258 190.196769 
L 641.420654 188.822659 
L 641.080745 188.241579 
L 640.455215 187.448549 
L 639.728302 186.074439 
L 639.540721 184.700328 
L 639.227858 183.326218 
L 637.226404 182.068781 
L 636.883151 181.952108 
L 633.372064 181.503255 
L 629.517723 181.324229 
L 625.663382 181.341898 
L 621.809042 181.497841 
L 617.954701 181.772018 
L 616.248441 181.952108 
L 614.10036 182.241593 
L 610.24602 182.88622 
L 607.951682 183.326218 
L 606.391679 183.707566 
L 602.537338 184.68187 
L 602.465422 184.700328 
L 598.682998 185.745345 
L 597.335294 186.074439 
L 594.828657 186.582816 
L 590.974316 187.219194 
L 589.147257 187.448549 
L 587.119976 187.634233 
L 583.265635 187.868719 
L 579.411294 187.970975 
L 575.556954 187.950293 
L 571.702613 187.824807 
L 567.848273 187.618054 
L 565.461133 187.448549 
L 563.993932 187.333951 
L 560.139591 186.970414 
L 556.285251 186.573127 
L 552.43091 186.144694 
L 551.878689 186.074439 
L 548.576569 185.629642 
L 544.722229 185.077243 
L 542.215239 184.700328 
L 540.867888 184.482477 
L 537.013547 183.829558 
L 534.000414 183.326218 
L 533.159207 183.163748 
L 529.304866 182.406387 
L 526.960969 181.952108 
L 525.450525 181.586477 
L 521.596185 180.666719 
L 521.207446 180.577998 
L 517.741844 179.665218 
L 515.700346 179.203888 
L 513.887503 178.806795 
L 510.033163 178.166383 
L 507.082009 177.829778 
L 506.178822 177.734998 
L 502.324482 177.462428 
L 498.470141 177.29046 
L 494.6158 177.176259 
L 490.76146 177.084298 
L 486.907119 176.986687 
L 483.052778 176.864725 
L 479.198438 176.712006 
L 475.344097 176.538285 
L 473.35632 176.455668 
L 471.489756 176.357324 
L 467.635416 176.228084 
L 463.781075 176.224109 
L 459.926734 176.386049 
L 459.155483 176.455668 
L 456.072394 176.717782 
L 452.218053 177.242511 
L 449.108422 177.829778 
L 448.363712 177.963883 
L 444.509372 178.856819 
L 443.281779 179.203888 
L 440.655031 179.906703 
L 438.521207 180.577998 
L 436.80069 181.083896 
L 434.223431 181.952108 
L 432.94635 182.348189 
L 430.140389 183.326218 
L 429.092009 183.657482 
L 426.094627 184.700328 
L 425.237669 184.968484 
L 421.954017 186.074439 
L 421.383328 186.248693 
L 417.664062 187.448549 
L 417.528987 187.489198 
L 413.674647 188.702156 
L 413.306611 188.822659 
L 409.820306 189.950379 
L 409.090617 190.196769 
L 405.965965 191.30454 
L 405.243304 191.570879 
L 402.111625 192.842011 
L 401.862793 192.944989 
L 398.85115 194.319099 
L 398.257284 194.610605 
L 396.006231 195.693209 
L 394.402943 196.481954 
L 393.140185 197.067319 
L 390.548603 198.252113 
L 390.094342 198.441429 
L 386.78479 199.815539 
L 386.694262 199.853999 
L 383.228071 201.189649 
L 382.839921 201.352843 
L 379.596321 202.563759 
L 378.985581 202.821182 
L 375.916628 203.937869 
L 375.13124 204.259717 
L 372.029708 205.311979 
L 371.276899 205.592357 
L 367.451304 206.686089 
L 367.422559 206.694935 
L 363.568218 207.39343 
L 359.713877 207.594253 
L 355.859537 207.290223 
L 352.047126 206.686089 
L 352.005196 206.679785 
L 348.150856 206.006468 
L 344.296515 205.442571 
L 343.136867 205.311979 
L 340.442174 205.037934 
L 336.587834 204.77636 
L 332.733493 204.640792 
L 328.879152 204.618472 
L 325.024812 204.703766 
L 321.170471 204.896902 
L 317.31613 205.199189 
L 316.242255 205.311979 
L 313.46179 205.588413 
L 309.607449 206.067617 
L 305.753108 206.639226 
L 305.475679 206.686089 
L 301.898768 207.29381 
L 298.099524 208.060199 
L 298.044427 208.07209 
L 294.190086 209.038992 
L 292.831376 209.434309 
L 290.335746 210.255988 
L 288.835125 210.808419 
L 286.481405 211.778257 
L 285.564896 212.182529 
L 282.735239 213.556639 
L 282.627065 213.614486 
L 280.282422 214.930749 
L 278.772724 215.982361 
L 278.330694 216.304859 
L 276.925038 217.678969 
L 276.074878 219.053079 
L 275.704435 220.427189 
L 275.737941 221.801299 
L 276.088907 223.175409 
L 276.636998 224.549519 
L 277.240938 225.923629 
L 277.79575 227.29774 
L 278.285094 228.67185 
L 278.772724 230.045258 
L 278.772972 230.04596 
L 279.300898 231.42007 
L 279.89072 232.79418 
L 280.510309 234.16829 
L 281.194825 235.5424 
L 282.122828 236.91651 
L 282.627065 237.396488 
L 283.600864 238.29062 
L 286.019978 239.66473 
L 286.481405 239.853718 
L 289.713173 241.03884 
L 290.335746 241.231102 
L 294.190086 242.289007 
L 294.707703 242.41295 
L 298.044427 243.222807 
L 300.746161 243.78706 
L 301.898768 244.05611 
L 305.753108 244.820125 
L 307.860212 245.16117 
L 309.607449 245.480309 
L 313.46179 246.022858 
L 317.31613 246.394414 
L 320.206969 246.53528 
L 321.170471 246.583797 
L 325.024812 246.568241 
L 325.565069 246.53528 
L 328.879152 246.332017 
L 332.733493 245.867665 
L 336.587834 245.188086 
L 336.711011 245.16117 
L 340.442174 244.306337 
L 342.385791 243.78706 
L 344.296515 243.220555 
L 346.822792 242.41295 
L 348.150856 241.91026 
L 350.514507 241.03884 
L 352.005196 240.393657 
L 354.01981 239.66473 
L 355.859537 238.994765 
L 359.00124 238.29062 
L 359.713877 238.159654 
L 363.568218 238.106177 
L 364.581384 238.29062 
L 367.422559 238.916145 
L 369.105613 239.66473 
L 371.276899 240.552704 
L 372.103039 241.03884 
L 375.13124 242.365955 
L 375.215764 242.41295 
L 378.466362 243.78706 
L 378.985581 243.963664 
L 381.828154 245.16117 
L 382.839921 245.541573 
L 385.041187 246.53528 
L 386.694262 247.248597 
L 388.028529 247.90939 
L 390.548603 249.121437 
L 390.860657 249.2835 
L 393.622477 250.65761 
L 394.402943 251.009864 
L 396.700476 252.03172 
L 398.257284 252.620057 
L 400.529801 253.40583 
L 402.111625 253.866024 
L 405.781048 254.77994 
L 405.965965 254.819939 
L 409.820306 255.5402 
L 413.674647 256.103097 
L 414.112329 256.15405 
L 417.528987 256.530963 
L 421.383328 256.851715 
L 425.237669 257.0857 
L 429.092009 257.25399 
L 432.94635 257.378984 
L 436.80069 257.483246 
L 438.448465 257.52816 
L 440.655031 257.587695 
L 444.509372 257.706999 
L 448.363712 257.848907 
L 452.218053 258.014614 
L 456.072394 258.200168 
L 459.926734 258.399532 
L 463.781075 258.607208 
L 467.635416 258.819459 
L 469.103869 258.90227 
z
M 494.048922 254.77994 
L 490.76146 254.60036 
L 486.907119 254.374068 
L 483.052778 254.133472 
L 479.198438 253.874299 
L 475.344097 253.587869 
L 473.146829 253.40583 
L 471.489756 253.268876 
L 467.635416 252.907998 
L 463.781075 252.497227 
L 459.926734 252.047837 
L 459.787008 252.03172 
L 456.072394 251.598013 
L 452.218053 251.166689 
L 448.363712 250.779662 
L 446.908267 250.65761 
L 444.509372 250.464378 
L 440.655031 250.208469 
L 436.80069 249.982925 
L 432.94635 249.75285 
L 429.092009 249.4728 
L 427.143469 249.2835 
L 425.237669 249.090842 
L 421.383328 248.5429 
L 418.218291 247.90939 
L 417.528987 247.754565 
L 413.674647 246.63325 
L 413.398423 246.53528 
L 409.994965 245.16117 
L 409.820306 245.081873 
L 407.254195 243.78706 
L 405.965965 243.085728 
L 404.804461 242.41295 
L 402.539184 241.03884 
L 402.111625 240.773696 
L 400.403468 239.66473 
L 398.427532 238.29062 
L 398.257284 238.166613 
L 396.574179 236.91651 
L 394.912282 235.5424 
L 394.402943 235.07164 
L 393.384045 234.16829 
L 392.031788 232.79418 
L 390.893529 231.42007 
L 390.548603 230.898343 
L 389.913549 230.04596 
L 389.172089 228.67185 
L 388.72868 227.29774 
L 388.570172 225.923629 
L 388.651265 224.549519 
L 388.904504 223.175409 
L 389.255818 221.801299 
L 389.646824 220.427189 
L 390.053432 219.053079 
L 390.485438 217.678969 
L 390.548603 217.499064 
L 390.928026 216.304859 
L 391.469408 214.930749 
L 392.207231 213.556639 
L 393.273811 212.182529 
L 394.402943 211.160205 
L 394.78044 210.808419 
L 396.726229 209.434309 
L 398.257284 208.55926 
L 399.131387 208.060199 
L 401.887964 206.686089 
L 402.111625 206.582508 
L 404.965279 205.311979 
L 405.965965 204.895951 
L 408.444289 203.937869 
L 409.820306 203.43039 
L 412.422816 202.563759 
L 413.674647 202.15086 
L 416.969497 201.189649 
L 417.528987 201.019781 
L 421.383328 199.982733 
L 422.084927 199.815539 
L 425.237669 198.997291 
L 427.666874 198.441429 
L 429.092009 198.081235 
L 432.94635 197.204155 
L 433.59348 197.067319 
L 436.80069 196.33186 
L 439.851452 195.693209 
L 440.655031 195.514643 
L 444.509372 194.70026 
L 446.425856 194.319099 
L 448.363712 193.910092 
L 452.218053 193.133788 
L 453.189009 192.944989 
L 456.072394 192.350488 
L 459.926734 191.606039 
L 460.117967 191.570879 
L 463.781075 190.893169 
L 467.635416 190.270991 
L 468.154154 190.196769 
L 471.489756 189.748702 
L 475.344097 189.327822 
L 479.198438 189.000241 
L 481.925141 188.822659 
L 483.052778 188.752516 
L 486.907119 188.568712 
L 490.76146 188.443238 
L 494.6158 188.372219 
L 498.470141 188.355909 
L 502.324482 188.398377 
L 506.178822 188.506948 
L 510.033163 188.691521 
L 511.89847 188.822659 
L 513.887503 188.95662 
L 517.741844 189.309473 
L 521.596185 189.76314 
L 524.636442 190.196769 
L 525.450525 190.31024 
L 529.304866 190.911127 
L 533.159207 191.561803 
L 533.212063 191.570879 
L 537.013547 192.189 
L 540.867888 192.819736 
L 541.649698 192.944989 
L 544.722229 193.423696 
L 548.576569 194.028847 
L 550.425808 194.319099 
L 552.43091 194.643409 
L 556.285251 195.273971 
L 558.821857 195.693209 
L 560.139591 195.928798 
L 563.993932 196.614634 
L 566.503506 197.067319 
L 567.848273 197.341693 
L 571.702613 198.147945 
L 573.046873 198.441429 
L 575.556954 199.084068 
L 578.188748 199.815539 
L 579.411294 200.206827 
L 582.273561 201.189649 
L 583.265635 201.572581 
L 585.680051 202.563759 
L 587.119976 203.240696 
L 588.507929 203.937869 
L 590.768712 205.311979 
L 590.974316 205.459889 
L 592.582067 206.686089 
L 594.043359 208.060199 
L 594.828657 208.942201 
L 595.264672 209.434309 
L 596.286727 210.808419 
L 597.052394 212.182529 
L 597.550731 213.556639 
L 597.807066 214.930749 
L 597.866625 216.304859 
L 597.7634 217.678969 
L 597.513364 219.053079 
L 597.136544 220.427189 
L 596.678588 221.801299 
L 596.203872 223.175409 
L 595.751659 224.549519 
L 595.282073 225.923629 
L 594.828657 226.944484 
L 594.674744 227.29774 
L 593.801672 228.67185 
L 592.5743 230.04596 
L 591.010653 231.42007 
L 590.974316 231.448211 
L 589.297253 232.79418 
L 587.47714 234.16829 
L 587.119976 234.437387 
L 585.719033 235.5424 
L 583.963956 236.91651 
L 583.265635 237.444687 
L 582.198635 238.29062 
L 580.275154 239.66473 
L 579.411294 240.19438 
L 578.075199 241.03884 
L 575.556954 242.349653 
L 575.436621 242.41295 
L 572.380085 243.78706 
L 571.702613 244.054499 
L 568.870111 245.16117 
L 567.848273 245.525831 
L 564.997496 246.53528 
L 563.993932 246.868163 
L 560.857595 247.90939 
L 560.139591 248.133083 
L 556.448673 249.2835 
L 556.285251 249.330773 
L 552.43091 250.435215 
L 551.625215 250.65761 
L 548.576569 251.429045 
L 545.997132 252.03172 
L 544.722229 252.305733 
L 540.867888 253.050553 
L 538.741679 253.40583 
L 537.013547 253.674757 
L 533.159207 254.178669 
L 529.304866 254.580581 
L 526.820903 254.77994 
L 525.450525 254.885003 
L 521.596185 255.099543 
L 517.741844 255.238342 
L 513.887503 255.30847 
L 510.033163 255.315369 
L 506.178822 255.263452 
L 502.324482 255.157443 
L 498.470141 255.003903 
L 494.6158 254.811925 
z
" clip-path="url(#pe647c3a39e)" style="fill: #c9c9c9"/>
    <path d="M 494.6158 254.811925 
L 498.470141 255.003903 
L 502.324482 255.157443 
L 506.178822 255.263452 
L 510.033163 255.315369 
L 513.887503 255.30847 
L 517.741844 255.238342 
L 521.596185 255.099543 
L 525.450525 254.885003 
L 526.820903 254.77994 
L 529.304866 254.580581 
L 533.159207 254.178669 
L 537.013547 253.674757 
L 538.741679 253.40583 
L 540.867888 253.050553 
L 544.722229 252.305733 
L 545.997132 252.03172 
L 548.576569 251.429045 
L 551.625215 250.65761 
L 552.43091 250.435215 
L 556.285251 249.330773 
L 556.448673 249.2835 
L 560.139591 248.133083 
L 560.857595 247.90939 
L 563.993932 246.868163 
L 564.997496 246.53528 
L 567.848273 245.525831 
L 568.870111 245.16117 
L 571.702613 244.054499 
L 572.380085 243.78706 
L 575.436621 242.41295 
L 575.556954 242.349653 
L 578.075199 241.03884 
L 579.411294 240.19438 
L 580.275154 239.66473 
L 582.198635 238.29062 
L 583.265635 237.444687 
L 583.963956 236.91651 
L 585.719033 235.5424 
L 587.119976 234.437387 
L 587.47714 234.16829 
L 589.297253 232.79418 
L 590.974316 231.448211 
L 591.010653 231.42007 
L 592.5743 230.04596 
L 593.801672 228.67185 
L 594.674744 227.29774 
L 594.828657 226.944484 
L 595.282073 225.923629 
L 595.751659 224.549519 
L 596.203872 223.175409 
L 596.678588 221.801299 
L 597.136544 220.427189 
L 597.513364 219.053079 
L 597.7634 217.678969 
L 597.866625 216.304859 
L 597.807066 214.930749 
L 597.550731 213.556639 
L 597.052394 212.182529 
L 596.286727 210.808419 
L 595.264672 209.434309 
L 594.828657 208.942201 
L 594.043359 208.060199 
L 592.582067 206.686089 
L 590.974316 205.459889 
L 590.768712 205.311979 
L 588.507929 203.937869 
L 587.119976 203.240696 
L 585.680051 202.563759 
L 583.265635 201.572581 
L 582.273561 201.189649 
L 579.411294 200.206827 
L 578.188748 199.815539 
L 575.556954 199.084068 
L 573.046873 198.441429 
L 571.702613 198.147945 
L 567.848273 197.341693 
L 566.503506 197.067319 
L 563.993932 196.614634 
L 560.139591 195.928798 
L 558.821857 195.693209 
L 556.285251 195.273971 
L 552.43091 194.643409 
L 550.425808 194.319099 
L 548.576569 194.028847 
L 544.722229 193.423696 
L 541.649698 192.944989 
L 540.867888 192.819736 
L 537.013547 192.189 
L 533.212063 191.570879 
L 533.159207 191.561803 
L 529.304866 190.911127 
L 525.450525 190.31024 
L 524.636442 190.196769 
L 521.596185 189.76314 
L 517.741844 189.309473 
L 513.887503 188.95662 
L 511.89847 188.822659 
L 510.033163 188.691521 
L 506.178822 188.506948 
L 502.324482 188.398377 
L 498.470141 188.355909 
L 494.6158 188.372219 
L 490.76146 188.443238 
L 486.907119 188.568712 
L 483.052778 188.752516 
L 481.925141 188.822659 
L 479.198438 189.000241 
L 475.344097 189.327822 
L 471.489756 189.748702 
L 468.154154 190.196769 
L 467.635416 190.270991 
L 463.781075 190.893169 
L 460.117967 191.570879 
L 459.926734 191.606039 
L 456.072394 192.350488 
L 453.189009 192.944989 
L 452.218053 193.133788 
L 448.363712 193.910092 
L 446.425856 194.319099 
L 444.509372 194.70026 
L 440.655031 195.514643 
L 439.851452 195.693209 
L 436.80069 196.33186 
L 433.59348 197.067319 
L 432.94635 197.204155 
L 429.092009 198.081235 
L 427.666874 198.441429 
L 425.237669 198.997291 
L 422.084927 199.815539 
L 421.383328 199.982733 
L 417.528987 201.019781 
L 416.969497 201.189649 
L 413.674647 202.15086 
L 412.422816 202.563759 
L 409.820306 203.43039 
L 408.444289 203.937869 
L 405.965965 204.895951 
L 404.965279 205.311979 
L 402.111625 206.582508 
L 401.887964 206.686089 
L 399.131387 208.060199 
L 398.257284 208.55926 
L 396.726229 209.434309 
L 394.78044 210.808419 
L 394.402943 211.160205 
L 393.273811 212.182529 
L 392.207231 213.556639 
L 391.469408 214.930749 
L 390.928026 216.304859 
L 390.548603 217.499064 
L 390.485438 217.678969 
L 390.053432 219.053079 
L 389.646824 220.427189 
L 389.255818 221.801299 
L 388.904504 223.175409 
L 388.651265 224.549519 
L 388.570172 225.923629 
L 388.72868 227.29774 
L 389.172089 228.67185 
L 389.913549 230.04596 
L 390.548603 230.898343 
L 390.893529 231.42007 
L 392.031788 232.79418 
L 393.384045 234.16829 
L 394.402943 235.07164 
L 394.912282 235.5424 
L 396.574179 236.91651 
L 398.257284 238.166613 
L 398.427532 238.29062 
L 400.403468 239.66473 
L 402.111625 240.773696 
L 402.539184 241.03884 
L 404.804461 242.41295 
L 405.965965 243.085728 
L 407.254195 243.78706 
L 409.820306 245.081873 
L 409.994965 245.16117 
L 413.398423 246.53528 
L 413.674647 246.63325 
L 417.528987 247.754565 
L 418.218291 247.90939 
L 421.383328 248.5429 
L 425.237669 249.090842 
L 427.143469 249.2835 
L 429.092009 249.4728 
L 432.94635 249.75285 
L 436.80069 249.982925 
L 440.655031 250.208469 
L 444.509372 250.464378 
L 446.908267 250.65761 
L 448.363712 250.779662 
L 452.218053 251.166689 
L 456.072394 251.598013 
L 459.787008 252.03172 
L 459.926734 252.047837 
L 463.781075 252.497227 
L 467.635416 252.907998 
L 471.489756 253.268876 
L 473.146829 253.40583 
L 475.344097 253.587869 
L 479.198438 253.874299 
L 483.052778 254.133472 
L 486.907119 254.374068 
L 490.76146 254.60036 
L 494.048922 254.77994 
z
M 482.448546 249.2835 
L 479.198438 248.964688 
L 475.344097 248.515476 
L 471.489756 247.999204 
L 470.865178 247.90939 
L 467.635416 247.428997 
L 463.781075 246.844201 
L 461.704294 246.53528 
L 459.926734 246.26263 
L 456.072394 245.695717 
L 452.28346 245.16117 
L 452.218053 245.150834 
L 448.363712 244.573994 
L 444.509372 243.995554 
L 443.109995 243.78706 
L 440.655031 243.340632 
L 436.80069 242.608849 
L 435.829962 242.41295 
L 432.94635 241.763605 
L 429.96725 241.03884 
L 429.092009 240.829773 
L 425.237669 239.816164 
L 424.73644 239.66473 
L 421.383328 238.707584 
L 420.157248 238.29062 
L 417.528987 237.40229 
L 416.336623 236.91651 
L 413.674647 235.747473 
L 413.278717 235.5424 
L 410.983157 234.16829 
L 409.820306 233.276439 
L 409.255742 232.79418 
L 408.062587 231.42007 
L 407.239933 230.04596 
L 406.69469 228.67185 
L 406.354831 227.29774 
L 406.178065 225.923629 
L 406.135622 224.549519 
L 406.196554 223.175409 
L 406.334119 221.801299 
L 406.548831 220.427189 
L 406.882496 219.053079 
L 407.404679 217.678969 
L 408.181403 216.304859 
L 409.255281 214.930749 
L 409.820306 214.360351 
L 410.698086 213.556639 
L 412.536355 212.182529 
L 413.674647 211.470668 
L 414.860413 210.808419 
L 417.528987 209.522441 
L 417.735528 209.434309 
L 421.356969 208.060199 
L 421.383328 208.051237 
L 425.237669 206.885775 
L 425.984597 206.686089 
L 429.092009 205.925344 
L 431.89001 205.311979 
L 432.94635 205.095078 
L 436.80069 204.371337 
L 439.242839 203.937869 
L 440.655031 203.694373 
L 444.509372 203.044529 
L 447.320127 202.563759 
L 448.363712 202.384948 
L 452.218053 201.702985 
L 454.988119 201.189649 
L 456.072394 200.987709 
L 459.926734 200.240033 
L 462.049041 199.815539 
L 463.781075 199.474319 
L 467.635416 198.708641 
L 468.982417 198.441429 
L 471.489756 197.956631 
L 475.344097 197.244896 
L 476.35341 197.067319 
L 479.198438 196.57131 
L 483.052778 195.971086 
L 485.110143 195.693209 
L 486.907119 195.445844 
L 490.76146 195.009422 
L 494.6158 194.687313 
L 498.470141 194.480568 
L 502.324482 194.389958 
L 506.178822 194.416052 
L 510.033163 194.55821 
L 513.887503 194.81288 
L 517.741844 195.172006 
L 521.596185 195.62273 
L 522.117811 195.693209 
L 525.450525 196.133968 
L 529.304866 196.70719 
L 531.525922 197.067319 
L 533.159207 197.336656 
L 537.013547 198.027242 
L 539.145295 198.441429 
L 540.867888 198.792472 
L 544.722229 199.646699 
L 545.44198 199.815539 
L 548.576569 200.597718 
L 550.794568 201.189649 
L 552.43091 201.653926 
L 555.469189 202.563759 
L 556.285251 202.823637 
L 559.636033 203.937869 
L 560.139591 204.116412 
L 563.395522 205.311979 
L 563.993932 205.549439 
L 566.77313 206.686089 
L 567.848273 207.179267 
L 569.714116 208.060199 
L 571.702613 209.192584 
L 572.116108 209.434309 
L 573.97949 210.808419 
L 575.245176 212.182529 
L 575.556954 212.705132 
L 576.078642 213.556639 
L 576.610051 214.930749 
L 576.948906 216.304859 
L 577.129156 217.678969 
L 577.09185 219.053079 
L 576.762761 220.427189 
L 576.140679 221.801299 
L 575.556954 222.788739 
L 575.341226 223.175409 
L 574.545625 224.549519 
L 573.797326 225.923629 
L 573.063673 227.29774 
L 572.21576 228.67185 
L 571.702613 229.321611 
L 571.161841 230.04596 
L 569.857453 231.42007 
L 568.304938 232.79418 
L 567.848273 233.171306 
L 566.678699 234.16829 
L 565.019737 235.5424 
L 563.993932 236.37865 
L 563.345323 236.91651 
L 561.572768 238.29062 
L 560.139591 239.241326 
L 559.491898 239.66473 
L 556.923673 241.03884 
L 556.285251 241.323613 
L 553.73982 242.41295 
L 552.43091 242.904861 
L 549.971164 243.78706 
L 548.576569 244.258775 
L 545.765266 245.16117 
L 544.722229 245.489932 
L 541.157215 246.53528 
L 540.867888 246.61812 
L 537.013547 247.617373 
L 535.705813 247.90939 
L 533.159207 248.446089 
L 529.304866 249.106362 
L 527.984039 249.2835 
L 525.450525 249.600212 
L 521.596185 249.954249 
L 517.741844 250.190118 
L 513.887503 250.326344 
L 510.033163 250.38122 
L 506.178822 250.371034 
L 502.324482 250.30878 
L 498.470141 250.203107 
L 494.6158 250.05753 
L 490.76146 249.870151 
L 486.907119 249.634132 
L 483.052778 249.339167 
z
" clip-path="url(#pe647c3a39e)" style="fill: #a4a4a4"/>
    <path d="M 483.052778 249.339167 
L 486.907119 249.634132 
L 490.76146 249.870151 
L 494.6158 250.05753 
L 498.470141 250.203107 
L 502.324482 250.30878 
L 506.178822 250.371034 
L 510.033163 250.38122 
L 513.887503 250.326344 
L 517.741844 250.190118 
L 521.596185 249.954249 
L 525.450525 249.600212 
L 527.984039 249.2835 
L 529.304866 249.106362 
L 533.159207 248.446089 
L 535.705813 247.90939 
L 537.013547 247.617373 
L 540.867888 246.61812 
L 541.157215 246.53528 
L 544.722229 245.489932 
L 545.765266 245.16117 
L 548.576569 244.258775 
L 549.971164 243.78706 
L 552.43091 242.904861 
L 553.73982 242.41295 
L 556.285251 241.323613 
L 556.923673 241.03884 
L 559.491898 239.66473 
L 560.139591 239.241326 
L 561.572768 238.29062 
L 563.345323 236.91651 
L 563.993932 236.37865 
L 565.019737 235.5424 
L 566.678699 234.16829 
L 567.848273 233.171306 
L 568.304938 232.79418 
L 569.857453 231.42007 
L 571.161841 230.04596 
L 571.702613 229.321611 
L 572.21576 228.67185 
L 573.063673 227.29774 
L 573.797326 225.923629 
L 574.545625 224.549519 
L 575.341226 223.175409 
L 575.556954 222.788739 
L 576.140679 221.801299 
L 576.762761 220.427189 
L 577.09185 219.053079 
L 577.129156 217.678969 
L 576.948906 216.304859 
L 576.610051 214.930749 
L 576.078642 213.556639 
L 575.556954 212.705132 
L 575.245176 212.182529 
L 573.97949 210.808419 
L 572.116108 209.434309 
L 571.702613 209.192584 
L 569.714116 208.060199 
L 567.848273 207.179267 
L 566.77313 206.686089 
L 563.993932 205.549439 
L 563.395522 205.311979 
L 560.139591 204.116412 
L 559.636033 203.937869 
L 556.285251 202.823637 
L 555.469189 202.563759 
L 552.43091 201.653926 
L 550.794568 201.189649 
L 548.576569 200.597718 
L 545.44198 199.815539 
L 544.722229 199.646699 
L 540.867888 198.792472 
L 539.145295 198.441429 
L 537.013547 198.027242 
L 533.159207 197.336656 
L 531.525922 197.067319 
L 529.304866 196.70719 
L 525.450525 196.133968 
L 522.117811 195.693209 
L 521.596185 195.62273 
L 517.741844 195.172006 
L 513.887503 194.81288 
L 510.033163 194.55821 
L 506.178822 194.416052 
L 502.324482 194.389958 
L 498.470141 194.480568 
L 494.6158 194.687313 
L 490.76146 195.009422 
L 486.907119 195.445844 
L 485.110143 195.693209 
L 483.052778 195.971086 
L 479.198438 196.57131 
L 476.35341 197.067319 
L 475.344097 197.244896 
L 471.489756 197.956631 
L 468.982417 198.441429 
L 467.635416 198.708641 
L 463.781075 199.474319 
L 462.049041 199.815539 
L 459.926734 200.240033 
L 456.072394 200.987709 
L 454.988119 201.189649 
L 452.218053 201.702985 
L 448.363712 202.384948 
L 447.320127 202.563759 
L 444.509372 203.044529 
L 440.655031 203.694373 
L 439.242839 203.937869 
L 436.80069 204.371337 
L 432.94635 205.095078 
L 431.89001 205.311979 
L 429.092009 205.925344 
L 425.984597 206.686089 
L 425.237669 206.885775 
L 421.383328 208.051237 
L 421.356969 208.060199 
L 417.735528 209.434309 
L 417.528987 209.522441 
L 414.860413 210.808419 
L 413.674647 211.470668 
L 412.536355 212.182529 
L 410.698086 213.556639 
L 409.820306 214.360351 
L 409.255281 214.930749 
L 408.181403 216.304859 
L 407.404679 217.678969 
L 406.882496 219.053079 
L 406.548831 220.427189 
L 406.334119 221.801299 
L 406.196554 223.175409 
L 406.135622 224.549519 
L 406.178065 225.923629 
L 406.354831 227.29774 
L 406.69469 228.67185 
L 407.239933 230.04596 
L 408.062587 231.42007 
L 409.255742 232.79418 
L 409.820306 233.276439 
L 410.983157 234.16829 
L 413.278717 235.5424 
L 413.674647 235.747473 
L 416.336623 236.91651 
L 417.528987 237.40229 
L 420.157248 238.29062 
L 421.383328 238.707584 
L 424.73644 239.66473 
L 425.237669 239.816164 
L 429.092009 240.829773 
L 429.96725 241.03884 
L 432.94635 241.763605 
L 435.829962 242.41295 
L 436.80069 242.608849 
L 440.655031 243.340632 
L 443.109995 243.78706 
L 444.509372 243.995554 
L 448.363712 244.573994 
L 452.218053 245.150834 
L 452.28346 245.16117 
L 456.072394 245.695717 
L 459.926734 246.26263 
L 461.704294 246.53528 
L 463.781075 246.844201 
L 467.635416 247.428997 
L 470.865178 247.90939 
L 471.489756 247.999204 
L 475.344097 248.515476 
L 479.198438 248.964688 
L 482.448546 249.2835 
z
M 494.366363 245.16117 
L 490.76146 244.90603 
L 486.907119 244.546619 
L 483.052778 244.109798 
L 480.580742 243.78706 
L 479.198438 243.600485 
L 475.344097 243.015395 
L 471.765235 242.41295 
L 471.489756 242.362423 
L 467.635416 241.574454 
L 465.288956 241.03884 
L 463.781075 240.638968 
L 460.407881 239.66473 
L 459.926734 239.508264 
L 456.252501 238.29062 
L 456.072394 238.228547 
L 452.218053 236.972364 
L 452.029428 236.91651 
L 448.363712 235.855581 
L 447.119451 235.5424 
L 444.509372 234.872358 
L 441.368167 234.16829 
L 440.655031 233.988863 
L 436.80069 233.085023 
L 435.585943 232.79418 
L 432.94635 231.977148 
L 431.368731 231.42007 
L 429.092009 230.246473 
L 428.770493 230.04596 
L 427.317474 228.67185 
L 426.322002 227.29774 
L 425.573232 225.923629 
L 425.237669 225.083801 
L 425.062618 224.549519 
L 424.823698 223.175409 
L 424.870159 221.801299 
L 425.237669 220.51754 
L 425.267728 220.427189 
L 426.210549 219.053079 
L 427.75669 217.678969 
L 429.092009 216.84214 
L 430.106881 216.304859 
L 432.94635 215.111476 
L 433.429351 214.930749 
L 436.80069 213.82982 
L 437.673872 213.556639 
L 440.655031 212.70354 
L 442.438461 212.182529 
L 444.509372 211.625362 
L 447.374289 210.808419 
L 448.363712 210.552315 
L 452.218053 209.478995 
L 452.364892 209.434309 
L 456.072394 208.429059 
L 457.344013 208.060199 
L 459.926734 207.386281 
L 462.476512 206.686089 
L 463.781075 206.355007 
L 467.635416 205.341354 
L 467.744203 205.311979 
L 471.489756 204.344764 
L 473.078137 203.937869 
L 475.344097 203.373122 
L 478.709065 202.563759 
L 479.198438 202.449737 
L 483.052778 201.605379 
L 485.185767 201.189649 
L 486.907119 200.870231 
L 490.76146 200.271304 
L 494.608716 199.815539 
L 494.6158 199.814742 
L 498.470141 199.524598 
L 502.324482 199.388419 
L 506.178822 199.40256 
L 510.033163 199.557458 
L 513.5679 199.815539 
L 513.887503 199.839498 
L 517.741844 200.237403 
L 521.596185 200.728654 
L 524.672738 201.189649 
L 525.450525 201.307824 
L 529.304866 201.976287 
L 532.276689 202.563759 
L 533.159207 202.742126 
L 537.013547 203.616892 
L 538.283468 203.937869 
L 540.867888 204.611807 
L 543.304245 205.311979 
L 544.722229 205.735111 
L 547.659223 206.686089 
L 548.576569 207.001674 
L 551.451154 208.060199 
L 552.43091 208.462654 
L 554.671956 209.434309 
L 556.285251 210.275965 
L 557.265467 210.808419 
L 559.200919 212.182529 
L 560.139591 213.149355 
L 560.526618 213.556639 
L 561.367547 214.930749 
L 561.849891 216.304859 
L 562.06643 217.678969 
L 562.034457 219.053079 
L 561.733565 220.427189 
L 561.173431 221.801299 
L 560.428067 223.175409 
L 560.139591 223.657632 
L 559.625031 224.549519 
L 558.817567 225.923629 
L 557.968668 227.29774 
L 556.982719 228.67185 
L 556.285251 229.462036 
L 555.770908 230.04596 
L 554.30681 231.42007 
L 552.616283 232.79418 
L 552.43091 232.936186 
L 550.819335 234.16829 
L 548.926852 235.5424 
L 548.576569 235.783643 
L 546.883282 236.91651 
L 544.722229 238.168985 
L 544.498671 238.29062 
L 541.523474 239.66473 
L 540.867888 239.921406 
L 537.692491 241.03884 
L 537.013547 241.251714 
L 533.159207 242.31297 
L 532.732371 242.41295 
L 529.304866 243.184782 
L 526.012903 243.78706 
L 525.450525 243.889285 
L 521.596185 244.45011 
L 517.741844 244.86984 
L 513.960512 245.16117 
L 513.887503 245.16673 
L 510.033163 245.352421 
L 506.178822 245.439825 
L 502.324482 245.43773 
L 498.470141 245.350135 
L 494.6158 245.17772 
z
" clip-path="url(#pe647c3a39e)" style="fill: #7f7f7f"/>
    <path d="M 494.6158 245.17772 
L 498.470141 245.350135 
L 502.324482 245.43773 
L 506.178822 245.439825 
L 510.033163 245.352421 
L 513.887503 245.16673 
L 513.960512 245.16117 
L 517.741844 244.86984 
L 521.596185 244.45011 
L 525.450525 243.889285 
L 526.012903 243.78706 
L 529.304866 243.184782 
L 532.732371 242.41295 
L 533.159207 242.31297 
L 537.013547 241.251714 
L 537.692491 241.03884 
L 540.867888 239.921406 
L 541.523474 239.66473 
L 544.498671 238.29062 
L 544.722229 238.168985 
L 546.883282 236.91651 
L 548.576569 235.783643 
L 548.926852 235.5424 
L 550.819335 234.16829 
L 552.43091 232.936186 
L 552.616283 232.79418 
L 554.30681 231.42007 
L 555.770908 230.04596 
L 556.285251 229.462036 
L 556.982719 228.67185 
L 557.968668 227.29774 
L 558.817567 225.923629 
L 559.625031 224.549519 
L 560.139591 223.657632 
L 560.428067 223.175409 
L 561.173431 221.801299 
L 561.733565 220.427189 
L 562.034457 219.053079 
L 562.06643 217.678969 
L 561.849891 216.304859 
L 561.367547 214.930749 
L 560.526618 213.556639 
L 560.139591 213.149355 
L 559.200919 212.182529 
L 557.265467 210.808419 
L 556.285251 210.275965 
L 554.671956 209.434309 
L 552.43091 208.462654 
L 551.451154 208.060199 
L 548.576569 207.001674 
L 547.659223 206.686089 
L 544.722229 205.735111 
L 543.304245 205.311979 
L 540.867888 204.611807 
L 538.283468 203.937869 
L 537.013547 203.616892 
L 533.159207 202.742126 
L 532.276689 202.563759 
L 529.304866 201.976287 
L 525.450525 201.307824 
L 524.672738 201.189649 
L 521.596185 200.728654 
L 517.741844 200.237403 
L 513.887503 199.839498 
L 513.5679 199.815539 
L 510.033163 199.557458 
L 506.178822 199.40256 
L 502.324482 199.388419 
L 498.470141 199.524598 
L 494.6158 199.814742 
L 494.608716 199.815539 
L 490.76146 200.271304 
L 486.907119 200.870231 
L 485.185767 201.189649 
L 483.052778 201.605379 
L 479.198438 202.449737 
L 478.709065 202.563759 
L 475.344097 203.373122 
L 473.078137 203.937869 
L 471.489756 204.344764 
L 467.744203 205.311979 
L 467.635416 205.341354 
L 463.781075 206.355007 
L 462.476512 206.686089 
L 459.926734 207.386281 
L 457.344013 208.060199 
L 456.072394 208.429059 
L 452.364892 209.434309 
L 452.218053 209.478995 
L 448.363712 210.552315 
L 447.374289 210.808419 
L 444.509372 211.625362 
L 442.438461 212.182529 
L 440.655031 212.70354 
L 437.673872 213.556639 
L 436.80069 213.82982 
L 433.429351 214.930749 
L 432.94635 215.111476 
L 430.106881 216.304859 
L 429.092009 216.84214 
L 427.75669 217.678969 
L 426.210549 219.053079 
L 425.267728 220.427189 
L 425.237669 220.51754 
L 424.870159 221.801299 
L 424.823698 223.175409 
L 425.062618 224.549519 
L 425.237669 225.083801 
L 425.573232 225.923629 
L 426.322002 227.29774 
L 427.317474 228.67185 
L 428.770493 230.04596 
L 429.092009 230.246473 
L 431.368731 231.42007 
L 432.94635 231.977148 
L 435.585943 232.79418 
L 436.80069 233.085023 
L 440.655031 233.988863 
L 441.368167 234.16829 
L 444.509372 234.872358 
L 447.119451 235.5424 
L 448.363712 235.855581 
L 452.029428 236.91651 
L 452.218053 236.972364 
L 456.072394 238.228547 
L 456.252501 238.29062 
L 459.926734 239.508264 
L 460.407881 239.66473 
L 463.781075 240.638968 
L 465.288956 241.03884 
L 467.635416 241.574454 
L 471.489756 242.362423 
L 471.765235 242.41295 
L 475.344097 243.015395 
L 479.198438 243.600485 
L 480.580742 243.78706 
L 483.052778 244.109798 
L 486.907119 244.546619 
L 490.76146 244.90603 
L 494.366363 245.16117 
z
M 498.081632 239.66473 
L 494.6158 239.395116 
L 490.76146 239.00745 
L 486.907119 238.521606 
L 485.399125 238.29062 
L 483.052778 237.909891 
L 479.198438 237.136964 
L 478.278497 236.91651 
L 475.344097 236.16517 
L 473.267395 235.5424 
L 471.489756 234.96891 
L 469.243956 234.16829 
L 467.635416 233.524435 
L 465.88577 232.79418 
L 463.781075 231.7229 
L 463.179464 231.42007 
L 461.12707 230.04596 
L 459.926734 228.860403 
L 459.72182 228.67185 
L 458.653125 227.29774 
L 457.756356 225.923629 
L 456.867233 224.549519 
L 456.072394 223.227068 
L 456.036765 223.175409 
L 455.461054 221.801299 
L 455.578808 220.427189 
L 456.072394 219.743197 
L 456.517222 219.053079 
L 458.199329 217.678969 
L 459.926734 216.674599 
L 460.5209 216.304859 
L 463.191177 214.930749 
L 463.781075 214.657096 
L 466.059419 213.556639 
L 467.635416 212.852546 
L 469.109624 212.182529 
L 471.489756 211.193934 
L 472.430073 210.808419 
L 475.344097 209.742394 
L 476.229322 209.434309 
L 479.198438 208.513351 
L 480.795085 208.060199 
L 483.052778 207.47295 
L 486.490819 206.686089 
L 486.907119 206.595331 
L 490.76146 205.888958 
L 494.6158 205.339426 
L 494.895391 205.311979 
L 498.470141 204.9693 
L 502.324482 204.773917 
L 506.178822 204.747357 
L 510.033163 204.874793 
L 513.887503 205.136682 
L 515.658383 205.311979 
L 517.741844 205.523294 
L 521.596185 206.025973 
L 525.450525 206.632948 
L 525.7349 206.686089 
L 529.304866 207.373745 
L 532.373683 208.060199 
L 533.159207 208.246498 
L 537.013547 209.305511 
L 537.426163 209.434309 
L 540.867888 210.658683 
L 541.242766 210.808419 
L 544.054512 212.182529 
L 544.722229 212.607757 
L 546.065544 213.556639 
L 547.454059 214.930749 
L 548.366882 216.304859 
L 548.576569 216.852064 
L 548.870802 217.678969 
L 549.02765 219.053079 
L 548.861246 220.427189 
L 548.576569 221.277638 
L 548.402296 221.801299 
L 547.71507 223.175409 
L 546.870315 224.549519 
L 545.901687 225.923629 
L 544.789988 227.29774 
L 544.722229 227.370935 
L 543.455745 228.67185 
L 541.881639 230.04596 
L 540.867888 230.831219 
L 540.056887 231.42007 
L 538.029974 232.79418 
L 537.013547 233.449001 
L 535.79632 234.16829 
L 533.278935 235.5424 
L 533.159207 235.600453 
L 530.017255 236.91651 
L 529.304866 237.169359 
L 525.450525 238.277269 
L 525.389885 238.29062 
L 521.596185 239.015505 
L 517.741844 239.529294 
L 516.118261 239.66473 
L 513.887503 239.838781 
L 510.033163 239.985598 
L 506.178822 239.999087 
L 502.324482 239.897071 
L 498.470141 239.693799 
z
" clip-path="url(#pe647c3a39e)" style="fill: #5b5b5b"/>
    <path d="M 498.470141 239.693799 
L 502.324482 239.897071 
L 506.178822 239.999087 
L 510.033163 239.985598 
L 513.887503 239.838781 
L 516.118261 239.66473 
L 517.741844 239.529294 
L 521.596185 239.015505 
L 525.389885 238.29062 
L 525.450525 238.277269 
L 529.304866 237.169359 
L 530.017255 236.91651 
L 533.159207 235.600453 
L 533.278935 235.5424 
L 535.79632 234.16829 
L 537.013547 233.449001 
L 538.029974 232.79418 
L 540.056887 231.42007 
L 540.867888 230.831219 
L 541.881639 230.04596 
L 543.455745 228.67185 
L 544.722229 227.370935 
L 544.789988 227.29774 
L 545.901687 225.923629 
L 546.870315 224.549519 
L 547.71507 223.175409 
L 548.402296 221.801299 
L 548.576569 221.277638 
L 548.861246 220.427189 
L 549.02765 219.053079 
L 548.870802 217.678969 
L 548.576569 216.852064 
L 548.366882 216.304859 
L 547.454059 214.930749 
L 546.065544 213.556639 
L 544.722229 212.607757 
L 544.054512 212.182529 
L 541.242766 210.808419 
L 540.867888 210.658683 
L 537.426163 209.434309 
L 537.013547 209.305511 
L 533.159207 208.246498 
L 532.373683 208.060199 
L 529.304866 207.373745 
L 525.7349 206.686089 
L 525.450525 206.632948 
L 521.596185 206.025973 
L 517.741844 205.523294 
L 515.658383 205.311979 
L 513.887503 205.136682 
L 510.033163 204.874793 
L 506.178822 204.747357 
L 502.324482 204.773917 
L 498.470141 204.9693 
L 494.895391 205.311979 
L 494.6158 205.339426 
L 490.76146 205.888958 
L 486.907119 206.595331 
L 486.490819 206.686089 
L 483.052778 207.47295 
L 480.795085 208.060199 
L 479.198438 208.513351 
L 476.229322 209.434309 
L 475.344097 209.742394 
L 472.430073 210.808419 
L 471.489756 211.193934 
L 469.109624 212.182529 
L 467.635416 212.852546 
L 466.059419 213.556639 
L 463.781075 214.657096 
L 463.191177 214.930749 
L 460.5209 216.304859 
L 459.926734 216.674599 
L 458.199329 217.678969 
L 456.517222 219.053079 
L 456.072394 219.743197 
L 455.578808 220.427189 
L 455.461054 221.801299 
L 456.036765 223.175409 
L 456.072394 223.227068 
L 456.867233 224.549519 
L 457.756356 225.923629 
L 458.653125 227.29774 
L 459.72182 228.67185 
L 459.926734 228.860403 
L 461.12707 230.04596 
L 463.179464 231.42007 
L 463.781075 231.7229 
L 465.88577 232.79418 
L 467.635416 233.524435 
L 469.243956 234.16829 
L 471.489756 234.96891 
L 473.267395 235.5424 
L 475.344097 236.16517 
L 478.278497 236.91651 
L 479.198438 237.136964 
L 483.052778 237.909891 
L 485.399125 238.29062 
L 486.907119 238.521606 
L 490.76146 239.00745 
L 494.6158 239.395116 
L 498.081632 239.66473 
z
M 491.124436 232.79418 
L 490.76146 232.741967 
L 486.907119 231.968869 
L 484.83408 231.42007 
L 483.052778 230.820439 
L 481.193467 230.04596 
L 479.198438 228.86356 
L 478.917954 228.67185 
L 477.534378 227.29774 
L 476.572215 225.923629 
L 475.833514 224.549519 
L 475.344097 223.356904 
L 475.272386 223.175409 
L 474.999113 221.801299 
L 475.199393 220.427189 
L 475.344097 220.195497 
L 476.085608 219.053079 
L 477.735491 217.678969 
L 479.198438 216.81033 
L 480.114377 216.304859 
L 483.052778 214.955126 
L 483.112405 214.930749 
L 486.858035 213.556639 
L 486.907119 213.540069 
L 490.76146 212.463379 
L 492.090035 212.182529 
L 494.6158 211.692482 
L 498.470141 211.191723 
L 502.324482 210.922726 
L 506.178822 210.858691 
L 510.033163 210.976967 
L 513.887503 211.264435 
L 517.741844 211.719828 
L 520.577912 212.182529 
L 521.596185 212.375969 
L 525.450525 213.334633 
L 526.16152 213.556639 
L 529.304866 214.746301 
L 529.701859 214.930749 
L 532.151042 216.304859 
L 533.159207 217.035947 
L 533.888835 217.678969 
L 534.916764 219.053079 
L 535.332362 220.427189 
L 535.181307 221.801299 
L 534.558251 223.175409 
L 533.557138 224.549519 
L 533.159207 224.965464 
L 532.127227 225.923629 
L 530.31819 227.29774 
L 529.304866 227.957403 
L 528.017025 228.67185 
L 525.450525 229.943476 
L 525.198599 230.04596 
L 521.596185 231.411291 
L 521.566298 231.42007 
L 517.741844 232.481878 
L 516.122462 232.79418 
L 513.887503 233.195486 
L 510.033163 233.607544 
L 506.178822 233.780633 
L 502.324482 233.762831 
L 498.470141 233.58309 
L 494.6158 233.248617 
z
" clip-path="url(#pe647c3a39e)" style="fill: #363636"/>
    <path d="M 494.6158 233.248617 
L 498.470141 233.58309 
L 502.324482 233.762831 
L 506.178822 233.780633 
L 510.033163 233.607544 
L 513.887503 233.195486 
L 516.122462 232.79418 
L 517.741844 232.481878 
L 521.566298 231.42007 
L 521.596185 231.411291 
L 525.198599 230.04596 
L 525.450525 229.943476 
L 528.017025 228.67185 
L 529.304866 227.957403 
L 530.31819 227.29774 
L 532.127227 225.923629 
L 533.159207 224.965464 
L 533.557138 224.549519 
L 534.558251 223.175409 
L 535.181307 221.801299 
L 535.332362 220.427189 
L 534.916764 219.053079 
L 533.888835 217.678969 
L 533.159207 217.035947 
L 532.151042 216.304859 
L 529.701859 214.930749 
L 529.304866 214.746301 
L 526.16152 213.556639 
L 525.450525 213.334633 
L 521.596185 212.375969 
L 520.577912 212.182529 
L 517.741844 211.719828 
L 513.887503 211.264435 
L 510.033163 210.976967 
L 506.178822 210.858691 
L 502.324482 210.922726 
L 498.470141 211.191723 
L 494.6158 211.692482 
L 492.090035 212.182529 
L 490.76146 212.463379 
L 486.907119 213.540069 
L 486.858035 213.556639 
L 483.112405 214.930749 
L 483.052778 214.955126 
L 480.114377 216.304859 
L 479.198438 216.81033 
L 477.735491 217.678969 
L 476.085608 219.053079 
L 475.344097 220.195497 
L 475.199393 220.427189 
L 474.999113 221.801299 
L 475.272386 223.175409 
L 475.344097 223.356904 
L 475.833514 224.549519 
L 476.572215 225.923629 
L 477.534378 227.29774 
L 478.917954 228.67185 
L 479.198438 228.86356 
L 481.193467 230.04596 
L 483.052778 230.820439 
L 484.83408 231.42007 
L 486.907119 231.968869 
L 490.76146 232.741967 
L 491.124436 232.79418 
z
" clip-path="url(#pe647c3a39e)" style="fill: #121212"/>
   </g>
   <g id="matplotlib.axis_1">
    <g id="xtick_1">
     <g id="line2d_1">
      <defs>
       <path id="mdc6620079a" d="M 0 0 
L 0 -3.5 
" style="stroke: #000000; stroke-width: 0.8"/>
      </defs>
      <g>
       <use xlink:href="#mdc6620079a" x="76.172344" y="283.636251" style="stroke: #000000; stroke-width: 0.8"/>
      </g>
     </g>
     <g id="line2d_2">
      <defs>
       <path id="mc8c4e03eb9" d="M 0 0 
L 0 3.5 
" style="stroke: #000000; stroke-width: 0.8"/>
      </defs>
      <g>
       <use xlink:href="#mc8c4e03eb9" x="76.172344" y="10.188354" style="stroke: #000000; stroke-width: 0.8"/>
      </g>
     </g>
     <g id="text_1">
      <text style="font: 15px 'Arial', sans-serif; text-anchor: middle" x="76.172344" y="297.87297" transform="rotate(-0 76.172344 297.87297)">0.0</text>
     </g>
    </g>
    <g id="xtick_2">
     <g id="line2d_3">
      <g>
       <use xlink:href="#mdc6620079a" x="208.90125" y="283.636251" style="stroke: #000000; stroke-width: 0.8"/>
      </g>
     </g>
     <g id="line2d_4">
      <g>
       <use xlink:href="#mc8c4e03eb9" x="208.90125" y="10.188354" style="stroke: #000000; stroke-width: 0.8"/>
      </g>
     </g>
     <g id="text_2">
      <text style="font: 15px 'Arial', sans-serif; text-anchor: middle" x="208.90125" y="297.87297" transform="rotate(-0 208.90125 297.87297)">0.5</text>
     </g>
    </g>
    <g id="xtick_3">
     <g id="line2d_5">
      <g>
       <use xlink:href="#mdc6620079a" x="341.630156" y="283.636251" style="stroke: #000000; stroke-width: 0.8"/>
      </g>
     </g>
     <g id="line2d_6">
      <g>
       <use xlink:href="#mc8c4e03eb9" x="341.630156" y="10.188354" style="stroke: #000000; stroke-width: 0.8"/>
      </g>
     </g>
     <g id="text_3">
      <text style="font: 15px 'Arial', sans-serif; text-anchor: middle" x="341.630156" y="297.87297" transform="rotate(-0 341.630156 297.87297)">1.0</text>
     </g>
    </g>
    <g id="xtick_4">
     <g id="line2d_7">
      <g>
       <use xlink:href="#mdc6620079a" x="474.359062" y="283.636251" style="stroke: #000000; stroke-width: 0.8"/>
      </g>
     </g>
     <g id="line2d_8">
      <g>
       <use xlink:href="#mc8c4e03eb9" x="474.359062" y="10.188354" style="stroke: #000000; stroke-width: 0.8"/>
      </g>
     </g>
     <g id="text_4">
      <text style="font: 15px 'Arial', sans-serif; text-anchor: middle" x="474.359062" y="297.87297" transform="rotate(-0 474.359062 297.87297)">1.5</text>
     </g>
    </g>
    <g id="xtick_5">
     <g id="line2d_9">
      <g>
       <use xlink:href="#mdc6620079a" x="607.087969" y="283.636251" style="stroke: #000000; stroke-width: 0.8"/>
      </g>
     </g>
     <g id="line2d_10">
      <g>
       <use xlink:href="#mc8c4e03eb9" x="607.087969" y="10.188354" style="stroke: #000000; stroke-width: 0.8"/>
      </g>
     </g>
     <g id="text_5">
      <text style="font: 15px 'Arial', sans-serif; text-anchor: middle" x="607.087969" y="297.87297" transform="rotate(-0 607.087969 297.87297)">2.0</text>
     </g>
    </g>
    <g id="xtick_6">
     <g id="line2d_11">
      <g>
       <use xlink:href="#mdc6620079a" x="739.816875" y="283.636251" style="stroke: #000000; stroke-width: 0.8"/>
      </g>
     </g>
     <g id="line2d_12">
      <g>
       <use xlink:href="#mc8c4e03eb9" x="739.816875" y="10.188354" style="stroke: #000000; stroke-width: 0.8"/>
      </g>
     </g>
     <g id="text_6">
      <text style="font: 15px 'Arial', sans-serif; text-anchor: middle" x="739.816875" y="297.87297" transform="rotate(-0 739.816875 297.87297)">2.5</text>
     </g>
    </g>
    <g id="text_7">
     <text style="font: 15px 'Arial', sans-serif" transform="translate(391.126172 315.590938)">Patristic distance</text>
     <text style="font: 15px 'Arial', sans-serif" transform="translate(374.455078 331.675626)">(substitutions per site)</text>
    </g>
   </g>
   <g id="matplotlib.axis_2">
    <g id="ytick_1">
     <g id="line2d_13">
      <defs>
       <path id="m1f001482c4" d="M 0 0 
L 3.5 0 
" style="stroke: #000000; stroke-width: 0.8"/>
      </defs>
      <g>
       <use xlink:href="#m1f001482c4" x="49.626562" y="264.46253" style="stroke: #000000; stroke-width: 0.8"/>
      </g>
     </g>
     <g id="line2d_14">
      <defs>
       <path id="m0009913a79" d="M 0 0 
L -3.5 0 
" style="stroke: #000000; stroke-width: 0.8"/>
      </defs>
      <g>
       <use xlink:href="#m0009913a79" x="846" y="264.46253" style="stroke: #000000; stroke-width: 0.8"/>
      </g>
     </g>
     <g id="text_8">
      <text style="font: 15px 'Arial', sans-serif; text-anchor: end" x="46.126562" y="269.830889" transform="rotate(-0 46.126562 269.830889)">0.0</text>
     </g>
    </g>
    <g id="ytick_2">
     <g id="line2d_15">
      <g>
       <use xlink:href="#m1f001482c4" x="49.626562" y="228.477648" style="stroke: #000000; stroke-width: 0.8"/>
      </g>
     </g>
     <g id="line2d_16">
      <g>
       <use xlink:href="#m0009913a79" x="846" y="228.477648" style="stroke: #000000; stroke-width: 0.8"/>
      </g>
     </g>
     <g id="text_9">
      <text style="font: 15px 'Arial', sans-serif; text-anchor: end" x="46.126562" y="233.846008" transform="rotate(-0 46.126562 233.846008)">0.2</text>
     </g>
    </g>
    <g id="ytick_3">
     <g id="line2d_17">
      <g>
       <use xlink:href="#m1f001482c4" x="49.626562" y="192.492767" style="stroke: #000000; stroke-width: 0.8"/>
      </g>
     </g>
     <g id="line2d_18">
      <g>
       <use xlink:href="#m0009913a79" x="846" y="192.492767" style="stroke: #000000; stroke-width: 0.8"/>
      </g>
     </g>
     <g id="text_10">
      <text style="font: 15px 'Arial', sans-serif; text-anchor: end" x="46.126562" y="197.861126" transform="rotate(-0 46.126562 197.861126)">0.4</text>
     </g>
    </g>
    <g id="ytick_4">
     <g id="line2d_19">
      <g>
       <use xlink:href="#m1f001482c4" x="49.626562" y="156.507885" style="stroke: #000000; stroke-width: 0.8"/>
      </g>
     </g>
     <g id="line2d_20">
      <g>
       <use xlink:href="#m0009913a79" x="846" y="156.507885" style="stroke: #000000; stroke-width: 0.8"/>
      </g>
     </g>
     <g id="text_11">
      <text style="font: 15px 'Arial', sans-serif; text-anchor: end" x="46.126562" y="161.876245" transform="rotate(-0 46.126562 161.876245)">0.6</text>
     </g>
    </g>
    <g id="ytick_5">
     <g id="line2d_21">
      <g>
       <use xlink:href="#m1f001482c4" x="49.626562" y="120.523004" style="stroke: #000000; stroke-width: 0.8"/>
      </g>
     </g>
     <g id="line2d_22">
      <g>
       <use xlink:href="#m0009913a79" x="846" y="120.523004" style="stroke: #000000; stroke-width: 0.8"/>
      </g>
     </g>
     <g id="text_12">
      <text style="font: 15px 'Arial', sans-serif; text-anchor: end" x="46.126562" y="125.891363" transform="rotate(-0 46.126562 125.891363)">0.8</text>
     </g>
    </g>
    <g id="ytick_6">
     <g id="line2d_23">
      <g>
       <use xlink:href="#m1f001482c4" x="49.626562" y="84.538122" style="stroke: #000000; stroke-width: 0.8"/>
      </g>
     </g>
     <g id="line2d_24">
      <g>
       <use xlink:href="#m0009913a79" x="846" y="84.538122" style="stroke: #000000; stroke-width: 0.8"/>
      </g>
     </g>
     <g id="text_13">
      <text style="font: 15px 'Arial', sans-serif; text-anchor: end" x="46.126562" y="89.906482" transform="rotate(-0 46.126562 89.906482)">1.0</text>
     </g>
    </g>
    <g id="ytick_7">
     <g id="line2d_25">
      <g>
       <use xlink:href="#m1f001482c4" x="49.626562" y="48.553241" style="stroke: #000000; stroke-width: 0.8"/>
      </g>
     </g>
     <g id="line2d_26">
      <g>
       <use xlink:href="#m0009913a79" x="846" y="48.553241" style="stroke: #000000; stroke-width: 0.8"/>
      </g>
     </g>
     <g id="text_14">
      <text style="font: 15px 'Arial', sans-serif; text-anchor: end" x="46.126562" y="53.9216" transform="rotate(-0 46.126562 53.9216)">1.2</text>
     </g>
    </g>
    <g id="ytick_8">
     <g id="line2d_27">
      <g>
       <use xlink:href="#m1f001482c4" x="49.626562" y="12.568359" style="stroke: #000000; stroke-width: 0.8"/>
      </g>
     </g>
     <g id="line2d_28">
      <g>
       <use xlink:href="#m0009913a79" x="846" y="12.568359" style="stroke: #000000; stroke-width: 0.8"/>
      </g>
     </g>
     <g id="text_15">
      <text style="font: 15px 'Arial', sans-serif; text-anchor: end" x="46.126562" y="17.936719" transform="rotate(-0 46.126562 17.936719)">1.4</text>
     </g>
    </g>
    <g id="text_16">
     <text style="font: 15px 'Arial', sans-serif; text-anchor: middle" x="18.119531" y="146.912303" transform="rotate(-90 18.119531 146.912303)">Arcsine(Size Difference Index)</text>
    </g>
   </g>
   <g id="line2d_29">
    <path d="M 574.001524 283.636251 
L 574.001524 10.188354 
" clip-path="url(#pe647c3a39e)" style="fill: none; stroke-dasharray: 5.55,2.4; stroke-dashoffset: 0; stroke: #808080; stroke-width: 1.5"/>
   </g>
   <g id="patch_3">
    <path d="M 49.626562 283.636251 
L 49.626562 10.188354 
" style="fill: none; stroke: #000000; stroke-width: 0.8; stroke-linejoin: miter; stroke-linecap: square"/>
   </g>
   <g id="patch_4">
    <path d="M 846 283.636251 
L 846 10.188354 
" style="fill: none; stroke: #000000; stroke-width: 0.8; stroke-linejoin: miter; stroke-linecap: square"/>
   </g>
   <g id="patch_5">
    <path d="M 49.626563 283.636251 
L 846 283.636251 
" style="fill: none; stroke: #000000; stroke-width: 0.8; stroke-linejoin: miter; stroke-linecap: square"/>
   </g>
   <g id="patch_6">
    <path d="M 49.626563 10.188354 
L 846 10.188354 
" style="fill: none; stroke: #000000; stroke-width: 0.8; stroke-linejoin: miter; stroke-linecap: square"/>
   </g>
   <g id="line2d_30">
    <path d="M 76.856061 225.143962 
L 574.676038 217.663208 
L 574.676038 217.663208 
L 811.227388 175.197234 
L 811.227388 175.197234 
" clip-path="url(#pe647c3a39e)" style="fill: none; stroke: #c1121f; stroke-opacity: 0.7; stroke-width: 1.5; stroke-linecap: square"/>
   </g>
   <g id="text_17">
    <text style="font: 15px 'Arial', sans-serif" transform="translate(545.028424 194.445181) rotate(-90)">x = 1.88</text>
    <text style="font: 15px 'Arial', sans-serif" transform="translate(560.947174 190.695181) rotate(-90)">p = 0.0</text>
   </g>
   <g id="text_18">
    <text style="font: 15px 'Arial', sans-serif" transform="translate(321.005293 194.445181) rotate(-90)">x = 0.02</text>
    <text style="font: 15px 'Arial', sans-serif" transform="translate(336.924043 190.695181) rotate(-90)">p = 0.0</text>
   </g>
   <g id="text_19">
    <text style="font: 15px 'Arial', sans-serif" transform="translate(818.834474 171.106065) rotate(-90)">x = 0.26</text>
    <text style="font: 15px 'Arial', sans-serif" transform="translate(834.753224 167.356065) rotate(-90)">p = 0.0</text>
   </g>
   <g id="legend_1">
    <g id="patch_7">
     <path d="M 663.285937 43.406323 
L 835.5 43.406323 
Q 838.5 43.406323 838.5 40.406323 
L 838.5 20.688354 
Q 838.5 17.688354 835.5 17.688354 
L 663.285937 17.688354 
Q 660.285937 17.688354 660.285937 20.688354 
L 660.285937 40.406323 
Q 660.285937 43.406323 663.285937 43.406323 
z
" style="fill: #ffffff; opacity: 0.8; stroke: #cccccc; stroke-linejoin: miter"/>
    </g>
    <g id="line2d_31">
     <path d="M 666.285937 29.175073 
L 681.285937 29.175073 
L 696.285937 29.175073 
" style="fill: none; stroke: #c1121f; stroke-opacity: 0.7; stroke-width: 1.5; stroke-linecap: square"/>
    </g>
    <g id="text_20">
     <text style="font: 15px 'Arial', sans-serif; text-anchor: start" x="708.285937" y="34.425073" transform="rotate(-0 708.285937 34.425073)">Piecewise linear fit</text>
    </g>
   </g>
  </g>
 </g>
 <defs>
  <clipPath id="pe647c3a39e">
   <rect x="49.626562" y="10.188354" width="796.373437" height="273.447897"/>
  </clipPath>
 </defs>
</svg>
