<?xml version="1.0" encoding="utf-8" standalone="no"?>
<!DOCTYPE svg PUBLIC "-//W3C//DTD SVG 1.1//EN"
  "http://www.w3.org/Graphics/SVG/1.1/DTD/svg11.dtd">
<svg xmlns:xlink="http://www.w3.org/1999/xlink" width="804.135121pt" height="342pt" viewBox="0 0 804.135121 342" xmlns="http://www.w3.org/2000/svg" version="1.1">
 <metadata>
  <rdf:RDF xmlns:dc="http://purl.org/dc/elements/1.1/" xmlns:cc="http://creativecommons.org/ns#" xmlns:rdf="http://www.w3.org/1999/02/22-rdf-syntax-ns#">
   <cc:Work>
    <dc:type rdf:resource="http://purl.org/dc/dcmitype/StillImage"/>
    <dc:date>2024-03-18T18:58:15.332214</dc:date>
    <dc:format>image/svg+xml</dc:format>
    <dc:creator>
     <cc:Agent>
      <dc:title>Matplotlib v3.8.3, https://matplotlib.org/</dc:title>
     </cc:Agent>
    </dc:creator>
   </cc:Work>
  </rdf:RDF>
 </metadata>
 <defs>
  <style type="text/css">*{stroke-linejoin: round; stroke-linecap: butt}</style>
 </defs>
 <g id="figure_1">
  <g id="patch_1">
   <path d="M 0 342 
L 804.135121 342 
L 804.135121 0 
L 0 0 
z
" style="fill: #ffffff"/>
  </g>
  <g id="axes_1">
   <g id="patch_2">
    <path d="M 53.126562 280.103594 
L 681.665312 280.103594 
L 681.665312 12.568359 
L 53.126562 12.568359 
z
" style="fill: #ffffff"/>
   </g>
   <g id="QuadContourSet_1">
    <path d="M 340.548805 269.6828 
L 343.707291 269.944512 
L 346.865777 270.101676 
L 350.024264 270.176735 
L 353.18275 270.183088 
L 356.341236 270.126677 
L 359.499722 270.007868 
L 362.658208 269.82395 
L 365.816694 269.57364 
L 368.209359 269.348408 
L 368.975181 269.312032 
L 372.133667 269.167996 
L 375.292153 269.039917 
L 378.450639 268.954131 
L 381.609125 268.927129 
L 384.767611 268.955617 
L 387.926098 269.020474 
L 391.084584 269.099452 
L 394.24307 269.176327 
L 397.401556 269.24264 
L 400.560042 269.29548 
L 403.718529 269.33482 
L 405.28267 269.348408 
L 406.877015 269.379581 
L 410.035501 269.41716 
L 413.193987 269.432893 
L 416.352473 269.430744 
L 419.510959 269.415696 
L 422.669446 269.393709 
L 425.827932 269.370926 
L 428.986418 269.35218 
L 429.92571 269.348408 
L 432.144904 269.344587 
L 435.30339 269.340973 
L 438.461877 269.337228 
L 441.620363 269.330861 
L 444.778849 269.319593 
L 447.937335 269.301875 
L 451.095821 269.27702 
L 454.254307 269.24498 
L 457.412794 269.20588 
L 460.57128 269.159461 
L 463.729766 269.10459 
L 466.888252 269.038989 
L 470.046738 268.959168 
L 473.205225 268.860448 
L 476.363711 268.736874 
L 479.522197 268.580899 
L 482.680683 268.382827 
L 485.839169 268.130148 
L 487.174456 268.00401 
L 488.997655 267.911285 
L 492.156142 267.721974 
L 495.314628 267.489999 
L 498.473114 267.211571 
L 501.6316 266.890273 
L 503.838722 266.659612 
L 504.790086 266.603459 
L 507.948573 266.441613 
L 511.107059 266.307299 
L 514.265545 266.218411 
L 517.424031 266.180114 
L 520.582517 266.179702 
L 523.741003 266.191939 
L 526.89949 266.189519 
L 530.057976 266.149937 
L 533.216462 266.05624 
L 536.374948 265.894422 
L 539.533434 265.650729 
L 542.655751 265.315214 
L 542.691921 265.312675 
L 545.850407 265.05889 
L 549.008893 264.74956 
L 552.167379 264.390538 
L 555.325865 263.995088 
L 555.538034 263.970816 
L 558.484351 263.729635 
L 561.642838 263.462242 
L 564.801324 263.173573 
L 567.95981 262.840657 
L 569.712717 262.626418 
L 571.118296 262.481448 
L 574.276782 262.079332 
L 577.435269 261.533564 
L 578.666299 261.282019 
L 580.593755 260.89743 
L 583.752241 260.157748 
L 584.674867 259.937621 
L 586.910727 259.417291 
L 590.069213 258.714811 
L 590.740077 258.593223 
L 593.227699 258.166117 
L 596.386186 257.72243 
L 599.544672 257.346335 
L 600.433416 257.248825 
L 602.703158 256.962104 
L 605.861644 256.454028 
L 608.313939 255.904427 
L 609.02013 255.624576 
L 611.043562 254.560029 
L 611.611488 253.21563 
L 611.175065 251.871232 
L 610.316779 250.526834 
L 609.369587 249.182436 
L 609.02013 248.452686 
L 608.807594 247.838038 
L 608.961884 246.49364 
L 609.02013 246.417037 
L 610.118061 245.149242 
L 611.915066 243.804843 
L 612.178617 243.650173 
L 614.454658 242.460445 
L 615.337103 242.019125 
L 617.386191 241.116047 
L 618.495589 240.61566 
L 620.642925 239.771649 
L 621.654075 239.338771 
L 624.070024 238.427251 
L 624.812561 238.086496 
L 627.1835 237.082853 
L 627.971047 236.577758 
L 629.328247 235.738454 
L 630.371697 234.394056 
L 630.634027 233.049658 
L 630.42524 231.70526 
L 630.164385 230.360862 
L 630.356899 229.016464 
L 631.129534 227.672065 
L 631.129534 227.672065 
L 632.245703 226.327667 
L 632.94028 224.983269 
L 632.75861 223.638871 
L 631.293381 222.294473 
L 631.129534 222.207922 
L 628.571795 220.950075 
L 627.971047 220.680886 
L 625.708954 219.605676 
L 624.812561 218.734769 
L 624.44094 218.261278 
L 624.812561 217.120873 
L 624.885384 216.91688 
L 626.304811 215.572482 
L 627.760496 214.228084 
L 627.971047 214.017912 
L 629.264415 212.883686 
L 630.718207 211.539287 
L 631.129534 211.208319 
L 632.641563 210.194889 
L 634.28802 209.279226 
L 635.197489 208.850491 
L 637.446506 207.888725 
L 638.440531 207.506093 
L 640.604992 206.644453 
L 641.861684 206.161695 
L 643.763478 205.321455 
L 644.898249 204.817297 
L 646.921965 203.729413 
L 647.393864 203.472898 
L 649.420629 202.1285 
L 650.080451 201.54663 
L 650.954075 200.784102 
L 651.795943 199.439704 
L 651.741138 198.095306 
L 650.748222 196.750908 
L 650.080451 196.209547 
L 649.162783 195.40651 
L 647.47561 194.062111 
L 646.921965 193.622489 
L 645.889985 192.717713 
L 644.323105 191.373315 
L 643.763478 190.69514 
L 643.217175 190.028917 
L 643.763478 189.183828 
L 644.109435 188.684519 
L 646.921965 187.832932 
L 648.396671 187.340121 
L 650.080451 187.028081 
L 653.238937 186.321254 
L 654.486622 185.995722 
L 656.397423 185.600562 
L 659.555909 184.762291 
L 659.934325 184.651324 
L 662.714395 183.834937 
L 664.231129 183.306926 
L 665.872882 182.621407 
L 667.369607 181.962528 
L 669.031368 180.909291 
L 669.521317 180.61813 
L 670.964042 179.273732 
L 671.604149 177.929333 
L 671.729504 176.584935 
L 671.65435 175.240537 
L 671.741059 173.896139 
L 672.146381 172.551741 
L 672.189854 172.44825 
L 672.822941 171.207343 
L 673.255034 169.862944 
L 673.086358 168.518546 
L 672.189854 167.420694 
L 671.998119 167.174148 
L 669.7339 165.82975 
L 669.031368 165.557053 
L 665.872882 164.578011 
L 665.485127 164.485352 
L 662.714395 163.847872 
L 659.555909 163.311868 
L 658.349535 163.140954 
L 656.397423 162.764752 
L 653.238937 162.172547 
L 651.385744 161.796555 
L 650.080451 161.344091 
L 647.765351 160.452157 
L 646.921965 159.998639 
L 645.119385 159.107759 
L 643.763478 158.535244 
L 641.108894 157.763361 
L 640.604992 157.650881 
L 637.446506 157.223382 
L 634.28802 157.050791 
L 631.129534 157.043979 
L 627.971047 157.132394 
L 624.812561 157.25055 
L 621.654075 157.329955 
L 618.495589 157.299663 
L 615.337103 157.099246 
L 612.178617 156.702577 
L 610.659895 156.418963 
L 609.02013 155.551164 
L 608.250265 155.074565 
L 609.02013 154.542357 
L 610.64651 153.730166 
L 612.178617 153.4215 
L 615.337103 152.740941 
L 616.631266 152.385768 
L 618.495589 151.894566 
L 620.874334 151.04137 
L 621.654075 150.605066 
L 623.024133 149.696972 
L 623.415616 148.352574 
L 621.783839 147.008176 
L 621.654075 146.959924 
L 618.495589 146.120425 
L 615.337103 145.678727 
L 615.070232 145.663777 
L 612.178617 145.504223 
L 609.02013 145.537558 
L 607.435764 145.663777 
L 605.861644 145.786748 
L 602.703158 146.246969 
L 599.544672 146.994989 
L 599.497952 147.008176 
L 596.386186 147.842625 
L 594.311728 148.352574 
L 593.227699 148.603183 
L 590.069213 149.046313 
L 586.910727 149.217736 
L 583.752241 149.190147 
L 580.593755 149.029882 
L 577.435269 148.795064 
L 574.276782 148.531517 
L 572.206958 148.352574 
L 571.118296 148.250432 
L 567.95981 147.946611 
L 564.801324 147.649465 
L 561.642838 147.345233 
L 558.484351 147.02669 
L 558.328275 147.008176 
L 555.325865 146.585831 
L 552.167379 146.143544 
L 549.008893 145.727042 
L 548.540054 145.663777 
L 545.850407 145.210985 
L 542.691921 144.732661 
L 539.734435 144.319379 
L 539.533434 144.281063 
L 536.374948 143.617111 
L 533.547229 142.974981 
L 533.216462 142.862279 
L 530.258719 141.630583 
L 530.057976 141.502486 
L 528.513426 140.286185 
L 527.354788 138.941787 
L 526.89949 137.991458 
L 526.743778 137.597389 
L 526.603456 136.25299 
L 526.692728 134.908592 
L 526.770136 133.564194 
L 526.613075 132.219796 
L 526.079243 130.875398 
L 525.091445 129.531 
L 523.741003 128.306013 
L 523.617902 128.186601 
L 521.866163 126.842203 
L 520.582517 126.101836 
L 519.426467 125.497805 
L 517.424031 124.663635 
L 515.884804 124.153407 
L 514.265545 123.666468 
L 511.107059 122.949403 
L 510.299503 122.809009 
L 507.948573 122.330492 
L 504.790086 121.825705 
L 501.983012 121.464611 
L 501.6316 121.387854 
L 498.473114 120.788883 
L 495.314628 120.218486 
L 494.658883 120.120212 
L 494.24569 118.775814 
L 495.314628 118.338519 
L 496.900764 117.431416 
L 498.473114 116.775759 
L 499.940599 116.087018 
L 501.6316 115.094669 
L 502.209897 114.74262 
L 502.535725 113.398222 
L 501.6316 112.933637 
L 498.473114 112.118156 
L 497.797287 112.053823 
L 495.314628 111.895713 
L 492.156142 111.858716 
L 488.997655 111.898835 
L 485.839169 111.937346 
L 482.680683 111.896222 
L 479.522197 111.694932 
L 476.363711 111.251854 
L 474.134761 110.709425 
L 473.205225 110.36419 
L 471.211909 109.365027 
L 470.046738 108.565234 
L 469.341941 108.020629 
L 466.980622 106.676231 
L 466.888252 106.646269 
L 463.729766 105.534457 
L 463.167731 105.331833 
L 460.57128 104.606078 
L 458.55382 103.987434 
L 457.412794 103.638951 
L 454.721777 102.643036 
L 454.254307 102.423879 
L 452.406741 101.298638 
L 451.127321 99.95424 
L 451.095821 99.876137 
L 450.724009 98.609842 
L 450.558057 97.265444 
L 450.270112 95.921045 
L 449.557854 94.576647 
L 448.129495 93.232249 
L 447.937335 93.095357 
L 446.084994 91.887851 
L 444.778849 91.160204 
L 443.521202 90.543453 
L 441.620363 89.308749 
L 441.453077 89.199055 
L 440.921771 87.854656 
L 441.502463 86.510258 
L 441.620363 86.348375 
L 443.194981 85.16586 
L 444.778849 83.961441 
L 447.937335 83.913386 
L 451.095821 84.858142 
L 451.792417 85.16586 
L 454.254307 85.841487 
L 456.880801 86.510258 
L 457.412794 86.613992 
L 460.57128 87.123983 
L 463.729766 87.424009 
L 466.888252 87.548808 
L 470.046738 87.517906 
L 473.205225 87.330833 
L 476.363711 86.950694 
L 478.532451 86.510258 
L 479.522197 86.241341 
L 482.135079 85.16586 
L 482.680683 84.683298 
L 483.519348 83.821462 
L 483.645195 82.477064 
L 482.783425 81.132666 
L 482.680683 81.040722 
L 481.241264 79.788268 
L 479.522197 78.510784 
L 479.422059 78.443869 
L 477.690738 77.099471 
L 476.363711 75.993968 
L 475.961184 75.755073 
L 473.205225 74.485407 
L 472.786819 74.410675 
L 470.046738 74.056055 
L 466.888252 74.085569 
L 463.729766 74.391409 
L 463.620517 74.410675 
L 460.57128 74.96484 
L 457.598652 75.755073 
L 457.412794 75.812594 
L 454.254307 77.053976 
L 454.149146 77.099471 
L 451.573432 78.443869 
L 451.095821 78.770726 
L 449.238544 79.788268 
L 447.937335 80.750401 
L 446.687682 81.132666 
L 444.778849 82.002537 
L 441.620363 81.43422 
L 440.713992 81.132666 
L 438.461877 80.787584 
L 435.30339 80.284388 
L 432.144904 79.917846 
L 430.363314 79.788268 
L 428.986418 79.694606 
L 425.827932 79.602946 
L 422.669446 79.646409 
L 420.12554 79.788268 
L 419.510959 79.816258 
L 416.352473 80.057209 
L 413.193987 80.387584 
L 410.035501 80.807739 
L 407.971398 81.132666 
L 406.877015 81.27981 
L 403.718529 81.731492 
L 400.560042 82.240537 
L 399.212411 82.477064 
L 397.401556 82.757331 
L 394.24307 83.294104 
L 391.618341 83.821462 
L 391.084584 83.924986 
L 387.926098 84.585987 
L 385.575541 85.16586 
L 384.767611 85.369264 
L 381.609125 86.201746 
L 380.489314 86.510258 
L 378.450639 87.045346 
L 375.292153 87.842188 
L 375.236624 87.854656 
L 372.133667 88.419947 
L 368.975181 88.902029 
L 366.697019 89.199055 
L 365.816694 89.286539 
L 362.658208 89.56028 
L 359.499722 89.845317 
L 356.341236 90.198001 
L 354.032253 90.543453 
L 353.18275 90.652274 
L 350.024264 91.18069 
L 347.132034 91.887851 
L 346.865777 91.953972 
L 343.707291 92.921371 
L 342.87533 93.232249 
L 340.548805 94.255377 
L 339.878498 94.576647 
L 337.645184 95.921045 
L 337.390319 96.122219 
L 335.814502 97.265444 
L 334.436487 98.609842 
L 334.231833 98.864535 
L 333.175912 99.95424 
L 332.097075 101.298638 
L 331.116495 102.643036 
L 331.073346 102.730645 
L 330.34664 103.987434 
L 330.298513 105.331833 
L 331.073346 106.068717 
L 332.188335 106.676231 
L 334.231833 107.180778 
L 337.390319 107.551066 
L 340.548805 107.701721 
L 343.707291 107.822847 
L 345.194417 108.020629 
L 344.956047 109.365027 
L 343.707291 110.312691 
L 343.312481 110.709425 
L 341.19315 112.053823 
L 340.548805 112.40164 
L 338.739667 113.398222 
L 337.390319 114.072311 
L 336.009879 114.74262 
L 334.231833 115.592077 
L 333.140634 116.087018 
L 331.073346 117.141564 
L 330.467774 117.431416 
L 328.311299 118.775814 
L 327.91486 119.172532 
L 326.850893 120.120212 
L 326.166016 121.464611 
L 326.13464 122.809009 
L 326.620005 124.153407 
L 327.527438 125.497805 
L 327.91486 125.953464 
L 328.575716 126.842203 
L 329.333624 128.186601 
L 329.396743 129.531 
L 328.737699 130.875398 
L 327.91486 131.931327 
L 327.665599 132.219796 
L 326.331689 133.564194 
L 325.191091 134.908592 
L 324.756374 135.447931 
L 323.977036 136.25299 
L 322.629671 137.597389 
L 321.597888 138.568091 
L 321.134612 138.941787 
L 319.491648 140.286185 
L 318.439402 141.447096 
L 318.24209 141.630583 
L 317.335039 142.974981 
L 317.107958 144.319379 
L 317.436317 145.663777 
L 318.056626 147.008176 
L 318.439402 148.268664 
L 318.457771 148.352574 
L 318.439402 148.444437 
L 318.101325 149.696972 
L 316.821018 151.04137 
L 315.280916 152.141786 
L 314.887493 152.385768 
L 312.338196 153.730166 
L 312.122429 153.839383 
L 309.567376 155.074565 
L 308.963943 155.403132 
L 306.959107 156.418963 
L 305.805457 157.121055 
L 304.586414 157.763361 
L 302.646971 158.884528 
L 302.152919 159.107759 
L 299.488485 160.142916 
L 298.352647 160.452157 
L 296.329998 160.853892 
L 293.171512 161.23117 
L 290.013026 161.385481 
L 286.85454 161.328969 
L 283.696054 161.085162 
L 280.537568 160.69568 
L 278.967329 160.452157 
L 277.379081 160.118575 
L 274.220595 159.406391 
L 272.855644 159.107759 
L 271.062109 158.541426 
L 268.259324 157.763361 
L 267.903623 157.608602 
L 264.745137 156.504406 
L 264.371439 156.418963 
L 261.58665 155.421252 
L 259.285973 155.074565 
L 258.428164 154.899482 
L 256.816185 155.074565 
L 255.269678 155.225586 
L 252.545946 156.418963 
L 252.111192 156.559954 
L 249.9373 157.763361 
L 248.952706 158.126876 
L 246.930297 159.107759 
L 245.79422 159.486402 
L 243.235727 160.452157 
L 242.635733 160.618429 
L 239.477247 161.464199 
L 237.95354 161.796555 
L 236.318761 162.082385 
L 233.160275 162.386682 
L 230.001789 162.30442 
L 227.108684 161.796555 
L 226.843302 161.745179 
L 223.684816 160.921735 
L 221.758492 160.452157 
L 220.52633 160.196873 
L 217.367844 159.69639 
L 214.209358 159.401196 
L 211.050872 159.274274 
L 207.892385 159.286671 
L 204.733899 159.4196 
L 201.575413 159.659434 
L 198.416927 159.986823 
L 195.258441 160.358599 
L 194.292668 160.452157 
L 192.099954 160.696859 
L 188.941468 160.887697 
L 185.782982 160.821478 
L 182.624496 160.499059 
L 182.290097 160.452157 
L 179.46601 160.141476 
L 176.307524 159.863628 
L 173.149037 159.733317 
L 169.990551 159.780864 
L 166.832065 160.025754 
L 163.984918 160.452157 
L 163.673579 160.511641 
L 160.515093 161.402333 
L 159.464177 161.796555 
L 157.600172 163.140954 
L 157.356606 164.140039 
L 157.272854 164.485352 
L 157.356606 164.712626 
L 157.802636 165.82975 
L 157.864119 167.174148 
L 157.356606 167.539738 
L 155.997169 168.518546 
L 154.19812 169.087439 
L 151.543796 169.862944 
L 151.039634 169.959908 
L 147.881148 170.480202 
L 144.722662 170.955148 
L 142.990767 171.207343 
L 141.564176 171.377729 
L 138.405689 171.787126 
L 135.247203 172.298591 
L 133.961289 172.551741 
L 132.088717 172.921028 
L 128.930231 173.715234 
L 128.314679 173.896139 
L 125.771745 174.732303 
L 124.419121 175.240537 
L 122.613258 176.041417 
L 121.447197 176.584935 
L 119.454772 177.728541 
L 119.103768 177.929333 
L 117.231286 179.273732 
L 116.296286 180.23071 
L 115.896498 180.61813 
L 114.972556 181.962528 
L 114.469762 183.306926 
L 114.305728 184.651324 
L 114.464104 185.995722 
L 114.984811 187.340121 
L 115.91527 188.684519 
L 116.296286 189.107377 
L 117.021993 190.028917 
L 117.942352 191.373315 
L 118.200947 192.717713 
L 117.559256 194.062111 
L 116.296286 195.363422 
L 116.247318 195.40651 
L 114.119605 196.750908 
L 113.1378 197.309068 
L 111.585337 198.095306 
L 109.979314 198.86574 
L 108.700373 199.439704 
L 106.820828 200.279662 
L 105.67115 200.784102 
L 103.662341 201.709931 
L 102.756207 202.1285 
L 100.503855 203.262791 
L 100.082741 203.472898 
L 97.57005 204.817297 
L 97.345369 204.942508 
L 95.06715 206.161695 
L 94.186883 206.678008 
L 92.670748 207.506093 
L 91.028397 208.551476 
L 90.51041 208.850491 
L 88.579991 210.194889 
L 87.86991 210.86171 
L 87.033675 211.539287 
L 85.778767 212.883686 
L 84.769844 214.228084 
L 84.711424 214.307119 
L 83.629062 215.572482 
L 82.607226 216.91688 
L 81.808506 218.261278 
L 81.552938 218.917901 
L 81.223642 219.605676 
L 81.000022 220.950075 
L 81.310994 222.294473 
L 81.552938 222.633534 
L 82.165413 223.638871 
L 83.81768 224.983269 
L 84.711424 225.475346 
L 86.253336 226.327667 
L 87.86991 227.107433 
L 88.99634 227.672065 
L 91.028397 228.94666 
L 91.123423 229.016464 
L 91.99201 230.360862 
L 92.281451 231.70526 
L 92.54315 233.049658 
L 93.22629 234.394056 
L 94.186883 235.407668 
L 94.464857 235.738454 
L 95.805873 237.082853 
L 96.866798 238.427251 
L 97.223997 239.771649 
L 97.063524 241.116047 
L 96.814694 242.460445 
L 96.749147 243.804843 
L 96.959648 245.149242 
L 97.345369 246.189278 
L 97.436197 246.49364 
L 98.045452 247.838038 
L 99.02498 249.182436 
L 100.503855 250.448218 
L 100.579874 250.526834 
L 102.068317 251.871232 
L 103.662341 253.122392 
L 103.754469 253.21563 
L 104.93884 254.560029 
L 106.089129 255.904427 
L 106.820828 256.713341 
L 107.230071 257.248825 
L 108.481698 258.593223 
L 109.979314 259.781972 
L 110.172397 259.937621 
L 112.217165 261.282019 
L 113.1378 261.760008 
L 115.020005 262.626418 
L 116.296286 263.105851 
L 119.248387 263.970816 
L 119.454772 264.024383 
L 122.613258 264.692128 
L 125.771745 265.145514 
L 127.369354 265.315214 
L 128.930231 265.494126 
L 132.088717 265.775864 
L 135.247203 265.996905 
L 138.405689 266.180968 
L 141.564176 266.33653 
L 144.722662 266.460579 
L 147.881148 266.544582 
L 151.039634 266.580289 
L 154.19812 266.563078 
L 157.356606 266.492902 
L 160.515093 266.374491 
L 163.673579 266.218116 
L 166.832065 266.040905 
L 169.990551 265.867474 
L 173.149037 265.72808 
L 176.307524 265.653363 
L 179.46601 265.666699 
L 182.624496 265.776895 
L 185.782982 265.97421 
L 188.941468 266.232011 
L 192.099954 266.514408 
L 193.688131 266.659612 
L 195.258441 266.866015 
L 198.416927 267.238384 
L 201.575413 267.527273 
L 204.733899 267.738446 
L 207.892385 267.88262 
L 211.050872 267.971235 
L 213.400405 268.00401 
L 214.209358 268.023249 
L 217.367844 268.037822 
L 220.52633 268.004572 
L 220.554053 268.00401 
L 223.684816 267.968799 
L 226.843302 267.926194 
L 230.001789 267.886071 
L 233.160275 267.855751 
L 236.318761 267.838566 
L 239.477247 267.833504 
L 242.635733 267.836455 
L 245.79422 267.842137 
L 248.952706 267.8456 
L 252.111192 267.8429 
L 255.269678 267.831092 
L 258.428164 267.807866 
L 261.58665 267.77109 
L 264.745137 267.718446 
L 267.903623 267.647309 
L 271.062109 267.55503 
L 274.220595 267.439789 
L 277.379081 267.302324 
L 280.537568 267.148798 
L 283.696054 266.994455 
L 286.85454 266.865676 
L 290.013026 266.795219 
L 293.171512 266.807112 
L 296.329998 266.899436 
L 299.488485 267.042631 
L 302.646971 267.196872 
L 305.805457 267.331413 
L 308.963943 267.432584 
L 312.122429 267.502892 
L 315.280916 267.558312 
L 318.439402 267.625647 
L 321.597888 267.735552 
L 324.756374 267.906581 
L 326.034787 268.00401 
L 327.91486 268.236452 
L 331.073346 268.663636 
L 334.231833 269.033108 
L 337.390319 269.3166 
L 337.818533 269.348408 
z
M 395.446412 255.904427 
L 394.24307 255.823406 
L 391.084584 255.615745 
L 387.926098 255.412559 
L 384.767611 255.217505 
L 381.609125 255.035964 
L 378.450639 254.87384 
L 375.292153 254.735 
L 372.133667 254.618276 
L 370.325469 254.560029 
L 368.975181 254.516085 
L 365.816694 254.414078 
L 362.658208 254.291786 
L 359.499722 254.127136 
L 356.341236 253.89821 
L 353.18275 253.584393 
L 350.382928 253.21563 
L 350.024264 253.165779 
L 346.865777 252.615053 
L 343.707291 251.910367 
L 343.555758 251.871232 
L 340.548805 250.977078 
L 339.25256 250.526834 
L 337.390319 249.758051 
L 336.114574 249.182436 
L 334.231833 248.182676 
L 333.59227 247.838038 
L 331.329063 246.49364 
L 331.073346 246.335081 
L 329.008242 245.149242 
L 327.91486 244.502736 
L 326.560228 243.804843 
L 324.756374 242.832623 
L 323.927269 242.460445 
L 321.597888 241.288832 
L 321.172408 241.116047 
L 318.508666 239.771649 
L 318.439402 239.72567 
L 315.957905 238.427251 
L 315.280916 237.951626 
L 313.501628 237.082853 
L 312.122429 236.350454 
L 309.794194 235.738454 
L 308.963943 235.558 
L 305.805457 235.610321 
L 305.221477 235.738454 
L 302.646971 236.427374 
L 301.139384 237.082853 
L 299.488485 237.796018 
L 298.266921 238.427251 
L 296.329998 239.279829 
L 295.241701 239.771649 
L 293.171512 240.561791 
L 291.605747 241.116047 
L 290.013026 241.624096 
L 286.955479 242.460445 
L 286.85454 242.486779 
L 283.696054 243.151664 
L 280.537568 243.605976 
L 277.821802 243.804843 
L 277.379081 243.837092 
L 274.220595 243.852311 
L 273.431041 243.804843 
L 271.062109 243.667023 
L 267.903623 243.303501 
L 264.745137 242.772684 
L 263.313342 242.460445 
L 261.58665 242.126775 
L 258.428164 241.379279 
L 257.483647 241.116047 
L 255.269678 240.563995 
L 252.535359 239.771649 
L 252.111192 239.650386 
L 248.952706 238.615356 
L 248.442531 238.427251 
L 245.79422 237.267755 
L 245.416098 237.082853 
L 243.433725 235.738454 
L 242.635733 234.863656 
L 242.22253 234.394056 
L 241.462067 233.049658 
L 240.901132 231.70526 
L 240.393403 230.360862 
L 239.910066 229.016464 
L 239.477451 227.672065 
L 239.477247 227.671379 
L 239.077653 226.327667 
L 238.676654 224.983269 
L 238.222007 223.638871 
L 237.727101 222.294473 
L 237.277961 220.950075 
L 236.990358 219.605676 
L 236.9629 218.261278 
L 237.266465 216.91688 
L 237.963138 215.572482 
L 239.11502 214.228084 
L 239.477247 213.912559 
L 240.714388 212.883686 
L 242.635733 211.595884 
L 242.724378 211.539287 
L 245.043175 210.194889 
L 245.79422 209.799358 
L 247.723004 208.850491 
L 248.952706 208.310005 
L 250.99778 207.506093 
L 252.111192 207.119324 
L 255.269678 206.173329 
L 255.314828 206.161695 
L 258.428164 205.411877 
L 261.359308 204.817297 
L 261.58665 204.771447 
L 264.745137 204.212198 
L 267.903623 203.743355 
L 270.182108 203.472898 
L 271.062109 203.362547 
L 274.220595 203.066796 
L 277.379081 202.877837 
L 280.537568 202.794387 
L 283.696054 202.816224 
L 286.85454 202.948861 
L 290.013026 203.204779 
L 292.221225 203.472898 
L 293.171512 203.600667 
L 296.329998 204.152371 
L 299.488485 204.811129 
L 299.522845 204.817297 
L 302.646971 205.408367 
L 305.805457 205.705823 
L 308.963943 205.509344 
L 312.122429 204.825951 
L 312.145985 204.817297 
L 315.280916 203.747214 
L 315.897813 203.472898 
L 318.439402 202.443389 
L 319.082998 202.1285 
L 321.597888 201.035959 
L 322.098366 200.784102 
L 324.756374 199.59937 
L 325.074448 199.439704 
L 327.91486 198.132935 
L 327.989044 198.095306 
L 330.701097 196.750908 
L 331.073346 196.565686 
L 333.19705 195.40651 
L 334.231833 194.833802 
L 335.545667 194.062111 
L 337.390319 193.002916 
L 337.87697 192.717713 
L 340.344897 191.373315 
L 340.548805 191.272564 
L 343.115098 190.028917 
L 343.707291 189.768337 
L 346.267825 188.684519 
L 346.865777 188.443456 
L 349.722673 187.340121 
L 350.024264 187.222224 
L 353.18275 186.035493 
L 353.293438 185.995722 
L 356.341236 184.821811 
L 356.808894 184.651324 
L 359.499722 183.569284 
L 360.201967 183.306926 
L 362.658208 182.286629 
L 363.517316 181.962528 
L 365.816694 181.005646 
L 366.863214 180.61813 
L 368.975181 179.76869 
L 370.385078 179.273732 
L 372.133667 178.616951 
L 374.286187 177.929333 
L 375.292153 177.589769 
L 378.450639 176.71614 
L 379.0609 176.584935 
L 381.609125 176.010367 
L 384.767611 175.496983 
L 387.294087 175.240537 
L 387.926098 175.172423 
L 391.084584 175.013985 
L 394.24307 175.017874 
L 397.401556 175.144319 
L 398.931134 175.240537 
L 400.560042 175.321368 
L 403.718529 175.491332 
L 406.877015 175.640749 
L 410.035501 175.760074 
L 413.193987 175.855574 
L 416.352473 175.945546 
L 419.510959 176.057278 
L 422.669446 176.225528 
L 425.827932 176.492205 
L 426.568059 176.584935 
L 428.986418 176.914262 
L 432.144904 177.540827 
L 433.63046 177.929333 
L 435.30339 178.380688 
L 438.14332 179.273732 
L 438.461877 179.360534 
L 441.620363 180.260405 
L 442.858114 180.61813 
L 444.778849 181.062586 
L 447.937335 181.80357 
L 448.626673 181.962528 
L 451.095821 182.454984 
L 454.254307 183.093785 
L 455.358411 183.306926 
L 457.412794 183.675691 
L 460.57128 184.216146 
L 463.277242 184.651324 
L 463.729766 184.720061 
L 466.888252 185.13923 
L 470.046738 185.527926 
L 473.205225 185.883603 
L 474.407541 185.995722 
L 476.363711 186.161563 
L 479.522197 186.363845 
L 482.680683 186.486618 
L 485.839169 186.506852 
L 488.997655 186.406807 
L 492.156142 186.177392 
L 493.817421 185.995722 
L 495.314628 185.771327 
L 498.473114 185.14871 
L 500.527208 184.651324 
L 501.6316 184.329347 
L 504.731153 183.306926 
L 504.790086 183.288866 
L 507.948573 182.335629 
L 509.226936 181.962528 
L 511.107059 181.532043 
L 514.265545 180.901355 
L 516.025816 180.61813 
L 517.424031 180.441934 
L 520.582517 180.173685 
L 523.741003 180.021114 
L 526.89949 180.003827 
L 530.057976 180.178982 
L 532.935179 180.61813 
L 533.216462 180.732279 
L 534.856578 181.962528 
L 535.112957 183.306926 
L 535.266672 184.651324 
L 535.86235 185.995722 
L 536.374948 186.771605 
L 536.653491 187.340121 
L 537.167788 188.684519 
L 537.215428 190.028917 
L 536.714392 191.373315 
L 536.374948 191.838305 
L 535.67321 192.717713 
L 534.317749 194.062111 
L 533.216462 195.135499 
L 532.945512 195.40651 
L 531.874931 196.750908 
L 531.19227 198.095306 
L 530.768464 199.439704 
L 530.388545 200.784102 
L 530.057976 201.68284 
L 529.918545 202.1285 
L 529.380832 203.472898 
L 528.86724 204.817297 
L 528.513839 206.161695 
L 528.358376 207.506093 
L 528.316106 208.850491 
L 528.248997 210.194889 
L 528.04001 211.539287 
L 527.618186 212.883686 
L 526.956477 214.228084 
L 526.89949 214.315224 
L 526.136098 215.572482 
L 525.207789 216.91688 
L 524.291029 218.261278 
L 523.741003 219.202551 
L 523.525615 219.605676 
L 522.991089 220.950075 
L 522.616756 222.294473 
L 522.313822 223.638871 
L 521.969975 224.983269 
L 521.491781 226.327667 
L 520.82564 227.672065 
L 520.582517 228.054253 
L 519.996016 229.016464 
L 518.98731 230.360862 
L 517.815656 231.70526 
L 517.424031 232.12791 
L 516.589835 233.049658 
L 515.35158 234.394056 
L 514.265545 235.572468 
L 514.115864 235.738454 
L 512.875279 237.082853 
L 511.505536 238.427251 
L 511.107059 238.773037 
L 509.941561 239.771649 
L 508.126319 241.116047 
L 507.948573 241.235732 
L 506.046168 242.460445 
L 504.790086 243.191357 
L 503.667911 243.804843 
L 501.6316 244.803179 
L 500.866747 245.149242 
L 498.473114 246.096638 
L 497.36909 246.49364 
L 495.314628 247.135137 
L 492.835685 247.838038 
L 492.156142 248.010075 
L 488.997655 248.784605 
L 487.342339 249.182436 
L 485.839169 249.523395 
L 482.680683 250.253568 
L 481.539808 250.526834 
L 479.522197 250.99403 
L 476.363711 251.729524 
L 475.771316 251.871232 
L 473.205225 252.454252 
L 470.046738 253.134553 
L 469.666673 253.21563 
L 466.888252 253.770299 
L 463.729766 254.342788 
L 462.440993 254.560029 
L 460.57128 254.860675 
L 457.412794 255.319877 
L 454.254307 255.714708 
L 452.504871 255.904427 
L 451.095821 256.058309 
L 447.937335 256.352857 
L 444.778849 256.590816 
L 441.620363 256.778956 
L 438.461877 256.9245 
L 435.30339 257.034287 
L 432.144904 257.113786 
L 428.986418 257.166214 
L 425.827932 257.192069 
L 422.669446 257.189338 
L 419.510959 257.154478 
L 416.352473 257.084031 
L 413.193987 256.976438 
L 410.035501 256.833422 
L 406.877015 256.660259 
L 403.718529 256.464708 
L 400.560042 256.255078 
L 397.401556 256.038449 
z
M 462.830281 124.153407 
L 463.481788 122.809009 
L 463.729766 122.670727 
L 466.554298 121.464611 
L 466.888252 121.355041 
L 470.046738 120.690834 
L 473.205225 120.287973 
L 476.363711 120.18947 
L 479.522197 120.58213 
L 481.335537 121.464611 
L 479.522197 122.570945 
L 479.260191 122.809009 
L 476.363711 123.868605 
L 475.629691 124.153407 
L 473.205225 124.705466 
L 470.046738 125.233861 
L 466.888252 125.365556 
L 463.729766 124.703592 
z
M 239.477247 149.790404 
L 242.635733 150.224178 
L 245.79422 150.523796 
L 248.952706 150.70037 
L 252.111192 150.708316 
L 255.269678 150.387078 
L 257.51222 149.696972 
L 258.428164 149.468649 
L 261.15301 148.352574 
L 261.58665 148.150102 
L 263.555703 147.008176 
L 264.723385 145.663777 
L 264.243548 144.319379 
L 261.58665 143.04668 
L 261.395715 142.974981 
L 258.428164 142.281752 
L 255.269678 141.726352 
L 254.579854 141.630583 
L 252.111192 141.268339 
L 248.952706 140.885212 
L 245.79422 140.590772 
L 242.635733 140.434596 
L 239.477247 140.538573 
L 236.318761 141.182124 
L 235.319618 141.630583 
L 233.160275 142.550351 
L 232.491276 142.974981 
L 230.845747 144.319379 
L 230.274213 145.663777 
L 230.981358 147.008176 
L 233.160275 148.246665 
L 233.398176 148.352574 
L 236.318761 149.18467 
L 238.978114 149.696972 
z
M 264.745137 113.682877 
L 267.903623 114.246429 
L 271.062109 114.275298 
L 274.220595 113.941059 
L 276.887489 113.398222 
L 277.379081 113.244143 
L 280.154739 112.053823 
L 280.537568 111.575459 
L 281.14529 110.709425 
L 280.537568 110.05853 
L 279.359284 109.365027 
L 277.379081 108.979385 
L 274.220595 108.835131 
L 271.062109 109.052073 
L 269.170025 109.365027 
L 267.903623 109.65949 
L 264.812952 110.709425 
L 264.745137 110.760303 
L 263.306858 112.053823 
L 263.995949 113.398222 
z
M 482.680683 105.500797 
L 485.839169 105.72765 
L 488.997655 105.733613 
L 492.156142 105.557349 
L 494.091105 105.331833 
L 495.314628 105.173885 
L 498.473114 104.561527 
L 500.59279 103.987434 
L 501.6316 103.544895 
L 503.325847 102.643036 
L 504.140462 101.298638 
L 503.851831 99.95424 
L 503.822676 98.609842 
L 504.790086 97.736856 
L 505.200405 97.265444 
L 507.782225 95.921045 
L 507.948573 95.859319 
L 510.894114 94.576647 
L 511.107059 94.487543 
L 513.821945 93.232249 
L 514.265545 92.960619 
L 515.951816 91.887851 
L 516.793984 90.543453 
L 515.763397 89.199055 
L 514.265545 88.638062 
L 511.107059 87.943349 
L 510.241802 87.854656 
L 507.948573 87.675886 
L 504.790086 87.632284 
L 501.6316 87.760126 
L 500.555132 87.854656 
L 498.473114 88.049639 
L 495.314628 88.503634 
L 492.248281 89.199055 
L 492.156142 89.22641 
L 488.997655 90.459304 
L 488.832663 90.543453 
L 486.939014 91.887851 
L 485.879274 93.232249 
L 485.839169 93.368369 
L 485.470949 94.576647 
L 485.631084 95.921045 
L 485.839169 96.651636 
L 486.077612 97.265444 
L 486.035614 98.609842 
L 485.839169 98.803596 
L 484.793984 99.95424 
L 482.680683 101.17032 
L 482.465278 101.298638 
L 480.260356 102.643036 
L 479.522197 103.5869 
L 479.153262 103.987434 
L 479.522197 104.336806 
L 481.588435 105.331833 
z
M 264.745137 93.816556 
L 267.903623 94.26243 
L 271.062109 94.38449 
L 274.220595 94.252731 
L 277.379081 93.887449 
L 280.537568 93.266574 
L 280.667155 93.232249 
L 283.696054 91.937181 
L 283.791926 91.887851 
L 284.637347 90.543453 
L 283.844312 89.199055 
L 283.696054 89.084257 
L 281.279715 87.854656 
L 280.537568 87.502802 
L 277.379081 86.864782 
L 274.220595 86.916154 
L 271.062109 87.412542 
L 269.442449 87.854656 
L 267.903623 88.191138 
L 264.745137 89.179833 
L 264.69589 89.199055 
L 261.99055 90.543453 
L 261.58665 91.124632 
L 261.093845 91.887851 
L 261.58665 92.424499 
L 262.589125 93.232249 
z
M 337.390319 81.984009 
L 340.548805 82.357455 
L 343.707291 82.334057 
L 346.865777 81.989654 
L 350.024264 81.323098 
L 350.648014 81.132666 
L 353.18275 79.840673 
L 353.267847 79.788268 
L 353.702582 78.443869 
L 353.18275 78.002098 
L 351.588266 77.099471 
L 350.024264 76.723497 
L 346.865777 76.381025 
L 343.707291 76.390974 
L 340.548805 76.697176 
L 338.418561 77.099471 
L 337.390319 77.382267 
L 334.704467 78.443869 
L 334.231833 78.943704 
L 333.534653 79.788268 
L 334.231833 80.834303 
L 334.514959 81.132666 
z
" clip-path="url(#p5e6813a30b)" style="fill: #ededed"/>
    <path d="M 397.401556 256.038449 
L 400.560042 256.255078 
L 403.718529 256.464708 
L 406.877015 256.660259 
L 410.035501 256.833422 
L 413.193987 256.976438 
L 416.352473 257.084031 
L 419.510959 257.154478 
L 422.669446 257.189338 
L 425.827932 257.192069 
L 428.986418 257.166214 
L 432.144904 257.113786 
L 435.30339 257.034287 
L 438.461877 256.9245 
L 441.620363 256.778956 
L 444.778849 256.590816 
L 447.937335 256.352857 
L 451.095821 256.058309 
L 452.504871 255.904427 
L 454.254307 255.714708 
L 457.412794 255.319877 
L 460.57128 254.860675 
L 462.440993 254.560029 
L 463.729766 254.342788 
L 466.888252 253.770299 
L 469.666673 253.21563 
L 470.046738 253.134553 
L 473.205225 252.454252 
L 475.771316 251.871232 
L 476.363711 251.729524 
L 479.522197 250.99403 
L 481.539808 250.526834 
L 482.680683 250.253568 
L 485.839169 249.523395 
L 487.342339 249.182436 
L 488.997655 248.784605 
L 492.156142 248.010075 
L 492.835685 247.838038 
L 495.314628 247.135137 
L 497.36909 246.49364 
L 498.473114 246.096638 
L 500.866747 245.149242 
L 501.6316 244.803179 
L 503.667911 243.804843 
L 504.790086 243.191357 
L 506.046168 242.460445 
L 507.948573 241.235732 
L 508.126319 241.116047 
L 509.941561 239.771649 
L 511.107059 238.773037 
L 511.505536 238.427251 
L 512.875279 237.082853 
L 514.115864 235.738454 
L 514.265545 235.572468 
L 515.35158 234.394056 
L 516.589835 233.049658 
L 517.424031 232.12791 
L 517.815656 231.70526 
L 518.98731 230.360862 
L 519.996016 229.016464 
L 520.582517 228.054253 
L 520.82564 227.672065 
L 521.491781 226.327667 
L 521.969975 224.983269 
L 522.313822 223.638871 
L 522.616756 222.294473 
L 522.991089 220.950075 
L 523.525615 219.605676 
L 523.741003 219.202551 
L 524.291029 218.261278 
L 525.207789 216.91688 
L 526.136098 215.572482 
L 526.89949 214.315224 
L 526.956477 214.228084 
L 527.618186 212.883686 
L 528.04001 211.539287 
L 528.248997 210.194889 
L 528.316106 208.850491 
L 528.358376 207.506093 
L 528.513839 206.161695 
L 528.86724 204.817297 
L 529.380832 203.472898 
L 529.918545 202.1285 
L 530.057976 201.68284 
L 530.388545 200.784102 
L 530.768464 199.439704 
L 531.19227 198.095306 
L 531.874931 196.750908 
L 532.945512 195.40651 
L 533.216462 195.135499 
L 534.317749 194.062111 
L 535.67321 192.717713 
L 536.374948 191.838305 
L 536.714392 191.373315 
L 537.215428 190.028917 
L 537.167788 188.684519 
L 536.653491 187.340121 
L 536.374948 186.771605 
L 535.86235 185.995722 
L 535.266672 184.651324 
L 535.112957 183.306926 
L 534.856578 181.962528 
L 533.216462 180.732279 
L 532.935179 180.61813 
L 530.057976 180.178982 
L 526.89949 180.003827 
L 523.741003 180.021114 
L 520.582517 180.173685 
L 517.424031 180.441934 
L 516.025816 180.61813 
L 514.265545 180.901355 
L 511.107059 181.532043 
L 509.226936 181.962528 
L 507.948573 182.335629 
L 504.790086 183.288866 
L 504.731153 183.306926 
L 501.6316 184.329347 
L 500.527208 184.651324 
L 498.473114 185.14871 
L 495.314628 185.771327 
L 493.817421 185.995722 
L 492.156142 186.177392 
L 488.997655 186.406807 
L 485.839169 186.506852 
L 482.680683 186.486618 
L 479.522197 186.363845 
L 476.363711 186.161563 
L 474.407541 185.995722 
L 473.205225 185.883603 
L 470.046738 185.527926 
L 466.888252 185.13923 
L 463.729766 184.720061 
L 463.277242 184.651324 
L 460.57128 184.216146 
L 457.412794 183.675691 
L 455.358411 183.306926 
L 454.254307 183.093785 
L 451.095821 182.454984 
L 448.626673 181.962528 
L 447.937335 181.80357 
L 444.778849 181.062586 
L 442.858114 180.61813 
L 441.620363 180.260405 
L 438.461877 179.360534 
L 438.14332 179.273732 
L 435.30339 178.380688 
L 433.63046 177.929333 
L 432.144904 177.540827 
L 428.986418 176.914262 
L 426.568059 176.584935 
L 425.827932 176.492205 
L 422.669446 176.225528 
L 419.510959 176.057278 
L 416.352473 175.945546 
L 413.193987 175.855574 
L 410.035501 175.760074 
L 406.877015 175.640749 
L 403.718529 175.491332 
L 400.560042 175.321368 
L 398.931134 175.240537 
L 397.401556 175.144319 
L 394.24307 175.017874 
L 391.084584 175.013985 
L 387.926098 175.172423 
L 387.294087 175.240537 
L 384.767611 175.496983 
L 381.609125 176.010367 
L 379.0609 176.584935 
L 378.450639 176.71614 
L 375.292153 177.589769 
L 374.286187 177.929333 
L 372.133667 178.616951 
L 370.385078 179.273732 
L 368.975181 179.76869 
L 366.863214 180.61813 
L 365.816694 181.005646 
L 363.517316 181.962528 
L 362.658208 182.286629 
L 360.201967 183.306926 
L 359.499722 183.569284 
L 356.808894 184.651324 
L 356.341236 184.821811 
L 353.293438 185.995722 
L 353.18275 186.035493 
L 350.024264 187.222224 
L 349.722673 187.340121 
L 346.865777 188.443456 
L 346.267825 188.684519 
L 343.707291 189.768337 
L 343.115098 190.028917 
L 340.548805 191.272564 
L 340.344897 191.373315 
L 337.87697 192.717713 
L 337.390319 193.002916 
L 335.545667 194.062111 
L 334.231833 194.833802 
L 333.19705 195.40651 
L 331.073346 196.565686 
L 330.701097 196.750908 
L 327.989044 198.095306 
L 327.91486 198.132935 
L 325.074448 199.439704 
L 324.756374 199.59937 
L 322.098366 200.784102 
L 321.597888 201.035959 
L 319.082998 202.1285 
L 318.439402 202.443389 
L 315.897813 203.472898 
L 315.280916 203.747214 
L 312.145985 204.817297 
L 312.122429 204.825951 
L 308.963943 205.509344 
L 305.805457 205.705823 
L 302.646971 205.408367 
L 299.522845 204.817297 
L 299.488485 204.811129 
L 296.329998 204.152371 
L 293.171512 203.600667 
L 292.221225 203.472898 
L 290.013026 203.204779 
L 286.85454 202.948861 
L 283.696054 202.816224 
L 280.537568 202.794387 
L 277.379081 202.877837 
L 274.220595 203.066796 
L 271.062109 203.362547 
L 270.182108 203.472898 
L 267.903623 203.743355 
L 264.745137 204.212198 
L 261.58665 204.771447 
L 261.359308 204.817297 
L 258.428164 205.411877 
L 255.314828 206.161695 
L 255.269678 206.173329 
L 252.111192 207.119324 
L 250.99778 207.506093 
L 248.952706 208.310005 
L 247.723004 208.850491 
L 245.79422 209.799358 
L 245.043175 210.194889 
L 242.724378 211.539287 
L 242.635733 211.595884 
L 240.714388 212.883686 
L 239.477247 213.912559 
L 239.11502 214.228084 
L 237.963138 215.572482 
L 237.266465 216.91688 
L 236.9629 218.261278 
L 236.990358 219.605676 
L 237.277961 220.950075 
L 237.727101 222.294473 
L 238.222007 223.638871 
L 238.676654 224.983269 
L 239.077653 226.327667 
L 239.477247 227.671379 
L 239.477451 227.672065 
L 239.910066 229.016464 
L 240.393403 230.360862 
L 240.901132 231.70526 
L 241.462067 233.049658 
L 242.22253 234.394056 
L 242.635733 234.863656 
L 243.433725 235.738454 
L 245.416098 237.082853 
L 245.79422 237.267755 
L 248.442531 238.427251 
L 248.952706 238.615356 
L 252.111192 239.650386 
L 252.535359 239.771649 
L 255.269678 240.563995 
L 257.483647 241.116047 
L 258.428164 241.379279 
L 261.58665 242.126775 
L 263.313342 242.460445 
L 264.745137 242.772684 
L 267.903623 243.303501 
L 271.062109 243.667023 
L 273.431041 243.804843 
L 274.220595 243.852311 
L 277.379081 243.837092 
L 277.821802 243.804843 
L 280.537568 243.605976 
L 283.696054 243.151664 
L 286.85454 242.486779 
L 286.955479 242.460445 
L 290.013026 241.624096 
L 291.605747 241.116047 
L 293.171512 240.561791 
L 295.241701 239.771649 
L 296.329998 239.279829 
L 298.266921 238.427251 
L 299.488485 237.796018 
L 301.139384 237.082853 
L 302.646971 236.427374 
L 305.221477 235.738454 
L 305.805457 235.610321 
L 308.963943 235.558 
L 309.794194 235.738454 
L 312.122429 236.350454 
L 313.501628 237.082853 
L 315.280916 237.951626 
L 315.957905 238.427251 
L 318.439402 239.72567 
L 318.508666 239.771649 
L 321.172408 241.116047 
L 321.597888 241.288832 
L 323.927269 242.460445 
L 324.756374 242.832623 
L 326.560228 243.804843 
L 327.91486 244.502736 
L 329.008242 245.149242 
L 331.073346 246.335081 
L 331.329063 246.49364 
L 333.59227 247.838038 
L 334.231833 248.182676 
L 336.114574 249.182436 
L 337.390319 249.758051 
L 339.25256 250.526834 
L 340.548805 250.977078 
L 343.555758 251.871232 
L 343.707291 251.910367 
L 346.865777 252.615053 
L 350.024264 253.165779 
L 350.382928 253.21563 
L 353.18275 253.584393 
L 356.341236 253.89821 
L 359.499722 254.127136 
L 362.658208 254.291786 
L 365.816694 254.414078 
L 368.975181 254.516085 
L 370.325469 254.560029 
L 372.133667 254.618276 
L 375.292153 254.735 
L 378.450639 254.87384 
L 381.609125 255.035964 
L 384.767611 255.217505 
L 387.926098 255.412559 
L 391.084584 255.615745 
L 394.24307 255.823406 
L 395.446412 255.904427 
z
M 415.887938 251.871232 
L 413.193987 251.695535 
L 410.035501 251.474136 
L 406.877015 251.238743 
L 403.718529 250.985173 
L 400.560042 250.704936 
L 398.759464 250.526834 
L 397.401556 250.392841 
L 394.24307 250.039766 
L 391.084584 249.637878 
L 387.926098 249.198204 
L 387.811597 249.182436 
L 384.767611 248.758107 
L 381.609125 248.33611 
L 378.450639 247.95745 
L 377.257957 247.838038 
L 375.292153 247.648984 
L 372.133667 247.398609 
L 368.975181 247.177941 
L 365.816694 246.952841 
L 362.658208 246.678846 
L 361.061454 246.49364 
L 359.499722 246.305147 
L 356.341236 245.769053 
L 353.747608 245.149242 
L 353.18275 244.997764 
L 350.024264 243.900695 
L 349.797908 243.804843 
L 347.008904 242.460445 
L 346.865777 242.382863 
L 344.762947 241.116047 
L 343.707291 240.42988 
L 342.755483 239.771649 
L 340.899174 238.427251 
L 340.548805 238.16784 
L 339.149035 237.082853 
L 337.52983 235.738454 
L 337.390319 235.617129 
L 336.011078 234.394056 
L 334.649216 233.049658 
L 334.231833 232.589077 
L 333.396884 231.70526 
L 332.28876 230.360862 
L 331.356 229.016464 
L 331.073346 228.506018 
L 330.552944 227.672065 
L 329.945346 226.327667 
L 329.581989 224.983269 
L 329.452098 223.638871 
L 329.51855 222.294473 
L 329.72607 220.950075 
L 330.013958 219.605676 
L 330.334373 218.261278 
L 330.667573 216.91688 
L 331.021585 215.572482 
L 331.073346 215.396466 
L 331.38427 214.228084 
L 331.827912 212.883686 
L 332.432529 211.539287 
L 333.306551 210.194889 
L 334.231833 209.194671 
L 334.541177 208.850491 
L 336.135677 207.506093 
L 337.390319 206.649964 
L 338.106613 206.161695 
L 340.365523 204.817297 
L 340.548805 204.715956 
L 342.887266 203.472898 
L 343.707291 203.065866 
L 345.738184 202.1285 
L 346.865777 201.631995 
L 348.998436 200.784102 
L 350.024264 200.380131 
L 352.724269 199.439704 
L 353.18275 199.273509 
L 356.341236 198.258885 
L 356.91617 198.095306 
L 359.499722 197.294751 
L 361.490364 196.750908 
L 362.658208 196.398503 
L 365.816694 195.540387 
L 366.346993 195.40651 
L 368.975181 194.686953 
L 371.475164 194.062111 
L 372.133667 193.887406 
L 375.292153 193.090632 
L 376.862639 192.717713 
L 378.450639 192.31755 
L 381.609125 191.558032 
L 382.404787 191.373315 
L 384.767611 190.791669 
L 387.926098 190.063317 
L 388.082805 190.028917 
L 391.084584 189.365861 
L 394.24307 188.757137 
L 394.668157 188.684519 
L 397.401556 188.24614 
L 400.560042 187.834361 
L 403.718529 187.513864 
L 405.952959 187.340121 
L 406.877015 187.271495 
L 410.035501 187.091665 
L 413.193987 186.968904 
L 416.352473 186.899421 
L 419.510959 186.883464 
L 422.669446 186.925013 
L 425.827932 187.031236 
L 428.986418 187.211819 
L 430.514966 187.340121 
L 432.144904 187.471186 
L 435.30339 187.816409 
L 438.461877 188.260267 
L 440.953252 188.684519 
L 441.620363 188.795536 
L 444.778849 189.383431 
L 447.937335 190.020037 
L 447.980649 190.028917 
L 451.095821 190.633672 
L 454.254307 191.25077 
L 454.894971 191.373315 
L 457.412794 191.841672 
L 460.57128 192.433737 
L 462.086661 192.717713 
L 463.729766 193.035011 
L 466.888252 193.651939 
L 468.966905 194.062111 
L 470.046738 194.292607 
L 473.205225 194.963613 
L 475.261726 195.40651 
L 476.363711 195.674951 
L 479.522197 196.46377 
L 480.623767 196.750908 
L 482.680683 197.379651 
L 484.837339 198.095306 
L 485.839169 198.478133 
L 488.184688 199.439704 
L 488.997655 199.814356 
L 490.976178 200.784102 
L 492.156142 201.446402 
L 493.293516 202.1285 
L 495.146143 203.472898 
L 495.314628 203.61761 
L 496.632119 204.817297 
L 497.829592 206.161695 
L 498.473114 207.024626 
L 498.830412 207.506093 
L 499.667947 208.850491 
L 500.295383 210.194889 
L 500.703751 211.539287 
L 500.913807 212.883686 
L 500.962613 214.228084 
L 500.878024 215.572482 
L 500.67313 216.91688 
L 500.36434 218.261278 
L 499.989063 219.605676 
L 499.600051 220.950075 
L 499.229479 222.294473 
L 498.844671 223.638871 
L 498.473114 224.637652 
L 498.346988 224.983269 
L 497.631539 226.327667 
L 496.625754 227.672065 
L 495.344405 229.016464 
L 495.314628 229.043996 
L 493.940338 230.360862 
L 492.448824 231.70526 
L 492.156142 231.968539 
L 491.008122 233.049658 
L 489.569903 234.394056 
L 488.997655 234.910813 
L 488.123289 235.738454 
L 486.547069 237.082853 
L 485.839169 237.60105 
L 484.74429 238.427251 
L 482.680683 239.709721 
L 482.582075 239.771649 
L 480.077359 241.116047 
L 479.522197 241.377703 
L 477.201069 242.460445 
L 476.363711 242.817221 
L 474.027608 243.804843 
L 473.205225 244.130529 
L 470.635115 245.149242 
L 470.046738 245.368098 
L 467.022171 246.49364 
L 466.888252 246.53989 
L 463.729766 247.620452 
L 463.069529 247.838038 
L 460.57128 248.592793 
L 458.457528 249.182436 
L 457.412794 249.450524 
L 454.254307 250.179239 
L 452.51196 250.526834 
L 451.095821 250.789946 
L 447.937335 251.282962 
L 444.778849 251.676183 
L 442.743335 251.871232 
L 441.620363 251.974024 
L 438.461877 252.183925 
L 435.30339 252.319722 
L 432.144904 252.388334 
L 428.986418 252.395083 
L 425.827932 252.344289 
L 422.669446 252.240573 
L 419.510959 252.090353 
L 416.352473 251.902525 
z
" clip-path="url(#p5e6813a30b)" style="fill: #c9c9c9"/>
    <path d="M 416.352473 251.902525 
L 419.510959 252.090353 
L 422.669446 252.240573 
L 425.827932 252.344289 
L 428.986418 252.395083 
L 432.144904 252.388334 
L 435.30339 252.319722 
L 438.461877 252.183925 
L 441.620363 251.974024 
L 442.743335 251.871232 
L 444.778849 251.676183 
L 447.937335 251.282962 
L 451.095821 250.789946 
L 452.51196 250.526834 
L 454.254307 250.179239 
L 457.412794 249.450524 
L 458.457528 249.182436 
L 460.57128 248.592793 
L 463.069529 247.838038 
L 463.729766 247.620452 
L 466.888252 246.53989 
L 467.022171 246.49364 
L 470.046738 245.368098 
L 470.635115 245.149242 
L 473.205225 244.130529 
L 474.027608 243.804843 
L 476.363711 242.817221 
L 477.201069 242.460445 
L 479.522197 241.377703 
L 480.077359 241.116047 
L 482.582075 239.771649 
L 482.680683 239.709721 
L 484.74429 238.427251 
L 485.839169 237.60105 
L 486.547069 237.082853 
L 488.123289 235.738454 
L 488.997655 234.910813 
L 489.569903 234.394056 
L 491.008122 233.049658 
L 492.156142 231.968539 
L 492.448824 231.70526 
L 493.940338 230.360862 
L 495.314628 229.043996 
L 495.344405 229.016464 
L 496.625754 227.672065 
L 497.631539 226.327667 
L 498.346988 224.983269 
L 498.473114 224.637652 
L 498.844671 223.638871 
L 499.229479 222.294473 
L 499.600051 220.950075 
L 499.989063 219.605676 
L 500.36434 218.261278 
L 500.67313 216.91688 
L 500.878024 215.572482 
L 500.962613 214.228084 
L 500.913807 212.883686 
L 500.703751 211.539287 
L 500.295383 210.194889 
L 499.667947 208.850491 
L 498.830412 207.506093 
L 498.473114 207.024626 
L 497.829592 206.161695 
L 496.632119 204.817297 
L 495.314628 203.61761 
L 495.146143 203.472898 
L 493.293516 202.1285 
L 492.156142 201.446402 
L 490.976178 200.784102 
L 488.997655 199.814356 
L 488.184688 199.439704 
L 485.839169 198.478133 
L 484.837339 198.095306 
L 482.680683 197.379651 
L 480.623767 196.750908 
L 479.522197 196.46377 
L 476.363711 195.674951 
L 475.261726 195.40651 
L 473.205225 194.963613 
L 470.046738 194.292607 
L 468.966905 194.062111 
L 466.888252 193.651939 
L 463.729766 193.035011 
L 462.086661 192.717713 
L 460.57128 192.433737 
L 457.412794 191.841672 
L 454.894971 191.373315 
L 454.254307 191.25077 
L 451.095821 190.633672 
L 447.980649 190.028917 
L 447.937335 190.020037 
L 444.778849 189.383431 
L 441.620363 188.795536 
L 440.953252 188.684519 
L 438.461877 188.260267 
L 435.30339 187.816409 
L 432.144904 187.471186 
L 430.514966 187.340121 
L 428.986418 187.211819 
L 425.827932 187.031236 
L 422.669446 186.925013 
L 419.510959 186.883464 
L 416.352473 186.899421 
L 413.193987 186.968904 
L 410.035501 187.091665 
L 406.877015 187.271495 
L 405.952959 187.340121 
L 403.718529 187.513864 
L 400.560042 187.834361 
L 397.401556 188.24614 
L 394.668157 188.684519 
L 394.24307 188.757137 
L 391.084584 189.365861 
L 388.082805 190.028917 
L 387.926098 190.063317 
L 384.767611 190.791669 
L 382.404787 191.373315 
L 381.609125 191.558032 
L 378.450639 192.31755 
L 376.862639 192.717713 
L 375.292153 193.090632 
L 372.133667 193.887406 
L 371.475164 194.062111 
L 368.975181 194.686953 
L 366.346993 195.40651 
L 365.816694 195.540387 
L 362.658208 196.398503 
L 361.490364 196.750908 
L 359.499722 197.294751 
L 356.91617 198.095306 
L 356.341236 198.258885 
L 353.18275 199.273509 
L 352.724269 199.439704 
L 350.024264 200.380131 
L 348.998436 200.784102 
L 346.865777 201.631995 
L 345.738184 202.1285 
L 343.707291 203.065866 
L 342.887266 203.472898 
L 340.548805 204.715956 
L 340.365523 204.817297 
L 338.106613 206.161695 
L 337.390319 206.649964 
L 336.135677 207.506093 
L 334.541177 208.850491 
L 334.231833 209.194671 
L 333.306551 210.194889 
L 332.432529 211.539287 
L 331.827912 212.883686 
L 331.38427 214.228084 
L 331.073346 215.396466 
L 331.021585 215.572482 
L 330.667573 216.91688 
L 330.334373 218.261278 
L 330.013958 219.605676 
L 329.72607 220.950075 
L 329.51855 222.294473 
L 329.452098 223.638871 
L 329.581989 224.983269 
L 329.945346 226.327667 
L 330.552944 227.672065 
L 331.073346 228.506018 
L 331.356 229.016464 
L 332.28876 230.360862 
L 333.396884 231.70526 
L 334.231833 232.589077 
L 334.649216 233.049658 
L 336.011078 234.394056 
L 337.390319 235.617129 
L 337.52983 235.738454 
L 339.149035 237.082853 
L 340.548805 238.16784 
L 340.899174 238.427251 
L 342.755483 239.771649 
L 343.707291 240.42988 
L 344.762947 241.116047 
L 346.865777 242.382863 
L 347.008904 242.460445 
L 349.797908 243.804843 
L 350.024264 243.900695 
L 353.18275 244.997764 
L 353.747608 245.149242 
L 356.341236 245.769053 
L 359.499722 246.305147 
L 361.061454 246.49364 
L 362.658208 246.678846 
L 365.816694 246.952841 
L 368.975181 247.177941 
L 372.133667 247.398609 
L 375.292153 247.648984 
L 377.257957 247.838038 
L 378.450639 247.95745 
L 381.609125 248.33611 
L 384.767611 248.758107 
L 387.811597 249.182436 
L 387.926098 249.198204 
L 391.084584 249.637878 
L 394.24307 250.039766 
L 397.401556 250.392841 
L 398.759464 250.526834 
L 400.560042 250.704936 
L 403.718529 250.985173 
L 406.877015 251.238743 
L 410.035501 251.474136 
L 413.193987 251.695535 
L 415.887938 251.871232 
z
M 406.381869 246.49364 
L 403.718529 246.181721 
L 400.560042 245.742222 
L 397.401556 245.237113 
L 396.889738 245.149242 
L 394.24307 244.679235 
L 391.084584 244.107085 
L 389.38274 243.804843 
L 387.926098 243.538089 
L 384.767611 242.983433 
L 381.662724 242.460445 
L 381.609125 242.450332 
L 378.450639 241.885966 
L 375.292153 241.320033 
L 374.145416 241.116047 
L 372.133667 240.679272 
L 368.975181 239.963312 
L 368.179706 239.771649 
L 365.816694 239.136345 
L 363.375435 238.427251 
L 362.658208 238.222705 
L 359.499722 237.231013 
L 359.088984 237.082853 
L 356.341236 236.146403 
L 355.33651 235.738454 
L 353.18275 234.869333 
L 352.205652 234.394056 
L 350.024264 233.250297 
L 349.699814 233.049658 
L 347.81869 231.70526 
L 346.865777 230.832693 
L 346.403138 230.360862 
L 345.425393 229.016464 
L 344.75126 227.672065 
L 344.304454 226.327667 
L 344.025952 224.983269 
L 343.881099 223.638871 
L 343.846319 222.294473 
L 343.89625 220.950075 
L 344.008979 219.605676 
L 344.184927 218.261278 
L 344.458353 216.91688 
L 344.886262 215.572482 
L 345.522758 214.228084 
L 346.402761 212.883686 
L 346.865777 212.32562 
L 347.585085 211.539287 
L 349.091476 210.194889 
L 350.024264 209.498421 
L 350.995954 208.850491 
L 353.18275 207.59232 
L 353.352002 207.506093 
L 356.319636 206.161695 
L 356.341236 206.152926 
L 359.499722 205.012665 
L 360.111802 204.817297 
L 362.658208 204.073001 
L 364.951064 203.472898 
L 365.816694 203.260687 
L 368.975181 202.552596 
L 370.976429 202.1285 
L 372.133667 201.89027 
L 375.292153 201.254477 
L 377.595461 200.784102 
L 378.450639 200.609158 
L 381.609125 199.941941 
L 383.87909 199.439704 
L 384.767611 199.242131 
L 387.926098 198.510621 
L 389.665247 198.095306 
L 391.084584 197.761464 
L 394.24307 197.012342 
L 395.346887 196.750908 
L 397.401556 196.276592 
L 400.560042 195.580248 
L 401.387136 195.40651 
L 403.718529 194.921225 
L 406.877015 194.33398 
L 408.562948 194.062111 
L 410.035501 193.820095 
L 413.193987 193.39311 
L 416.352473 193.077965 
L 419.510959 192.875691 
L 422.669446 192.787041 
L 425.827932 192.81257 
L 428.986418 192.951654 
L 432.144904 193.200817 
L 435.30339 193.552178 
L 438.461877 193.993157 
L 438.88933 194.062111 
L 441.620363 194.49334 
L 444.778849 195.054168 
L 446.59892 195.40651 
L 447.937335 195.670023 
L 451.095821 196.345677 
L 452.842708 196.750908 
L 454.254307 197.094361 
L 457.412794 197.930117 
L 458.002603 198.095306 
L 460.57128 198.860572 
L 462.388846 199.439704 
L 463.729766 199.893942 
L 466.21952 200.784102 
L 466.888252 201.038361 
L 469.634091 202.1285 
L 470.046738 202.303183 
L 472.714851 203.472898 
L 473.205225 203.705224 
L 475.482672 204.817297 
L 476.363711 205.299811 
L 477.892699 206.161695 
L 479.522197 207.269594 
L 479.86104 207.506093 
L 481.388011 208.850491 
L 482.425193 210.194889 
L 482.680683 210.706192 
L 483.108187 211.539287 
L 483.543657 212.883686 
L 483.821336 214.228084 
L 483.969044 215.572482 
L 483.938472 216.91688 
L 483.668796 218.261278 
L 483.159024 219.605676 
L 482.680683 220.571765 
L 482.503903 220.950075 
L 481.851938 222.294473 
L 481.238735 223.638871 
L 480.637534 224.983269 
L 479.942701 226.327667 
L 479.522197 226.963379 
L 479.079055 227.672065 
L 478.010158 229.016464 
L 476.73793 230.360862 
L 476.363711 230.729833 
L 475.405289 231.70526 
L 474.045833 233.049658 
L 473.205225 233.867826 
L 472.673714 234.394056 
L 471.221172 235.738454 
L 470.046738 236.668604 
L 469.515978 237.082853 
L 467.411415 238.427251 
L 466.888252 238.705867 
L 464.802368 239.771649 
L 463.729766 240.252923 
L 461.714097 241.116047 
L 460.57128 241.577562 
L 458.267523 242.460445 
L 457.412794 242.782098 
L 454.4914 243.804843 
L 454.254307 243.885892 
L 451.095821 244.863539 
L 450.024183 245.149242 
L 447.937335 245.674336 
L 444.778849 246.320332 
L 443.696481 246.49364 
L 441.620363 246.803503 
L 438.461877 247.149885 
L 435.30339 247.380654 
L 432.144904 247.513935 
L 428.986418 247.567624 
L 425.827932 247.557658 
L 422.669446 247.49675 
L 419.510959 247.393362 
L 416.352473 247.250933 
L 413.193987 247.067605 
L 410.035501 246.836691 
L 406.877015 246.548102 
z
" clip-path="url(#p5e6813a30b)" style="fill: #a4a4a4"/>
    <path d="M 406.877015 246.548102 
L 410.035501 246.836691 
L 413.193987 247.067605 
L 416.352473 247.250933 
L 419.510959 247.393362 
L 422.669446 247.49675 
L 425.827932 247.557658 
L 428.986418 247.567624 
L 432.144904 247.513935 
L 435.30339 247.380654 
L 438.461877 247.149885 
L 441.620363 246.803503 
L 443.696481 246.49364 
L 444.778849 246.320332 
L 447.937335 245.674336 
L 450.024183 245.149242 
L 451.095821 244.863539 
L 454.254307 243.885892 
L 454.4914 243.804843 
L 457.412794 242.782098 
L 458.267523 242.460445 
L 460.57128 241.577562 
L 461.714097 241.116047 
L 463.729766 240.252923 
L 464.802368 239.771649 
L 466.888252 238.705867 
L 467.411415 238.427251 
L 469.515978 237.082853 
L 470.046738 236.668604 
L 471.221172 235.738454 
L 472.673714 234.394056 
L 473.205225 233.867826 
L 474.045833 233.049658 
L 475.405289 231.70526 
L 476.363711 230.729833 
L 476.73793 230.360862 
L 478.010158 229.016464 
L 479.079055 227.672065 
L 479.522197 226.963379 
L 479.942701 226.327667 
L 480.637534 224.983269 
L 481.238735 223.638871 
L 481.851938 222.294473 
L 482.503903 220.950075 
L 482.680683 220.571765 
L 483.159024 219.605676 
L 483.668796 218.261278 
L 483.938472 216.91688 
L 483.969044 215.572482 
L 483.821336 214.228084 
L 483.543657 212.883686 
L 483.108187 211.539287 
L 482.680683 210.706192 
L 482.425193 210.194889 
L 481.388011 208.850491 
L 479.86104 207.506093 
L 479.522197 207.269594 
L 477.892699 206.161695 
L 476.363711 205.299811 
L 475.482672 204.817297 
L 473.205225 203.705224 
L 472.714851 203.472898 
L 470.046738 202.303183 
L 469.634091 202.1285 
L 466.888252 201.038361 
L 466.21952 200.784102 
L 463.729766 199.893942 
L 462.388846 199.439704 
L 460.57128 198.860572 
L 458.002603 198.095306 
L 457.412794 197.930117 
L 454.254307 197.094361 
L 452.842708 196.750908 
L 451.095821 196.345677 
L 447.937335 195.670023 
L 446.59892 195.40651 
L 444.778849 195.054168 
L 441.620363 194.49334 
L 438.88933 194.062111 
L 438.461877 193.993157 
L 435.30339 193.552178 
L 432.144904 193.200817 
L 428.986418 192.951654 
L 425.827932 192.81257 
L 422.669446 192.787041 
L 419.510959 192.875691 
L 416.352473 193.077965 
L 413.193987 193.39311 
L 410.035501 193.820095 
L 408.562948 194.062111 
L 406.877015 194.33398 
L 403.718529 194.921225 
L 401.387136 195.40651 
L 400.560042 195.580248 
L 397.401556 196.276592 
L 395.346887 196.750908 
L 394.24307 197.012342 
L 391.084584 197.761464 
L 389.665247 198.095306 
L 387.926098 198.510621 
L 384.767611 199.242131 
L 383.87909 199.439704 
L 381.609125 199.941941 
L 378.450639 200.609158 
L 377.595461 200.784102 
L 375.292153 201.254477 
L 372.133667 201.89027 
L 370.976429 202.1285 
L 368.975181 202.552596 
L 365.816694 203.260687 
L 364.951064 203.472898 
L 362.658208 204.073001 
L 360.111802 204.817297 
L 359.499722 205.012665 
L 356.341236 206.152926 
L 356.319636 206.161695 
L 353.352002 207.506093 
L 353.18275 207.59232 
L 350.995954 208.850491 
L 350.024264 209.498421 
L 349.091476 210.194889 
L 347.585085 211.539287 
L 346.865777 212.32562 
L 346.402761 212.883686 
L 345.522758 214.228084 
L 344.886262 215.572482 
L 344.458353 216.91688 
L 344.184927 218.261278 
L 344.008979 219.605676 
L 343.89625 220.950075 
L 343.846319 222.294473 
L 343.881099 223.638871 
L 344.025952 224.983269 
L 344.304454 226.327667 
L 344.75126 227.672065 
L 345.425393 229.016464 
L 346.403138 230.360862 
L 346.865777 230.832693 
L 347.81869 231.70526 
L 349.699814 233.049658 
L 350.024264 233.250297 
L 352.205652 234.394056 
L 353.18275 234.869333 
L 355.33651 235.738454 
L 356.341236 236.146403 
L 359.088984 237.082853 
L 359.499722 237.231013 
L 362.658208 238.222705 
L 363.375435 238.427251 
L 365.816694 239.136345 
L 368.179706 239.771649 
L 368.975181 239.963312 
L 372.133667 240.679272 
L 374.145416 241.116047 
L 375.292153 241.320033 
L 378.450639 241.885966 
L 381.609125 242.450332 
L 381.662724 242.460445 
L 384.767611 242.983433 
L 387.926098 243.538089 
L 389.38274 243.804843 
L 391.084584 244.107085 
L 394.24307 244.679235 
L 396.889738 245.149242 
L 397.401556 245.237113 
L 400.560042 245.742222 
L 403.718529 246.181721 
L 406.381869 246.49364 
z
M 416.148069 242.460445 
L 413.193987 242.210822 
L 410.035501 241.859182 
L 406.877015 241.431807 
L 404.851275 241.116047 
L 403.718529 240.933507 
L 400.560042 240.361068 
L 397.627301 239.771649 
L 397.401556 239.722215 
L 394.24307 238.951283 
L 392.320235 238.427251 
L 391.084584 238.036026 
L 388.320379 237.082853 
L 387.926098 236.929769 
L 384.915202 235.738454 
L 384.767611 235.677724 
L 381.609125 234.448702 
L 381.454555 234.394056 
L 378.450639 233.356067 
L 377.431014 233.049658 
L 375.292153 232.394105 
L 372.718055 231.70526 
L 372.133667 231.529712 
L 368.975181 230.645416 
L 367.979741 230.360862 
L 365.816694 229.561496 
L 364.523895 229.016464 
L 362.658208 227.868243 
L 362.394738 227.672065 
L 361.204044 226.327667 
L 360.388292 224.983269 
L 359.774704 223.638871 
L 359.499722 222.817202 
L 359.356275 222.294473 
L 359.160489 220.950075 
L 359.198562 219.605676 
L 359.499722 218.349675 
L 359.524354 218.261278 
L 360.296961 216.91688 
L 361.563965 215.572482 
L 362.658208 214.753747 
L 363.489857 214.228084 
L 365.816694 213.060505 
L 366.212495 212.883686 
L 368.975181 211.806561 
L 369.69072 211.539287 
L 372.133667 210.704635 
L 373.59512 210.194889 
L 375.292153 209.649769 
L 377.639844 208.850491 
L 378.450639 208.599924 
L 381.609125 207.549813 
L 381.729454 207.506093 
L 384.767611 206.522579 
L 385.809655 206.161695 
L 387.926098 205.502349 
L 390.015544 204.817297 
L 391.084584 204.493374 
L 394.24307 203.501639 
L 394.332217 203.472898 
L 397.401556 202.526597 
L 398.703174 202.1285 
L 400.560042 201.575965 
L 403.317506 200.784102 
L 403.718529 200.672546 
L 406.877015 199.846445 
L 408.624918 199.439704 
L 410.035501 199.127193 
L 413.193987 198.541216 
L 416.346668 198.095306 
L 416.352473 198.094527 
L 419.510959 197.810656 
L 422.669446 197.677422 
L 425.827932 197.691257 
L 428.986418 197.842805 
L 431.883001 198.095306 
L 432.144904 198.118747 
L 435.30339 198.508048 
L 438.461877 198.988677 
L 440.982995 199.439704 
L 441.620363 199.555324 
L 444.778849 200.209333 
L 447.214145 200.784102 
L 447.937335 200.958612 
L 451.095821 201.814464 
L 452.136473 202.1285 
L 454.254307 202.787867 
L 456.25081 203.472898 
L 457.412794 203.886882 
L 459.81955 204.817297 
L 460.57128 205.126058 
L 462.926893 206.161695 
L 463.729766 206.555448 
L 465.566219 207.506093 
L 466.888252 208.32955 
L 467.691502 208.850491 
L 469.277532 210.194889 
L 470.046738 211.14081 
L 470.363892 211.539287 
L 471.053001 212.883686 
L 471.448265 214.228084 
L 471.62571 215.572482 
L 471.599509 216.91688 
L 471.352939 218.261278 
L 470.893931 219.605676 
L 470.283134 220.950075 
L 470.046738 221.42187 
L 469.625075 222.294473 
L 468.963389 223.638871 
L 468.267749 224.983269 
L 467.459801 226.327667 
L 466.888252 227.100767 
L 466.466768 227.672065 
L 465.266995 229.016464 
L 463.881672 230.360862 
L 463.729766 230.499798 
L 462.409142 231.70526 
L 460.858324 233.049658 
L 460.57128 233.285685 
L 459.183695 234.394056 
L 457.412794 235.61945 
L 457.229597 235.738454 
L 454.791536 237.082853 
L 454.254307 237.333979 
L 451.65219 238.427251 
L 451.095821 238.635522 
L 447.937335 239.67383 
L 447.58756 239.771649 
L 444.778849 240.526792 
L 442.08121 241.116047 
L 441.620363 241.216062 
L 438.461877 241.76476 
L 435.30339 242.175414 
L 432.204732 242.460445 
L 432.144904 242.465885 
L 428.986418 242.647561 
L 425.827932 242.733075 
L 422.669446 242.731025 
L 419.510959 242.645325 
L 416.352473 242.476637 
z
" clip-path="url(#p5e6813a30b)" style="fill: #7f7f7f"/>
    <path d="M 416.352473 242.476637 
L 419.510959 242.645325 
L 422.669446 242.731025 
L 425.827932 242.733075 
L 428.986418 242.647561 
L 432.144904 242.465885 
L 432.204732 242.460445 
L 435.30339 242.175414 
L 438.461877 241.76476 
L 441.620363 241.216062 
L 442.08121 241.116047 
L 444.778849 240.526792 
L 447.58756 239.771649 
L 447.937335 239.67383 
L 451.095821 238.635522 
L 451.65219 238.427251 
L 454.254307 237.333979 
L 454.791536 237.082853 
L 457.229597 235.738454 
L 457.412794 235.61945 
L 459.183695 234.394056 
L 460.57128 233.285685 
L 460.858324 233.049658 
L 462.409142 231.70526 
L 463.729766 230.499798 
L 463.881672 230.360862 
L 465.266995 229.016464 
L 466.466768 227.672065 
L 466.888252 227.100767 
L 467.459801 226.327667 
L 468.267749 224.983269 
L 468.963389 223.638871 
L 469.625075 222.294473 
L 470.046738 221.42187 
L 470.283134 220.950075 
L 470.893931 219.605676 
L 471.352939 218.261278 
L 471.599509 216.91688 
L 471.62571 215.572482 
L 471.448265 214.228084 
L 471.053001 212.883686 
L 470.363892 211.539287 
L 470.046738 211.14081 
L 469.277532 210.194889 
L 467.691502 208.850491 
L 466.888252 208.32955 
L 465.566219 207.506093 
L 463.729766 206.555448 
L 462.926893 206.161695 
L 460.57128 205.126058 
L 459.81955 204.817297 
L 457.412794 203.886882 
L 456.25081 203.472898 
L 454.254307 202.787867 
L 452.136473 202.1285 
L 451.095821 201.814464 
L 447.937335 200.958612 
L 447.214145 200.784102 
L 444.778849 200.209333 
L 441.620363 199.555324 
L 440.982995 199.439704 
L 438.461877 198.988677 
L 435.30339 198.508048 
L 432.144904 198.118747 
L 431.883001 198.095306 
L 428.986418 197.842805 
L 425.827932 197.691257 
L 422.669446 197.677422 
L 419.510959 197.810656 
L 416.352473 198.094527 
L 416.346668 198.095306 
L 413.193987 198.541216 
L 410.035501 199.127193 
L 408.624918 199.439704 
L 406.877015 199.846445 
L 403.718529 200.672546 
L 403.317506 200.784102 
L 400.560042 201.575965 
L 398.703174 202.1285 
L 397.401556 202.526597 
L 394.332217 203.472898 
L 394.24307 203.501639 
L 391.084584 204.493374 
L 390.015544 204.817297 
L 387.926098 205.502349 
L 385.809655 206.161695 
L 384.767611 206.522579 
L 381.729454 207.506093 
L 381.609125 207.549813 
L 378.450639 208.599924 
L 377.639844 208.850491 
L 375.292153 209.649769 
L 373.59512 210.194889 
L 372.133667 210.704635 
L 369.69072 211.539287 
L 368.975181 211.806561 
L 366.212495 212.883686 
L 365.816694 213.060505 
L 363.489857 214.228084 
L 362.658208 214.753747 
L 361.563965 215.572482 
L 360.296961 216.91688 
L 359.524354 218.261278 
L 359.499722 218.349675 
L 359.198562 219.605676 
L 359.160489 220.950075 
L 359.356275 222.294473 
L 359.499722 222.817202 
L 359.774704 223.638871 
L 360.388292 224.983269 
L 361.204044 226.327667 
L 362.394738 227.672065 
L 362.658208 227.868243 
L 364.523895 229.016464 
L 365.816694 229.561496 
L 367.979741 230.360862 
L 368.975181 230.645416 
L 372.133667 231.529712 
L 372.718055 231.70526 
L 375.292153 232.394105 
L 377.431014 233.049658 
L 378.450639 233.356067 
L 381.454555 234.394056 
L 381.609125 234.448702 
L 384.767611 235.677724 
L 384.915202 235.738454 
L 387.926098 236.929769 
L 388.320379 237.082853 
L 391.084584 238.036026 
L 392.320235 238.427251 
L 394.24307 238.951283 
L 397.401556 239.722215 
L 397.627301 239.771649 
L 400.560042 240.361068 
L 403.718529 240.933507 
L 404.851275 241.116047 
L 406.877015 241.431807 
L 410.035501 241.859182 
L 413.193987 242.210822 
L 416.148069 242.460445 
z
M 419.192591 237.082853 
L 416.352473 236.819068 
L 413.193987 236.439784 
L 410.035501 235.964446 
L 408.799757 235.738454 
L 406.877015 235.365958 
L 403.718529 234.609744 
L 402.964672 234.394056 
L 400.560042 233.658962 
L 398.858264 233.049658 
L 397.401556 232.488569 
L 395.561208 231.70526 
L 394.24307 231.075327 
L 392.809302 230.360862 
L 391.084584 229.312746 
L 390.591587 229.016464 
L 388.909727 227.672065 
L 387.926098 226.512143 
L 387.758178 226.327667 
L 386.882423 224.983269 
L 386.147554 223.638871 
L 385.418952 222.294473 
L 384.767611 221.000616 
L 384.738415 220.950075 
L 384.266642 219.605676 
L 384.363137 218.261278 
L 384.767611 217.592076 
L 385.132131 216.91688 
L 386.510554 215.572482 
L 387.926098 214.589829 
L 388.412994 214.228084 
L 390.601185 212.883686 
L 391.084584 212.615949 
L 392.9516 211.539287 
L 394.24307 210.850418 
L 395.451128 210.194889 
L 397.401556 209.22767 
L 398.17211 208.850491 
L 400.560042 207.807517 
L 401.285451 207.506093 
L 403.718529 206.605049 
L 405.026921 206.161695 
L 406.877015 205.587143 
L 409.694359 204.817297 
L 410.035501 204.728501 
L 413.193987 204.037402 
L 416.352473 203.499752 
L 416.581588 203.472898 
L 419.510959 203.137629 
L 422.669446 202.946471 
L 425.827932 202.920485 
L 428.986418 203.045165 
L 432.144904 203.301392 
L 433.596073 203.472898 
L 435.30339 203.679644 
L 438.461877 204.171454 
L 441.620363 204.765305 
L 441.853397 204.817297 
L 444.778849 205.490084 
L 447.293628 206.161695 
L 447.937335 206.343966 
L 451.095821 207.380079 
L 451.433944 207.506093 
L 454.254307 208.703993 
L 454.561506 208.850491 
L 456.865625 210.194889 
L 457.412794 210.610923 
L 458.51359 211.539287 
L 459.651425 212.883686 
L 460.399449 214.228084 
L 460.57128 214.763456 
L 460.812392 215.572482 
L 460.940924 216.91688 
L 460.804562 218.261278 
L 460.57128 219.093338 
L 460.428469 219.605676 
L 459.865314 220.950075 
L 459.173069 222.294473 
L 458.379315 223.638871 
L 457.46832 224.983269 
L 457.412794 225.054882 
L 456.374958 226.327667 
L 455.085038 227.672065 
L 454.254307 228.440346 
L 453.589723 229.016464 
L 451.928745 230.360862 
L 451.095821 231.001524 
L 450.09835 231.70526 
L 448.035448 233.049658 
L 447.937335 233.106456 
L 445.362625 234.394056 
L 444.778849 234.641438 
L 441.620363 235.725392 
L 441.57067 235.738454 
L 438.461877 236.447666 
L 435.30339 236.950345 
L 433.972926 237.082853 
L 432.144904 237.25314 
L 428.986418 237.396783 
L 425.827932 237.40998 
L 422.669446 237.31017 
L 419.510959 237.111293 
z
" clip-path="url(#p5e6813a30b)" style="fill: #5b5b5b"/>
    <path d="M 419.510959 237.111293 
L 422.669446 237.31017 
L 425.827932 237.40998 
L 428.986418 237.396783 
L 432.144904 237.25314 
L 433.972926 237.082853 
L 435.30339 236.950345 
L 438.461877 236.447666 
L 441.57067 235.738454 
L 441.620363 235.725392 
L 444.778849 234.641438 
L 445.362625 234.394056 
L 447.937335 233.106456 
L 448.035448 233.049658 
L 450.09835 231.70526 
L 451.095821 231.001524 
L 451.928745 230.360862 
L 453.589723 229.016464 
L 454.254307 228.440346 
L 455.085038 227.672065 
L 456.374958 226.327667 
L 457.412794 225.054882 
L 457.46832 224.983269 
L 458.379315 223.638871 
L 459.173069 222.294473 
L 459.865314 220.950075 
L 460.428469 219.605676 
L 460.57128 219.093338 
L 460.804562 218.261278 
L 460.940924 216.91688 
L 460.812392 215.572482 
L 460.57128 214.763456 
L 460.399449 214.228084 
L 459.651425 212.883686 
L 458.51359 211.539287 
L 457.412794 210.610923 
L 456.865625 210.194889 
L 454.561506 208.850491 
L 454.254307 208.703993 
L 451.433944 207.506093 
L 451.095821 207.380079 
L 447.937335 206.343966 
L 447.293628 206.161695 
L 444.778849 205.490084 
L 441.853397 204.817297 
L 441.620363 204.765305 
L 438.461877 204.171454 
L 435.30339 203.679644 
L 433.596073 203.472898 
L 432.144904 203.301392 
L 428.986418 203.045165 
L 425.827932 202.920485 
L 422.669446 202.946471 
L 419.510959 203.137629 
L 416.581588 203.472898 
L 416.352473 203.499752 
L 413.193987 204.037402 
L 410.035501 204.728501 
L 409.694359 204.817297 
L 406.877015 205.587143 
L 405.026921 206.161695 
L 403.718529 206.605049 
L 401.285451 207.506093 
L 400.560042 207.807517 
L 398.17211 208.850491 
L 397.401556 209.22767 
L 395.451128 210.194889 
L 394.24307 210.850418 
L 392.9516 211.539287 
L 391.084584 212.615949 
L 390.601185 212.883686 
L 388.412994 214.228084 
L 387.926098 214.589829 
L 386.510554 215.572482 
L 385.132131 216.91688 
L 384.767611 217.592076 
L 384.363137 218.261278 
L 384.266642 219.605676 
L 384.738415 220.950075 
L 384.767611 221.000616 
L 385.418952 222.294473 
L 386.147554 223.638871 
L 386.882423 224.983269 
L 387.758178 226.327667 
L 387.926098 226.512143 
L 388.909727 227.672065 
L 390.591587 229.016464 
L 391.084584 229.312746 
L 392.809302 230.360862 
L 394.24307 231.075327 
L 395.561208 231.70526 
L 397.401556 232.488569 
L 398.858264 233.049658 
L 400.560042 233.658962 
L 402.964672 234.394056 
L 403.718529 234.609744 
L 406.877015 235.365958 
L 408.799757 235.738454 
L 410.035501 235.964446 
L 413.193987 236.439784 
L 416.352473 236.819068 
L 419.192591 237.082853 
z
M 413.491433 230.360862 
L 413.193987 230.309778 
L 410.035501 229.553397 
L 408.336724 229.016464 
L 406.877015 228.429799 
L 405.35338 227.672065 
L 403.718529 226.515232 
L 403.488683 226.327667 
L 402.354895 224.983269 
L 401.566438 223.638871 
L 400.961101 222.294473 
L 400.560042 221.127645 
L 400.501278 220.950075 
L 400.277341 219.605676 
L 400.441463 218.261278 
L 400.560042 218.034595 
L 401.167683 216.91688 
L 402.519699 215.572482 
L 403.718529 214.722625 
L 404.469106 214.228084 
L 406.877015 212.907535 
L 406.925876 212.883686 
L 409.995278 211.539287 
L 410.035501 211.523076 
L 413.193987 210.469667 
L 414.282704 210.194889 
L 416.352473 209.715438 
L 419.510959 209.225507 
L 422.669446 208.962327 
L 425.827932 208.899676 
L 428.986418 209.015395 
L 432.144904 209.296647 
L 435.30339 209.742193 
L 437.627441 210.194889 
L 438.461877 210.384147 
L 441.620363 211.322082 
L 442.202996 211.539287 
L 444.778849 212.703226 
L 445.10417 212.883686 
L 447.111183 214.228084 
L 447.937335 214.943364 
L 448.535238 215.572482 
L 449.377586 216.91688 
L 449.718154 218.261278 
L 449.59437 219.605676 
L 449.083799 220.950075 
L 448.263425 222.294473 
L 447.937335 222.701424 
L 447.091667 223.638871 
L 445.609229 224.983269 
L 444.778849 225.628669 
L 443.723512 226.327667 
L 441.620363 227.571797 
L 441.413919 227.672065 
L 438.461877 229.007874 
L 438.437385 229.016464 
L 435.30339 230.055313 
L 433.976368 230.360862 
L 432.144904 230.753491 
L 428.986418 231.156639 
L 425.827932 231.325986 
L 422.669446 231.308569 
L 419.510959 231.132714 
L 416.352473 230.805473 
z
" clip-path="url(#p5e6813a30b)" style="fill: #363636"/>
    <path d="M 416.352473 230.805473 
L 419.510959 231.132714 
L 422.669446 231.308569 
L 425.827932 231.325986 
L 428.986418 231.156639 
L 432.144904 230.753491 
L 433.976368 230.360862 
L 435.30339 230.055313 
L 438.437385 229.016464 
L 438.461877 229.007874 
L 441.413919 227.672065 
L 441.620363 227.571797 
L 443.723512 226.327667 
L 444.778849 225.628669 
L 445.609229 224.983269 
L 447.091667 223.638871 
L 447.937335 222.701424 
L 448.263425 222.294473 
L 449.083799 220.950075 
L 449.59437 219.605676 
L 449.718154 218.261278 
L 449.377586 216.91688 
L 448.535238 215.572482 
L 447.937335 214.943364 
L 447.111183 214.228084 
L 445.10417 212.883686 
L 444.778849 212.703226 
L 442.202996 211.539287 
L 441.620363 211.322082 
L 438.461877 210.384147 
L 437.627441 210.194889 
L 435.30339 209.742193 
L 432.144904 209.296647 
L 428.986418 209.015395 
L 425.827932 208.899676 
L 422.669446 208.962327 
L 419.510959 209.225507 
L 416.352473 209.715438 
L 414.282704 210.194889 
L 413.193987 210.469667 
L 410.035501 211.523076 
L 409.995278 211.539287 
L 406.925876 212.883686 
L 406.877015 212.907535 
L 404.469106 214.228084 
L 403.718529 214.722625 
L 402.519699 215.572482 
L 401.167683 216.91688 
L 400.560042 218.034595 
L 400.441463 218.261278 
L 400.277341 219.605676 
L 400.501278 220.950075 
L 400.560042 221.127645 
L 400.961101 222.294473 
L 401.566438 223.638871 
L 402.354895 224.983269 
L 403.488683 226.327667 
L 403.718529 226.515232 
L 405.35338 227.672065 
L 406.877015 228.429799 
L 408.336724 229.016464 
L 410.035501 229.553397 
L 413.193987 230.309778 
L 413.491433 230.360862 
z
" clip-path="url(#p5e6813a30b)" style="fill: #121212"/>
   </g>
   <g id="matplotlib.axis_1">
    <g id="xtick_1">
     <g id="line2d_1">
      <defs>
       <path id="m0177f32f7f" d="M 0 0 
L 0 3.5 
" style="stroke: #000000; stroke-width: 0.8"/>
      </defs>
      <g>
       <use xlink:href="#m0177f32f7f" x="73.453909" y="280.103594" style="stroke: #000000; stroke-width: 0.8"/>
      </g>
     </g>
     <g id="text_1">
      <text style="font: 15px 'Arial', sans-serif; text-anchor: middle" x="73.453909" y="297.840312" transform="rotate(-0 73.453909 297.840312)">0.0</text>
     </g>
    </g>
    <g id="xtick_2">
     <g id="line2d_2">
      <g>
       <use xlink:href="#m0177f32f7f" x="182.220221" y="280.103594" style="stroke: #000000; stroke-width: 0.8"/>
      </g>
     </g>
     <g id="text_2">
      <text style="font: 15px 'Arial', sans-serif; text-anchor: middle" x="182.220221" y="297.840312" transform="rotate(-0 182.220221 297.840312)">0.5</text>
     </g>
    </g>
    <g id="xtick_3">
     <g id="line2d_3">
      <g>
       <use xlink:href="#m0177f32f7f" x="290.986532" y="280.103594" style="stroke: #000000; stroke-width: 0.8"/>
      </g>
     </g>
     <g id="text_3">
      <text style="font: 15px 'Arial', sans-serif; text-anchor: middle" x="290.986532" y="297.840312" transform="rotate(-0 290.986532 297.840312)">1.0</text>
     </g>
    </g>
    <g id="xtick_4">
     <g id="line2d_4">
      <g>
       <use xlink:href="#m0177f32f7f" x="399.752844" y="280.103594" style="stroke: #000000; stroke-width: 0.8"/>
      </g>
     </g>
     <g id="text_4">
      <text style="font: 15px 'Arial', sans-serif; text-anchor: middle" x="399.752844" y="297.840312" transform="rotate(-0 399.752844 297.840312)">1.5</text>
     </g>
    </g>
    <g id="xtick_5">
     <g id="line2d_5">
      <g>
       <use xlink:href="#m0177f32f7f" x="508.519156" y="280.103594" style="stroke: #000000; stroke-width: 0.8"/>
      </g>
     </g>
     <g id="text_5">
      <text style="font: 15px 'Arial', sans-serif; text-anchor: middle" x="508.519156" y="297.840312" transform="rotate(-0 508.519156 297.840312)">2.0</text>
     </g>
    </g>
    <g id="xtick_6">
     <g id="line2d_6">
      <g>
       <use xlink:href="#m0177f32f7f" x="617.285467" y="280.103594" style="stroke: #000000; stroke-width: 0.8"/>
      </g>
     </g>
     <g id="text_6">
      <text style="font: 15px 'Arial', sans-serif; text-anchor: middle" x="617.285467" y="297.840312" transform="rotate(-0 617.285467 297.840312)">2.5</text>
     </g>
    </g>
    <g id="text_7">
     <text style="font: 15px 'Arial', sans-serif" transform="translate(310.708828 315.558281)">Patristic distance</text>
     <text style="font: 15px 'Arial', sans-serif" transform="translate(294.037734 331.642969)">(substitutions per site)</text>
    </g>
   </g>
   <g id="matplotlib.axis_2">
    <g id="ytick_1">
     <g id="line2d_7">
      <defs>
       <path id="m5a8edd9328" d="M 0 0 
L -3.5 0 
" style="stroke: #000000; stroke-width: 0.8"/>
      </defs>
      <g>
       <use xlink:href="#m5a8edd9328" x="53.126562" y="261.344459" style="stroke: #000000; stroke-width: 0.8"/>
      </g>
     </g>
     <g id="text_8">
      <text style="font: 15px 'Arial', sans-serif; text-anchor: end" x="46.126562" y="266.712818" transform="rotate(-0 46.126562 266.712818)">0.0</text>
     </g>
    </g>
    <g id="ytick_2">
     <g id="line2d_8">
      <g>
       <use xlink:href="#m5a8edd9328" x="53.126562" y="226.137665" style="stroke: #000000; stroke-width: 0.8"/>
      </g>
     </g>
     <g id="text_9">
      <text style="font: 15px 'Arial', sans-serif; text-anchor: end" x="46.126562" y="231.506024" transform="rotate(-0 46.126562 231.506024)">0.2</text>
     </g>
    </g>
    <g id="ytick_3">
     <g id="line2d_9">
      <g>
       <use xlink:href="#m5a8edd9328" x="53.126562" y="190.930871" style="stroke: #000000; stroke-width: 0.8"/>
      </g>
     </g>
     <g id="text_10">
      <text style="font: 15px 'Arial', sans-serif; text-anchor: end" x="46.126562" y="196.299231" transform="rotate(-0 46.126562 196.299231)">0.4</text>
     </g>
    </g>
    <g id="ytick_4">
     <g id="line2d_10">
      <g>
       <use xlink:href="#m5a8edd9328" x="53.126562" y="155.724078" style="stroke: #000000; stroke-width: 0.8"/>
      </g>
     </g>
     <g id="text_11">
      <text style="font: 15px 'Arial', sans-serif; text-anchor: end" x="46.126562" y="161.092437" transform="rotate(-0 46.126562 161.092437)">0.6</text>
     </g>
    </g>
    <g id="ytick_5">
     <g id="line2d_11">
      <g>
       <use xlink:href="#m5a8edd9328" x="53.126562" y="120.517284" style="stroke: #000000; stroke-width: 0.8"/>
      </g>
     </g>
     <g id="text_12">
      <text style="font: 15px 'Arial', sans-serif; text-anchor: end" x="46.126562" y="125.885643" transform="rotate(-0 46.126562 125.885643)">0.8</text>
     </g>
    </g>
    <g id="ytick_6">
     <g id="line2d_12">
      <g>
       <use xlink:href="#m5a8edd9328" x="53.126562" y="85.31049" style="stroke: #000000; stroke-width: 0.8"/>
      </g>
     </g>
     <g id="text_13">
      <text style="font: 15px 'Arial', sans-serif; text-anchor: end" x="46.126562" y="90.678849" transform="rotate(-0 46.126562 90.678849)">1.0</text>
     </g>
    </g>
    <g id="ytick_7">
     <g id="line2d_13">
      <g>
       <use xlink:href="#m5a8edd9328" x="53.126562" y="50.103696" style="stroke: #000000; stroke-width: 0.8"/>
      </g>
     </g>
     <g id="text_14">
      <text style="font: 15px 'Arial', sans-serif; text-anchor: end" x="46.126562" y="55.472056" transform="rotate(-0 46.126562 55.472056)">1.2</text>
     </g>
    </g>
    <g id="ytick_8">
     <g id="line2d_14">
      <g>
       <use xlink:href="#m5a8edd9328" x="53.126562" y="14.896903" style="stroke: #000000; stroke-width: 0.8"/>
      </g>
     </g>
     <g id="text_15">
      <text style="font: 15px 'Arial', sans-serif; text-anchor: end" x="46.126562" y="20.265262" transform="rotate(-0 46.126562 20.265262)">1.4</text>
     </g>
    </g>
    <g id="text_16">
     <text style="font: 15px 'Arial', sans-serif; text-anchor: middle" x="18.119531" y="146.335977" transform="rotate(-90 18.119531 146.335977)">Arcsine(Size Difference Index)</text>
    </g>
   </g>
   <g id="line2d_15">
    <path d="M 481.406067 280.103594 
L 481.406067 12.568359 
" clip-path="url(#p5e6813a30b)" style="fill: none; stroke-dasharray: 5.55,2.4; stroke-dashoffset: 0; stroke: #808080; stroke-width: 1.5"/>
   </g>
   <g id="patch_3">
    <path d="M 53.126562 280.103594 
L 53.126562 12.568359 
" style="fill: none; stroke: #000000; stroke-width: 0.8; stroke-linejoin: miter; stroke-linecap: square"/>
   </g>
   <g id="patch_4">
    <path d="M 681.665312 280.103594 
L 681.665312 12.568359 
" style="fill: none; stroke: #000000; stroke-width: 0.8; stroke-linejoin: miter; stroke-linecap: square"/>
   </g>
   <g id="patch_5">
    <path d="M 53.126562 280.103594 
L 681.665313 280.103594 
" style="fill: none; stroke: #000000; stroke-width: 0.8; stroke-linejoin: miter; stroke-linecap: square"/>
   </g>
   <g id="patch_6">
    <path d="M 53.126562 12.568359 
L 681.665313 12.568359 
" style="fill: none; stroke: #000000; stroke-width: 0.8; stroke-linejoin: miter; stroke-linecap: square"/>
   </g>
   <g id="line2d_16">
    <path d="M 74.01419 222.876062 
L 481.971067 215.554433 
L 481.971067 215.554433 
L 675.803678 174.009314 
L 675.803678 174.009314 
" clip-path="url(#p5e6813a30b)" style="fill: none; stroke: #c1121f; stroke-opacity: 0.7; stroke-width: 1.5; stroke-linecap: square"/>
   </g>
   <g id="text_17">
    <text style="font: 15px 'Arial', sans-serif" transform="translate(456.926819 192.841069) rotate(-90)">x = 1.88</text>
    <text style="font: 15px 'Arial', sans-serif" transform="translate(472.845569 189.091069) rotate(-90)">p = 0.0</text>
   </g>
   <g id="text_18">
    <text style="font: 15px 'Arial', sans-serif" transform="translate(273.348348 192.841069) rotate(-90)">x = 0.02</text>
    <text style="font: 15px 'Arial', sans-serif" transform="translate(289.267098 189.091069) rotate(-90)">p = 0.0</text>
   </g>
   <g id="text_19">
    <text style="font: 15px 'Arial', sans-serif" transform="translate(681.300506 170.006606) rotate(-90)">x = 0.26</text>
    <text style="font: 15px 'Arial', sans-serif" transform="translate(697.219256 166.256606) rotate(-90)">p = 0.0</text>
   </g>
   <g id="legend_1">
    <g id="patch_7">
     <path d="M 498.95125 45.786328 
L 671.165312 45.786328 
Q 674.165312 45.786328 674.165312 42.786328 
L 674.165312 23.068359 
Q 674.165312 20.068359 671.165312 20.068359 
L 498.95125 20.068359 
Q 495.95125 20.068359 495.95125 23.068359 
L 495.95125 42.786328 
Q 495.95125 45.786328 498.95125 45.786328 
z
" style="fill: #ffffff; opacity: 0.8; stroke: #cccccc; stroke-linejoin: miter"/>
    </g>
    <g id="line2d_17">
     <path d="M 501.95125 31.555078 
L 516.95125 31.555078 
L 531.95125 31.555078 
" style="fill: none; stroke: #c1121f; stroke-opacity: 0.7; stroke-width: 1.5; stroke-linecap: square"/>
    </g>
    <g id="text_20">
     <text style="font: 15px 'Arial', sans-serif; text-anchor: start" x="543.95125" y="36.805078" transform="rotate(-0 543.95125 36.805078)">Piecewise linear fit</text>
    </g>
   </g>
  </g>
  <g id="axes_2">
   <g id="patch_8">
    <path d="M 720.948984 280.103594 
L 734.325746 280.103594 
L 734.325746 12.568359 
L 720.948984 12.568359 
z
" style="fill: #ffffff"/>
   </g>
   <g id="QuadMesh_1">
    <path d="M 720.948984 280.103594 
L 734.325746 280.103594 
L 734.325746 241.884275 
L 720.948984 241.884275 
L 720.948984 280.103594 
" clip-path="url(#p0f344d1813)" style="fill: #ededed"/>
    <path d="M 720.948984 241.884275 
L 734.325746 241.884275 
L 734.325746 203.664955 
L 720.948984 203.664955 
L 720.948984 241.884275 
" clip-path="url(#p0f344d1813)" style="fill: #c9c9c9"/>
    <path d="M 720.948984 203.664955 
L 734.325746 203.664955 
L 734.325746 165.445636 
L 720.948984 165.445636 
L 720.948984 203.664955 
" clip-path="url(#p0f344d1813)" style="fill: #a4a4a4"/>
    <path d="M 720.948984 165.445636 
L 734.325746 165.445636 
L 734.325746 127.226317 
L 720.948984 127.226317 
L 720.948984 165.445636 
" clip-path="url(#p0f344d1813)" style="fill: #7f7f7f"/>
    <path d="M 720.948984 127.226317 
L 734.325746 127.226317 
L 734.325746 89.006998 
L 720.948984 89.006998 
L 720.948984 127.226317 
" clip-path="url(#p0f344d1813)" style="fill: #5b5b5b"/>
    <path d="M 720.948984 89.006998 
L 734.325746 89.006998 
L 734.325746 50.787679 
L 720.948984 50.787679 
L 720.948984 89.006998 
" clip-path="url(#p0f344d1813)" style="fill: #363636"/>
    <path d="M 720.948984 50.787679 
L 734.325746 50.787679 
L 734.325746 12.568359 
L 720.948984 12.568359 
L 720.948984 50.787679 
" clip-path="url(#p0f344d1813)" style="fill: #121212"/>
   </g>
   <g id="matplotlib.axis_3"/>
   <g id="matplotlib.axis_4">
    <g id="ytick_9">
     <g id="line2d_18">
      <defs>
       <path id="mf24659552a" d="M 0 0 
L 3.5 0 
" style="stroke: #000000; stroke-width: 0.8"/>
      </defs>
      <g>
       <use xlink:href="#mf24659552a" x="734.325746" y="280.103594" style="stroke: #000000; stroke-width: 0.8"/>
      </g>
     </g>
     <g id="text_21">
      <text style="font: 15px 'Arial', sans-serif; text-anchor: start" x="741.325746" y="285.471953" transform="rotate(-0 741.325746 285.471953)">0.2</text>
     </g>
    </g>
    <g id="ytick_10">
     <g id="line2d_19">
      <g>
       <use xlink:href="#mf24659552a" x="734.325746" y="241.884275" style="stroke: #000000; stroke-width: 0.8"/>
      </g>
     </g>
     <g id="text_22">
      <text style="font: 15px 'Arial', sans-serif; text-anchor: start" x="741.325746" y="247.252634" transform="rotate(-0 741.325746 247.252634)">33.4</text>
     </g>
    </g>
    <g id="ytick_11">
     <g id="line2d_20">
      <g>
       <use xlink:href="#mf24659552a" x="734.325746" y="203.664955" style="stroke: #000000; stroke-width: 0.8"/>
      </g>
     </g>
     <g id="text_23">
      <text style="font: 15px 'Arial', sans-serif; text-anchor: start" x="741.325746" y="209.033315" transform="rotate(-0 741.325746 209.033315)">66.7</text>
     </g>
    </g>
    <g id="ytick_12">
     <g id="line2d_21">
      <g>
       <use xlink:href="#mf24659552a" x="734.325746" y="165.445636" style="stroke: #000000; stroke-width: 0.8"/>
      </g>
     </g>
     <g id="text_24">
      <text style="font: 15px 'Arial', sans-serif; text-anchor: start" x="741.325746" y="170.813996" transform="rotate(-0 741.325746 170.813996)">99.9</text>
     </g>
    </g>
    <g id="ytick_13">
     <g id="line2d_22">
      <g>
       <use xlink:href="#mf24659552a" x="734.325746" y="127.226317" style="stroke: #000000; stroke-width: 0.8"/>
      </g>
     </g>
     <g id="text_25">
      <text style="font: 15px 'Arial', sans-serif; text-anchor: start" x="741.325746" y="132.594676" transform="rotate(-0 741.325746 132.594676)">133.1</text>
     </g>
    </g>
    <g id="ytick_14">
     <g id="line2d_23">
      <g>
       <use xlink:href="#mf24659552a" x="734.325746" y="89.006998" style="stroke: #000000; stroke-width: 0.8"/>
      </g>
     </g>
     <g id="text_26">
      <text style="font: 15px 'Arial', sans-serif; text-anchor: start" x="741.325746" y="94.375357" transform="rotate(-0 741.325746 94.375357)">166.4</text>
     </g>
    </g>
    <g id="ytick_15">
     <g id="line2d_24">
      <g>
       <use xlink:href="#mf24659552a" x="734.325746" y="50.787679" style="stroke: #000000; stroke-width: 0.8"/>
      </g>
     </g>
     <g id="text_27">
      <text style="font: 15px 'Arial', sans-serif; text-anchor: start" x="741.325746" y="56.156038" transform="rotate(-0 741.325746 56.156038)">199.6</text>
     </g>
    </g>
    <g id="ytick_16">
     <g id="line2d_25">
      <g>
       <use xlink:href="#mf24659552a" x="734.325746" y="12.568359" style="stroke: #000000; stroke-width: 0.8"/>
      </g>
     </g>
     <g id="text_28">
      <text style="font: 15px 'Arial', sans-serif; text-anchor: start" x="741.325746" y="17.936719" transform="rotate(-0 741.325746 17.936719)">232.9</text>
     </g>
    </g>
    <g id="text_29">
     <text style="font: 15px 'Arial', sans-serif; text-anchor: middle" x="793.77809" y="146.335977" transform="rotate(-90 793.77809 146.335977)">Pairs of species density</text>
    </g>
   </g>
   <g id="LineCollection_1"/>
   <g id="patch_9">
    <path d="M 720.948984 280.103594 
L 727.637365 280.103594 
L 734.325746 280.103594 
L 734.325746 12.568359 
L 727.637365 12.568359 
L 720.948984 12.568359 
L 720.948984 280.103594 
z
" style="fill: none; stroke: #000000; stroke-width: 0.8; stroke-linejoin: miter; stroke-linecap: square"/>
   </g>
  </g>
 </g>
 <defs>
  <clipPath id="p5e6813a30b">
   <rect x="53.126562" y="12.568359" width="628.53875" height="267.535234"/>
  </clipPath>
  <clipPath id="p0f344d1813">
   <rect x="720.948984" y="12.568359" width="13.376762" height="267.535234"/>
  </clipPath>
 </defs>
</svg>
