<?xml version="1.0" encoding="utf-8" standalone="no"?>
<!DOCTYPE svg PUBLIC "-//W3C//DTD SVG 1.1//EN"
  "http://www.w3.org/Graphics/SVG/1.1/DTD/svg11.dtd">
<svg height="350.64pt" version="1.1" viewBox="0 0 854.64 350.64" width="854.64pt" xmlns="http://www.w3.org/2000/svg" xmlns:xlink="http://www.w3.org/1999/xlink">
 <metadata>
  <rdf:RDF xmlns:cc="http://creativecommons.org/ns#" xmlns:dc="http://purl.org/dc/elements/1.1/" xmlns:rdf="http://www.w3.org/1999/02/22-rdf-syntax-ns#">
   <cc:Work>
    <dc:type rdf:resource="http://purl.org/dc/dcmitype/StillImage"/>
    <dc:date>2023-12-08T15:01:35.452884</dc:date>
    <dc:format>image/svg+xml</dc:format>
    <dc:creator>
     <cc:Agent>
      <dc:title>Matplotlib v3.4.3, https://matplotlib.org/</dc:title>
     </cc:Agent>
    </dc:creator>
   </cc:Work>
  </rdf:RDF>
 </metadata>
 <defs>
  <style type="text/css">*{stroke-linecap:butt;stroke-linejoin:round;}</style>
 </defs>
 <g id="figure_1">
  <g id="patch_1">
   <path d="M 0 350.64 
L 854.64 350.64 
L 854.64 0 
L 0 0 
z
" style="fill:none;"/>
  </g>
  <g id="axes_1">
   <g id="patch_2">
    <path d="M 93.447531 313.530156 
L 847.44 313.530156 
L 847.44 7.2 
L 93.447531 7.2 
z
" style="fill:#ffffff;"/>
   </g>
   <g id="patch_3">
    <path clip-path="url(#p9023a90b03)" d="M 284.46639 313.530156 
L 284.46639 7.2 
L 333.528173 7.2 
L 333.528173 313.530156 
z
" style="fill:#457b9d;opacity:0.35;"/>
   </g>
   <g id="patch_4">
    <path clip-path="url(#p9023a90b03)" d="M 284.46639 313.530156 
L 284.46639 7.2 
L 235.404607 7.2 
L 235.404607 313.530156 
z
" style="fill:#457b9d;opacity:0.35;"/>
   </g>
   <g id="patch_5">
    <path clip-path="url(#p9023a90b03)" d="M 333.528173 313.530156 
L 333.528173 7.2 
L 382.589956 7.2 
L 382.589956 313.530156 
z
" style="fill:#457b9d;opacity:0.25;"/>
   </g>
   <g id="patch_6">
    <path clip-path="url(#p9023a90b03)" d="M 235.404607 313.530156 
L 235.404607 7.2 
L 186.342824 7.2 
L 186.342824 313.530156 
z
" style="fill:#457b9d;opacity:0.25;"/>
   </g>
   <g id="patch_7">
    <path clip-path="url(#p9023a90b03)" d="M 382.589956 313.530156 
L 382.589956 7.2 
L 431.651739 7.2 
L 431.651739 313.530156 
z
" style="fill:#457b9d;opacity:0.15;"/>
   </g>
   <g id="patch_8">
    <path clip-path="url(#p9023a90b03)" d="M 186.342824 313.530156 
L 186.342824 7.2 
L 137.281041 7.2 
L 137.281041 313.530156 
z
" style="fill:#457b9d;opacity:0.15;"/>
   </g>
   <g id="patch_9">
    <path clip-path="url(#p9023a90b03)" d="M 431.651739 313.530156 
L 431.651739 7.2 
L 847.44 7.2 
L 847.44 313.530156 
z
" style="fill:#457b9d;opacity:0.05;"/>
   </g>
   <g id="patch_10">
    <path clip-path="url(#p9023a90b03)" d="M 137.281041 313.530156 
L 137.281041 7.2 
L 93.447531 7.2 
L 93.447531 313.530156 
z
" style="fill:#457b9d;opacity:0.05;"/>
   </g>
   <g id="matplotlib.axis_1">
    <g id="xtick_1">
     <g id="line2d_1">
      <defs>
       <path d="M 0 0 
L 0 -3.5 
" id="m0fa019817e" style="stroke:#000000;stroke-width:0.8;"/>
      </defs>
      <g>
       <use style="stroke:#000000;stroke-width:0.8;" x="156.280237" xlink:href="#m0fa019817e" y="313.530156"/>
      </g>
     </g>
     <g id="line2d_2">
      <defs>
       <path d="M 0 0 
L 0 3.5 
" id="m409545b256" style="stroke:#000000;stroke-width:0.8;"/>
      </defs>
      <g>
       <use style="stroke:#000000;stroke-width:0.8;" x="156.280237" xlink:href="#m409545b256" y="7.2"/>
      </g>
     </g>
     <g id="text_1">
      <text style="font-family:Arial;font-size:11px;font-stretch:normal;font-style:normal;font-weight:normal;text-anchor:middle;" transform="rotate(-0, 156.280237, 324.90375)" x="156.280237" y="324.90375">−1.5</text>
     </g>
    </g>
    <g id="xtick_2">
     <g id="line2d_3">
      <g>
       <use style="stroke:#000000;stroke-width:0.8;" x="261.001413" xlink:href="#m0fa019817e" y="313.530156"/>
      </g>
     </g>
     <g id="line2d_4">
      <g>
       <use style="stroke:#000000;stroke-width:0.8;" x="261.001413" xlink:href="#m409545b256" y="7.2"/>
      </g>
     </g>
     <g id="text_2">
      <text style="font-family:Arial;font-size:11px;font-stretch:normal;font-style:normal;font-weight:normal;text-anchor:middle;" transform="rotate(-0, 261.001413, 324.90375)" x="261.001413" y="324.90375">−1.0</text>
     </g>
    </g>
    <g id="xtick_3">
     <g id="line2d_5">
      <g>
       <use style="stroke:#000000;stroke-width:0.8;" x="365.722589" xlink:href="#m0fa019817e" y="313.530156"/>
      </g>
     </g>
     <g id="line2d_6">
      <g>
       <use style="stroke:#000000;stroke-width:0.8;" x="365.722589" xlink:href="#m409545b256" y="7.2"/>
      </g>
     </g>
     <g id="text_3">
      <text style="font-family:Arial;font-size:11px;font-stretch:normal;font-style:normal;font-weight:normal;text-anchor:middle;" transform="rotate(-0, 365.722589, 324.90375)" x="365.722589" y="324.90375">−0.5</text>
     </g>
    </g>
    <g id="xtick_4">
     <g id="line2d_7">
      <g>
       <use style="stroke:#000000;stroke-width:0.8;" x="470.443766" xlink:href="#m0fa019817e" y="313.530156"/>
      </g>
     </g>
     <g id="line2d_8">
      <g>
       <use style="stroke:#000000;stroke-width:0.8;" x="470.443766" xlink:href="#m409545b256" y="7.2"/>
      </g>
     </g>
     <g id="text_4">
      <text style="font-family:Arial;font-size:11px;font-stretch:normal;font-style:normal;font-weight:normal;text-anchor:middle;" transform="rotate(-0, 470.443766, 324.90375)" x="470.443766" y="324.90375">0.0</text>
     </g>
    </g>
    <g id="xtick_5">
     <g id="line2d_9">
      <g>
       <use style="stroke:#000000;stroke-width:0.8;" x="575.164942" xlink:href="#m0fa019817e" y="313.530156"/>
      </g>
     </g>
     <g id="line2d_10">
      <g>
       <use style="stroke:#000000;stroke-width:0.8;" x="575.164942" xlink:href="#m409545b256" y="7.2"/>
      </g>
     </g>
     <g id="text_5">
      <text style="font-family:Arial;font-size:11px;font-stretch:normal;font-style:normal;font-weight:normal;text-anchor:middle;" transform="rotate(-0, 575.164942, 324.90375)" x="575.164942" y="324.90375">0.5</text>
     </g>
    </g>
    <g id="xtick_6">
     <g id="line2d_11">
      <g>
       <use style="stroke:#000000;stroke-width:0.8;" x="679.886118" xlink:href="#m0fa019817e" y="313.530156"/>
      </g>
     </g>
     <g id="line2d_12">
      <g>
       <use style="stroke:#000000;stroke-width:0.8;" x="679.886118" xlink:href="#m409545b256" y="7.2"/>
      </g>
     </g>
     <g id="text_6">
      <text style="font-family:Arial;font-size:11px;font-stretch:normal;font-style:normal;font-weight:normal;text-anchor:middle;" transform="rotate(-0, 679.886118, 324.90375)" x="679.886118" y="324.90375">1.0</text>
     </g>
    </g>
    <g id="xtick_7">
     <g id="line2d_13">
      <g>
       <use style="stroke:#000000;stroke-width:0.8;" x="784.607294" xlink:href="#m0fa019817e" y="313.530156"/>
      </g>
     </g>
     <g id="line2d_14">
      <g>
       <use style="stroke:#000000;stroke-width:0.8;" x="784.607294" xlink:href="#m409545b256" y="7.2"/>
      </g>
     </g>
     <g id="text_7">
      <text style="font-family:Arial;font-size:11px;font-stretch:normal;font-style:normal;font-weight:normal;text-anchor:middle;" transform="rotate(-0, 784.607294, 324.90375)" x="784.607294" y="324.90375">1.5</text>
     </g>
    </g>
    <g id="text_8">
     <!-- Log (Volume-to-surface ratio, $\mu m$) -->
     <g transform="translate(371.773766 340.58)">
      <text>
       <tspan style="font-family:Arial;font-size:13px;font-style:regular;font-weight:regular;" x="0 7.22998 14.459961 21.689941 25.301758 29.630859 38.301758 45.531738 48.419922 55.649902 66.479004 73.708984 78.038086 81.649902 88.879883 93.208984 99.708984 106.938965 111.268066 114.879883 122.109863 128.609863 135.839844 139.45166 143.780762 151.010742 154.622559 157.510742 164.740723 168.352539 192.898926" y="-0.53125">Log (Volume-to-surface ratio, )</tspan>
       <tspan style="font-family:DejaVu Sans;font-size:13px;font-style:oblique;font-weight:oblique;" x="171.964355 180.235352" y="-0.53125">μm</tspan>
      </text>
     </g>
    </g>
   </g>
   <g id="matplotlib.axis_2">
    <g id="ytick_1">
     <g id="line2d_15">
      <defs>
       <path d="M 0 0 
L 3.5 0 
" id="md63f7e02f9" style="stroke:#000000;stroke-width:0.8;"/>
      </defs>
      <g>
       <use style="stroke:#000000;stroke-width:0.8;" x="93.447531" xlink:href="#md63f7e02f9" y="284.496054"/>
      </g>
     </g>
     <g id="line2d_16">
      <defs>
       <path d="M 0 0 
L -3.5 0 
" id="mf2304033c4" style="stroke:#000000;stroke-width:0.8;"/>
      </defs>
      <g>
       <use style="stroke:#000000;stroke-width:0.8;" x="847.44" xlink:href="#mf2304033c4" y="284.496054"/>
      </g>
     </g>
     <g id="text_9">
      <text style="font-family:Arial;font-size:11px;font-stretch:normal;font-style:normal;font-weight:normal;text-anchor:end;" transform="rotate(-0, 89.947531, 288.432851)" x="89.947531" y="288.432851">−0.000100</text>
     </g>
    </g>
    <g id="ytick_2">
     <g id="line2d_17">
      <g>
       <use style="stroke:#000000;stroke-width:0.8;" x="93.447531" xlink:href="#md63f7e02f9" y="249.792199"/>
      </g>
     </g>
     <g id="line2d_18">
      <g>
       <use style="stroke:#000000;stroke-width:0.8;" x="847.44" xlink:href="#mf2304033c4" y="249.792199"/>
      </g>
     </g>
     <g id="text_10">
      <text style="font-family:Arial;font-size:11px;font-stretch:normal;font-style:normal;font-weight:normal;text-anchor:end;" transform="rotate(-0, 89.947531, 253.728996)" x="89.947531" y="253.728996">−0.000075</text>
     </g>
    </g>
    <g id="ytick_3">
     <g id="line2d_19">
      <g>
       <use style="stroke:#000000;stroke-width:0.8;" x="93.447531" xlink:href="#md63f7e02f9" y="215.088344"/>
      </g>
     </g>
     <g id="line2d_20">
      <g>
       <use style="stroke:#000000;stroke-width:0.8;" x="847.44" xlink:href="#mf2304033c4" y="215.088344"/>
      </g>
     </g>
     <g id="text_11">
      <text style="font-family:Arial;font-size:11px;font-stretch:normal;font-style:normal;font-weight:normal;text-anchor:end;" transform="rotate(-0, 89.947531, 219.025141)" x="89.947531" y="219.025141">−0.000050</text>
     </g>
    </g>
    <g id="ytick_4">
     <g id="line2d_21">
      <g>
       <use style="stroke:#000000;stroke-width:0.8;" x="93.447531" xlink:href="#md63f7e02f9" y="180.384489"/>
      </g>
     </g>
     <g id="line2d_22">
      <g>
       <use style="stroke:#000000;stroke-width:0.8;" x="847.44" xlink:href="#mf2304033c4" y="180.384489"/>
      </g>
     </g>
     <g id="text_12">
      <text style="font-family:Arial;font-size:11px;font-stretch:normal;font-style:normal;font-weight:normal;text-anchor:end;" transform="rotate(-0, 89.947531, 184.321286)" x="89.947531" y="184.321286">−0.000025</text>
     </g>
    </g>
    <g id="ytick_5">
     <g id="line2d_23">
      <g>
       <use style="stroke:#000000;stroke-width:0.8;" x="93.447531" xlink:href="#md63f7e02f9" y="145.680634"/>
      </g>
     </g>
     <g id="line2d_24">
      <g>
       <use style="stroke:#000000;stroke-width:0.8;" x="847.44" xlink:href="#mf2304033c4" y="145.680634"/>
      </g>
     </g>
     <g id="text_13">
      <text style="font-family:Arial;font-size:11px;font-stretch:normal;font-style:normal;font-weight:normal;text-anchor:end;" transform="rotate(-0, 89.947531, 149.617431)" x="89.947531" y="149.617431">0.000000</text>
     </g>
    </g>
    <g id="ytick_6">
     <g id="line2d_25">
      <g>
       <use style="stroke:#000000;stroke-width:0.8;" x="93.447531" xlink:href="#md63f7e02f9" y="110.976779"/>
      </g>
     </g>
     <g id="line2d_26">
      <g>
       <use style="stroke:#000000;stroke-width:0.8;" x="847.44" xlink:href="#mf2304033c4" y="110.976779"/>
      </g>
     </g>
     <g id="text_14">
      <text style="font-family:Arial;font-size:11px;font-stretch:normal;font-style:normal;font-weight:normal;text-anchor:end;" transform="rotate(-0, 89.947531, 114.913576)" x="89.947531" y="114.913576">0.000025</text>
     </g>
    </g>
    <g id="ytick_7">
     <g id="line2d_27">
      <g>
       <use style="stroke:#000000;stroke-width:0.8;" x="93.447531" xlink:href="#md63f7e02f9" y="76.272924"/>
      </g>
     </g>
     <g id="line2d_28">
      <g>
       <use style="stroke:#000000;stroke-width:0.8;" x="847.44" xlink:href="#mf2304033c4" y="76.272924"/>
      </g>
     </g>
     <g id="text_15">
      <text style="font-family:Arial;font-size:11px;font-stretch:normal;font-style:normal;font-weight:normal;text-anchor:end;" transform="rotate(-0, 89.947531, 80.20972)" x="89.947531" y="80.20972">0.000050</text>
     </g>
    </g>
    <g id="ytick_8">
     <g id="line2d_29">
      <g>
       <use style="stroke:#000000;stroke-width:0.8;" x="93.447531" xlink:href="#md63f7e02f9" y="41.569069"/>
      </g>
     </g>
     <g id="line2d_30">
      <g>
       <use style="stroke:#000000;stroke-width:0.8;" x="847.44" xlink:href="#mf2304033c4" y="41.569069"/>
      </g>
     </g>
     <g id="text_16">
      <text style="font-family:Arial;font-size:11px;font-stretch:normal;font-style:normal;font-weight:normal;text-anchor:end;" transform="rotate(-0, 89.947531, 45.505865)" x="89.947531" y="45.505865">0.000075</text>
     </g>
    </g>
    <g id="text_17">
     <text style="font-family:Arial;font-size:13px;font-stretch:normal;font-style:normal;font-weight:normal;" transform="translate(16.663594 183.124219)rotate(-90)">Stability</text>
     <!-- ($\Delta$ density) -->
     <g transform="translate(30.787687 191.565078)rotate(-90)">
      <text>
       <tspan style="font-family:Arial;font-size:13px;font-style:regular;font-weight:regular;" x="0 13.222168 16.833984 24.063965 31.293945 38.523926 45.023926 47.912109 51.523926 58.023926" y="-0.515625">( density)</tspan>
       <tspan style="font-family:DejaVu Sans;font-size:13px;font-style:book;font-weight:book;" x="4.329102" y="-0.515625">Δ</tspan>
      </text>
     </g>
    </g>
   </g>
   <g id="line2d_31">
    <path clip-path="url(#p9023a90b03)" d="M 121.599128 161.257154 
L 124.155186 163.918299 
L 126.832962 167.034209 
L 129.632455 170.644629 
L 132.675383 174.943648 
L 136.326895 180.505528 
L 145.090526 194.037843 
L 147.40315 197.109023 
L 149.350624 199.335907 
L 150.932946 200.836694 
L 152.393551 201.930719 
L 153.732439 202.654483 
L 154.94961 203.056202 
L 156.045063 203.191762 
L 157.140517 203.098867 
L 158.235971 202.764746 
L 159.331425 202.17786 
L 160.426879 201.328069 
L 161.522332 200.206789 
L 162.739503 198.634189 
L 164.078391 196.499384 
L 165.417279 193.935642 
L 166.877884 190.649221 
L 168.460206 186.519121 
L 170.164246 181.426827 
L 171.990002 175.26455 
L 174.059192 167.4642 
L 176.371817 157.838183 
L 179.049593 145.709136 
L 182.579388 128.596612 
L 192.681907 78.910505 
L 195.603117 66.030114 
L 198.037459 56.254283 
L 200.228366 48.32746 
L 202.297557 41.677876 
L 204.123313 36.531804 
L 205.827352 32.367119 
L 207.409674 29.069201 
L 208.870279 26.522306 
L 210.209167 24.613548 
L 211.426338 23.235612 
L 212.643509 22.200552 
L 213.738963 21.563723 
L 214.7127 21.232922 
L 215.686436 21.124098 
L 216.660173 21.237616 
L 217.63391 21.573698 
L 218.607646 22.132442 
L 219.7031 23.027142 
L 220.798554 24.2034 
L 222.015725 25.840075 
L 223.354613 28.04027 
L 224.815218 30.91631 
L 226.275823 34.285916 
L 227.858145 38.488514 
L 229.562184 43.648758 
L 231.387941 49.894662 
L 233.335414 57.353714 
L 235.404604 66.147278 
L 237.717229 76.978082 
L 240.273288 90.084251 
L 243.072781 105.645799 
L 246.359142 125.226392 
L 250.740957 152.806643 
L 259.748022 209.843588 
L 263.034383 229.032488 
L 265.833876 244.076569 
L 268.268218 255.966239 
L 270.459126 265.592356 
L 272.406599 273.222056 
L 274.232355 279.538562 
L 275.936395 284.676946 
L 277.518717 288.778256 
L 278.979322 291.983198 
L 280.31821 294.427573 
L 281.535381 296.239126 
L 282.752551 297.660074 
L 283.848005 298.606204 
L 284.821742 299.184059 
L 285.795479 299.51593 
L 286.769215 299.603766 
L 287.742952 299.449804 
L 288.716689 299.056538 
L 289.690425 298.426695 
L 290.785879 297.439001 
L 292.00305 296.000198 
L 293.220221 294.20838 
L 294.559109 291.837896 
L 296.019714 288.785687 
L 297.602036 284.945131 
L 299.306075 280.208033 
L 301.131832 274.467056 
L 303.079305 267.618706 
L 305.270213 259.069659 
L 307.582837 249.142239 
L 310.138896 237.18643 
L 313.060106 222.410084 
L 316.468185 203.934058 
L 320.728283 179.506597 
L 332.778274 109.614618 
L 335.942919 92.989133 
L 338.620695 80.057391 
L 341.055036 69.393039 
L 343.245944 60.80233 
L 345.193417 54.038282 
L 347.019174 48.486601 
L 348.723213 44.020993 
L 350.305535 40.507781 
L 351.76614 37.812378 
L 353.105028 35.804322 
L 354.322199 34.360948 
L 355.417653 33.369857 
L 356.513106 32.666245 
L 357.486843 32.277855 
L 358.46058 32.107875 
L 359.434317 32.151099 
L 360.408053 32.401676 
L 361.503507 32.92337 
L 362.598961 33.68929 
L 363.816132 34.813558 
L 365.15502 36.364076 
L 366.615625 38.404896 
L 368.197947 40.992625 
L 370.023703 44.414006 
L 372.092894 48.778944 
L 374.527235 54.455769 
L 377.570163 62.159333 
L 382.073695 74.253052 
L 389.498437 94.184128 
L 393.14995 103.325585 
L 396.314594 110.681161 
L 399.235804 116.934521 
L 402.035297 122.414707 
L 404.713073 127.180485 
L 407.390849 131.488581 
L 409.946908 135.190999 
L 412.502967 138.516669 
L 415.059025 141.493708 
L 417.736801 144.272479 
L 420.414577 146.739982 
L 423.21407 149.026831 
L 426.256998 151.218697 
L 429.421642 153.221115 
L 432.82972 155.109714 
L 436.359516 156.814616 
L 440.132746 158.38655 
L 443.905975 159.715591 
L 447.557488 160.771499 
L 451.087283 161.569222 
L 454.617079 162.13726 
L 458.025157 162.4598 
L 461.433236 162.558031 
L 464.841314 162.437471 
L 468.492827 162.082262 
L 472.387774 161.4783 
L 477.013023 160.524474 
L 483.220594 158.996279 
L 496.852908 155.58692 
L 503.182197 154.275617 
L 509.511485 153.192241 
L 516.449359 152.237242 
L 524.482687 151.364469 
L 534.950357 150.466132 
L 553.573071 149.131871 
L 565.74478 148.430812 
L 573.778108 148.188938 
L 581.324567 148.187467 
L 591.061934 148.431284 
L 602.990209 148.692656 
L 610.293234 148.61671 
L 618.083127 148.303451 
L 646.80836 146.907635 
L 657.397747 146.79313 
L 674.194705 146.869747 
L 692.208834 146.889861 
L 704.989128 146.663947 
L 737.48759 145.947174 
L 750.267884 146.000666 
L 776.315341 146.280916 
L 776.315341 146.280916 
" style="fill:none;stroke:#000000;stroke-linecap:square;stroke-width:2;"/>
   </g>
   <g id="line2d_32">
    <path clip-path="url(#p9023a90b03)" d="M 93.447531 145.680634 
L 847.44 145.680634 
" style="fill:none;stroke:#000000;stroke-dasharray:5,5;stroke-dashoffset:0;"/>
   </g>
   <g id="line2d_33">
    <path clip-path="url(#p9023a90b03)" d="M 275.662378 313.530156 
L 275.662378 7.2 
" style="fill:none;stroke:#bf0603;stroke-linecap:square;stroke-width:2;"/>
   </g>
   <g id="patch_11">
    <path d="M 93.447531 313.530156 
L 93.447531 7.2 
" style="fill:none;stroke:#000000;stroke-linecap:square;stroke-linejoin:miter;stroke-width:0.8;"/>
   </g>
   <g id="patch_12">
    <path d="M 847.44 313.530156 
L 847.44 7.2 
" style="fill:none;stroke:#000000;stroke-linecap:square;stroke-linejoin:miter;stroke-width:0.8;"/>
   </g>
   <g id="patch_13">
    <path d="M 93.447531 313.530156 
L 847.44 313.530156 
" style="fill:none;stroke:#000000;stroke-linecap:square;stroke-linejoin:miter;stroke-width:0.8;"/>
   </g>
   <g id="patch_14">
    <path d="M 93.447531 7.2 
L 847.44 7.2 
" style="fill:none;stroke:#000000;stroke-linecap:square;stroke-linejoin:miter;stroke-width:0.8;"/>
   </g>
  </g>
 </g>
 <defs>
  <clipPath id="p9023a90b03">
   <rect height="306.330156" width="753.992469" x="93.447531" y="7.2"/>
  </clipPath>
 </defs>
</svg>
