<?xml version="1.0" encoding="utf-8" standalone="no"?>
<!DOCTYPE svg PUBLIC "-//W3C//DTD SVG 1.1//EN"
  "http://www.w3.org/Graphics/SVG/1.1/DTD/svg11.dtd">
<svg height="278.64pt" version="1.1" viewBox="0 0 421.447236 278.64" width="421.447236pt" xmlns="http://www.w3.org/2000/svg" xmlns:xlink="http://www.w3.org/1999/xlink">
 <metadata>
  <rdf:RDF xmlns:cc="http://creativecommons.org/ns#" xmlns:dc="http://purl.org/dc/elements/1.1/" xmlns:rdf="http://www.w3.org/1999/02/22-rdf-syntax-ns#">
   <cc:Work>
    <dc:type rdf:resource="http://purl.org/dc/dcmitype/StillImage"/>
    <dc:date>2023-12-08T14:57:30.401067</dc:date>
    <dc:format>image/svg+xml</dc:format>
    <dc:creator>
     <cc:Agent>
      <dc:title>Matplotlib v3.4.3, https://matplotlib.org/</dc:title>
     </cc:Agent>
    </dc:creator>
   </cc:Work>
  </rdf:RDF>
 </metadata>
 <defs>
  <style type="text/css">*{stroke-linecap:butt;stroke-linejoin:round;}</style>
 </defs>
 <g id="figure_1">
  <g id="patch_1">
   <path d="M 0 278.64 
L 421.447236 278.64 
L 421.447236 0 
L 0 0 
z
" style="fill:none;"/>
  </g>
  <g id="axes_1">
   <g id="patch_2">
    <path d="M 31.010938 243.430156 
L 413.168817 243.430156 
L 413.168817 11.136797 
L 31.010938 11.136797 
z
" style="fill:#ffffff;"/>
   </g>
   <g id="PolyCollection_1">
    <path clip-path="url(#p35ec553e0b)" d="M -248.542288 243.430156 
L -248.542288 198.570745 
L -243.121022 178.002241 
L -237.699756 149.372204 
L -232.27849 110.154487 
L -226.857224 57.294685 
L -221.435958 -12.800052 
L -216.014692 -104.229609 
L -210.593426 -221.514705 
L -205.17216 -369.444113 
L -199.750895 -552.846972 
L -194.329629 -776.287669 
L -188.908363 -1043.688833 
L -183.487097 -1357.897855 
L -178.065831 -1720.223183 
L -172.644565 -2129.977052 
L -167.223299 -2584.069821 
L -161.802033 -3076.705892 
L -156.380767 -3599.230791 
L -150.959501 -4140.172384 
L -145.538235 -4685.505967 
L -140.116969 -5219.153822 
L -134.695703 -5723.706446 
L -129.274437 -6181.327492 
L -123.853171 -6574.780841 
L -118.431906 -6888.499325 
L -113.01064 -7109.603613 
L -107.589374 -7228.778613 
L -102.168108 -7240.924361 
L -96.746842 -7145.51803 
L -91.325576 -6946.65126 
L -85.90431 -6652.739095 
L -80.483044 -6275.929372 
L -75.061778 -5831.270319 
L -69.640512 -5335.715796 
L -64.219246 -4807.059585 
L -58.79798 -4262.891421 
L -53.376714 -3719.658467 
L -47.955448 -3191.898599 
L -42.534182 -2691.689034 
L -37.112917 -2228.328682 
L -31.691651 -1808.248622 
L -26.270385 -1435.124757 
L -20.849119 -1110.152116 
L -15.427853 -832.432116 
L -10.006587 -599.422414 
L -4.585321 -407.4027 
L 0.835945 -251.917646 
L 6.257211 -128.168323 
L 11.678477 -31.334288 
L 17.099743 43.181296 
L 22.521009 99.582599 
L 27.942275 141.580904 
L 33.363541 172.352006 
L 38.784807 194.538213 
L 44.206072 210.281845 
L 49.627338 221.278386 
L 55.048604 228.839381 
L 60.46987 233.957512 
L 65.891136 237.36856 
L 71.312402 239.606968 
L 76.733668 241.053386 
L 82.154934 241.973786 
L 87.5762 242.550568 
L 92.997466 242.906544 
L 98.418732 243.122927 
L 103.839998 243.252476 
L 109.261264 243.328873 
L 114.68253 243.37325 
L 120.103796 243.398642 
L 125.525061 243.412954 
L 130.946327 243.420902 
L 136.367593 243.425249 
L 141.788859 243.427591 
L 147.210125 243.428835 
L 152.631391 243.429485 
L 158.052657 243.42982 
L 163.473923 243.429991 
L 168.895189 243.430076 
L 174.316455 243.430118 
L 179.737721 243.430138 
L 185.158987 243.430148 
L 190.580253 243.430152 
L 196.001519 243.430154 
L 201.422785 243.430155 
L 206.84405 243.430156 
L 212.265316 243.430156 
L 217.686582 243.430156 
L 223.107848 243.430156 
L 228.529114 243.430156 
L 233.95038 243.430156 
L 239.371646 243.430156 
L 244.792912 243.430156 
L 250.214178 243.430156 
L 255.635444 243.430156 
L 261.05671 243.430156 
L 266.477976 243.430156 
L 271.899242 243.430156 
L 277.320508 243.430156 
L 282.741774 243.430156 
L 288.163039 243.430156 
L 293.584305 243.430156 
L 299.005571 243.430156 
L 304.426837 243.430156 
L 309.848103 243.430156 
L 315.269369 243.430156 
L 320.690635 243.430156 
L 326.111901 243.430156 
L 331.533167 243.430156 
L 336.954433 243.430156 
L 342.375699 243.430156 
L 347.796965 243.430156 
L 347.796965 243.430156 
L 347.796965 243.430156 
L 342.375699 243.430156 
L 336.954433 243.430156 
L 331.533167 243.430156 
L 326.111901 243.430156 
L 320.690635 243.430156 
L 315.269369 243.430156 
L 309.848103 243.430156 
L 304.426837 243.430156 
L 299.005571 243.430156 
L 293.584305 243.430156 
L 288.163039 243.430156 
L 282.741774 243.430156 
L 277.320508 243.430156 
L 271.899242 243.430156 
L 266.477976 243.430156 
L 261.05671 243.430156 
L 255.635444 243.430156 
L 250.214178 243.430156 
L 244.792912 243.430156 
L 239.371646 243.430156 
L 233.95038 243.430156 
L 228.529114 243.430156 
L 223.107848 243.430156 
L 217.686582 243.430156 
L 212.265316 243.430156 
L 206.84405 243.430156 
L 201.422785 243.430156 
L 196.001519 243.430156 
L 190.580253 243.430156 
L 185.158987 243.430156 
L 179.737721 243.430156 
L 174.316455 243.430156 
L 168.895189 243.430156 
L 163.473923 243.430156 
L 158.052657 243.430156 
L 152.631391 243.430156 
L 147.210125 243.430156 
L 141.788859 243.430156 
L 136.367593 243.430156 
L 130.946327 243.430156 
L 125.525061 243.430156 
L 120.103796 243.430156 
L 114.68253 243.430156 
L 109.261264 243.430156 
L 103.839998 243.430156 
L 98.418732 243.430156 
L 92.997466 243.430156 
L 87.5762 243.430156 
L 82.154934 243.430156 
L 76.733668 243.430156 
L 71.312402 243.430156 
L 65.891136 243.430156 
L 60.46987 243.430156 
L 55.048604 243.430156 
L 49.627338 243.430156 
L 44.206072 243.430156 
L 38.784807 243.430156 
L 33.363541 243.430156 
L 27.942275 243.430156 
L 22.521009 243.430156 
L 17.099743 243.430156 
L 11.678477 243.430156 
L 6.257211 243.430156 
L 0.835945 243.430156 
L -4.585321 243.430156 
L -10.006587 243.430156 
L -15.427853 243.430156 
L -20.849119 243.430156 
L -26.270385 243.430156 
L -31.691651 243.430156 
L -37.112917 243.430156 
L -42.534182 243.430156 
L -47.955448 243.430156 
L -53.376714 243.430156 
L -58.79798 243.430156 
L -64.219246 243.430156 
L -69.640512 243.430156 
L -75.061778 243.430156 
L -80.483044 243.430156 
L -85.90431 243.430156 
L -91.325576 243.430156 
L -96.746842 243.430156 
L -102.168108 243.430156 
L -107.589374 243.430156 
L -113.01064 243.430156 
L -118.431906 243.430156 
L -123.853171 243.430156 
L -129.274437 243.430156 
L -134.695703 243.430156 
L -140.116969 243.430156 
L -145.538235 243.430156 
L -150.959501 243.430156 
L -156.380767 243.430156 
L -161.802033 243.430156 
L -167.223299 243.430156 
L -172.644565 243.430156 
L -178.065831 243.430156 
L -183.487097 243.430156 
L -188.908363 243.430156 
L -194.329629 243.430156 
L -199.750895 243.430156 
L -205.17216 243.430156 
L -210.593426 243.430156 
L -216.014692 243.430156 
L -221.435958 243.430156 
L -226.857224 243.430156 
L -232.27849 243.430156 
L -237.699756 243.430156 
L -243.121022 243.430156 
L -248.542288 243.430156 
z
" style="fill:#d62839;fill-opacity:0.2;stroke:#d62839;stroke-opacity:0.2;"/>
   </g>
   <g id="patch_3">
    <path clip-path="url(#p35ec553e0b)" d="M -245.831655 243.430156 
L -251.252921 243.430156 
L -251.252921 185.356816 
L -245.831655 185.356816 
z
" style="fill:#8d99ae;"/>
   </g>
   <g id="patch_4">
    <path clip-path="url(#p35ec553e0b)" d="M -240.410389 243.430156 
L -245.831655 243.430156 
L -245.831655 214.393486 
L -240.410389 214.393486 
z
" style="fill:#8d99ae;"/>
   </g>
   <g id="patch_5">
    <path clip-path="url(#p35ec553e0b)" d="M -234.989123 243.430156 
L -240.410389 243.430156 
L -240.410389 -221.156562 
L -234.989123 -221.156562 
z
" style="fill:#8d99ae;"/>
   </g>
   <g id="patch_6">
    <path clip-path="url(#p35ec553e0b)" d="M -229.567857 243.430156 
L -234.989123 243.430156 
L -234.989123 243.430156 
L -229.567857 243.430156 
z
" style="fill:#8d99ae;"/>
   </g>
   <g id="patch_7">
    <path clip-path="url(#p35ec553e0b)" d="M -224.146591 243.430156 
L -229.567857 243.430156 
L -229.567857 185.356816 
L -224.146591 185.356816 
z
" style="fill:#8d99ae;"/>
   </g>
   <g id="patch_8">
    <path clip-path="url(#p35ec553e0b)" d="M -218.725325 243.430156 
L -224.146591 243.430156 
L -224.146591 69.210137 
L -218.725325 69.210137 
z
" style="fill:#8d99ae;"/>
   </g>
   <g id="patch_9">
    <path clip-path="url(#p35ec553e0b)" d="M -213.304059 243.430156 
L -218.725325 243.430156 
L -218.725325 69.210137 
L -213.304059 69.210137 
z
" style="fill:#8d99ae;"/>
   </g>
   <g id="patch_10">
    <path clip-path="url(#p35ec553e0b)" d="M -207.882793 243.430156 
L -213.304059 243.430156 
L -213.304059 -3734.593623 
L -207.882793 -3734.593623 
z
" style="fill:#8d99ae;"/>
   </g>
   <g id="patch_11">
    <path clip-path="url(#p35ec553e0b)" d="M -202.461528 243.430156 
L -207.882793 243.430156 
L -207.882793 69.210137 
L -202.461528 69.210137 
z
" style="fill:#8d99ae;"/>
   </g>
   <g id="patch_12">
    <path clip-path="url(#p35ec553e0b)" d="M -197.040262 243.430156 
L -202.461528 243.430156 
L -202.461528 40.173467 
L -197.040262 40.173467 
z
" style="fill:#8d99ae;"/>
   </g>
   <g id="patch_13">
    <path clip-path="url(#p35ec553e0b)" d="M -191.618996 243.430156 
L -197.040262 243.430156 
L -197.040262 -134.046553 
L -191.618996 -134.046553 
z
" style="fill:#8d99ae;"/>
   </g>
   <g id="patch_14">
    <path clip-path="url(#p35ec553e0b)" d="M -186.19773 243.430156 
L -191.618996 243.430156 
L -191.618996 69.210137 
L -186.19773 69.210137 
z
" style="fill:#8d99ae;"/>
   </g>
   <g id="patch_15">
    <path clip-path="url(#p35ec553e0b)" d="M -180.776464 243.430156 
L -186.19773 243.430156 
L -186.19773 -337.303242 
L -180.776464 -337.303242 
z
" style="fill:#8d99ae;"/>
   </g>
   <g id="patch_16">
    <path clip-path="url(#p35ec553e0b)" d="M -175.355198 243.430156 
L -180.776464 243.430156 
L -180.776464 -105.009883 
L -175.355198 -105.009883 
z
" style="fill:#8d99ae;"/>
   </g>
   <g id="patch_17">
    <path clip-path="url(#p35ec553e0b)" d="M -169.933932 243.430156 
L -175.355198 243.430156 
L -175.355198 -598.633271 
L -169.933932 -598.633271 
z
" style="fill:#8d99ae;"/>
   </g>
   <g id="patch_18">
    <path clip-path="url(#p35ec553e0b)" d="M -164.512666 243.430156 
L -169.933932 243.430156 
L -169.933932 -1527.806709 
L -164.512666 -1527.806709 
z
" style="fill:#8d99ae;"/>
   </g>
   <g id="patch_19">
    <path clip-path="url(#p35ec553e0b)" d="M -159.0914 243.430156 
L -164.512666 243.430156 
L -164.512666 -1150.33 
L -159.0914 -1150.33 
z
" style="fill:#8d99ae;"/>
   </g>
   <g id="patch_20">
    <path clip-path="url(#p35ec553e0b)" d="M -153.670134 243.430156 
L -159.0914 243.430156 
L -159.0914 -2456.980146 
L -153.670134 -2456.980146 
z
" style="fill:#8d99ae;"/>
   </g>
   <g id="patch_21">
    <path clip-path="url(#p35ec553e0b)" d="M -148.248868 243.430156 
L -153.670134 243.430156 
L -153.670134 -3473.263594 
L -148.248868 -3473.263594 
z
" style="fill:#8d99ae;"/>
   </g>
   <g id="patch_22">
    <path clip-path="url(#p35ec553e0b)" d="M -142.827602 243.430156 
L -148.248868 243.430156 
L -148.248868 -3153.860225 
L -142.827602 -3153.860225 
z
" style="fill:#8d99ae;"/>
   </g>
   <g id="patch_23">
    <path clip-path="url(#p35ec553e0b)" d="M -137.406336 243.430156 
L -142.827602 243.430156 
L -142.827602 -4460.510371 
L -137.406336 -4460.510371 
z
" style="fill:#8d99ae;"/>
   </g>
   <g id="patch_24">
    <path clip-path="url(#p35ec553e0b)" d="M -131.98507 243.430156 
L -137.406336 243.430156 
L -137.406336 -4547.620381 
L -131.98507 -4547.620381 
z
" style="fill:#8d99ae;"/>
   </g>
   <g id="patch_25">
    <path clip-path="url(#p35ec553e0b)" d="M -126.563804 243.430156 
L -131.98507 243.430156 
L -131.98507 -7306.104023 
L -126.563804 -7306.104023 
z
" style="fill:#8d99ae;"/>
   </g>
   <g id="patch_26">
    <path clip-path="url(#p35ec553e0b)" d="M -121.142539 243.430156 
L -126.563804 243.430156 
L -126.563804 -6812.480635 
L -121.142539 -6812.480635 
z
" style="fill:#8d99ae;"/>
   </g>
   <g id="patch_27">
    <path clip-path="url(#p35ec553e0b)" d="M -115.721273 243.430156 
L -121.142539 243.430156 
L -121.142539 -8845.047529 
L -115.721273 -8845.047529 
z
" style="fill:#8d99ae;"/>
   </g>
   <g id="patch_28">
    <path clip-path="url(#p35ec553e0b)" d="M -110.300007 243.430156 
L -115.721273 243.430156 
L -115.721273 -9135.414229 
L -110.300007 -9135.414229 
z
" style="fill:#8d99ae;"/>
   </g>
   <g id="patch_29">
    <path clip-path="url(#p35ec553e0b)" d="M -104.878741 243.430156 
L -110.300007 243.430156 
L -110.300007 -9600.000947 
L -104.878741 -9600.000947 
z
" style="fill:#8d99ae;"/>
   </g>
   <g id="patch_30">
    <path clip-path="url(#p35ec553e0b)" d="M -99.457475 243.430156 
L -104.878741 243.430156 
L -104.878741 -7712.617402 
L -99.457475 -7712.617402 
z
" style="fill:#8d99ae;"/>
   </g>
   <g id="patch_31">
    <path clip-path="url(#p35ec553e0b)" d="M -94.036209 243.430156 
L -99.457475 243.430156 
L -99.457475 -9425.780928 
L -94.036209 -9425.780928 
z
" style="fill:#8d99ae;"/>
   </g>
   <g id="patch_32">
    <path clip-path="url(#p35ec553e0b)" d="M -88.614943 243.430156 
L -94.036209 243.430156 
L -94.036209 -9251.560908 
L -88.614943 -9251.560908 
z
" style="fill:#8d99ae;"/>
   </g>
   <g id="patch_33">
    <path clip-path="url(#p35ec553e0b)" d="M -83.193677 243.430156 
L -88.614943 243.430156 
L -88.614943 -8438.53415 
L -83.193677 -8438.53415 
z
" style="fill:#8d99ae;"/>
   </g>
   <g id="patch_34">
    <path clip-path="url(#p35ec553e0b)" d="M -77.772411 243.430156 
L -83.193677 243.430156 
L -83.193677 -7973.947432 
L -77.772411 -7973.947432 
z
" style="fill:#8d99ae;"/>
   </g>
   <g id="patch_35">
    <path clip-path="url(#p35ec553e0b)" d="M -72.351145 243.430156 
L -77.772411 243.430156 
L -77.772411 -6725.370625 
L -72.351145 -6725.370625 
z
" style="fill:#8d99ae;"/>
   </g>
   <g id="patch_36">
    <path clip-path="url(#p35ec553e0b)" d="M -66.929879 243.430156 
L -72.351145 243.430156 
L -72.351145 -5825.233857 
L -66.929879 -5825.233857 
z
" style="fill:#8d99ae;"/>
   </g>
   <g id="patch_37">
    <path clip-path="url(#p35ec553e0b)" d="M -61.508613 243.430156 
L -66.929879 243.430156 
L -66.929879 -6231.747236 
L -61.508613 -6231.747236 
z
" style="fill:#8d99ae;"/>
   </g>
   <g id="patch_38">
    <path clip-path="url(#p35ec553e0b)" d="M -56.087347 243.430156 
L -61.508613 243.430156 
L -61.508613 -4170.143672 
L -56.087347 -4170.143672 
z
" style="fill:#8d99ae;"/>
   </g>
   <g id="patch_39">
    <path clip-path="url(#p35ec553e0b)" d="M -50.666081 243.430156 
L -56.087347 243.430156 
L -56.087347 -3124.823555 
L -50.666081 -3124.823555 
z
" style="fill:#8d99ae;"/>
   </g>
   <g id="patch_40">
    <path clip-path="url(#p35ec553e0b)" d="M -45.244815 243.430156 
L -50.666081 243.430156 
L -50.666081 -2253.723457 
L -45.244815 -2253.723457 
z
" style="fill:#8d99ae;"/>
   </g>
   <g id="patch_41">
    <path clip-path="url(#p35ec553e0b)" d="M -39.82355 243.430156 
L -45.244815 243.430156 
L -45.244815 -1469.733369 
L -39.82355 -1469.733369 
z
" style="fill:#8d99ae;"/>
   </g>
   <g id="patch_42">
    <path clip-path="url(#p35ec553e0b)" d="M -34.402284 243.430156 
L -39.82355 243.430156 
L -39.82355 -1295.51335 
L -34.402284 -1295.51335 
z
" style="fill:#8d99ae;"/>
   </g>
   <g id="patch_43">
    <path clip-path="url(#p35ec553e0b)" d="M -28.981018 243.430156 
L -34.402284 243.430156 
L -34.402284 -482.486592 
L -28.981018 -482.486592 
z
" style="fill:#8d99ae;"/>
   </g>
   <g id="patch_44">
    <path clip-path="url(#p35ec553e0b)" d="M -23.559752 243.430156 
L -28.981018 243.430156 
L -28.981018 -511.523262 
L -23.559752 -511.523262 
z
" style="fill:#8d99ae;"/>
   </g>
   <g id="patch_45">
    <path clip-path="url(#p35ec553e0b)" d="M -18.138486 243.430156 
L -23.559752 243.430156 
L -23.559752 -453.449922 
L -18.138486 -453.449922 
z
" style="fill:#8d99ae;"/>
   </g>
   <g id="patch_46">
    <path clip-path="url(#p35ec553e0b)" d="M -12.71722 243.430156 
L -18.138486 243.430156 
L -18.138486 -279.229902 
L -12.71722 -279.229902 
z
" style="fill:#8d99ae;"/>
   </g>
   <g id="patch_47">
    <path clip-path="url(#p35ec553e0b)" d="M -7.295954 243.430156 
L -12.71722 243.430156 
L -12.71722 -46.936543 
L -7.295954 -46.936543 
z
" style="fill:#8d99ae;"/>
   </g>
   <g id="patch_48">
    <path clip-path="url(#p35ec553e0b)" d="M -1.874688 243.430156 
L -7.295954 243.430156 
L -7.295954 -163.083223 
L -1.874688 -163.083223 
z
" style="fill:#8d99ae;"/>
   </g>
   <g id="patch_49">
    <path clip-path="url(#p35ec553e0b)" d="M 3.546578 243.430156 
L -1.874688 243.430156 
L -1.874688 40.173467 
L 3.546578 40.173467 
z
" style="fill:#8d99ae;"/>
   </g>
   <g id="patch_50">
    <path clip-path="url(#p35ec553e0b)" d="M 8.967844 243.430156 
L 3.546578 243.430156 
L 3.546578 -105.009883 
L 8.967844 -105.009883 
z
" style="fill:#8d99ae;"/>
   </g>
   <g id="patch_51">
    <path clip-path="url(#p35ec553e0b)" d="M 14.38911 243.430156 
L 8.967844 243.430156 
L 8.967844 185.356816 
L 14.38911 185.356816 
z
" style="fill:#8d99ae;"/>
   </g>
   <g id="patch_52">
    <path clip-path="url(#p35ec553e0b)" d="M 19.810376 243.430156 
L 14.38911 243.430156 
L 14.38911 11.136797 
L 19.810376 11.136797 
z
" style="fill:#8d99ae;"/>
   </g>
   <g id="patch_53">
    <path clip-path="url(#p35ec553e0b)" d="M 25.231642 243.430156 
L 19.810376 243.430156 
L 19.810376 98.246807 
L 25.231642 98.246807 
z
" style="fill:#8d99ae;"/>
   </g>
   <g id="patch_54">
    <path clip-path="url(#p35ec553e0b)" d="M 30.652908 243.430156 
L 25.231642 243.430156 
L 25.231642 185.356816 
L 30.652908 185.356816 
z
" style="fill:#8d99ae;"/>
   </g>
   <g id="patch_55">
    <path clip-path="url(#p35ec553e0b)" d="M 36.074174 243.430156 
L 30.652908 243.430156 
L 30.652908 156.320146 
L 36.074174 156.320146 
z
" style="fill:#8d99ae;"/>
   </g>
   <g id="patch_56">
    <path clip-path="url(#p35ec553e0b)" d="M 41.495439 243.430156 
L 36.074174 243.430156 
L 36.074174 214.393486 
L 41.495439 214.393486 
z
" style="fill:#8d99ae;"/>
   </g>
   <g id="patch_57">
    <path clip-path="url(#p35ec553e0b)" d="M 46.916705 243.430156 
L 41.495439 243.430156 
L 41.495439 69.210137 
L 46.916705 69.210137 
z
" style="fill:#8d99ae;"/>
   </g>
   <g id="patch_58">
    <path clip-path="url(#p35ec553e0b)" d="M 52.337971 243.430156 
L 46.916705 243.430156 
L 46.916705 214.393486 
L 52.337971 214.393486 
z
" style="fill:#8d99ae;"/>
   </g>
   <g id="patch_59">
    <path clip-path="url(#p35ec553e0b)" d="M 57.759237 243.430156 
L 52.337971 243.430156 
L 52.337971 69.210137 
L 57.759237 69.210137 
z
" style="fill:#8d99ae;"/>
   </g>
   <g id="patch_60">
    <path clip-path="url(#p35ec553e0b)" d="M 63.180503 243.430156 
L 57.759237 243.430156 
L 57.759237 40.173467 
L 63.180503 40.173467 
z
" style="fill:#8d99ae;"/>
   </g>
   <g id="patch_61">
    <path clip-path="url(#p35ec553e0b)" d="M 68.601769 243.430156 
L 63.180503 243.430156 
L 63.180503 156.320146 
L 68.601769 156.320146 
z
" style="fill:#8d99ae;"/>
   </g>
   <g id="patch_62">
    <path clip-path="url(#p35ec553e0b)" d="M 74.023035 243.430156 
L 68.601769 243.430156 
L 68.601769 69.210137 
L 74.023035 69.210137 
z
" style="fill:#8d99ae;"/>
   </g>
   <g id="patch_63">
    <path clip-path="url(#p35ec553e0b)" d="M 79.444301 243.430156 
L 74.023035 243.430156 
L 74.023035 214.393486 
L 79.444301 214.393486 
z
" style="fill:#8d99ae;"/>
   </g>
   <g id="patch_64">
    <path clip-path="url(#p35ec553e0b)" d="M 84.865567 243.430156 
L 79.444301 243.430156 
L 79.444301 243.430156 
L 84.865567 243.430156 
z
" style="fill:#8d99ae;"/>
   </g>
   <g id="patch_65">
    <path clip-path="url(#p35ec553e0b)" d="M 90.286833 243.430156 
L 84.865567 243.430156 
L 84.865567 156.320146 
L 90.286833 156.320146 
z
" style="fill:#8d99ae;"/>
   </g>
   <g id="patch_66">
    <path clip-path="url(#p35ec553e0b)" d="M 95.708099 243.430156 
L 90.286833 243.430156 
L 90.286833 243.430156 
L 95.708099 243.430156 
z
" style="fill:#8d99ae;"/>
   </g>
   <g id="patch_67">
    <path clip-path="url(#p35ec553e0b)" d="M 101.129365 243.430156 
L 95.708099 243.430156 
L 95.708099 185.356816 
L 101.129365 185.356816 
z
" style="fill:#8d99ae;"/>
   </g>
   <g id="patch_68">
    <path clip-path="url(#p35ec553e0b)" d="M 106.550631 243.430156 
L 101.129365 243.430156 
L 101.129365 156.320146 
L 106.550631 156.320146 
z
" style="fill:#8d99ae;"/>
   </g>
   <g id="patch_69">
    <path clip-path="url(#p35ec553e0b)" d="M 111.971897 243.430156 
L 106.550631 243.430156 
L 106.550631 243.430156 
L 111.971897 243.430156 
z
" style="fill:#8d99ae;"/>
   </g>
   <g id="patch_70">
    <path clip-path="url(#p35ec553e0b)" d="M 117.393163 243.430156 
L 111.971897 243.430156 
L 111.971897 243.430156 
L 117.393163 243.430156 
z
" style="fill:#8d99ae;"/>
   </g>
   <g id="patch_71">
    <path clip-path="url(#p35ec553e0b)" d="M 122.814429 243.430156 
L 117.393163 243.430156 
L 117.393163 214.393486 
L 122.814429 214.393486 
z
" style="fill:#8d99ae;"/>
   </g>
   <g id="patch_72">
    <path clip-path="url(#p35ec553e0b)" d="M 128.235694 243.430156 
L 122.814429 243.430156 
L 122.814429 185.356816 
L 128.235694 185.356816 
z
" style="fill:#8d99ae;"/>
   </g>
   <g id="patch_73">
    <path clip-path="url(#p35ec553e0b)" d="M 133.65696 243.430156 
L 128.235694 243.430156 
L 128.235694 214.393486 
L 133.65696 214.393486 
z
" style="fill:#8d99ae;"/>
   </g>
   <g id="patch_74">
    <path clip-path="url(#p35ec553e0b)" d="M 139.078226 243.430156 
L 133.65696 243.430156 
L 133.65696 243.430156 
L 139.078226 243.430156 
z
" style="fill:#8d99ae;"/>
   </g>
   <g id="patch_75">
    <path clip-path="url(#p35ec553e0b)" d="M 144.499492 243.430156 
L 139.078226 243.430156 
L 139.078226 243.430156 
L 144.499492 243.430156 
z
" style="fill:#8d99ae;"/>
   </g>
   <g id="patch_76">
    <path clip-path="url(#p35ec553e0b)" d="M 149.920758 243.430156 
L 144.499492 243.430156 
L 144.499492 156.320146 
L 149.920758 156.320146 
z
" style="fill:#8d99ae;"/>
   </g>
   <g id="patch_77">
    <path clip-path="url(#p35ec553e0b)" d="M 155.342024 243.430156 
L 149.920758 243.430156 
L 149.920758 243.430156 
L 155.342024 243.430156 
z
" style="fill:#8d99ae;"/>
   </g>
   <g id="patch_78">
    <path clip-path="url(#p35ec553e0b)" d="M 160.76329 243.430156 
L 155.342024 243.430156 
L 155.342024 243.430156 
L 160.76329 243.430156 
z
" style="fill:#8d99ae;"/>
   </g>
   <g id="patch_79">
    <path clip-path="url(#p35ec553e0b)" d="M 166.184556 243.430156 
L 160.76329 243.430156 
L 160.76329 243.430156 
L 166.184556 243.430156 
z
" style="fill:#8d99ae;"/>
   </g>
   <g id="patch_80">
    <path clip-path="url(#p35ec553e0b)" d="M 171.605822 243.430156 
L 166.184556 243.430156 
L 166.184556 243.430156 
L 171.605822 243.430156 
z
" style="fill:#8d99ae;"/>
   </g>
   <g id="patch_81">
    <path clip-path="url(#p35ec553e0b)" d="M 177.027088 243.430156 
L 171.605822 243.430156 
L 171.605822 243.430156 
L 177.027088 243.430156 
z
" style="fill:#8d99ae;"/>
   </g>
   <g id="patch_82">
    <path clip-path="url(#p35ec553e0b)" d="M 182.448354 243.430156 
L 177.027088 243.430156 
L 177.027088 243.430156 
L 182.448354 243.430156 
z
" style="fill:#8d99ae;"/>
   </g>
   <g id="patch_83">
    <path clip-path="url(#p35ec553e0b)" d="M 187.86962 243.430156 
L 182.448354 243.430156 
L 182.448354 214.393486 
L 187.86962 214.393486 
z
" style="fill:#8d99ae;"/>
   </g>
   <g id="patch_84">
    <path clip-path="url(#p35ec553e0b)" d="M 193.290886 243.430156 
L 187.86962 243.430156 
L 187.86962 214.393486 
L 193.290886 214.393486 
z
" style="fill:#8d99ae;"/>
   </g>
   <g id="patch_85">
    <path clip-path="url(#p35ec553e0b)" d="M 198.712152 243.430156 
L 193.290886 243.430156 
L 193.290886 185.356816 
L 198.712152 185.356816 
z
" style="fill:#8d99ae;"/>
   </g>
   <g id="patch_86">
    <path clip-path="url(#p35ec553e0b)" d="M 204.133418 243.430156 
L 198.712152 243.430156 
L 198.712152 214.393486 
L 204.133418 214.393486 
z
" style="fill:#8d99ae;"/>
   </g>
   <g id="patch_87">
    <path clip-path="url(#p35ec553e0b)" d="M 209.554683 243.430156 
L 204.133418 243.430156 
L 204.133418 243.430156 
L 209.554683 243.430156 
z
" style="fill:#8d99ae;"/>
   </g>
   <g id="patch_88">
    <path clip-path="url(#p35ec553e0b)" d="M 214.975949 243.430156 
L 209.554683 243.430156 
L 209.554683 243.430156 
L 214.975949 243.430156 
z
" style="fill:#8d99ae;"/>
   </g>
   <g id="patch_89">
    <path clip-path="url(#p35ec553e0b)" d="M 220.397215 243.430156 
L 214.975949 243.430156 
L 214.975949 243.430156 
L 220.397215 243.430156 
z
" style="fill:#8d99ae;"/>
   </g>
   <g id="patch_90">
    <path clip-path="url(#p35ec553e0b)" d="M 225.818481 243.430156 
L 220.397215 243.430156 
L 220.397215 243.430156 
L 225.818481 243.430156 
z
" style="fill:#8d99ae;"/>
   </g>
   <g id="patch_91">
    <path clip-path="url(#p35ec553e0b)" d="M 231.239747 243.430156 
L 225.818481 243.430156 
L 225.818481 243.430156 
L 231.239747 243.430156 
z
" style="fill:#8d99ae;"/>
   </g>
   <g id="patch_92">
    <path clip-path="url(#p35ec553e0b)" d="M 236.661013 243.430156 
L 231.239747 243.430156 
L 231.239747 243.430156 
L 236.661013 243.430156 
z
" style="fill:#8d99ae;"/>
   </g>
   <g id="patch_93">
    <path clip-path="url(#p35ec553e0b)" d="M 242.082279 243.430156 
L 236.661013 243.430156 
L 236.661013 214.393486 
L 242.082279 214.393486 
z
" style="fill:#8d99ae;"/>
   </g>
   <g id="patch_94">
    <path clip-path="url(#p35ec553e0b)" d="M 247.503545 243.430156 
L 242.082279 243.430156 
L 242.082279 243.430156 
L 247.503545 243.430156 
z
" style="fill:#8d99ae;"/>
   </g>
   <g id="patch_95">
    <path clip-path="url(#p35ec553e0b)" d="M 252.924811 243.430156 
L 247.503545 243.430156 
L 247.503545 243.430156 
L 252.924811 243.430156 
z
" style="fill:#8d99ae;"/>
   </g>
   <g id="patch_96">
    <path clip-path="url(#p35ec553e0b)" d="M 258.346077 243.430156 
L 252.924811 243.430156 
L 252.924811 243.430156 
L 258.346077 243.430156 
z
" style="fill:#8d99ae;"/>
   </g>
   <g id="patch_97">
    <path clip-path="url(#p35ec553e0b)" d="M 263.767343 243.430156 
L 258.346077 243.430156 
L 258.346077 243.430156 
L 263.767343 243.430156 
z
" style="fill:#8d99ae;"/>
   </g>
   <g id="patch_98">
    <path clip-path="url(#p35ec553e0b)" d="M 269.188609 243.430156 
L 263.767343 243.430156 
L 263.767343 214.393486 
L 269.188609 214.393486 
z
" style="fill:#8d99ae;"/>
   </g>
   <g id="patch_99">
    <path clip-path="url(#p35ec553e0b)" d="M 274.609875 243.430156 
L 269.188609 243.430156 
L 269.188609 243.430156 
L 274.609875 243.430156 
z
" style="fill:#8d99ae;"/>
   </g>
   <g id="patch_100">
    <path clip-path="url(#p35ec553e0b)" d="M 280.031141 243.430156 
L 274.609875 243.430156 
L 274.609875 243.430156 
L 280.031141 243.430156 
z
" style="fill:#8d99ae;"/>
   </g>
   <g id="patch_101">
    <path clip-path="url(#p35ec553e0b)" d="M 285.452407 243.430156 
L 280.031141 243.430156 
L 280.031141 214.393486 
L 285.452407 214.393486 
z
" style="fill:#8d99ae;"/>
   </g>
   <g id="patch_102">
    <path clip-path="url(#p35ec553e0b)" d="M 290.873672 243.430156 
L 285.452407 243.430156 
L 285.452407 243.430156 
L 290.873672 243.430156 
z
" style="fill:#8d99ae;"/>
   </g>
   <g id="patch_103">
    <path clip-path="url(#p35ec553e0b)" d="M 296.294938 243.430156 
L 290.873672 243.430156 
L 290.873672 243.430156 
L 296.294938 243.430156 
z
" style="fill:#8d99ae;"/>
   </g>
   <g id="patch_104">
    <path clip-path="url(#p35ec553e0b)" d="M 301.716204 243.430156 
L 296.294938 243.430156 
L 296.294938 243.430156 
L 301.716204 243.430156 
z
" style="fill:#8d99ae;"/>
   </g>
   <g id="patch_105">
    <path clip-path="url(#p35ec553e0b)" d="M 307.13747 243.430156 
L 301.716204 243.430156 
L 301.716204 243.430156 
L 307.13747 243.430156 
z
" style="fill:#8d99ae;"/>
   </g>
   <g id="patch_106">
    <path clip-path="url(#p35ec553e0b)" d="M 312.558736 243.430156 
L 307.13747 243.430156 
L 307.13747 243.430156 
L 312.558736 243.430156 
z
" style="fill:#8d99ae;"/>
   </g>
   <g id="patch_107">
    <path clip-path="url(#p35ec553e0b)" d="M 317.980002 243.430156 
L 312.558736 243.430156 
L 312.558736 243.430156 
L 317.980002 243.430156 
z
" style="fill:#8d99ae;"/>
   </g>
   <g id="patch_108">
    <path clip-path="url(#p35ec553e0b)" d="M 323.401268 243.430156 
L 317.980002 243.430156 
L 317.980002 243.430156 
L 323.401268 243.430156 
z
" style="fill:#8d99ae;"/>
   </g>
   <g id="patch_109">
    <path clip-path="url(#p35ec553e0b)" d="M 328.822534 243.430156 
L 323.401268 243.430156 
L 323.401268 243.430156 
L 328.822534 243.430156 
z
" style="fill:#8d99ae;"/>
   </g>
   <g id="patch_110">
    <path clip-path="url(#p35ec553e0b)" d="M 334.2438 243.430156 
L 328.822534 243.430156 
L 328.822534 243.430156 
L 334.2438 243.430156 
z
" style="fill:#8d99ae;"/>
   </g>
   <g id="patch_111">
    <path clip-path="url(#p35ec553e0b)" d="M 339.665066 243.430156 
L 334.2438 243.430156 
L 334.2438 243.430156 
L 339.665066 243.430156 
z
" style="fill:#8d99ae;"/>
   </g>
   <g id="patch_112">
    <path clip-path="url(#p35ec553e0b)" d="M 345.086332 243.430156 
L 339.665066 243.430156 
L 339.665066 243.430156 
L 345.086332 243.430156 
z
" style="fill:#8d99ae;"/>
   </g>
   <g id="patch_113">
    <path clip-path="url(#p35ec553e0b)" d="M 350.507598 243.430156 
L 345.086332 243.430156 
L 345.086332 214.393486 
L 350.507598 214.393486 
z
" style="fill:#8d99ae;"/>
   </g>
   <g id="patch_114">
    <path clip-path="url(#p35ec553e0b)" d="M -104.269555 243.430156 
L -104.269555 11.136797 
L -59.176058 11.136797 
L -59.176058 243.430156 
z
" style="fill:#457b9d;opacity:0.35;"/>
   </g>
   <g id="patch_115">
    <path clip-path="url(#p35ec553e0b)" d="M -104.269555 243.430156 
L -104.269555 11.136797 
L -149.363053 11.136797 
L -149.363053 243.430156 
z
" style="fill:#457b9d;opacity:0.35;"/>
   </g>
   <g id="patch_116">
    <path clip-path="url(#p35ec553e0b)" d="M -59.176058 243.430156 
L -59.176058 11.136797 
L -14.08256 11.136797 
L -14.08256 243.430156 
z
" style="fill:#457b9d;opacity:0.25;"/>
   </g>
   <g id="patch_117">
    <path clip-path="url(#p35ec553e0b)" d="M -149.363053 243.430156 
L -149.363053 11.136797 
L -194.45655 11.136797 
L -194.45655 243.430156 
z
" style="fill:#457b9d;opacity:0.25;"/>
   </g>
   <g id="patch_118">
    <path clip-path="url(#p35ec553e0b)" d="M -14.08256 243.430156 
L -14.08256 11.136797 
L 31.010937 11.136797 
L 31.010937 243.430156 
z
" style="fill:#457b9d;opacity:0.15;"/>
   </g>
   <g id="patch_119">
    <path clip-path="url(#p35ec553e0b)" d="M -194.45655 243.430156 
L -194.45655 11.136797 
L -239.550048 11.136797 
L -239.550048 243.430156 
z
" style="fill:#457b9d;opacity:0.15;"/>
   </g>
   <g id="patch_120">
    <path clip-path="url(#p35ec553e0b)" d="M 31.010937 243.430156 
L 31.010937 11.136797 
L 413.168817 11.136797 
L 413.168817 243.430156 
z
" style="fill:#457b9d;opacity:0.05;"/>
   </g>
   <g id="patch_121">
    <path clip-path="url(#p35ec553e0b)" d="M -239.550048 243.430156 
L -239.550048 11.136797 
L -279.838153 11.136797 
L -279.838153 243.430156 
z
" style="fill:#457b9d;opacity:0.05;"/>
   </g>
   <g id="matplotlib.axis_1">
    <g id="xtick_1">
     <g id="line2d_1">
      <defs>
       <path d="M 0 0 
L 0 -3.5 
" id="m9648a20159" style="stroke:#000000;stroke-width:0.8;"/>
      </defs>
      <g>
       <use style="stroke:#000000;stroke-width:0.8;" x="66.665332" xlink:href="#m9648a20159" y="243.430156"/>
      </g>
     </g>
     <g id="line2d_2">
      <defs>
       <path d="M 0 0 
L 0 3.5 
" id="m0824dc01b2" style="stroke:#000000;stroke-width:0.8;"/>
      </defs>
      <g>
       <use style="stroke:#000000;stroke-width:0.8;" x="66.665332" xlink:href="#m0824dc01b2" y="11.136797"/>
      </g>
     </g>
     <g id="text_1">
      <text style="font-family:Arial;font-size:11px;font-stretch:normal;font-style:normal;font-weight:normal;text-anchor:middle;" transform="rotate(-0, 66.665332, 254.80375)" x="66.665332" y="254.80375">0.00</text>
     </g>
    </g>
    <g id="xtick_2">
     <g id="line2d_3">
      <g>
       <use style="stroke:#000000;stroke-width:0.8;" x="114.790816" xlink:href="#m9648a20159" y="243.430156"/>
      </g>
     </g>
     <g id="line2d_4">
      <g>
       <use style="stroke:#000000;stroke-width:0.8;" x="114.790816" xlink:href="#m0824dc01b2" y="11.136797"/>
      </g>
     </g>
     <g id="text_2">
      <text style="font-family:Arial;font-size:11px;font-stretch:normal;font-style:normal;font-weight:normal;text-anchor:middle;" transform="rotate(-0, 114.790816, 254.80375)" x="114.790816" y="254.80375">0.25</text>
     </g>
    </g>
    <g id="xtick_3">
     <g id="line2d_5">
      <g>
       <use style="stroke:#000000;stroke-width:0.8;" x="162.9163" xlink:href="#m9648a20159" y="243.430156"/>
      </g>
     </g>
     <g id="line2d_6">
      <g>
       <use style="stroke:#000000;stroke-width:0.8;" x="162.9163" xlink:href="#m0824dc01b2" y="11.136797"/>
      </g>
     </g>
     <g id="text_3">
      <text style="font-family:Arial;font-size:11px;font-stretch:normal;font-style:normal;font-weight:normal;text-anchor:middle;" transform="rotate(-0, 162.9163, 254.80375)" x="162.9163" y="254.80375">0.50</text>
     </g>
    </g>
    <g id="xtick_4">
     <g id="line2d_7">
      <g>
       <use style="stroke:#000000;stroke-width:0.8;" x="211.041784" xlink:href="#m9648a20159" y="243.430156"/>
      </g>
     </g>
     <g id="line2d_8">
      <g>
       <use style="stroke:#000000;stroke-width:0.8;" x="211.041784" xlink:href="#m0824dc01b2" y="11.136797"/>
      </g>
     </g>
     <g id="text_4">
      <text style="font-family:Arial;font-size:11px;font-stretch:normal;font-style:normal;font-weight:normal;text-anchor:middle;" transform="rotate(-0, 211.041784, 254.80375)" x="211.041784" y="254.80375">0.75</text>
     </g>
    </g>
    <g id="xtick_5">
     <g id="line2d_9">
      <g>
       <use style="stroke:#000000;stroke-width:0.8;" x="259.167268" xlink:href="#m9648a20159" y="243.430156"/>
      </g>
     </g>
     <g id="line2d_10">
      <g>
       <use style="stroke:#000000;stroke-width:0.8;" x="259.167268" xlink:href="#m0824dc01b2" y="11.136797"/>
      </g>
     </g>
     <g id="text_5">
      <text style="font-family:Arial;font-size:11px;font-stretch:normal;font-style:normal;font-weight:normal;text-anchor:middle;" transform="rotate(-0, 259.167268, 254.80375)" x="259.167268" y="254.80375">1.00</text>
     </g>
    </g>
    <g id="xtick_6">
     <g id="line2d_11">
      <g>
       <use style="stroke:#000000;stroke-width:0.8;" x="307.292752" xlink:href="#m9648a20159" y="243.430156"/>
      </g>
     </g>
     <g id="line2d_12">
      <g>
       <use style="stroke:#000000;stroke-width:0.8;" x="307.292752" xlink:href="#m0824dc01b2" y="11.136797"/>
      </g>
     </g>
     <g id="text_6">
      <text style="font-family:Arial;font-size:11px;font-stretch:normal;font-style:normal;font-weight:normal;text-anchor:middle;" transform="rotate(-0, 307.292752, 254.80375)" x="307.292752" y="254.80375">1.25</text>
     </g>
    </g>
    <g id="xtick_7">
     <g id="line2d_13">
      <g>
       <use style="stroke:#000000;stroke-width:0.8;" x="355.418236" xlink:href="#m9648a20159" y="243.430156"/>
      </g>
     </g>
     <g id="line2d_14">
      <g>
       <use style="stroke:#000000;stroke-width:0.8;" x="355.418236" xlink:href="#m0824dc01b2" y="11.136797"/>
      </g>
     </g>
     <g id="text_7">
      <text style="font-family:Arial;font-size:11px;font-stretch:normal;font-style:normal;font-weight:normal;text-anchor:middle;" transform="rotate(-0, 355.418236, 254.80375)" x="355.418236" y="254.80375">1.50</text>
     </g>
    </g>
    <g id="xtick_8">
     <g id="line2d_15">
      <g>
       <use style="stroke:#000000;stroke-width:0.8;" x="403.54372" xlink:href="#m9648a20159" y="243.430156"/>
      </g>
     </g>
     <g id="line2d_16">
      <g>
       <use style="stroke:#000000;stroke-width:0.8;" x="403.54372" xlink:href="#m0824dc01b2" y="11.136797"/>
      </g>
     </g>
     <g id="text_8">
      <text style="font-family:Arial;font-size:11px;font-stretch:normal;font-style:normal;font-weight:normal;text-anchor:middle;" transform="rotate(-0, 403.54372, 254.80375)" x="403.54372" y="254.80375">1.75</text>
     </g>
    </g>
    <g id="text_9">
     <!-- Log (Volume-to-surface ratio, $\mu m$) -->
     <g transform="translate(138.599877 269.02)">
      <text>
       <tspan style="font-family:Arial;font-size:11px;font-style:regular;font-weight:regular;" x="0 6.117676 12.235352 18.353027 21.40918 25.072266 32.40918 38.526855 40.970703 47.088379 56.251465 62.369141 66.032227 69.088379 75.206055 78.869141 84.369141 90.486816 94.149902 97.206055 103.32373 108.82373 114.941406 117.997559 121.660645 127.77832 130.834473 133.27832 139.395996 142.452148 163.222168" y="-0.984375">Log (Volume-to-surface ratio, )</tspan>
       <tspan style="font-family:DejaVu Sans;font-size:11px;font-style:oblique;font-weight:oblique;" x="145.508301 152.506836" y="-0.984375">μm</tspan>
      </text>
     </g>
    </g>
   </g>
   <g id="matplotlib.axis_2">
    <g id="ytick_1">
     <g id="line2d_17">
      <defs>
       <path d="M 0 0 
L 3.5 0 
" id="mb26df7a382" style="stroke:#000000;stroke-width:0.8;"/>
      </defs>
      <g>
       <use style="stroke:#000000;stroke-width:0.8;" x="31.010938" xlink:href="#mb26df7a382" y="243.430156"/>
      </g>
     </g>
     <g id="line2d_18">
      <defs>
       <path d="M 0 0 
L -3.5 0 
" id="m8f4c7e7de7" style="stroke:#000000;stroke-width:0.8;"/>
      </defs>
      <g>
       <use style="stroke:#000000;stroke-width:0.8;" x="413.168817" xlink:href="#m8f4c7e7de7" y="243.430156"/>
      </g>
     </g>
     <g id="text_10">
      <text style="font-family:Arial;font-size:11px;font-stretch:normal;font-style:normal;font-weight:normal;text-anchor:end;" transform="rotate(-0, 27.510938, 247.366953)" x="27.510938" y="247.366953">0</text>
     </g>
    </g>
    <g id="ytick_2">
     <g id="line2d_19">
      <g>
       <use style="stroke:#000000;stroke-width:0.8;" x="31.010938" xlink:href="#mb26df7a382" y="214.393486"/>
      </g>
     </g>
     <g id="line2d_20">
      <g>
       <use style="stroke:#000000;stroke-width:0.8;" x="413.168817" xlink:href="#m8f4c7e7de7" y="214.393486"/>
      </g>
     </g>
     <g id="text_11">
      <text style="font-family:Arial;font-size:11px;font-stretch:normal;font-style:normal;font-weight:normal;text-anchor:end;" transform="rotate(-0, 27.510938, 218.330283)" x="27.510938" y="218.330283">1</text>
     </g>
    </g>
    <g id="ytick_3">
     <g id="line2d_21">
      <g>
       <use style="stroke:#000000;stroke-width:0.8;" x="31.010938" xlink:href="#mb26df7a382" y="185.356816"/>
      </g>
     </g>
     <g id="line2d_22">
      <g>
       <use style="stroke:#000000;stroke-width:0.8;" x="413.168817" xlink:href="#m8f4c7e7de7" y="185.356816"/>
      </g>
     </g>
     <g id="text_12">
      <text style="font-family:Arial;font-size:11px;font-stretch:normal;font-style:normal;font-weight:normal;text-anchor:end;" transform="rotate(-0, 27.510938, 189.293613)" x="27.510938" y="189.293613">2</text>
     </g>
    </g>
    <g id="ytick_4">
     <g id="line2d_23">
      <g>
       <use style="stroke:#000000;stroke-width:0.8;" x="31.010938" xlink:href="#mb26df7a382" y="156.320146"/>
      </g>
     </g>
     <g id="line2d_24">
      <g>
       <use style="stroke:#000000;stroke-width:0.8;" x="413.168817" xlink:href="#m8f4c7e7de7" y="156.320146"/>
      </g>
     </g>
     <g id="text_13">
      <text style="font-family:Arial;font-size:11px;font-stretch:normal;font-style:normal;font-weight:normal;text-anchor:end;" transform="rotate(-0, 27.510938, 160.256943)" x="27.510938" y="160.256943">3</text>
     </g>
    </g>
    <g id="ytick_5">
     <g id="line2d_25">
      <g>
       <use style="stroke:#000000;stroke-width:0.8;" x="31.010938" xlink:href="#mb26df7a382" y="127.283477"/>
      </g>
     </g>
     <g id="line2d_26">
      <g>
       <use style="stroke:#000000;stroke-width:0.8;" x="413.168817" xlink:href="#m8f4c7e7de7" y="127.283477"/>
      </g>
     </g>
     <g id="text_14">
      <text style="font-family:Arial;font-size:11px;font-stretch:normal;font-style:normal;font-weight:normal;text-anchor:end;" transform="rotate(-0, 27.510938, 131.220273)" x="27.510938" y="131.220273">4</text>
     </g>
    </g>
    <g id="ytick_6">
     <g id="line2d_27">
      <g>
       <use style="stroke:#000000;stroke-width:0.8;" x="31.010938" xlink:href="#mb26df7a382" y="98.246807"/>
      </g>
     </g>
     <g id="line2d_28">
      <g>
       <use style="stroke:#000000;stroke-width:0.8;" x="413.168817" xlink:href="#m8f4c7e7de7" y="98.246807"/>
      </g>
     </g>
     <g id="text_15">
      <text style="font-family:Arial;font-size:11px;font-stretch:normal;font-style:normal;font-weight:normal;text-anchor:end;" transform="rotate(-0, 27.510938, 102.183604)" x="27.510938" y="102.183604">5</text>
     </g>
    </g>
    <g id="ytick_7">
     <g id="line2d_29">
      <g>
       <use style="stroke:#000000;stroke-width:0.8;" x="31.010938" xlink:href="#mb26df7a382" y="69.210137"/>
      </g>
     </g>
     <g id="line2d_30">
      <g>
       <use style="stroke:#000000;stroke-width:0.8;" x="413.168817" xlink:href="#m8f4c7e7de7" y="69.210137"/>
      </g>
     </g>
     <g id="text_16">
      <text style="font-family:Arial;font-size:11px;font-stretch:normal;font-style:normal;font-weight:normal;text-anchor:end;" transform="rotate(-0, 27.510938, 73.146934)" x="27.510938" y="73.146934">6</text>
     </g>
    </g>
    <g id="ytick_8">
     <g id="line2d_31">
      <g>
       <use style="stroke:#000000;stroke-width:0.8;" x="31.010938" xlink:href="#mb26df7a382" y="40.173467"/>
      </g>
     </g>
     <g id="line2d_32">
      <g>
       <use style="stroke:#000000;stroke-width:0.8;" x="413.168817" xlink:href="#m8f4c7e7de7" y="40.173467"/>
      </g>
     </g>
     <g id="text_17">
      <text style="font-family:Arial;font-size:11px;font-stretch:normal;font-style:normal;font-weight:normal;text-anchor:end;" transform="rotate(-0, 27.510938, 44.110264)" x="27.510938" y="44.110264">7</text>
     </g>
    </g>
    <g id="ytick_9">
     <g id="line2d_33">
      <g>
       <use style="stroke:#000000;stroke-width:0.8;" x="31.010938" xlink:href="#mb26df7a382" y="11.136797"/>
      </g>
     </g>
     <g id="line2d_34">
      <g>
       <use style="stroke:#000000;stroke-width:0.8;" x="413.168817" xlink:href="#m8f4c7e7de7" y="11.136797"/>
      </g>
     </g>
     <g id="text_18">
      <text style="font-family:Arial;font-size:11px;font-stretch:normal;font-style:normal;font-weight:normal;text-anchor:end;" transform="rotate(-0, 27.510938, 15.073594)" x="27.510938" y="15.073594">8</text>
     </g>
    </g>
    <g id="text_19">
     <text style="font-family:Arial;font-size:11px;font-stretch:normal;font-style:normal;font-weight:normal;text-anchor:middle;" transform="rotate(-90, 15.207656, 127.283477)" x="15.207656" y="127.283477">Number of species</text>
    </g>
   </g>
   <g id="line2d_35">
    <path clip-path="url(#p35ec553e0b)" d="M 13.885401 -1 
L 17.099743 43.181296 
L 22.521009 99.582599 
L 27.942275 141.580904 
L 33.363541 172.352006 
L 38.784807 194.538213 
L 44.206072 210.281845 
L 49.627338 221.278386 
L 55.048604 228.839381 
L 60.46987 233.957512 
L 65.891136 237.36856 
L 71.312402 239.606968 
L 76.733668 241.053386 
L 82.154934 241.973786 
L 87.5762 242.550568 
L 92.997466 242.906544 
L 98.418732 243.122927 
L 103.839998 243.252476 
L 109.261264 243.328873 
L 114.68253 243.37325 
L 120.103796 243.398642 
L 125.525061 243.412954 
L 130.946327 243.420902 
L 136.367593 243.425249 
L 141.788859 243.427591 
L 147.210125 243.428835 
L 152.631391 243.429485 
L 158.052657 243.42982 
L 163.473923 243.429991 
L 168.895189 243.430076 
L 174.316455 243.430118 
L 179.737721 243.430138 
L 185.158987 243.430148 
L 190.580253 243.430152 
L 196.001519 243.430154 
L 201.422785 243.430155 
L 206.84405 243.430156 
L 212.265316 243.430156 
L 217.686582 243.430156 
L 223.107848 243.430156 
L 228.529114 243.430156 
L 233.95038 243.430156 
L 239.371646 243.430156 
L 244.792912 243.430156 
L 250.214178 243.430156 
L 255.635444 243.430156 
L 261.05671 243.430156 
L 266.477976 243.430156 
L 271.899242 243.430156 
L 277.320508 243.430156 
L 282.741774 243.430156 
L 288.163039 243.430156 
L 293.584305 243.430156 
L 299.005571 243.430156 
L 304.426837 243.430156 
L 309.848103 243.430156 
L 315.269369 243.430156 
L 320.690635 243.430156 
L 326.111901 243.430156 
L 331.533167 243.430156 
L 336.954433 243.430156 
L 342.375699 243.430156 
L 347.796965 243.430156 
" style="fill:none;stroke:#d62839;stroke-linecap:square;"/>
   </g>
   <g id="line2d_36">
    <path clip-path="url(#p35ec553e0b)" style="fill:none;stroke:#457b9d;stroke-dasharray:9.6,2.4,1.5,2.4;stroke-dashoffset:0;stroke-opacity:0.9;stroke-width:1.5;"/>
   </g>
   <g id="patch_122">
    <path d="M 31.010938 243.430156 
L 31.010938 11.136797 
" style="fill:none;stroke:#000000;stroke-linecap:square;stroke-linejoin:miter;stroke-width:0.8;"/>
   </g>
   <g id="patch_123">
    <path d="M 413.168817 243.430156 
L 413.168817 11.136797 
" style="fill:none;stroke:#000000;stroke-linecap:square;stroke-linejoin:miter;stroke-width:0.8;"/>
   </g>
   <g id="patch_124">
    <path d="M 31.010937 243.430156 
L 413.168817 243.430156 
" style="fill:none;stroke:#000000;stroke-linecap:square;stroke-linejoin:miter;stroke-width:0.8;"/>
   </g>
   <g id="patch_125">
    <path d="M 31.010937 11.136797 
L 413.168817 11.136797 
" style="fill:none;stroke:#000000;stroke-linecap:square;stroke-linejoin:miter;stroke-width:0.8;"/>
   </g>
  </g>
 </g>
 <defs>
  <clipPath id="p35ec553e0b">
   <rect height="232.293359" width="382.15788" x="31.010938" y="11.136797"/>
  </clipPath>
 </defs>
</svg>
